<svg version="1.2" xmlns="http://www.w3.org/2000/svg" viewBox="0 0 864 1296" width="864" height="1296"><style>.a{fill:#e92a2a}.b{fill:#d52626}.c{fill:#9a1a1c}.d{fill:#8d1819}</style><path class="a" d="m425.6 702.9c-0.7 5.2-2.7 14-5.1 24.1-3.5 15-7.9 33.5-10 50.1-1.2 9-2.2 19.6-3.1 30-7.7-37-17.4-74.4-4.3-111 8.2-3.3 15.7-7.7 20.7-15.4q0.6-0.8 1-1.7c0.7 4 2 14.1 0.8 23.9z"/><path class="a" d="m431.6 702.9c0.7 5.2 2.8 14 5.1 24.1 3.5 15 7.9 33.5 10 50.1 1.2 9 2.2 19.6 3.1 30 7.7-37 17.4-74.4 4.3-111-8.2-3.3-15.7-7.7-20.7-15.4q-0.5-0.8-1-1.7c-0.6 4-2 14.1-0.8 23.9z"/><path class="b" d="m408.8 792.1c-5.5-18.9-7.7-38.4-6.5-57.7q0.7 0.7 1.3 1.4c-1 17.7 0.9 35.4 5.6 52.7q-0.2 1.8-0.4 3.6z"/><path class="b" d="m448.4 792.1q-0.2-1.8-0.3-3.6c4.6-17.3 6.5-35 5.5-52.7q0.7-0.7 1.3-1.4c1.2 19.4-0.9 38.8-6.5 57.7z"/><path class="c" d="m412.5 763.9c0.2-1.5-0.1-12-4-20.5-1.3-2.9-3.1-5.5-4.9-7.6 0.8-14.8 3.7-29.7 8.5-44.1q0.3-0.2 0.7-0.4 2.7-1.6 5.1-3.8c-4 20.1-4.7 40.4-2.2 60.6-1.1 5.2-2.2 10.5-3.2 15.8zm4.1-19.8c-2-19.4-1-38.9 3-58.2q2.3-2.3 4.2-5.2 0.2-0.3 0.5-0.7 0.2-0.4 0.5-0.9c0.3 1.7 0.7 4.5 1 7.9 0.3 3.7 0.4 8 0.1 12.4q-0.1 1.8-0.3 3.5-0.2 0.9-0.3 2c-0.9 5.3-2.7 13.2-4.8 22.1q-0.7 2.7-1.3 5.5c-0.9 3.7-1.8 7.6-2.6 11.6zm-14.3-9.7c-2.7-2.9-5.1-4.7-5.5-5.1q0.2-3.9 0.6-7.9c0.9-8.1 2.6-16.3 5.3-24.1q0.2-0.6 0.4-1.2c2.5-1 5-2.1 7.3-3.4-4.5 13.7-7.2 27.7-8.1 41.7z"/><path class="d" d="m403.6 735.8q-0.6-0.7-1.3-1.4c0.9-14 3.6-28 8.1-41.7q0.9-0.4 1.7-1c-4.8 14.4-7.7 29.3-8.5 44.1z"/><path class="d" d="m415.7 748.1c-2.5-20.2-1.8-40.5 2.2-60.6q0.9-0.7 1.7-1.6c-4 19.3-5 38.8-3 58.2q-0.5 1.9-0.9 4z"/><path class="c" d="m444.7 764.1q-0.3-1.8-0.6-3.6-0.1-0.1-0.1-0.1c-0.7-4.1-1.6-8.3-2.5-12.3 2.5-20.2 1.8-40.5-2.2-60.6q2.7 2.4 5.8 4.3c4.9 14.4 7.7 29.2 8.5 44-1.8 2.1-3.6 4.7-4.9 7.6-4 8.8-4.1 19.7-4 20.7zm-4-20.1c-1.4-5.9-2.7-11.7-3.9-17-2.4-10.1-4.5-18.9-5.1-24.1-1.3-9.8 0.1-19.9 0.7-23.8q0.2 0.3 0.3 0.6 0.3 0.5 0.7 1 1.9 2.9 4.2 5.2c4 19.3 5.1 38.8 3.1 58.1zm14.2-9.6c-0.9-14-3.6-28-8.1-41.6 2.4 1.2 4.8 2.3 7.3 3.3q1.8 5.2 3.1 10.4 1.1 4.4 1.8 8.9 1.1 7 1.4 13.9c-0.5 0.5-2.9 2.3-5.5 5.1z"/><path class="d" d="m453.6 735.8c-0.8-14.8-3.6-29.6-8.5-44q0.9 0.5 1.7 1c4.5 13.6 7.2 27.6 8.1 41.6q-0.6 0.7-1.3 1.4z"/><path class="d" d="m441.5 748.1q-0.4-2.1-0.8-4.1c2-19.3 0.9-38.8-3.1-58.1q0.8 0.9 1.7 1.6c4 20.1 4.7 40.4 2.2 60.6z"/></svg>