<svg version="1.2" xmlns="http://www.w3.org/2000/svg" viewBox="0 0 864 1296" width="864" height="1296"><style>.a{fill:#e92a2a}.b{fill:#d52626}.c{fill:#9a1a1c}.d{fill:#8d1819}</style><path class="a" d="m500.2 530.2l-3.4 6.9-8.3 8.5-14.3 10.4-8 3.4-0.3-1.8 4.5-18.1 6.8-18.3 10-19.5 13.2-26.8-0.6 20.3z"/><path class="b" d="m474.1 555.3q0 0 0 0 1.2-0.7 2.4-1.4-0.4-0.7-0.7-1.5 1.1-1.9 2.2-3.7c9-15.3 18.2-31 20.7-48.7 0 2.4 0 4.8 0 7.2-3.7 15.1-11.7 28.8-19.6 42.2q-1.3 2.2-2.6 4.5-1.2 0.7-2.4 1.4z"/><path class="c" d="m466.7 558.3q0.1-0.1 0.2-0.2 0.5-0.9 0.8-2.4c1.9-10.8 5-20.2 9.2-30.3 4.6-11.2 10.4-21.5 15.9-32.2q0-0.2 0.1-0.3 0.1-0.2 0.2-0.4l0.1-0.1c-0.3 14.3-4.4 28.6-11.8 40.8-2.3 3.8-5 7.5-6 11.8-0.6 2.4-0.5 5.1 0.4 7.4q-0.9 1.4-1.7 2.9c-2.3 1.3-4.8 2.4-7.4 3z"/><path class="d" d="m474.1 555.3q0.8-1.5 1.7-2.9 0.3 0.8 0.7 1.5-1.2 0.7-2.4 1.4z"/><path class="a" d="m357.1 530.2l3.4 6.9 8.3 8.5 14.3 10.4 8 3.4 0.3-1.8-4.5-18.1-6.8-18.3-10-19.5-13.2-26.8 0.6 20.3z"/><path class="b" d="m383.2 555.3q0 0 0 0-1.2-0.7-2.4-1.4 0.4-0.7 0.7-1.5-1.1-1.9-2.2-3.7c-9-15.3-18.2-31-20.7-48.7 0 2.4 0 4.8 0 7.2 3.6 15.1 11.7 28.8 19.6 42.2q1.3 2.2 2.6 4.5 1.2 0.7 2.4 1.4z"/><path class="c" d="m390.5 558.3q0-0.1-0.1-0.2-0.5-0.9-0.8-2.4c-1.9-10.8-5-20.2-9.2-30.3-4.6-11.2-10.4-21.5-15.9-32.2q0-0.2-0.1-0.3-0.1-0.2-0.2-0.4l-0.1-0.1c0.3 14.3 4.4 28.6 11.8 40.8 2.3 3.8 5 7.5 6 11.8 0.6 2.4 0.5 5.1-0.4 7.4q0.9 1.4 1.7 2.9c2.3 1.3 4.8 2.4 7.3 3z"/><path class="d" d="m383.2 555.3q-0.8-1.5-1.7-2.9-0.3 0.8-0.7 1.5 1.2 0.7 2.4 1.4z"/></svg>