<svg version="1.2" xmlns="http://www.w3.org/2000/svg" viewBox="0 0 864 1296" width="864" height="1296"><style>.a{fill:#fff}</style><path class="a" d="m601.6 525.7v-17.5c0-17-12.8-35.5-14.5-38.1-0.2-3.2-1.6-28-4-39.7-2.3-11-6.4-21.6-7.2-23.8 0.6-1.8 3.4-10.2 5-20.4 1.8-11.8-6.2-40.7-11-52.8-3.1-8.1-9.8-11.2-15.1-13.6-2.9-1.4-5.4-2.5-6.8-4.2-3.6-4.2-7.2-5.3-10.3-6.3-0.9-0.3-1.7-0.5-2.5-0.9-1.2-0.4-2.2-1.4-3.9-2.9-2.7-2.5-6.9-6.3-15.9-11.5-5.1-3-12.8-6.5-20.9-10.2-12.2-5.6-26-11.9-29.2-15.9-1.3-1.6-3.2-7-4.9-12.7 1-2 3.7-7.3 3.9-8.2 1.1-3.6 1.2-8.5 1.1-11.5 0.6 0.2 1.4 0.4 2.3 0.3 2.9-0.4 5.7-5 9.1-11.1 0.9-1.7 1.8-3.3 2.5-4.2 2.9-4.2 2.3-13.1 0.1-19.9q-0.9-2.9-3.1-3.3c-2-0.4-4.2 1.1-5.7 2.6 0.3-8.4 0.2-31.9-9.5-43.5-8.3-10-24.9-12.5-31.3-13.1h-2.4c-6.3 0.6-23 3.1-31.3 13.1-9.7 11.6-9.8 35.1-9.5 43.5-1.5-1.5-3.7-3-5.7-2.6q-2.2 0.4-3.1 3.3c-2.2 6.8-2.8 15.7 0.1 19.9 0.7 0.9 1.6 2.5 2.5 4.2 3.4 6.1 6.2 10.7 9.1 11.1 0.9 0.1 1.7-0.1 2.3-0.3-0.1 3 0 7.9 1.1 11.5 0.2 0.9 2.9 6.1 3.9 8.1-1.7 5.7-3.6 11.2-5 12.8-3.2 4-17 10.3-29.1 15.9-8.1 3.7-15.8 7.2-21 10.2-8.9 5.2-13.1 9-15.9 11.5-1.6 1.5-2.7 2.5-3.9 2.9-0.8 0.4-1.6 0.6-2.4 0.9-3.2 1-6.7 2.1-10.3 6.3-1.4 1.7-3.9 2.8-6.8 4.2-5.4 2.4-12 5.5-15.2 13.6-4.8 12.1-12.8 41-10.9 52.8 1.6 10.2 4.3 18.6 5 20.4-0.9 2.2-4.9 12.8-7.2 23.8-2.4 11.7-3.8 36.5-4 39.7-1.8 2.6-14.5 21.1-14.5 38.1v17.5c-1.2 1.9-7.5 13.3-6.2 35.6 0.5 8.5 1.5 16.3 2.5 24.6 1.8 14.8 5.5 30.2 4.8 50-1.1 30.2-0.9 56.1 2.9 67.5 1.6 5 10.4 29.8 10.8 30.9 0 0 0.3 1.1 1.4 0.8 0.1 0 5.6-1.6 6.2-8.9l2.3 2.4c0.4 0.4 1.1 0.4 1.4-0.1l0.1-0.2c0.2-0.2 2.8-3.9 3.6-8.5 1.6-2.5 4.9-8.8 0.9-14.9-1.6-2.6-7.6-8.7-9-10.1-0.1-1.2-0.5-5.2-1.6-9.4-0.9-5.2-0.3-9.1 0.8-11.8q0.5-0.9 1.1-1.9c0.9-1.2 2-2 3-2.4 0.2-0.1 0.4-0.1 0.5 0 2.4 1.5 2.9 5.6 3.5 9.8 0.5 4 1.2 8 3.1 11.3 2.3 4.1 8.9 5.6 9.8-2.1 0.6-5.6 0.6-12.3 0.5-15.2l-0.1-2.9c-0.6-11.1-1.1-16.7-7-26.4-2.6-4.2-2.6-6.6-1-23 0.8-8 5.9-21.1 11.2-35 5.9-15.8 12.1-32.1 12.5-41.6 0.6-14.7-1.3-22-2-24.1 1.2-1.5 4.7-6.1 5.6-12.1 1.1-6.9 0.8-18.9 0.8-19.2 0-0.2 3.6-20.9 9.6-30.4 4.4-7 10.4-19.5 13.3-26.9 1.6 7.4 3 13.3 4 16.1 1.4 4.5 3.3 9.4 5.1 14.2 2.6 6.8 5.1 13.2 5.7 16.5 0.6 3.3 0.8 20 0.5 49.6 0 1.5 0 2.6 0 2.9-0.1 0.5-1.3 2.8-2.4 4.7-3.8 6.7-10.1 17.8-8.9 27.2 1.3 10.5 2.9 14.8 3.4 16.2-1.1 3.7-9.9 32.4-8.6 53.1 0.5 7.2-2.3 18.5-5.9 32.7-4.6 18.4-10.4 41.2-12.3 67.6-2.9 39 5.3 103.2 8.4 127.3 0.6 5.2 1.1 8.6 1.1 9.6 0.2 2.6-0.1 4.3-0.3 6.3-0.4 2.8-0.8 6-0.4 11.9q0.2 2 0.9 4.7c-2.2 5.6-4.2 11.2-5.9 16.4-14.4 32.5-8 67-1.8 100.4 1.4 7.2 2.7 14.7 3.9 22l0.2 1.7c1.5 13.2 3 26.8-0.3 39.3-1.7 6.3-3.4 10-4.7 12.3q0 0 0 0-0.2 0.2-0.2 0.3-0.5 0.8-0.8 1.4-0.4 0.6-0.6 1c-1.3 2.3-1.3 5.1-0.8 7.7-0.3 1-3.2 8.2-10.5 12.3-6.8 3.9-12.9 6.5-15.1 7.6-5.1-0.9-11.1 0.7-12.3 2-1 1-1.9 2.5-1.9 6.3 0 3.7 4.4 5.4 6.4 6 0 1.3 0.3 3.7 2.1 6.5 2.6 4 18.6 9.1 25.4 11.1 2.3 0.7 6.8 3.7 10.7 6.4 3.7 2.6 7.2 5 9.4 5.8 2.2 0.8 6.8 1.6 12.2 1.6 6.6 0 14.5-1.2 20.6-5 11.4-7.1 3.5-36.8 3.2-38.1-0.4-1.4-0.9-3.1-1.3-4.8-1.4-5.4-3.1-11.4-4.7-16.4 0.1-1.8 1-3.8 2.1-5.8 1.1-2.3 2.3-4.6 2.3-7.1l-0.1-0.2c-10.3-37.3 5-72.3 19.9-106.1l1.9-4.4c0.7-2.8 1.7-5.8 2.6-8.6 1.9-5.8 3.9-11.8 3.9-17.9-0.9-8.3-3.3-16.4-5.8-25-1.6-5.1-3.6-12.6-5.4-19.4 8.8-13.5 16.6-30.6 18.5-40.8 1.4-7.6 2.6-21.9 4-38.6 1.2-14.7 2.6-31.3 4.3-44.7 2.1-16.4 6.5-34.9 10-49.8 2.4-10.2 4.4-19 5.1-24.3 1.5-11.8-0.7-25.6-1.2-28.4 1.4-4.2 2-9 2.1-13.9 0.1 4.9 0.7 9.7 2.1 13.9-0.5 2.8-2.7 16.6-1.2 28.4 0.7 5.3 2.7 14.1 5.1 24.3 3.5 14.9 7.9 33.4 10 49.8 1.7 13.4 3.1 30 4.3 44.7 1.4 16.7 2.6 31 4 38.6 1.9 10.2 9.6 27.3 18.5 40.7-1.9 7.2-4 14.9-5.4 19.5-2.5 8.6-4.9 16.7-5.9 25 0 6.1 2 12.1 4 17.9 0.9 2.8 1.9 5.7 2.6 8.6l1.9 4.4c14.8 33.8 30.2 68.8 19.9 106l-0.1 0.3c0 2.5 1.2 4.8 2.3 7.1 1 2 2 4 2.1 5.8-1.7 5-3.3 11-4.7 16.4-0.5 1.7-0.9 3.4-1.3 4.8-0.3 1.3-8.2 31 3.2 38.1 6.1 3.8 13.9 5 20.6 5 5.4 0 10-0.8 12.2-1.6 2.2-0.8 5.7-3.2 9.4-5.8 3.9-2.7 8.4-5.7 10.7-6.4 6.7-2 22.8-7.1 25.3-11.1 1.8-2.8 2.2-5.2 2.2-6.5 1.9-0.6 6.4-2.3 6.4-6 0-3.8-1-5.3-1.9-6.3-1.2-1.3-7.2-2.9-12.3-2-2.2-1.1-8.3-3.7-15.1-7.6-7.3-4.1-10.2-11.3-10.6-12.3 0.6-2.6 0.6-5.4-0.7-7.7q-0.3-0.4-0.6-1-0.4-0.6-0.8-1.4 0-0.1-0.2-0.3 0 0 0 0c-1.3-2.3-3.1-6-4.7-12.3-3.3-12.5-1.8-26.1-0.3-39.3l0.2-1.7c1.1-7.3 2.5-14.8 3.9-22 6.2-33.4 12.6-67.9-1.8-100.4-1.8-5.2-3.7-10.8-5.9-16.4q0.7-2.7 0.9-4.7c0.4-5.9 0-9.1-0.4-11.9-0.2-2-0.5-3.7-0.3-6.3 0-1 0.5-4.4 1.1-9.6 3.1-24.1 11.3-88.3 8.4-127.3-1.9-26.4-7.7-49.2-12.3-67.6-3.6-14.2-6.4-25.5-5.9-32.7 1.3-20.7-7.5-49.4-8.6-53.1 0.5-1.4 2.1-5.7 3.4-16.2 1.2-9.4-5.1-20.5-8.9-27.2-1.1-1.9-2.3-4.2-2.4-4.7 0-0.3 0-1.4 0-2.9-0.3-29.6-0.1-46.3 0.5-49.6 0.6-3.3 3.1-9.7 5.7-16.5 1.8-4.8 3.7-9.7 5.1-14.2 1-2.7 2.4-8.7 4-16 2.9 7.4 8.9 19.8 13.3 26.8 5.9 9.5 9.6 30.2 9.6 30.4 0 0.3-0.4 12.3 0.7 19.2 1 6 4.4 10.6 5.7 12.1-0.7 2.1-2.7 9.4-2.1 24.1 0.4 9.5 6.6 25.8 12.6 41.6 5.2 13.9 10.4 27 11.2 35 1.6 16.4 1.6 18.8-1 23-6 9.7-6.4 15.3-7 26.4l-0.2 2.9c0 2.9 0 9.6 0.6 15.2 0.9 7.7 7.5 6.2 9.8 2.1 1.8-3.3 2.5-7.3 3.1-11.3 0.6-4.2 1.1-8.3 3.4-9.8 0.2-0.1 0.3-0.1 0.6 0 1 0.4 2.1 1.2 3 2.4q0.5 1 1 1.9c1.2 2.7 1.7 6.6 0.8 11.8-1.1 4.2-1.4 8.2-1.5 9.4-1.4 1.4-7.4 7.5-9 10.1-4 6.1-0.7 12.4 0.9 14.9 0.8 4.6 3.4 8.3 3.5 8.5l0.1 0.2c0.4 0.5 1.1 0.5 1.5 0.1l2.3-2.4c0.5 7.3 6.1 8.9 6.1 8.9 1.1 0.3 1.5-0.8 1.5-0.8 0.4-1.1 9.1-25.9 10.8-30.9 3.7-11.4 4-37.3 2.9-67.5-0.7-19.8 3-35.2 4.8-50 1-8.3 1.9-16.1 2.4-24.6 1.4-22.3-4.9-33.7-6.1-35.6z"/></svg>