<svg version="1.2" xmlns="http://www.w3.org/2000/svg" viewBox="0 0 864 1296" width="864" height="1296"><style>.a{fill:#e92a2a}.b{fill:#d52626}.c{fill:#9a1a1c}.d{fill:#8d1819}</style><path class="a" d="m459.2 765.6c14.1 37.1-4.3 79 4.3 117.4 2.6 5.3 5.5 10.7 8.6 15.6 2-7.5 3.6-13.5 3.6-13.5l0.1-0.4c7.7-23.7 21.8-43.7 19.3-67v-0.1c-3.6-11.1-6.6-22.4-8.8-34-3.2-16.9-5.6-34-6.7-51.3-0.6-8.5-1.4-18.5 0.5-27.3-6.2-2.1-12.4-4.4-18.7-6.3q-2.9-0.9-5.7-2c7.9 22.8 7.1 45.8 3.5 68.9z"/><path class="b" d="m468.3 892.2q-0.7-1.2-1.3-2.4 0 0 0 0 0.6 1.2 1.3 2.3 0 0 0 0.1zm1.2-16.5q-0.6-0.6-1.2-1.2c1.6-8.6 4.2-17.1 6.9-25.3 9.3-27.9 11.9-55.3 7.9-83.6v-0.2l0.1-0.1q1.3 9.2 3.1 18.3 0 0.4 0.1 0.7c0.8 14.8-0.3 28.8-3.1 42.5-1.6 7.7-4.2 15.6-6.7 23.2-2.7 8.4-5.5 17.1-7.1 25.7z"/><path class="b" d="m466.1 888.1q-0.3-0.6-0.6-1.2-0.7-1.3-1.4-2.7 0 0 0 0 0.9 1.9 2 3.9 0 0 0 0zm-1.9-20.8q-0.7-1.9-1.2-3.8 0.3-7.4 1.6-14.8c1.1-5.7 2.7-11.3 4.2-16.8 1.1-4.3 2.4-8.8 3.4-13.2 3.2-14.2 2.2-29.1 1.3-42.4-1.1-16.5-2.4-33.3-3.6-49.7q0.7 0.2 1.4 0.5c1.3 17.5 2.6 35.4 3.8 53.1 0.9 13.7 0.6 24.8-0.9 35.2-1 6.3-2.8 12.6-4.5 18.7-1.4 4.9-2.8 9.9-3.8 14.9q-1.6 9.2-1.7 18.3z"/><path class="b" d="m471 896.8q-0.6-1-1.2-2 0-0.1 0-0.1 0.6 1 1.2 2 0 0 0 0.1zm2.9-18.5q-0.6-0.2-1.1-0.4c2.1-7.7 5.1-15.3 8-22.7 6.2-15.6 12.6-31.8 10.8-48.9q0.8 2.7 1.6 5.4c0.1 15.2-5.6 29.6-11.1 43.6-3 7.5-6 15.2-8.2 23z"/><path class="c" d="m479.8 736.4c-2.1-4-5-7.7-8.5-9.3q-0.2-2.1-0.3-4.3-0.8-10.7-1.6-21.5 3.1 1.1 6.2 2.2 2.2 0.7 4.5 1.5c-1.9 8.8-1.1 18.8-0.5 27.3q0.1 2.1 0.2 4.1zm-18.1-7.6c-0.3-5.4-0.9-10.9-1.9-16.4-0.9-5.2-2.3-10.4-4.1-15.7q2.9 1.1 5.7 2 3.4 1 6.6 2.1 0.8 11.1 1.7 22.1 0.1 1.9 0.2 3.7-1-0.3-2.2-0.3-1.8 0-3.8 0.9c-0.8 0.4-1.6 1-2.2 1.6z"/><path class="d" d="m471.3 727.1q-0.7-0.3-1.4-0.5-0.1-1.8-0.2-3.7c-0.6-7.3-1.1-14.7-1.7-22 0.5 0.1 1 0.3 1.4 0.4q0.8 10.8 1.6 21.5 0.1 2.2 0.3 4.3z"/><path class="c" d="m472.2 898.5q-0.6-0.9-1.2-1.8c0.2-6.2 1.3-12.4 2.9-18.4q0.1 0 0.1 0 0.6 0.1 1.2 0.1c1.1 0 2.1-0.2 3.1-0.8q-1.3 3.5-2.5 7.1l-0.1 0.4c0 0-1.6 5.9-3.5 13.4zm-2.4-3.8q-0.7-1.3-1.5-2.6c-0.3-5.4 0.2-10.9 1.2-16.4 1 1 2.1 1.7 3.3 2.2-1.6 5.5-2.7 11.1-3 16.8zm-2.8-4.9q-0.5-0.9-0.9-1.7-1.9-10.3-1.9-20.8 1.1 2.7 2.6 5.1 0.7 1.1 1.5 2.1c-0.9 5.1-1.4 10.2-1.3 15.3zm-2.9-5.6q-0.1-0.3-0.3-0.5-0.1-0.3-0.3-0.6c-2.3-10.5-2.6-21.2-2.2-32 0.1 0.5 0 1.1 0.1 1.6 0.2 3.7 0.7 7.3 1.6 10.8q-0.4 10.4 1.1 20.7z"/><path class="d" d="m468.3 892.1q-0.7-1.1-1.3-2.3c-0.1-5.1 0.4-10.2 1.3-15.3q0.6 0.6 1.2 1.2c-1 5.5-1.5 11-1.2 16.4z"/><path class="d" d="m466.1 888.1q-1.1-2-2-3.9-1.5-10.3-1.1-20.7 0.5 1.9 1.2 3.8 0 10.5 1.9 20.8z"/><path class="d" d="m471 896.7q-0.6-1-1.2-2c0.3-5.7 1.4-11.3 3-16.8q0.5 0.2 1.1 0.4c-1.6 6-2.7 12.2-2.9 18.4z"/><path class="a" d="m398 765.6c-14.1 37.1 4.3 79-4.2 117.4-2.6 5.3-5.6 10.7-8.7 15.6-1.9-7.5-3.5-13.5-3.5-13.5l-0.1-0.4c-7.8-23.7-21.8-43.7-19.3-67v-0.1c3.6-11.1 6.6-22.4 8.8-34 3.2-16.9 5.6-34 6.7-51.3 0.6-8.5 1.4-18.5-0.5-27.3 6.2-2.1 12.4-4.4 18.6-6.3q2.9-0.9 5.8-2c-7.9 22.8-7.1 45.8-3.6 68.9z"/><path class="b" d="m389 892.2q0-0.1 0-0.1 0.6-1.1 1.3-2.3 0 0 0 0-0.7 1.2-1.3 2.4zm-1.2-16.5c-1.6-8.6-4.4-17.3-7.2-25.7-2.5-7.6-5-15.5-6.6-23.2-2.9-13.7-3.9-27.7-3.1-42.5q0-0.3 0.1-0.7 1.7-9.1 3.1-18.3l0.1 0.1v0.2c-4 28.3-1.5 55.7 7.8 83.6 2.8 8.2 5.4 16.7 6.9 25.3q-0.5 0.6-1.1 1.2z"/><path class="b" d="m391.2 888.1q0 0 0 0 1-2 2-3.9 0 0 0 0-0.7 1.4-1.4 2.7-0.3 0.6-0.6 1.2zm1.8-20.8q0-9.1-1.6-18.3c-1-5-2.4-10-3.8-14.9-1.8-6.1-3.5-12.4-4.5-18.7-1.5-10.4-1.8-21.5-0.9-35.2 1.2-17.7 2.5-35.6 3.8-53.1q0.6-0.3 1.3-0.5c-1.2 16.4-2.4 33.2-3.5 49.7-0.9 13.3-1.9 28.2 1.3 42.4 1 4.4 2.2 8.9 3.4 13.2 1.5 5.5 3.1 11.1 4.2 16.8q1.3 7.4 1.6 14.8-0.6 1.9-1.3 3.8z"/><path class="b" d="m386.2 896.8q0-0.1 0-0.1 0.6-1 1.2-2 0 0 0 0.1-0.6 1-1.2 2zm-2.9-18.5c-2.1-7.8-5.1-15.5-8.1-23-5.5-14-11.2-28.4-11.2-43.6q0.9-2.7 1.6-5.4c-1.7 17.1 4.7 33.3 10.9 48.9 2.9 7.4 5.9 15 8 22.7q-0.6 0.2-1.2 0.4z"/><path class="c" d="m377.4 736.4q0.2-2 0.3-4.1c0.6-8.5 1.4-18.5-0.5-27.3q2.2-0.8 4.4-1.5 3.1-1.1 6.3-2.2-0.8 10.8-1.6 21.5-0.2 2.2-0.3 4.3c-3.5 1.6-6.5 5.3-8.6 9.3zm18.2-7.6c-0.7-0.6-1.4-1.2-2.2-1.6q-2-0.9-3.9-0.9-1.1 0-2.2 0.3 0.2-1.8 0.3-3.7 0.8-11 1.6-22.1 3.3-1.1 6.6-2.1 2.9-0.9 5.7-2c-1.8 5.3-3.1 10.5-4.1 15.7-1 5.5-1.6 11-1.8 16.4z"/><path class="d" d="m386 727.1q0.6-0.3 1.3-0.5 0.2-1.8 0.3-3.7c0.5-7.3 1.1-14.7 1.6-22-0.4 0.1-0.9 0.3-1.3 0.4q-0.8 10.8-1.6 21.5-0.2 2.2-0.3 4.3z"/><path class="c" d="m385.1 898.5c-1.9-7.5-3.5-13.4-3.5-13.4l-0.1-0.4q-1.2-3.6-2.5-7.1c0.9 0.6 2 0.8 3 0.8q0.7 0 1.3-0.1 0 0 0 0c1.7 6 2.8 12.2 2.9 18.4q-0.5 0.9-1.1 1.8zm2.3-3.8c-0.3-5.7-1.4-11.3-2.9-16.8 1.2-0.5 2.3-1.2 3.3-2.2 1 5.5 1.5 11 1.2 16.4q-0.8 1.3-1.6 2.6zm2.9-4.9c0.1-5.1-0.4-10.2-1.4-15.3q0.9-1 1.6-2.1 1.5-2.4 2.5-5.1 0.1 10.5-1.8 20.8-0.5 0.8-0.9 1.7zm2.9-5.6q1.5-10.3 1.1-20.7c0.9-3.5 1.4-7.1 1.6-10.8 0-0.5 0-1.1 0-1.6 0.5 10.8 0.2 21.5-2.2 32q-0.1 0.3-0.3 0.6-0.1 0.2-0.2 0.5z"/><path class="d" d="m389 892.1q0.6-1.1 1.3-2.3c0.1-5.1-0.4-10.2-1.4-15.3q-0.5 0.6-1.1 1.2c1 5.5 1.5 11 1.2 16.4z"/><path class="d" d="m391.2 888.1q1-2 2-3.9 1.5-10.3 1.1-20.7-0.6 1.9-1.3 3.8 0.1 10.5-1.8 20.8z"/><path class="d" d="m386.2 896.7q0.6-1 1.2-2c-0.3-5.7-1.4-11.3-2.9-16.8q-0.6 0.2-1.2 0.4c1.7 6 2.8 12.2 2.9 18.4z"/></svg>