<svg version="1.2" xmlns="http://www.w3.org/2000/svg" viewBox="0 0 864 1296" width="864" height="1296"><style>.a{fill:#e92a2a}.b{fill:#d52626}</style><path class="a" d="m293.2 546.5c-6.8 15.5-10.7 32.7-11.6 49.8-2.4 8.9-6.4 19.8-8 28.7-0.8 4.1-1.3 8.4-2.1 12.5-1.4 6.7-9.4 11-10.4 0.8-2.1-22.9-0.5-49.6 1.1-72.3q2.6-8.2 6.5-16.2c5.6-11.4 11.2-22.1 15-33.7 0.3 10.9 3.4 21.2 9.5 30.4z"/><path class="b" d="m266.4 644.2c-4.5-33.1-3-66.3 4.4-98.7q1.4-2.7 2.7-5.4c-8.5 34-10.5 68.7-5.9 103.4q-0.1 0.1-0.3 0.2-0.5 0.3-0.9 0.5z"/><path class="b" d="m271 639.1c-2.9-36.2-0.6-72.6 6.9-108.3q0.8-1.7 1.5-3.4 0.7-1.5 1.3-3c-8.3 36.2-11.2 73.2-8.7 110.3q-0.3 1.4-0.5 2.8-0.2 0.9-0.5 1.6z"/><path class="b" d="m275.7 616.3c1.4-28.4 5-56.7 10.6-84.4q0.4 1.3 0.9 2.6c-5 24.9-8.3 50.5-9.9 76q-0.8 2.9-1.6 5.8z"/><path class="a" d="m563.9 546.5c6.8 15.5 10.8 32.7 11.7 49.8 2.4 8.9 6.3 19.8 8 28.7 0.8 4.1 1.3 8.4 2.1 12.5 1.4 6.7 9.4 11 10.4 0.8 2.1-22.9 0.5-49.6-1.1-72.3q-2.6-8.2-6.6-16.2c-5.5-11.4-11.2-22.1-15-33.7-0.2 10.9-3.4 21.2-9.5 30.4z"/><path class="b" d="m590.8 644.2c4.5-33.1 2.9-66.3-4.5-98.7q-1.3-2.7-2.6-5.4c8.5 34 10.5 68.7 5.9 103.4q0.1 0.1 0.3 0.2 0.4 0.3 0.9 0.5z"/><path class="b" d="m586.2 639.1c2.9-36.2 0.6-72.6-6.9-108.3q-0.8-1.7-1.6-3.4-0.6-1.5-1.2-3c8.3 36.2 11.2 73.2 8.7 110.3q0.2 1.4 0.5 2.8 0.2 0.9 0.5 1.6z"/><path class="b" d="m581.5 616.3c-1.5-28.4-5-56.7-10.6-84.4q-0.4 1.3-0.9 2.6c5 24.9 8.3 50.5 9.8 76q0.9 2.9 1.7 5.8z"/></svg>