<svg version="1.2" xmlns="http://www.w3.org/2000/svg" viewBox="0 0 864 1296" width="864" height="1296"><style>.a{fill:#e92a2a}.b{fill:#d52626}</style><path class="a" d="m285.8 503.2c-3.7 18.7-12.9 34.5-20.9 51.6-5.9 12.6-8.4 28.3-9.4 42-0.4-3.1-1.1-8.1-1.4-11.1-1-8.3-2-16.1-2.5-24.5-1.3-21.8 5.1-33 5.9-34.4l0.1-0.2c7.8-10.4 20.1-18 23.4-30.8q0.9 2.2 1.9 4.3c0.8 1.7 1.8 2.6 2.9 3.1z"/><path class="b" d="m253.4 580.2q-0.3-2.4-0.5-4.9c2.6-13.6 9.4-26.1 15.9-38.2 6-11.1 12.3-22.7 15.4-35.1q0.2 0.3 0.5 0.6 0.3 0.2 0.6 0.4c-3.2 12.2-9.3 23.6-15.2 34.6-7.3 13.4-14.8 27.3-16.7 42.6z"/><path class="b" d="m251.6 560.1q-0.2-3.9-0.1-7.4c2.6-9.4 8.8-17.8 14.8-26.1 6.6-8.9 13.3-18.1 15.7-28.6q0.4 1 0.9 1.9c-2.7 9.9-9.2 18.7-15.4 27.2-7.9 10.7-15.3 20.9-15.9 33z"/><path class="a" d="m571.4 503.2c3.6 18.7 12.9 34.5 20.9 51.6 5.9 12.6 8.4 28.3 9.4 42 0.4-3.1 1-8.1 1.4-11.1 1-8.3 2-16.1 2.5-24.5 1.3-21.8-5.1-33-5.9-34.4l-0.1-0.2c-7.8-10.4-20.1-18-23.4-30.8q-1 2.2-1.9 4.3c-0.8 1.7-1.8 2.6-2.9 3.1z"/><path class="b" d="m603.8 580.2q0.3-2.4 0.5-4.9c-2.7-13.6-9.4-26.1-15.9-38.2-6.1-11.1-12.3-22.7-15.4-35.1q-0.2 0.3-0.5 0.6-0.3 0.2-0.6 0.4c3.1 12.2 9.3 23.6 15.2 34.6 7.3 13.4 14.8 27.3 16.7 42.6z"/><path class="b" d="m605.6 560.1q0.2-3.9 0.1-7.4c-2.6-9.4-8.8-17.8-14.8-26.1-6.6-8.9-13.3-18.1-15.7-28.6q-0.4 1-0.9 1.9c2.7 9.9 9.2 18.7 15.4 27.2 7.9 10.7 15.3 20.9 15.9 33z"/></svg>