<svg version="1.2" xmlns="http://www.w3.org/2000/svg" viewBox="0 0 864 1296" width="864" height="1296"><style>.a{fill:#e92a2a}.b{fill:#d52626}</style><path class="a" d="m585.4 469.8c0 0 18.3 19.6 15.2 56.3-2.7-3-13.4-13.5-16.7-17.4-3.3-4-6.5-11.6-7.3-14.4 1.3-3.2 8.5-21 8.8-24.5z"/><path class="b" d="m599.4 517.9v-2.2c-2.5-3.4-5.4-6.4-8.3-9.4-4.8-5-9.8-10.1-12.5-16.5q-0.3 0.9-0.6 1.7c2.8 5.9 7.5 10.8 12 15.5 3.3 3.4 6.7 7 9.4 10.9z"/><path class="b" d="m599.4 511c-2.3-5-6-9.5-9.5-13.8-3.3-4.1-6.7-8.3-9.2-13q0.3-0.8 0.6-1.7c2.5 5.1 6.2 9.7 9.7 14.1 3 3.7 6.1 7.5 8.4 11.6q0 0 0 0.1z"/><path class="b" d="m596.9 494.3q-0.6-1.8-1.2-3.5c-1.5-1.6-3-3.2-4.5-4.7-2.8-2.9-5.7-5.8-8-9.1q-0.2 0.8-0.5 1.6c2.1 2.9 4.8 5.5 7.3 8.1 2.4 2.4 4.9 4.9 6.9 7.6z"/><path class="a" d="m272 470.8c0 0-18.2 19.7-15.1 56.4 2.6-3.1 13.4-13.6 16.7-17.5 3.3-4 6.5-11.6 7.2-14.4-1.2-3.2-8.4-21-8.8-24.5z"/><path class="b" d="m258.1 518.9v-2.2c2.4-3.3 5.4-6.4 8.3-9.4 4.8-4.9 9.8-10.1 12.4-16.5q0.4 0.9 0.7 1.7c-2.8 5.9-7.5 10.8-12 15.5-3.3 3.4-6.8 7-9.4 10.9z"/><path class="b" d="m258.1 512v-2.7q0 0 0-0.1c2.3-4.1 5.4-7.9 8.3-11.6 3.6-4.4 7.3-9 9.7-14.1q0.3 0.9 0.6 1.7c-2.4 4.7-5.8 8.9-9.1 13-3.5 4.4-7.2 8.8-9.5 13.8z"/><path class="b" d="m260.6 495.3q0.5-1.7 1.2-3.5c1.5-1.6 3-3.2 4.5-4.7 2.8-2.9 5.7-5.8 8-9.1q0.2 0.8 0.5 1.6c-2.2 2.9-4.8 5.5-7.3 8.1-2.4 2.5-4.9 5-6.9 7.6z"/></svg>