<svg version="1.2" xmlns="http://www.w3.org/2000/svg" viewBox="0 0 864 1296" width="864" height="1296"><style>.a{fill:#e92a2a}.b{fill:#d52626}.c{fill:#9a1a1c}.d{fill:#8d1819}</style><path class="a" d="m309.9 519.8c-24.3 30.5-33.2 77.1-23.2 114.9 0.8-4.2 1.7-13.3 4.3-23 2.5-9.6 6.8-19.8 9.4-26.7 6-15.8 11.9-31.5 12.3-41 0.6-14.7-0.9-20.1-1.7-22.2 0 0-1.1-2-1.1-2z"/><path class="b" d="m286.8 629.2q0 0 0 0 0.2-3.6 0.8-8.1 0 0 0 0-0.6 4.5-0.8 8.1zm-1.5-29.2c0.1-8.3 0.8-16.6 2.8-24.6 3.9-15.5 11.6-28.3 19.7-41.9q0 0 0-0.1c0.3 0.4 0.6 0.8 0.9 1.2-8.1 13.6-16.4 27.7-19.6 42.8-1.4 6.4-2.1 12.7-2.3 18.9q-0.8 1.9-1.5 3.7z"/><path class="b" d="m289.7 611q0 0 0 0 0.6-2.1 1.4-4.4 0 0 0 0-0.8 2.3-1.4 4.4zm4.3-28.1c4.5-15.2 11.7-29.8 17.4-41.1v0.1q0 1 0 2-0.1 0.6-0.1 1.2c-5.3 10.5-10.5 21.7-14.4 33q-1.4 2.3-2.8 4.6-0.1 0.1-0.1 0.2z"/><path class="c" d="m286.7 634.6c-2.2-8.4-3.4-17.3-3.8-26.3 0.6-2.8 1.4-5.6 2.4-8.3 0 9 0.7 18 1.3 26.9q0.1 1.2 0.2 2.3c-0.1 1.3-0.1 2.4-0.1 3.6 0 0.6 0 1.3 0 1.8zm0.9-13.5c-0.6-8.4-1.1-16.5-0.8-24.8 2-4.6 4.6-9.1 7.2-13.4-2.8 9.3-4.5 18.8-4.3 28.1-1 3.5-1.7 6.7-2 9.3q-0.1 0.4-0.1 0.8zm3.5-14.5c0.4-9.4 2.6-19 5.8-28.5 5.4-8.6 10.7-17.3 13.4-27-2.1 9.2-6.8 21.7-11.3 33.8-3 7.7-5.8 15.2-7.9 21.7z"/><path class="d" d="m289.7 611c-0.2-9.3 1.5-18.8 4.3-28.1q0 0 0 0 1.4-2.4 2.9-4.8c-3.2 9.5-5.4 19.1-5.8 28.5q-0.8 2.3-1.4 4.4z"/><path class="d" d="m286.8 628.1c-0.8-8.7-1.6-21.5-1.5-28 0.6-1.6 0.9-2.2 1.5-3.7-0.3 8.5 0.3 18.7 0.7 24.5 0.1 1.6-0.7 5.8-0.7 7.2z"/><path class="d" d="m308.7 534.6c0.4-0.8 1.4-2.4 2.5-4.3-0.1-1.1-0.1-1.3-0.2-2.2q-1.4 2.4-3.2 5.3z"/><path class="c" d="m311.4 541.8c-0.4-2.1-2.3-6.5-2.7-7.2 0.6-1 1.9-3.3 2.5-4.3 0.2 3.1 0.4 6.9 0.2 11.5q0 0 0 0zm-3.6-8.4c-1.1-1.6-2.4-3.1-3.9-4.4q2.1-3.3 4.4-6.4 0.7-0.8 1.3-1.6 0.1 0.2 0.1 0.6c0.4 1.3 0.9 3.4 1.3 6.5-1.1 1.8-2.1 3.6-3.2 5.3z"/><path class="a" d="m546.8 519.9c24.2 30.4 33.3 76.6 23.3 114.4-0.2 0.9-1.1-6-2-13.7-1-8-6.1-21.9-11.3-35.8-6-15.8-12.2-31.7-12.6-41.2-0.6-14.7 2.5-23.7 2.6-23.7z"/><path class="b" d="m570.1 628.8q-0.2-3.6-0.8-8.1 0 0 0 0 0.6 4.5 0.8 8.1 0 0 0 0zm1.5-29.2q-0.7-1.8-1.5-3.6c-0.2-6.3-0.9-12.6-2.3-19-3.2-15.1-11.5-29.2-19.6-42.8 0.3-0.4 0.6-0.8 0.9-1.2q0 0.1 0 0.1c8.1 13.6 15.8 26.4 19.7 41.9 2 8 2.7 16.3 2.8 24.6z"/><path class="b" d="m567.2 610.6q-0.7-2.1-1.4-4.3 0-0.1 0-0.1 0.7 2.3 1.4 4.4 0 0 0 0zm-4.3-28.1q-0.1-0.1-0.1-0.2-1.4-2.3-2.8-4.6c-3.9-11.3-9.2-22.5-14.4-33q-0.1-0.6-0.1-1.2 0-1-0.1-2l0.1-0.1c5.7 11.3 12.9 25.9 17.4 41.1z"/><path class="c" d="m570.2 634.2c0-0.5 0-1.2 0-1.8 0-1.2-0.1-2.2-0.1-3.6q0.1-1.1 0.1-2.3c0.7-8.9 1.4-17.9 1.4-26.9 1 2.7 1.8 5.5 2.4 8.3-0.4 9-1.6 17.9-3.8 26.3zm-0.9-13.5q0-0.4-0.1-0.8c-0.3-2.6-1-5.8-2-9.3 0.2-9.3-1.5-18.8-4.3-28.1 2.6 4.4 5.1 8.8 7.2 13.5 0.3 8.2-0.2 16.3-0.8 24.7zm-3.5-14.5c-2.1-6.5-4.9-14-7.9-21.7-4.5-12.1-9.2-24.6-11.3-33.8 2.7 9.7 8 18.4 13.4 27 3.2 9.5 5.4 19.2 5.8 28.5z"/><path class="d" d="m567.2 610.6c0.2-9.3-1.5-18.8-4.3-28.1q0 0 0 0-1.4-2.4-2.9-4.8c3.2 9.5 5.4 19.2 5.8 28.5q0.7 2.3 1.4 4.4z"/><path class="d" d="m570.1 627.7c0.8-8.7 1.5-21.4 1.5-28-0.6-1.5-0.9-2.2-1.5-3.7 0.3 8.5-0.3 18.7-0.7 24.5-0.2 1.6 0.7 5.8 0.7 7.2z"/><path class="d" d="m548.2 534.2c-0.4-0.8-1.4-2.4-2.5-4.2 0.1-1.1 0.1-1.4 0.2-2.3q1.4 2.4 3.2 5.3z"/><path class="c" d="m545.5 541.4q0 0-0.1 0c-0.1-4.6 0.1-8.4 0.3-11.4 0.6 1 1.9 3.2 2.5 4.2-0.4 0.7-2.3 5.1-2.7 7.2zm3.6-8.4c-1.1-1.7-2.1-3.5-3.2-5.3 0.4-3.1 0.9-5.2 1.2-6.5q0.1-0.4 0.2-0.6 0.6 0.8 1.3 1.6 2.3 3.1 4.4 6.4c-1.5 1.3-2.8 2.8-3.9 4.4z"/></svg>