<svg version="1.2" xmlns="http://www.w3.org/2000/svg" viewBox="0 0 864 1296" width="864" height="1296"><style>.a{fill:#e92a2a}.b{fill:#d52626}.c{fill:#9a1a1c}.d{fill:#8d1819}</style><path class="a" d="m361.3 913.9c-4.9 14.6-7.6 30.2-8.6 46.4-0.7 11.3-0.9 22.8-0.9 34.3-5.9 7.7-19 5.2-20.7-5.9l-0.1-0.2c-4.2-26.2-7.2-52.5-3.8-78.8l0.2-0.4c2.7-8.3 7.9-22.6 11.5-32.3v-0.3q2.6-5.8 5.1-11.7c11.8 13.8 17.8 30.8 17.3 48.9z"/><path class="a" d="m495.9 913.9c4.9 14.6 7.6 30.2 8.6 46.4 0.7 11.3 0.9 22.8 0.9 34.3 5.9 7.7 19 5.2 20.7-5.9l0.1-0.2c4.2-26.2 7.2-52.5 3.8-78.8l-0.2-0.4c-2.7-8.3-7.9-22.6-11.4-32.3l-0.1-0.3q-2.6-5.8-5.1-11.7c-11.8 13.8-17.8 30.8-17.3 48.9z"/><path class="b" d="m355.3 937.9c-0.5-19.9-5.6-39.3-14.9-56.3q0.5-0.4 1.1-0.7c8.5 15.6 13.6 33.2 14.8 51.4q-0.5 2.8-1 5.6zm-16.9-59.7q0 0 0 0 0.2-0.6 0.4-1.2 0.1-0.1 0.1-0.2v0.1q-0.2 0.6-0.5 1.3z"/><path class="b" d="m346.8 998.3c6.4-39.7 2-77-12.7-108.1q0.3-0.9 0.6-1.8c15.2 31.4 19.9 69.1 13.6 109.2q-0.7 0.4-1.4 0.6 0 0-0.1 0.1z"/><path class="b" d="m342.9 999c1.7-36.1-2.3-68.5-12.4-98.8q0.4-1 0.7-2.1c10.6 31 14.8 64 13 100.8q-0.6 0.1-1.3 0.1z"/><path class="b" d="m340 998.7q-0.8-0.2-1.5-0.5c-9.3-28.6-10.3-58.4-10.3-91.3q0.5-1.5 1-3.1 0.3 0.2 0.3 0.5c0 34.2 0.8 64.8 10.5 94.2z"/><path class="b" d="m501.9 937.9q-0.5-2.8-1-5.6c1.2-18.2 6.3-35.8 14.8-51.4q0.6 0.3 1.2 0.7c-9.3 17-14.5 36.4-15 56.3z"/><path class="b" d="m510.4 998.3q-0.8-0.3-1.5-0.7c-6.3-40.1-1.6-77.8 13.6-109.1q0.3 0.8 0.7 1.7c-14.8 31.1-19.2 68.4-12.8 108.1z"/><path class="b" d="m514.3 999q-0.6 0-1.3-0.1c-1.8-36.8 2.5-69.8 13-100.8q0.4 1.1 0.7 2.1c-10.1 30.3-14.1 62.7-12.4 98.8z"/><path class="b" d="m517.2 998.7l0.1-0.2c9.6-29.4 10.4-60 10.4-94.2q0-0.3 0.3-0.5 0.5 1.6 1 3.1c0 33-1 62.7-10.2 91.3q-0.8 0.3-1.6 0.5z"/><path class="c" d="m335.3 886.7c1.1-3 2.2-5.9 3.1-8.5q1 1.7 2 3.4c-1.9 1.3-3.5 2.9-4.8 4.7zm6.1-5.8q-1.1-2.1-2.3-4.1 0-0.1-0.1-0.2 0.9-2.2 1.9-4.4 0.5-1.2 1.1-2.5 1-2.3 1.9-4.7c4.1 4.8 7.5 10 10.2 15.4-1.9-0.9-3.9-1.3-5.9-1.3-1.5 0-3 0.2-4.4 0.7q-1.2 0.4-2.4 1.1z"/><path class="d" d="m340.4 881.6q-1-1.7-2-3.4 0.3-0.7 0.5-1.3v-0.1q0.1-0.1 0.1-0.2 0.1 0.1 0.2 0.2 1.2 2 2.3 4.1-0.6 0.3-1.1 0.7z"/><path class="c" d="m521.9 886.6l-0.2-0.3c-1.4-1.8-3-3.4-4.8-4.7q0.9-1.7 1.9-3.4c0.9 2.6 2 5.5 3.1 8.4zm-6.2-5.7q-1.1-0.7-2.3-1.1c-1.4-0.5-2.9-0.7-4.4-0.7-2 0-4 0.4-5.9 1.3 2.7-5.5 6.1-10.6 10.1-15.4q2.4 5.7 4.9 11.4 0.1 0.1 0.1 0.2-0.1 0.1-0.1 0.2-1.2 2-2.4 4.1z"/><path class="d" d="m516.9 881.6q-0.6-0.4-1.2-0.7 1.2-2.1 2.4-4.1 0-0.1 0.1-0.2 0.1 0.1 0.1 0.2l0.1 0.2q0.2 0.6 0.4 1.2-1 1.7-1.9 3.4z"/><path class="a" d="m462.3 946c0 5.6 2 11.4 3.8 17 1 2.9 2 5.9 2.7 8.6l1.8 4.2c4.7 10.7 9.4 21.4 13.4 32.3 5.5 7.6 16.7 5.8 20-2.1v-0.1q0.1-21.1-0.7-42.2c-0.5-17.1-3.2-33.6-8.5-49.1l-0.2-0.7c-4-11.5-9.4-22.4-16.4-32.6-1 2.7-1.9 5.2-2.6 7.7-0.6 11.6-4.3 21.8-7.5 32.5-2.5 8.5-4.9 16.5-5.8 24.5z"/><path class="b" d="m492 1012.9q-0.7-0.1-1.5-0.3c-2.7-7.4-6.1-14.8-9.4-22-2.1-4.7-4.3-9.5-6.3-14.2q-0.4-2.6-0.8-5.2c2.6 6.4 5.4 12.7 8.3 18.9 3.4 7.4 6.9 15.1 9.7 22.8zm-26.9-80.8q0 0 0 0 1.1-4.2 2.4-8.6 0 0 0 0-1.3 4.4-2.4 8.6z"/><path class="b" d="m496.9 1012.4c-8.6-17.5-18.4-37.4-23.8-58q0-2.7 0.2-5.4c5.1 22.7 16 44.8 24.9 62.9q-0.7 0.3-1.3 0.5z"/><path class="b" d="m503.3 961.8c-2.7-17.1-8.6-33.5-17.5-48.3q0.7-0.2 1.3-0.4c7 11.8 12.2 24.6 15.4 38q0.5 5.3 0.8 10.7zm-28.6-64.3q0-0.1 0-0.1 0.1-0.8 0.2-1.7 0 0 0 0-0.1 0.9-0.2 1.8z"/><path class="b" d="m500.5 1010.5c-8.8-24.6-18.1-52.9-24.3-82.9q0.4-1.5 0.8-2.8c6 30.3 15.2 58.5 24.6 84.8q-0.5 0.5-1.1 0.9zm1.3-1.1c-1.4-31.4-5-64-20.5-92.8q0.5-0.5 1.1-1c15.5 28.7 19.2 61 20.7 92.2q-0.6 0.8-1.3 1.6zm-29.2-102.8q0.6-2.4 1.2-4.8 0 0 0 0-0.6 2.4-1.2 4.8z"/><path class="c" d="m484.7 1009q-0.3-0.4-0.7-0.8c-4-10.9-8.7-21.7-13.4-32.4l-1.8-4.2c-0.6-2.5-1.5-5.2-2.4-7.8q-0.1-0.4-0.2-0.8-0.4-1.1-0.8-2.3c-1.6-4.9-3-9.9-3-14.7 0.5-4.6 1.5-9.2 2.7-13.9-0.9 15.5 3.7 30.1 9.7 44.3 1.8 11.2 5.1 22.2 9.9 32.6zm-10.7-37.8c-5.9-15.2-9.8-30.9-6.5-47.7q0.3-0.8 0.5-1.6 0.1-0.2 0.1-0.4 0.5-1.7 1-3.3c-0.8 12.1 0.9 24.3 4 36.2q-0.1 8.4 0.9 16.8zm-0.7-22.2c-2.9-12.6-4-25.4-2-37.8q0.6-2.2 1.2-4.5 0.1 0 0.1-0.1 1.5 10.6 3.6 21-0.2 1.1-0.5 2.2c-1.3 6.3-2.1 12.8-2.4 19.2zm3.7-24.2q-2-10.3-3.5-20.9 4.4 6.2 7.8 12.7c-2 2.3-3.3 5.1-4.3 8.2zm5.4-9.2q-3.8-7-8.6-13.8 0.5-2.1 0.9-4.3 6.1 7.6 11.1 16c-1.1 0.4-2.1 1-3 1.7q-0.2 0.2-0.4 0.4zm12.2-1.7c-1.4-0.7-3.1-1.1-4.7-1.1q-1.4 0-2.8 0.3-5.4-9.2-12.2-17.4 0.6-3.4 0.7-6.9 0.1-0.3 0.3-0.7c0.1-0.5 0.2-1.1 0.3-1.6 0.6-1.7 1.3-3.6 2-5.4 7 10.2 12.4 21.3 16.4 32.8z"/><path class="d" d="m474.8 976.4c-6-14.2-10.6-28.8-9.7-44.3q1.1-4.2 2.4-8.6c-3.3 16.8 0.6 32.5 6.5 47.7q0.4 2.6 0.8 5.2z"/><path class="d" d="m473.1 954.4c-3.1-11.9-4.8-24.1-4-36.2q1.1-3.5 2.2-7c-2 12.4-0.9 25.2 2 37.8q-0.2 2.7-0.2 5.4z"/><path class="d" d="m485.8 913.5q-5-8.4-11.1-16 0.1-0.9 0.2-1.8 6.8 8.2 12.2 17.4-0.6 0.2-1.3 0.4z"/><path class="d" d="m476.2 927.6q-2.1-10.4-3.6-21 0.6-2.4 1.2-4.8 4.8 6.8 8.6 13.8-0.6 0.5-1.1 1-3.4-6.5-7.8-12.7 1.5 10.6 3.5 20.9-0.4 1.3-0.8 2.8z"/><path class="a" d="m394.7 946c0 5.6-1.9 11.4-3.8 17-1 2.9-2 5.9-2.6 8.6l-1.9 4.2c-4.6 10.7-9.4 21.4-13.3 32.3-5.6 7.6-16.8 5.8-20.1-2.1v-0.1q0-21.1 0.7-42.2c0.6-17.1 3.2-33.6 8.5-49.1l0.3-0.7c3.9-11.5 9.3-22.4 16.3-32.6 1.1 2.7 2 5.2 2.6 7.7 0.6 11.6 4.4 21.8 7.5 32.5 2.5 8.5 4.9 16.5 5.8 24.5z"/><path class="b" d="m365 1012.9c2.8-7.7 6.3-15.4 9.7-22.8 2.9-6.2 5.8-12.5 8.3-18.9q-0.3 2.6-0.8 5.2c-2 4.7-4.1 9.5-6.3 14.2-3.2 7.2-6.6 14.6-9.4 22q-0.7 0.2-1.5 0.3zm26.9-80.8q-1.1-4.2-2.4-8.6 0 0 0 0 1.3 4.4 2.4 8.6 0 0 0 0z"/><path class="b" d="m360.1 1012.4c8.6-17.5 18.4-37.4 23.8-58q0-2.7-0.1-5.4c-5.2 22.7-16 44.8-24.9 62.9q0.6 0.3 1.2 0.5z"/><path class="b" d="m353.8 961.8q0.2-5.4 0.7-10.7c3.2-13.4 8.4-26.2 15.4-38q0.6 0.2 1.3 0.4c-8.8 14.8-14.7 31.2-17.4 48.3zm28.6-64.3q-0.2-0.9-0.3-1.8 0 0 0 0 0.1 0.9 0.3 1.7 0 0 0 0.1z"/><path class="b" d="m356.5 1010.5q-0.6-0.4-1.1-0.9c9.4-26.3 18.7-54.5 24.6-84.8q0.4 1.3 0.8 2.8c-6.1 30-15.5 58.3-24.3 82.9zm-1.3-1.1q-0.7-0.8-1.2-1.6c1.4-31.2 5.1-63.5 20.7-92.2q0.5 0.5 1 1c-15.5 28.8-19.1 61.4-20.5 92.8zm29.3-102.8q-0.7-2.4-1.2-4.8 0 0 0 0 0.5 2.4 1.2 4.8z"/><path class="c" d="m372.3 1009c4.8-10.4 8.1-21.4 9.9-32.6 6-14.2 10.6-28.8 9.7-44.3 1.3 4.7 2.3 9.3 2.8 13.9 0 4.8-1.5 9.8-3.1 14.7q-0.3 1.2-0.7 2.3-0.2 0.4-0.3 0.8c-0.9 2.6-1.7 5.3-2.4 7.8l-1.8 4.2c-4.7 10.7-9.4 21.5-13.4 32.4q-0.3 0.4-0.7 0.8zm10.7-37.8q1-8.4 0.9-16.8c3.2-11.9 4.9-24.1 4-36.2q0.5 1.6 1 3.3 0.1 0.2 0.1 0.4 0.3 0.8 0.5 1.6c3.4 16.8-0.5 32.5-6.5 47.7zm0.8-22.2c-0.4-6.4-1.2-12.9-2.5-19.2q-0.2-1.1-0.5-2.2 2.1-10.4 3.7-21 0 0.1 0 0.1 0.6 2.3 1.3 4.5c1.9 12.4 0.8 25.2-2 37.8zm-3.8-24.2c-0.9-3.1-2.3-5.9-4.3-8.2q3.5-6.5 7.8-12.7-1.5 10.6-3.5 20.9zm-5.3-9.2q-0.3-0.2-0.5-0.4c-0.9-0.7-1.9-1.3-3-1.7q5-8.4 11.2-16 0.4 2.2 0.9 4.3-4.8 6.8-8.6 13.8zm-12.2-1.7c3.9-11.5 9.3-22.6 16.3-32.8 0.7 1.8 1.4 3.7 2 5.4 0.2 0.5 0.2 1.1 0.4 1.6q0.1 0.4 0.2 0.7 0.2 3.5 0.7 6.9-6.8 8.2-12.2 17.4-1.4-0.3-2.7-0.3c-1.7 0-3.4 0.4-4.7 1.1z"/><path class="d" d="m382.2 976.4c6-14.2 10.6-28.8 9.7-44.3q-1.1-4.2-2.4-8.6c3.4 16.8-0.5 32.5-6.5 47.7q-0.3 2.6-0.8 5.2z"/><path class="d" d="m383.9 954.4c3.2-11.9 4.9-24.1 4-36.2q-1.1-3.5-2.1-7c1.9 12.4 0.8 25.2-2 37.8q0.1 2.7 0.1 5.4z"/><path class="d" d="m371.2 913.5q5-8.4 11.2-16-0.2-0.9-0.3-1.8-6.8 8.2-12.2 17.4 0.6 0.2 1.3 0.4z"/><path class="d" d="m380.8 927.6q2.1-10.4 3.7-21-0.7-2.4-1.2-4.8-4.8 6.8-8.6 13.8 0.5 0.5 1 1 3.5-6.5 7.8-12.7-1.5 10.6-3.5 20.9 0.4 1.3 0.8 2.8z"/></svg>