<svg version="1.2" xmlns="http://www.w3.org/2000/svg" viewBox="0 0 864 1296" width="864" height="1296"><style>.a{fill:#e92a2a}.b{fill:#d52626}.c{fill:#9a1a1c}.d{fill:#8d1819}</style><path class="a" d="m413.8 606.5c-5.8-5.1-14-6.6-25.7-1.7-7.4 3.1-14.3 7.5-21.3 11.3-1.8 1-11.8 4.5-11.8 8.4-5 3-9.4 6.9-13.1 11.3 0.1-1.4 0.1-2.7 0-3.9-1.1-17.3 5-40.3 7.5-49.1 15.5-11.4 31.9-17.4 46.4 0 6.4 7.7 12.6 15.4 18 23.7z"/><path class="b" d="m360 619.3c4.7-14.5 12-28.1 21.7-40.7q0.6 0 1.3 0 0.2 0 0.4 0c-9.7 12.3-16.9 25.6-21.6 39.8q-0.9 0.4-1.8 0.9zm26.5-44.5q-0.6-0.3-1.2-0.6 0 0 0 0 0.6 0.3 1.2 0.6 0 0 0 0z"/><path class="b" d="m370.6 614c3.3-13.6 10.8-25.3 21.8-34q0.7 0.3 1.4 0.5-0.5-0.4-0.9-0.9 0 0 0 0 0.5 0.5 0.9 1c-10.7 8.2-18.1 19.4-21.6 32.5q-0.8 0.4-1.6 0.9z"/><path class="b" d="m380 608.7c4-9.3 10-17.1 18-23.3q0.4 0.5 0.8 1.1c-7.3 5.7-13 12.8-16.9 21.2q-0.9 0.5-1.9 1z"/><path class="b" d="m391.4 603.5q0 0 0.1-0.1c2.9-3.8 6.7-7.2 12.1-11q0.4 0.5 0.8 1c-4.6 3.3-8 6.2-10.8 9.5q-1.1 0.2-2.2 0.6z"/><path class="b" d="m349.4 628.5c3.5-17.4 10.5-33.3 20.8-47.4q1.1-0.5 2.3-0.9c-10.6 14-17.8 29.7-21.5 47q-0.8 0.6-1.6 1.3zm29.8-56.3q-0.7-0.1-1.4-0.2 0.7 0.1 1.4 0.2 0 0 0 0z"/><path class="b" d="m342 633.1q0-0.6-0.1-1.2-0.1-2.4-0.1-4.8c2.3-10.6 5.5-20.7 9.6-30.4q1.6-2.3 3.5-4.5c-6 12.8-10.3 26.4-12.9 40.9z"/><path class="c" d="m342.4 617.2c0.5-5.6 1.5-11.3 2.6-16.5 1.6-7.6 3.3-14.1 4.4-17.9 4.5-3.3 9-6.1 13.5-8q-6.6 10.5-11.5 21.9-1.7 2.5-3.1 5.1c-2.6 4.9-4.4 10.1-5.9 15.4zm12.5-25q4.4-9.5 10.1-18.3c3.5-1.3 6.9-2 10.4-2q1.1 0 2.2 0.1-3.9 4.4-7.4 9.1-0.3 0.1-0.7 0.3c-5.8 2.4-10.6 6.3-14.6 10.8zm17.6-12q3.1-4.1 6.7-8 3.1 0.5 6.1 2-1.9 2.2-3.6 4.4c-3.1 0.2-6.3 0.7-9.2 1.6zm19.9-0.2c-2.9-0.9-5.9-1.3-9-1.4q1.5-1.9 3.1-3.8 3.2 1.8 6.4 4.8-0.3 0.2-0.5 0.4z"/><path class="d" d="m381.7 578.6q1.7-2.2 3.6-4.4 0.6 0.3 1.2 0.6-1.6 1.9-3.1 3.8-0.2 0-0.4 0-0.7 0-1.3 0z"/><path class="d" d="m393.8 580.5q-0.7-0.2-1.4-0.5 0.2-0.2 0.5-0.4 0.4 0.5 0.9 0.9z"/><path class="d" d="m370.2 581.1q3.5-4.7 7.4-9.1 0.1 0 0.2 0 0.7 0.1 1.4 0.2-3.6 3.9-6.7 8-1.2 0.4-2.3 0.9z"/><path class="d" d="m351.4 596.7q4.9-11.4 11.5-21.9 1.1-0.5 2.1-0.9-5.7 8.8-10.1 18.3-1.9 2.2-3.5 4.5z"/><path class="a" d="m443.4 606.5c5.8-5.1 14-6.6 25.7-1.7 7.4 3.1 14.3 7.5 21.3 11.3 1.8 1 11.8 4.5 11.9 8.4 4.9 3 9.3 6.9 13 11.3-0.1-1.4-0.1-2.7 0-3.9 1.1-17.3-5-40.3-7.5-49.1-15.5-11.4-31.9-17.4-46.4 0-6.4 7.7-12.6 15.4-18 23.7z"/><path class="b" d="m497.2 619.3q-0.2-0.1-0.4-0.2-0.7-0.4-1.3-0.7c-4.8-14.2-12-27.5-21.7-39.8q0.3 0 0.5 0 0.6 0 1.2 0c9.8 12.6 17 26.2 21.7 40.7zm-26.5-44.5q0 0 0 0 0.6-0.3 1.2-0.6 0 0 0 0-0.6 0.3-1.2 0.6z"/><path class="b" d="m486.6 614q-0.8-0.5-1.6-0.9c-3.5-13.1-10.9-24.3-21.6-32.5q0.5-0.5 0.9-1 0 0 0 0-0.4 0.5-0.8 0.9 0.7-0.2 1.4-0.5c10.9 8.7 18.4 20.4 21.7 34z"/><path class="b" d="m477.2 608.7q-0.9-0.5-1.9-1c-3.8-8.4-9.5-15.5-16.9-21.2q0.4-0.6 0.8-1.1c8 6.2 14 14 18 23.3z"/><path class="b" d="m465.8 603.5q-1.1-0.3-2.2-0.6c-2.7-3.3-6.1-6.2-10.8-9.5q0.4-0.5 0.8-1c5.4 3.8 9.2 7.2 12.1 11q0.1 0.1 0.1 0.1z"/><path class="b" d="m507.9 628.5q-0.8-0.7-1.7-1.3c-3.7-17.3-10.9-33-21.5-47q1.2 0.4 2.3 0.9c10.4 14.1 17.4 30 20.9 47.4zm-29.9-56.3q0 0 0 0 0.8-0.1 1.6-0.2 0 0 0 0-0.8 0.1-1.6 0.2z"/><path class="b" d="m515.2 633c-2.6-14.4-6.9-28.1-12.9-40.8q1.9 2.2 3.5 4.5c4.1 9.6 7.3 19.8 9.6 30.3q0 2.5-0.1 4.9-0.1 0.5-0.1 1.1z"/><path class="c" d="m514.8 617.1c-1.5-5.3-3.3-10.4-5.9-15.3q-1.4-2.6-3.1-5.1-4.9-11.5-11.5-21.9c4.5 1.9 9 4.7 13.5 8 1.8 6.4 5.6 20.5 7 34.3zm-12.5-24.9c-3.9-4.5-8.8-8.4-14.6-10.8q-0.3-0.2-0.7-0.3-3.4-4.7-7.4-9.1 0.5-0.1 1-0.1 0.6 0 1.2 0c3.5 0 6.9 0.7 10.4 2q5.7 8.8 10.1 18.3zm-17.6-12c-2.9-0.9-6-1.4-9.2-1.6q-1.7-2.2-3.6-4.4 3.1-1.5 6.1-2 3.6 3.9 6.7 8zm-19.8-0.2q-0.3-0.2-0.6-0.4 3.2-3 6.4-4.8 1.6 1.9 3.1 3.8c-3 0.1-6.1 0.5-8.9 1.4z"/><path class="d" d="m475.5 578.6q-0.6 0-1.2 0-0.2 0-0.5 0-1.5-1.9-3.1-3.8 0.6-0.3 1.2-0.6 1.9 2.2 3.6 4.4z"/><path class="d" d="m463.5 580.5q0.4-0.4 0.8-0.9 0.3 0.2 0.6 0.4-0.7 0.3-1.4 0.5z"/><path class="d" d="m487 581.1q-1.1-0.5-2.3-0.9-3.1-4.1-6.7-8 0.8-0.1 1.6-0.2 4 4.4 7.4 9.1z"/><path class="d" d="m505.8 596.7q-1.6-2.3-3.5-4.5-4.4-9.5-10.1-18.3 1.1 0.4 2.1 0.9 6.6 10.4 11.5 21.9z"/></svg>