<svg version="1.2" xmlns="http://www.w3.org/2000/svg" viewBox="0 0 864 1296" width="864" height="1296"><style>.a{fill:#e92a2a}.b{fill:#d52626}.c{fill:#9a1a1c}.d{fill:#8d1819}</style><path class="a" d="m432.4 675c2.9 13.1 18.1 18.8 29.3 22.4h0.1c10.9 3.5 21.6 7.5 32.5 11 21.1 6.6 7.4-26.4 4.4-35.3-3.1-9.2-5.9-20-4.1-29.7 0.8-4.7 2.2-8.7 4.4-12.9 4.8-9.2-11.3-14.4-16.5-17.2-12.2-6.6-27.8-16.9-40.1-5.1-2.7 4.3-5.2 8.6-7.4 13.2-1.4 4.8-2.1 9.9-2.8 14.3-2.1 12.9-2.7 26.5 0.2 39.3z"/><path class="b" d="m497.2 631.5c-6.3-4.6-12.5-8.5-19.1-12.2l-0.6-0.3c-7.9-4.3-18.7-10.2-28.5-10.7q0.2-0.7 0.5-1.4c5.7 0.3 11.3 2.4 16.2 4.4 10.7 4.6 21.4 10.9 32.5 19.2q-0.5 0.5-1 1zm-54.8-23.3q0 0 0 0 0.5-0.5 0.9-0.9 0 0 0 0-0.4 0.4-0.9 0.9z"/><path class="b" d="m491.4 641.3c-12.5-8.4-28.1-17.3-46.1-20.9q0.2-0.6 0.3-1.3c18.1 3.6 33.7 12.5 46.2 20.9q-0.2 0.6-0.4 1.3zm-55.2-22.2q0-0.1 0.1-0.2-0.1 0.1-0.1 0.2z"/><path class="b" d="m495.8 699.7c-2.3-0.2-4.5-0.9-6.6-1.7-4.9-2.2-9.9-4.1-14.8-6.1-9.5-3.7-19.2-7.4-27.7-12.8-1.8-1.3-3.3-2.8-4.4-4.6 9.6 7.3 21.3 11.9 32.7 16.3 7 2.8 14.1 5.5 20.8 8.9zm-64.9-34.5q0 0-0.1 0-0.1-1.3-0.2-2.5 0.1 0 0.1 0 0 1.2 0.2 2.5z"/><path class="b" d="m496.8 667.1c-7.9-5.9-17.7-9.4-27.2-12.8-9.8-3.6-19.8-7.2-27.8-13.4q0.1-0.7 0.1-1.5c7.9 6.5 18 10.1 28.4 13.8 9 3.3 18.2 6.6 26 11.9q0.2 1 0.5 2zm-63.9-35.6q0-0.1 0-0.1 0.2-0.9 0.3-1.9 0 0 0 0-0.1 1-0.3 2z"/><path class="b" d="m504.4 697.1c-9.4-7.3-20.5-12.3-31.4-17.1-11.6-5.2-23.5-10.5-33.2-18.6q0-0.8 0.1-1.6c9.8 8.4 22 13.9 33.9 19.2 10.9 4.8 22 9.8 31.5 17q-0.4 0.6-0.9 1.1zm-73.9-45.2q0 0 0 0 0.1-1.1 0.1-2.1 0 0 0 0 0 1-0.1 2.1z"/><path class="b" d="m501.6 681.5c-8.4-6.1-18.6-10.3-28.4-14.4-11.4-4.8-23.1-9.6-32.4-17.6q0.1-0.8 0.2-1.6c9.3 8.3 21.3 13.3 33 18.2 9.2 3.8 18.7 7.7 26.9 13.3q0.3 1 0.7 2.1zm-69.9-42.3q0 0 0 0 0.1-1 0.3-2-0.2 1-0.3 2z"/><path class="b" d="m492.4 657.1c-7.7-5.1-16.2-9-24.6-12.8-8.4-3.8-17-7.6-24.7-12.9q0.1-0.7 0.3-1.4c7.8 5.4 16.6 9.4 25.2 13.3 7.7 3.5 15.7 7.1 22.9 11.7q0.4 1.1 0.9 2.1zm-58.1-32.7q0 0 0 0 0.1-0.7 0.3-1.5 0.1 0 0.1 0-0.2 0.8-0.4 1.5z"/><path class="c" d="m499.2 709.2q-1.4 0-3.3-0.4-0.1 0-0.2-0.1v-0.1h-0.4l-0.4-0.1-0.5-0.2v0.1q0 0 0 0-2.7-0.9-5.4-1.8l-1.2-0.6-0.1 0.2c-8.6-2.9-17.2-6-25.9-8.8-7.4-2.4-16.6-5.7-22.8-11.4q0 0 0-0.1l-0.1-0.1-0.1-0.1q-0.1-0.1-0.2-0.1c-3-2.9-5.2-6.4-6.2-10.6q-1.1-4.9-1.5-9.8c4.4 5.7 9.8 10.2 15.8 13.9 2.2 1.7 4.7 3.1 7.1 4.3 10.9 5.5 22.4 9.8 33.8 14q0.8 0.3 1.6 0.6c5.4 2.4 10.6 5.1 15.5 8.4-1.1 1.8-2.8 2.8-5.5 2.8zm6-4c-3-2-6.2-3.8-9.4-5.5q0.8 0.1 1.5 0.1 1 0 2-0.2c1.9-0.3 3.8-1.2 5.1-2.5q0.7 0.4 1.3 1c0.3 2.7 0.2 5.1-0.5 7.1zm0.3-9q-0.1-0.1-0.2-0.2 0.1 0 0.1-0.1 0.1 0.1 0.1 0.3zm-63.2-21.7c-4.4-3.3-8.3-7.1-11.6-11.8q-0.4-5.4-0.2-10.8c2.8 3.5 5.9 6.7 9.3 9.5-0.3 3.9-0.2 7.9 1.5 11.5q0.5 0.8 1 1.6zm-2.4-14.7c-3.4-3-6.5-6.2-9.3-10q0.3-5.3 1.1-10.6c2.6 4 5.7 7.4 9.1 10.3q-0.4 4.3-0.8 8.6-0.1 0.8-0.1 1.7zm1.1-11.9c-3.4-3.1-6.5-6.6-9-10.7q0.1-0.7 0.2-1.5 0.3-2 0.7-4.2c2.5 3.7 5.5 6.8 8.9 9.4q-0.5 3.5-0.8 7zm0.9-8.5c-3.3-2.7-6.2-5.9-8.7-9.9q0.5-2.5 1.1-5.1c2.7 2.6 5.7 4.9 8.8 7q-0.6 4-1.2 8zm1.5-9.4c-3.1-2.1-6-4.4-8.7-7.1q0.2-0.8 0.4-1.6 0.5-1.1 1.1-2.2 4.6 0.4 9.1 1.3-1.1 4.8-1.9 9.6zm2.2-10.9q-4.3-0.8-8.8-1.3 2.3-4.4 5-8.7 2.7-0.8 5.9-0.8 0.6 0 1.3 0-2 5.4-3.4 10.8zm-2.3-11.8q2.1-1.7 4.3-2.8 1.6-0.8 3.4-1.2-0.8 1.8-1.5 3.6-0.7-0.1-1.4-0.1-2.4 0-4.8 0.5z"/><path class="d" d="m441.8 609.1q0.3-0.4 0.6-0.9 0.5-0.5 0.9-0.9 2.4-0.5 4.8-0.5 0.7 0 1.4 0.1-0.3 0.7-0.5 1.4-0.7 0-1.3 0-3.2 0-5.9 0.8z"/><path class="d" d="m445.3 620.4q-4.5-0.9-9.1-1.3 0-0.1 0.1-0.2 0.3-0.5 0.5-1.1 4.5 0.5 8.8 1.3-0.1 0.7-0.3 1.3z"/><path class="d" d="m504.7 706.4c-4.9-3.3-10.1-6-15.5-8.4 2.1 0.8 4.3 1.5 6.6 1.7 3.2 1.7 6.4 3.5 9.4 5.5q-0.2 0.6-0.5 1.2zm-58-27.3c-6-3.7-11.4-8.2-15.8-13.9q-0.2-1.3-0.2-2.5c3.3 4.7 7.2 8.5 11.6 11.8 1.1 1.8 2.6 3.3 4.4 4.6z"/><path class="d" d="m441.8 640.9c-3.4-2.6-6.4-5.7-8.9-9.4q0.2-1 0.3-2c2.5 4 5.4 7.2 8.7 9.9q0 0.8-0.1 1.5z"/><path class="d" d="m505.7 698.1q-0.6-0.6-1.3-1 0.5-0.5 0.9-1.1 0.1 0.1 0.2 0.2 0.1 0.9 0.2 1.9zm-65.9-36.7c-3.4-2.8-6.5-6-9.3-9.5q0.1-1.1 0.1-2.1c2.8 3.8 5.9 7 9.3 10q-0.1 0.8-0.1 1.6z"/><path class="d" d="m440.8 649.5c-3.4-2.9-6.5-6.3-9.1-10.3q0.1-1 0.3-2c2.5 4.1 5.6 7.6 9 10.7q-0.1 0.8-0.2 1.6z"/><path class="d" d="m443.1 631.4c-3.1-2.1-6.1-4.4-8.8-7q0.2-0.7 0.4-1.5c2.7 2.7 5.6 5 8.7 7.1q-0.2 0.7-0.3 1.4z"/><path class="c" d="m495.8 663.5c-1.3-2.1-2.5-4.2-3.4-6.4q1.2 0.9 2.5 1.8 0.4 2.3 0.9 4.6zm-1.2-6.5q-1.5-1-3.1-2-0.2-0.6-0.4-1.3c-1.1-4-1-8.4 0.3-12.4q1.6 1.1 3.1 2.2c-0.8 4.4-0.6 9 0.1 13.5zm0.2-15q-1.5-1-3-2c1.2-3.2 3-6.1 5.4-8.5q0.4 0.3 0.9 0.7c-1.5 3.2-2.6 6.3-3.3 9.8zm4-11.1q-0.3-0.2-0.6-0.4 0.6-0.5 1.2-1-0.1 0.4-0.3 0.7 0 0.2-0.1 0.3-0.1 0.2-0.2 0.4z"/><path class="d" d="m498.1 632.2q-0.5-0.4-0.9-0.7 0.5-0.5 1-1 0.3 0.2 0.6 0.4-0.4 0.7-0.7 1.3z"/><path class="d" d="m494.5 643.5q-1.5-1.1-3.1-2.2 0.2-0.7 0.4-1.3 1.5 1 3 2-0.1 0.7-0.2 1.4 0 0-0.1 0.1z"/><path class="d" d="m494.9 658.9q-1.3-0.9-2.5-1.8-0.5-1-0.9-2.1 1.6 1 3.1 2 0.1 1 0.3 1.9z"/><path class="a" d="m424.9 675c-3 13.1-18.2 18.8-29.3 22.4h-0.1c-11 3.5-21.7 7.5-32.6 11-21.1 6.6-7.3-26.4-4.3-35.3 3-9.2 5.9-20 4.1-29.7-0.9-4.7-2.2-8.7-4.4-12.9-4.9-9.2 11.3-14.4 16.4-17.2 12.3-6.6 27.8-16.9 40.2-5.1 2.7 4.3 5.2 8.6 7.3 13.2 1.4 4.8 2.2 9.9 2.9 14.3 2.1 12.9 2.6 26.5-0.2 39.3z"/><path class="b" d="m360.1 631.5q-0.5-0.5-1-1c11.1-8.3 21.7-14.6 32.5-19.2 4.8-2 10.5-4.1 16.1-4.4q0.3 0.7 0.6 1.4c-9.9 0.5-20.6 6.4-28.5 10.7l-0.7 0.3c-6.6 3.7-12.8 7.6-19 12.2zm54.8-23.3q-0.5-0.5-1-0.9 0 0 0 0 0.5 0.4 1 0.9 0 0 0 0z"/><path fill-rule="evenodd" class="b" d="m365.9 641.3q-0.2-0.7-0.4-1.3c12.4-8.4 28.1-17.3 46.1-20.9q0.2 0.7 0.3 1.3c-17.9 3.6-33.6 12.5-46 20.9zm55.2-22.2q-0.1-0.1-0.2-0.2 0.1 0.1 0.2 0.2z"/><path class="b" d="m361.5 699.7c6.7-3.4 13.8-6.1 20.7-8.9 11.4-4.4 23.1-9 32.8-16.3-1.2 1.8-2.7 3.3-4.4 4.6-8.6 5.4-18.2 9.1-27.7 12.8-5 2-10 3.9-14.8 6.1-2.2 0.8-4.4 1.5-6.6 1.7zm64.9-34.5q0.1-1.3 0.2-2.5 0 0 0 0-0.1 1.2-0.2 2.5 0 0 0 0z"/><path class="b" d="m360.4 667.1q0.3-1 0.6-2c7.7-5.3 17-8.6 26-11.9 10.4-3.7 20.4-7.3 28.3-13.8q0.1 0.8 0.2 1.5c-8 6.2-18.1 9.8-27.9 13.4-9.4 3.4-19.2 6.9-27.2 12.8zm63.9-35.6q-0.1-1-0.3-2 0 0 0 0 0.2 1 0.4 1.9 0 0-0.1 0.1z"/><path class="b" d="m352.8 697.1q-0.5-0.5-0.9-1.1c9.5-7.2 20.7-12.2 31.5-17 11.9-5.3 24.1-10.8 34-19.2q0 0.8 0.1 1.6c-9.8 8.1-21.7 13.4-33.3 18.6-10.8 4.8-22 9.8-31.4 17.1zm73.9-45.2q0-1.1-0.1-2.1 0 0 0 0 0.1 1 0.1 2.1 0 0 0 0z"/><path class="b" d="m355.6 681.5q0.4-1.1 0.8-2.1c8.1-5.6 17.6-9.5 26.9-13.3 11.7-4.9 23.7-9.9 33-18.2q0 0.8 0.1 1.6c-9.2 8-20.9 12.8-32.4 17.6-9.8 4.1-19.9 8.3-28.4 14.4zm70-42.3q-0.2-1-0.3-2 0.1 1 0.3 2 0 0 0 0z"/><path class="b" d="m364.9 657.1q0.4-1 0.8-2.1c7.2-4.6 15.2-8.2 23-11.7 8.6-3.9 17.4-7.9 25.2-13.3q0.1 0.7 0.2 1.4c-7.7 5.3-16.3 9.1-24.7 12.9-8.3 3.8-16.9 7.7-24.5 12.8zm58.1-32.7q-0.2-0.7-0.4-1.5 0 0 0 0 0.2 0.8 0.4 1.5 0 0 0 0z"/><path class="c" d="m358 709.2c-2.7 0-4.4-1-5.4-2.8 4.8-3.3 10.1-6 15.5-8.4q0.7-0.3 1.5-0.6c11.4-4.2 22.9-8.5 33.8-14 2.5-1.2 5-2.6 7.2-4.3 5.9-3.7 11.3-8.2 15.8-13.9q-0.5 4.9-1.6 9.8c-0.9 4.2-3.2 7.7-6.1 10.6q-0.1 0-0.2 0.1l-0.2 0.1v0.1q0 0.1 0 0.1c-6.3 5.7-15.5 9-22.9 11.4-8.7 2.8-17.2 5.9-25.9 8.8v-0.2l-1.3 0.6q-2.6 0.9-5.3 1.8 0 0 0 0l-0.1-0.1-0.5 0.2-0.4 0.1h-0.3v0.1q-0.2 0.1-0.3 0.1-1.8 0.4-3.3 0.4zm-6-4c-0.6-2-0.7-4.4-0.5-7.1q0.7-0.6 1.3-1c1.4 1.3 3.2 2.2 5.1 2.5q1 0.2 2 0.2 0.8 0 1.6-0.1c-3.3 1.7-6.5 3.5-9.5 5.5zm-0.2-9q0-0.2 0-0.3 0.1 0.1 0.1 0.1 0 0.1-0.1 0.2zm63.2-21.7q0.5-0.8 0.9-1.6c1.7-3.6 1.8-7.6 1.6-11.5 3.4-2.8 6.5-6 9.2-9.5q0.2 5.4-0.1 10.8c-3.3 4.7-7.3 8.5-11.6 11.8zm2.4-14.7q-0.1-0.9-0.2-1.7-0.4-4.3-0.8-8.6c3.5-2.9 6.5-6.3 9.2-10.3q0.7 5.3 1 10.6c-2.7 3.8-5.8 7-9.2 10zm-1.1-11.9q-0.4-3.5-0.8-7c3.3-2.6 6.3-5.7 8.8-9.4q0.4 2.2 0.7 4.2 0.2 0.8 0.3 1.5c-2.6 4.1-5.6 7.6-9 10.7zm-1-8.5q-0.5-4-1.2-8c3.1-2.1 6.1-4.4 8.9-7q0.6 2.6 1 5.1c-2.4 4-5.4 7.2-8.7 9.9zm-1.4-9.4q-0.8-4.8-2-9.6 4.5-0.9 9.2-1.3 0.5 1.1 1 2.2 0.3 0.8 0.5 1.6c-2.7 2.7-5.6 5-8.7 7.1zm-2.3-10.9q-1.4-5.4-3.3-10.8 0.6 0 1.2 0 3.2 0 6 0.8 2.6 4.3 4.9 8.7-4.5 0.5-8.8 1.3zm2.3-11.8q-2.3-0.5-4.8-0.5-0.7 0-1.4 0.1-0.7-1.8-1.4-3.6 1.7 0.4 3.4 1.2 2.1 1.1 4.2 2.8z"/><path class="d" d="m415.5 609.1q-0.3-0.4-0.6-0.9-0.5-0.5-1-0.9-2.3-0.5-4.8-0.5-0.7 0-1.4 0.1 0.3 0.7 0.6 1.4 0.6 0 1.2 0 3.2 0 6 0.8z"/><path class="d" d="m411.9 620.4q4.5-0.9 9.2-1.3-0.1-0.1-0.2-0.2-0.2-0.5-0.5-1.1-4.5 0.5-8.8 1.3 0.2 0.7 0.3 1.3z"/><path class="d" d="m352.6 706.4q-0.3-0.6-0.6-1.2c3-2 6.2-3.8 9.5-5.5 2.2-0.2 4.4-0.9 6.6-1.7-5.4 2.4-10.7 5.1-15.5 8.4zm58-27.3c1.7-1.3 3.2-2.8 4.4-4.6 4.3-3.3 8.3-7.1 11.6-11.8q-0.1 1.2-0.2 2.5c-4.5 5.7-9.9 10.2-15.8 13.9z"/><path class="d" d="m415.5 640.9c3.3-2.6 6.3-5.7 8.8-9.4q-0.1-1-0.3-2c-2.4 4-5.4 7.2-8.7 9.9q0.1 0.8 0.2 1.5z"/><path class="d" d="m351.5 698.1q0.1-1 0.3-1.9 0.1-0.1 0.1-0.2 0.4 0.6 0.9 1.1-0.6 0.4-1.3 1zm66-36.7q-0.1-0.8-0.1-1.6c3.4-3 6.5-6.2 9.2-10q0.1 1 0.1 2.1c-2.7 3.5-5.8 6.7-9.2 9.5z"/><path class="d" d="m416.4 649.5c3.5-2.9 6.5-6.3 9.2-10.3q-0.2-1-0.3-2c-2.6 4.1-5.6 7.6-9 10.7q0 0.8 0.1 1.6z"/><path class="d" d="m414.1 631.4c3.1-2.1 6.1-4.4 8.9-7q-0.2-0.7-0.4-1.5c-2.7 2.7-5.6 5-8.7 7.1q0.1 0.7 0.2 1.4z"/><path class="c" d="m361.4 663.5q0.6-2.3 1-4.6 1.2-0.9 2.5-1.8c-1 2.2-2.2 4.3-3.5 6.4zm1.3-6.5c0.7-4.5 0.8-9.1 0-13.5q1.6-1.1 3.2-2.2c1.2 4 1.4 8.4 0.2 12.4q-0.2 0.7-0.4 1.3-1.5 1-3 2zm-0.3-15c-0.7-3.5-1.8-6.6-3.3-9.8q0.5-0.4 1-0.7c2.4 2.4 4.2 5.3 5.4 8.5q-1.6 1-3.1 2zm-3.9-11.1q-0.1-0.2-0.2-0.4-0.1-0.1-0.2-0.3-0.1-0.3-0.2-0.7 0.6 0.5 1.2 1-0.3 0.2-0.6 0.4z"/><path class="d" d="m359.1 632.2q0.5-0.4 1-0.7-0.5-0.5-1-1-0.3 0.2-0.6 0.4 0.3 0.7 0.6 1.3z"/><path class="d" d="m362.7 643.5q1.6-1.1 3.2-2.2-0.2-0.7-0.4-1.3-1.6 1-3.1 2 0.2 0.7 0.3 1.4 0 0 0 0.1z"/><path class="d" d="m362.4 658.9q1.2-0.9 2.5-1.8 0.4-1 0.8-2.1-1.5 1-3 2-0.2 1-0.3 1.9z"/></svg>