<svg version="1.2" xmlns="http://www.w3.org/2000/svg" viewBox="0 0 864 1296" width="864" height="1296"><style>.a{fill:#e92a2a}.b{fill:#d52626}.c{fill:#9a1a1c}.d{fill:#8d1819}</style><path class="a" d="m479.6 375.3q0.9 3.4 1.3 6.7l0.3 0.2q2.3 3.2 4.4 6.5c12-4.1 22.8-10.5 30.9-20.4q-0.6-1.2-1-2.6c-1.7-5.3-2.2-10.3-1.7-15h-0.1c-6.9-7.3-14.9-13-24.1-17.1-2.1 0.3-4.3 0.7-6.5 1.2-16.8 4.3-6.3 29.3-3.5 40.5z"/><path class="b" d="m475.1 358.9q-0.2-0.9-0.4-1.9c1.7-0.9 3.5-1.7 5.2-2.6 2.1-0.9 4.2-1.9 6-3 5-2.9 10.1-6.5 15.4-11.3q0.6 0.4 1.2 0.8c-8.2 7.2-17.4 13.1-27.4 17.4q0 0.3 0 0.6z"/><path class="b" d="m482.7 384.4q-0.2-0.3-0.4-0.6 1.9-1 3.7-1.9l21.4-15.8q-1.2 2.1-3 3.8c-5.5 5.3-13.5 10.3-21.7 14.5z"/><path class="b" d="m479.7 375.8q0-0.3-0.1-0.5-0.1-0.4-0.2-0.9c11.3-5.1 21.8-11.7 31.2-19.8q0 0.9-0.1 1.8c-9.3 7.9-19.6 14.4-30.8 19.4z"/><path class="b" d="m476.9 365.8q-0.2-0.6-0.4-1.3c12.1-3.8 22.9-10 32.3-18.4q0.3 0.6 0.5 1.3c-9.4 8.4-20.3 14.6-32.4 18.4z"/><path class="b" d="m473.9 351.5q-0.1-0.8-0.1-1.5c6.8-4.1 13-9.1 18.6-15.1q0.6 0.3 1.2 0.6c-5.8 6.4-12.4 11.7-19.7 16z"/><path class="c" d="m485.6 388.7q-0.1-0.1-0.2-0.3-1.1-1.8-2.3-3.5c11.7-5.8 22.3-13.5 31.4-22.8q0.4 1.8 1 3.6 0.4 1.4 1 2.6c-8.1 9.9-16.4 15.5-30.9 20.4zm21.8-22.6c1.8-2.9 2.8-6.3 3.1-9.7q1.6-1.4 3.1-2.7 0 3.3 0.6 6.8-1.1 1.2-2.3 2.4zm3.1-11.6c0-2.5-0.4-4.9-1.2-7.2q0.3-0.2 0.5-0.5 2 1.8 3.9 3.8 0 0 0.1 0.1-0.1 0.5-0.1 1-1.6 1.5-3.2 2.8zm-1.7-8.5q-0.1-0.1-0.1-0.2 0 0.1 0.1 0.1 0 0.1 0 0.1z"/><path class="d" d="m483.1 384.9q-0.2-0.3-0.4-0.5c8.2-4.2 16.2-9.2 21.7-14.5q1.8-1.7 3-3.8l4.5-3.2q1.2-1.2 2.3-2.4 0.2 0.8 0.3 1.6c-9.1 9.3-19.7 17-31.4 22.8z"/><path class="d" d="m510.5 356.4q0.1-0.9 0.1-1.8 1.6-1.4 3.1-2.8 0 0.9-0.1 1.9-1.5 1.3-3.1 2.7z"/><path class="d" d="m509.3 347.4q-0.2-0.7-0.5-1.4 0 0 0.1 0 0.5 0.4 1 0.9-0.3 0.2-0.6 0.5z"/><path class="a" d="m377.5 375q-0.9 3.4-1.4 6.8l-0.2 0.2q-2.3 3.1-4.4 6.4c-12-4-22.9-10.5-30.9-20.4q0.5-1.2 1-2.6c1.6-5.3 2.1-10.3 1.7-15h0.1c6.9-7.3 14.9-13 24-17 2.2 0.2 4.4 0.6 6.6 1.2 16.8 4.2 6.3 29.3 3.5 40.4z"/><path class="b" d="m382 358.7q0.2-1 0.4-2c-1.7-0.9-3.5-1.7-5.2-2.6-2.1-0.9-4.2-1.9-6-3-5-2.8-10.1-6.5-15.5-11.2q-0.5 0.3-1.1 0.7c8.2 7.3 17.4 13.1 27.4 17.4q0 0.3 0 0.7z"/><path class="b" d="m374.3 384.1q0.3-0.3 0.5-0.6-1.9-0.9-3.7-1.9l-21.4-15.7q1.2 2 2.9 3.7c5.5 5.3 13.6 10.3 21.7 14.5z"/><path class="b" d="m377.3 375.5q0.1-0.3 0.2-0.5 0.1-0.4 0.2-0.8c-11.4-5.2-21.8-11.8-31.2-19.9q0 0.9 0.1 1.8c9.3 7.9 19.6 14.4 30.7 19.4z"/><path class="b" d="m380.2 365.5q0.2-0.6 0.4-1.3c-12.1-3.8-22.9-10-32.3-18.4q-0.3 0.6-0.6 1.3c9.5 8.4 20.4 14.6 32.5 18.4z"/><path class="b" d="m383.2 351.2q0-0.8 0.1-1.5c-6.8-4-13.1-9.1-18.6-15.1q-0.6 0.4-1.2 0.7c5.8 6.3 12.4 11.7 19.7 15.9z"/><path class="c" d="m371.5 388.4c-14.6-4.9-22.9-10.5-30.9-20.4q0.5-1.2 1-2.6 0.6-1.8 0.9-3.5c9.2 9.2 19.8 16.9 31.5 22.7q-1.2 1.8-2.4 3.6 0 0.1-0.1 0.2zm-21.8-22.5l-4.5-3.3q-1.2-1.2-2.3-2.3 0.6-3.6 0.5-6.9 1.6 1.4 3.2 2.7c0.2 3.4 1.3 6.8 3.1 9.8zm-3.2-11.6q-1.6-1.4-3.1-2.8-0.1-0.5-0.1-1 0-0.1 0-0.1h0.1q1.8-2 3.8-3.8 0.3 0.3 0.5 0.5c-0.8 2.3-1.2 4.7-1.2 7.2zm1.8-8.5q-0.1-0.1-0.1-0.1 0.1-0.1 0.2-0.1-0.1 0.1-0.1 0.2z"/><path class="d" d="m374 384.6q0.2-0.2 0.3-0.5c-8.1-4.2-16.2-9.2-21.7-14.5q-1.7-1.7-2.9-3.7l-4.5-3.3q-1.2-1.2-2.3-2.3-0.2 0.8-0.4 1.6c9.2 9.2 19.8 16.9 31.5 22.7z"/><path class="d" d="m346.6 356.1q-0.1-0.9-0.1-1.8-1.6-1.4-3.1-2.8 0 0.9 0 1.9 1.6 1.4 3.2 2.7z"/><path class="d" d="m347.7 347.1q0.3-0.7 0.6-1.3-0.1-0.1-0.1-0.1-0.5 0.5-1 0.9 0.3 0.2 0.5 0.5z"/></svg>