<svg version="1.2" xmlns="http://www.w3.org/2000/svg" viewBox="0 0 864 1296" width="864" height="1296"><style>.a{fill:#e92a2a}.b{fill:#d52626}.c{fill:#9a1a1c}.d{fill:#8d1819}</style><path class="a" d="m436 473.7c1.1 16.7 4.6 33.4 8.7 49.5 1.8 6.9 3.9 13.6 5.8 20.5 1.3 4.7 2.8 10.5 6.9 13.6 6.1 4.7 9-4.2 9.8-8.9 2.4-13.6 9.9-27.7 15.9-40.1 5.9-12.2 11.9-24.6 18.2-36.8l0.2-0.3c1-3.1 2.2-6.5 3.6-10.2 1.8-4.7 3.7-9.6 5.2-14 1.9-5.8 6.1-25.8 9.6-43.2-8.3 9.4-30.9 5.1-40.6 1.9-1.8 6-4.5 11.9-8 17.9-9.6 16.6-21.2 33.2-33.2 48.1q-1.1 1.4-2.1 2z"/><path class="b" d="m436.1 474.8q0-0.5-0.1-1.1 0.2-0.1 0.5-0.3c26.4-5.3 50.1-17.7 69.1-36.2q0 0.6 0 1.3 0 0.2 0 0.5c-19.2 18.4-43 30.7-69.5 35.8z"/><path class="b" d="m482.6 430.2c-4.6 0-9.3-0.7-13.9-2.1q0.3-0.6 0.7-1.2c4.3 1.3 8.8 2 13.3 2 7.5 0 14.7-1.9 21.1-5.4q0.2 0.6 0.4 1.3c-6.6 3.5-13.9 5.4-21.6 5.4z"/><path class="b" d="m492 419.8c-5.7 0-11.3-1.2-16.7-3.6q0.2-0.6 0.5-1.2c5.3 2.3 10.7 3.5 16.3 3.5q4.7 0 9.2-1.1 0.3 0.6 0.6 1.2-4.8 1.2-9.9 1.2z"/><path class="b" d="m458.1 557.8q-0.3-0.2-0.7-0.5-0.2-0.1-0.4-0.3c1.5-6.5 3.4-12.9 5.7-19q-0.7 3.4-0.9 6.8-2.1 6.4-3.7 13zm-6.9-11.8q-0.4-1.2-0.7-2.3 0-0.3-0.1-0.5c4.5-19.2 18-35.4 31.1-51 7.6-9 15.3-18.3 21.4-28.3q-0.9 4.2-2.1 8.3-0.4 0.8-0.8 1.7c-7.5 10.8-15.4 22.7-22.4 35.4q-2.9 3.5-5.5 7.3c7.6-14.8 16.6-28.6 25.5-41.7-3.6 4.9-7.4 9.6-11.1 14.1q-1.7 1.9-3.3 3.9c-7.8 9.1-15.9 18.6-22.4 29-3.4 5.5-6.2 11.9-8.5 19.6q-0.6 2-1.1 4.5zm-4.6-15.9q-0.4-1.4-0.8-2.9c4.2-18.5 19.2-31.3 33.7-43.6 8.7-7.4 17.6-15 24.2-23.8q-0.2 1.4-0.5 2.8c-6.4 8-14.6 15-22.7 21.8-15.1 12.8-30.7 26-33.9 45.7z"/><path class="b" d="m437.2 485.9q0-0.6-0.1-1.3c26.6-5.9 50.4-20 68.3-40.1q0 1-0.1 2.1c-18 19.7-41.7 33.5-68.1 39.3z"/><path class="b" d="m449.7 456.6q0.5-0.7 1-1.5c20.4-2.8 39.2-11.2 54.6-23.9q0.1 0.8 0.1 1.6c-15.7 12.8-35 21.1-55.7 23.8z"/><path class="b" d="m469.4 439.6q-3.9 0-7.6-0.5 0.4-0.6 0.8-1.3 3.4 0.4 6.8 0.4c12.6 0 25-3.9 35.3-11q0.2 0.8 0.3 1.5c-10.5 6.9-23 10.9-35.6 10.9z"/><path class="b" d="m439.2 498.2q-0.1-0.6-0.3-1.3c26.8-6.4 49.7-21.6 65.8-43.5q-0.2 1.4-0.4 2.7c-16.2 21.1-38.9 35.9-65.1 42.1z"/><path class="c" d="m502.9 463.9q0.1-0.6 0.3-1.3 1.1-1.3 2.1-2.7-1.2 2-2.4 4zm0.8-4.1q0.3-1.8 0.6-3.7 2.9-3.8 5.5-7.8-0.9 2.6-1.9 5.4-0.1 0-0.2 0.2-1.8 3-4 5.9zm1-6.4q0.4-3.4 0.6-6.8 3.9-4.3 7.4-8.8c-0.5 2.1-1 4-1.4 5.6q-3.1 5.2-6.6 10zm0.7-8.9q0.2-2.8 0.2-5.5 4.6-4.4 8.9-9.4-0.6 2.6-1.1 5-3.8 5.1-8 9.9zm0.2-7.3q0-2.2-0.2-4.4 5.6-4.5 10.5-9.8-0.4 2-0.8 3.9-4.6 5.4-9.5 10.3zm-0.3-6q-0.2-1.3-0.3-2.5c4.3-3 8.4-6.4 11.9-10.3q-0.2 1-0.4 2-5.3 5.9-11.2 10.8zm-0.6-4q-0.2-1.2-0.5-2.4c5.1-2.8 9.8-6.5 13.7-11.2q-0.2 1.1-0.5 2.1l-0.2 0.3c-3.6 4.3-7.8 8.1-12.5 11.2zm-0.9-3.7q-0.6-2.2-1.6-4.3-0.1-0.3-0.3-0.6c6-1.5 11.7-4.5 16.7-8.7q-0.1 0.5-0.2 0.9c-4 5.3-9 9.6-14.6 12.7zm-2.5-6.1c-2.1-3.6-5.1-6.7-8.7-8.6 3.1 0.4 6.4 0.7 9.6 0.7 7.1 0 13.9-1.4 17.6-5.7q-0.4 2-0.8 4c-5.3 4.8-11.3 8-17.7 9.6z"/><path fill-rule="evenodd" class="c" d="m460.7 558.7q-0.6 0-1.3-0.2c0.9-0.8 1.7-1.9 2-3.1 0.6-2.1 0.4-4.4 0.3-6.6q-0.1-2 0-3.9c4.1-12.5 9.6-24.4 15.9-35.6 3.3-4.1 7-8.1 10.8-11.9q-2.7 5.5-5.3 11c-6 12.3-13.4 26.5-15.8 40.1-0.6 3.2-2.2 8.5-5.1 9.9q-0.7 0.3-1.5 0.3zm2-20.7c1.5-7.2 4.7-14.2 8.8-20.4q0.3-0.5 0.6-0.9c-3.5 6.9-6.7 14-9.4 21.3z"/><path class="d" d="m461.8 544.8q0.2-3.4 0.9-6.8c2.7-7.4 5.9-14.5 9.4-21.4q2.6-3.8 5.5-7.3c-6.2 11.2-11.8 23-15.8 35.5z"/><path class="d" d="m505.6 439q0-0.3 0-0.5 0-0.7 0-1.3 4.9-4.9 9.5-10.3-0.3 1.4-0.6 2.7-4.3 5-8.9 9.4z"/><path class="d" d="m504.2 424.8q-0.2-0.7-0.4-1.3c5.6-3.1 10.6-7.4 14.6-12.7q-0.2 1.4-0.5 2.8c-3.9 4.7-8.6 8.4-13.7 11.2z"/><path class="d" d="m501.9 418.6q-0.3-0.6-0.6-1.2c6.4-1.6 12.4-4.8 17.7-9.6q-0.2 1.1-0.4 2.1c-5 4.2-10.7 7.2-16.7 8.7z"/><path class="d" d="m500.8 472.2q1.2-4.1 2.1-8.3 1.2-2 2.4-4-1 1.4-2.1 2.7 0.3-1.4 0.5-2.8 2.2-2.9 4-5.9 0.1-0.2 0.2-0.2c-0.9 2.4-1.9 4.9-2.8 7.3-0.8 2.3-1.8 4.5-2.6 6.6-0.1 0.2-0.8 2.6-1.2 3.7"/><path class="d" d="m505.3 446.6q0.1-1.1 0.1-2.1 4.2-4.8 8-9.9-0.4 1.6-0.7 3.2-3.5 4.5-7.4 8.8z"/><path class="d" d="m505.4 432.8q0-0.8-0.1-1.6 5.9-4.9 11.2-10.8-0.3 1.3-0.6 2.6-4.9 5.3-10.5 9.8z"/><path class="d" d="m505 428.7q-0.1-0.7-0.3-1.5c4.7-3.1 8.9-6.9 12.5-11.2l0.2-0.3q-0.2 1.3-0.5 2.7c-3.5 3.9-7.6 7.3-11.9 10.3z"/><path class="d" d="m504.3 456.1q0.2-1.3 0.4-2.7 3.5-4.8 6.6-10-0.6 2.3-1 3.6-0.3 0.6-0.5 1.3-2.6 4-5.5 7.8z"/><path class="a" d="m421.1 473.8c-1.1 16.6-4.6 33.3-8.7 49.4-1.7 6.9-3.9 13.6-5.8 20.5-1.3 4.7-2.7 10.5-6.9 13.7-6.1 4.7-9-4.3-9.8-9-2.4-13.5-9.9-27.7-15.8-40-6-12.3-11.9-24.7-18.3-36.8l-0.1-0.4c-1.1-3.1-2.3-6.5-3.7-10.2-1.8-4.7-3.7-9.6-5.1-14-1.9-5.7-6.1-25.8-9.6-43.2 8.2 9.4 30.9 5.1 40.6 2 1.7 5.9 4.4 11.8 7.9 17.8 9.7 16.6 21.2 33.2 33.3 48.1q1.1 1.4 2 2.1z"/><path class="b" d="m421 474.9q0.1-0.6 0.1-1.1-0.2-0.2-0.4-0.4c-26.5-5.2-50.1-17.7-69.1-36.2q0 0.7 0 1.3 0 0.3 0 0.5c19.2 18.4 42.9 30.7 69.4 35.9z"/><path class="b" d="m374.5 430.2c4.7 0 9.4-0.7 14-2.1q-0.4-0.6-0.7-1.2c-4.4 1.3-8.9 2-13.3 2-7.6 0-14.8-1.9-21.2-5.4q-0.2 0.7-0.3 1.3c6.5 3.5 13.8 5.4 21.5 5.4z"/><path class="b" d="m365.1 419.8c5.7 0 11.4-1.2 16.8-3.6q-0.3-0.6-0.6-1.2c-5.2 2.3-10.7 3.5-16.2 3.5q-4.7 0-9.3-1.1-0.3 0.6-0.6 1.2 4.8 1.2 9.9 1.2z"/><path class="b" d="m399 557.9c-1-4.4-2.4-9.3-3.8-13.5-0.1-2.3-0.2-4.2-0.7-6.4 2.3 6.2 4.2 12.5 5.7 19q-0.3 0.2-0.5 0.4-0.4 0.2-0.7 0.5zm7-11.9q-0.5-2.5-1.1-4.5c-2.4-7.7-5.2-14-8.6-19.5-6.5-10.5-14.5-20-22.3-29.1q-1.7-2-3.3-3.9c-3.8-4.5-7.6-9.1-11.2-14 8.9 13 18 26.8 25.5 41.6q-2.5-3.8-5.4-7.3c-7.1-12.7-15-24.6-22.4-35.4q-0.5-0.8-0.9-1.7-1.2-4.1-2.1-8.2c6.1 9.9 13.9 19.2 21.4 28.2 13.1 15.7 26.6 31.8 31.1 51q0 0.2-0.1 0.5-0.3 1.1-0.6 2.3zm4.5-15.9c-3.2-19.7-18.8-32.9-33.9-45.7-8-6.8-16.2-13.8-22.6-21.8q-0.3-1.4-0.6-2.8c6.6 8.8 15.5 16.4 24.2 23.8 14.6 12.3 29.6 25.1 33.7 43.6q-0.4 1.5-0.8 2.9z"/><path class="b" d="m419.9 485.9q0.1-0.6 0.2-1.3c-26.7-5.9-50.5-19.9-68.4-40.1q0 1 0.1 2.1c18.1 19.8 41.8 33.5 68.1 39.3z"/><path class="b" d="m407.5 456.6q-0.6-0.7-1.1-1.5c-20.3-2.8-39.2-11.2-54.5-23.9q-0.1 0.8-0.2 1.6c15.8 12.8 35.1 21.2 55.8 23.8z"/><path class="b" d="m387.8 439.6q3.8 0 7.6-0.5-0.4-0.6-0.8-1.2-3.4 0.4-6.9 0.4c-12.5 0-24.9-4-35.3-11q-0.1 0.7-0.2 1.4c10.4 7 22.9 10.9 35.6 10.9z"/><path class="b" d="m418 498.2q0.1-0.6 0.2-1.3c-26.7-6.4-49.6-21.6-65.7-43.5q0.1 1.4 0.3 2.7c16.3 21.1 39 35.9 65.2 42.1z"/><path class="c" d="m354.2 464q-1.2-2.1-2.3-4.1 1 1.4 2.1 2.7 0.1 0.7 0.2 1.4zm-0.8-4.2q-2.1-2.8-3.9-5.9-0.1-0.1-0.2-0.2-1.1-2.8-2-5.4 2.6 4 5.5 7.8 0.3 1.9 0.6 3.7zm-0.9-6.4q-3.6-4.7-6.6-9.9c-0.4-1.6-0.9-3.6-1.4-5.7q3.5 4.6 7.3 8.8 0.2 3.4 0.7 6.8zm-0.8-8.9q-4.2-4.7-8-9.9-0.5-2.4-1.1-4.9 4.3 4.9 9 9.3 0 2.8 0.1 5.5zm-0.1-7.3q-5-4.9-9.5-10.3-0.5-1.9-0.9-3.9 5 5.3 10.5 9.8-0.1 2.2-0.1 4.4zm0.3-6q-6-4.9-11.2-10.7-0.2-1.1-0.4-2.1c3.5 3.9 7.5 7.4 11.9 10.3q-0.2 1.2-0.3 2.5zm0.5-3.9c-4.6-3.2-8.9-7-12.5-11.3l-0.2-0.3q-0.2-1-0.4-2.1c3.9 4.7 8.5 8.4 13.7 11.2q-0.4 1.2-0.6 2.5zm0.9-3.8c-5.6-3-10.6-7.3-14.6-12.7q-0.1-0.4-0.2-0.8c5.1 4.2 10.7 7.1 16.7 8.6q-0.1 0.3-0.3 0.6-1 2.1-1.6 4.3zm2.5-6.1c-6.4-1.6-12.4-4.8-17.7-9.5q-0.4-2.1-0.8-4.1c3.7 4.3 10.5 5.7 17.7 5.7 3.1 0 6.4-0.3 9.5-0.7-3.6 1.9-6.6 5-8.7 8.6z"/><path class="d" d="m351.6 439q0-0.2 0-0.5 0-0.6 0-1.3-5-4.9-9.5-10.3 0.3 1.4 0.5 2.8 4.3 4.9 9 9.3z"/><path class="d" d="m353 424.8q0.1-0.6 0.3-1.3c-5.6-3-10.6-7.3-14.6-12.7q0.3 1.4 0.6 2.8c3.9 4.7 8.5 8.4 13.7 11.2z"/><path class="d" d="m355.2 418.6q0.3-0.6 0.6-1.2c-6.4-1.6-12.4-4.8-17.7-9.5q0.2 1 0.4 2.1c5.1 4.2 10.7 7.1 16.7 8.6z"/><path class="d" d="m356.3 472.2q-1.2-4.1-2.1-8.2-1.2-2.1-2.3-4.1 1 1.4 2.1 2.7-0.3-1.4-0.6-2.8-2.1-2.8-3.9-5.9-0.1-0.1-0.2-0.2c0.9 2.4 1.8 4.9 2.7 7.3 0.9 2.3 1.8 4.5 2.6 6.7 0.1 0.1 0.9 2.5 1.3 3.6"/><path class="d" d="m351.8 446.6q-0.1-1.1-0.1-2.1-4.2-4.7-8-9.9 0.4 1.7 0.8 3.2 3.5 4.6 7.3 8.8z"/><path class="d" d="m351.7 432.8q0.1-0.8 0.2-1.6-6-4.9-11.2-10.7 0.3 1.2 0.5 2.5 5 5.3 10.5 9.8z"/><path class="d" d="m352.2 428.7q0.1-0.7 0.2-1.4c-4.6-3.2-8.9-7-12.5-11.3l-0.2-0.3q0.3 1.4 0.6 2.7c3.5 3.9 7.5 7.4 11.9 10.3z"/><path class="d" d="m352.8 456.1q-0.2-1.3-0.3-2.7-3.6-4.7-6.6-9.9 0.6 2.2 1 3.5 0.2 0.6 0.4 1.3 2.6 4 5.5 7.8z"/><path class="c" d="m396.3 558.7q-0.8 0-1.5-0.3c-2.9-1.4-4.5-6.7-5.1-9.9-2.4-13.6-9.8-27.7-15.8-40.1q-2.6-5.5-5.3-11c3.8 3.9 7.9 7.8 11.1 12.1 7.5 10 15.1 18.8 15.5 35.4 0.1 1.3 0.1 2.6 0.1 4-0.1 2.2-0.3 4.4 0.3 6.5 0.3 1.2 1 2.3 2 3.1q-0.7 0.2-1.3 0.2z"/><path class="d" d="m395.2 543.1c-0.1-2.3-0.1-2.6-0.6-4.9-2.7-7.3-6.1-14.7-9.6-21.6-1.7-2.6-3.4-4.8-5.4-7.2 6.2 11.2 11.6 22.6 15.6 35z"/></svg>