<svg version="1.2" xmlns="http://www.w3.org/2000/svg" viewBox="0 0 864 1296" width="864" height="1296"><style>.a{fill:#e92a2a}.b{fill:#d52626}.c{fill:#9a1a1c}.d{fill:#8d1819}</style><path class="a" d="m457.9 559.3c5.3 4.1 4 10.8 3.5 12.9-1.2 4.6-23.8 33.4-31.6 41-0.6 0.6-1.7 0.6-2.4 0-8.3-7.7-30.9-35.9-32-40.6-0.5-2.1-1.6-9 3.7-13.2 7.6-3.6 9.7-18.9 11.4-24.7 4.4-15.3 8.3-31 10.5-46.8 1.7-3.6 4.4-7.8 6.1-10 1.2-1.6 2.1-1.4 3.2 0.2 1.5 2.1 4.4 7 6.1 10.6 2.3 15.6 6.1 31 10.5 46 1.6 5.8 3.7 20.7 11 24.6z"/><path class="b" d="m428.7 568.3c0 0 0.5-1.6 0.7-2.3 2.7-11.5 18.2-30 18.4-30.2l-0.8-1.4c-0.6 0.8-14.3 17.1-18.3 28.8-3.9-11.7-17.8-28.3-18.4-29l-0.7 1.6c0.2 0.1 15.8 18.7 18.4 30.2 0.1 0.6 0.4 1.5 0.7 2.3z"/><path class="b" d="m461.7 564.2l-0.5-1.5c-0.2 0.2-23.8 27.8-32.1 38.2-8.3-10.4-32.2-38.4-32.4-38.6l-0.6 1.4c0.2 0.3 25.3 29.7 32.7 39.2l0.2 0.4 0.3-0.3c7.4-9.5 32.2-38.5 32.4-38.8z"/><path class="b" d="m427.8 510.4c0.3 0.5 0.9 1.1 0.9 1.1 0 0 0.6-0.8 0.9-1.1 4.5-6.1 9.5-9.3 9.6-9.3l-0.8-1.2c-0.2 0.1-5.1 3.2-9.7 9.3-4.6-6.1-9.5-9.3-9.7-9.4l-0.8 1.2c0.1 0.1 5.1 3.3 9.6 9.4z"/><path class="b" d="m428.7 493.5c4.4-3.9 8.1-6.7 8.1-6.7l-0.9-1.1c0 0-3.3 2.4-7.2 5.8-4.1-3.6-6.9-6.2-6.9-6.2l-0.9 1.1c0 0 7.8 7.1 7.8 7.1z"/><path class="b" d="m427.9 524.5c0.2 0.5 0.8 1.5 0.8 1.5 0 0 0.7-1.2 0.8-1.5 4.9-10.5 11.3-12.6 11.4-12.6l-0.4-1.4c-0.3 0.1-6.7 2.1-11.8 12.3-5.1-10.3-11.7-12.4-12-12.5l-0.4 1.4c0 0 6.7 2.2 11.6 12.8z"/><path class="b" d="m427.9 542.2c0.3 0.7 0.8 1.7 0.8 1.7 0 0 0.5-0.9 0.8-1.7 4.9-11.5 14.7-20.2 14.8-20.2l-1-1.1c-0.1 0-9.4 8.3-14.6 19.5-5.2-11.2-14.5-19.5-14.6-19.6l-1 1.1c0.1 0.1 9.9 8.8 14.8 20.3z"/><path class="b" d="m428.7 587.5l0.5-0.9c4.1-8.8 23.4-33.5 23.6-33.8l-0.9-1.3c-0.8 1-17.8 23-23.2 32.9-5.3-9.9-22.5-31.8-23.2-32.8l-0.9 1.2c0.2 0.2 19.4 25 23.6 33.7z"/><path class="c" d="m399.5 558.5c-1.5 5.3 17.4 50.9 29.1 51.1 10.1 0.1 31.3-44.3 28-52-0.4-0.9 5.1 5.6 5.1 5.6l0.6 7.8-5.6 10.5-10.8 14.6-11.1 12.5-6.2 6.4-13.4-13.9-10.3-13c0 0-7.9-10.2-7.8-10.7 0.1-0.5-2.5-5.2-2.5-5.6 0-0.4-0.2-6.2-0.2-6.2l1-3.1c0 0 4.4-4.8 4.1-4z"/><path class="d" d="m395.4 562.7c0.3 0.4 3.3 3.9 7.3 8.8q-0.7-2-1.3-3.8c-2.5-2.9-4.3-5.2-5.1-6.1-0.5 0.6-0.9 1.1-0.9 1.1z"/><path class="d" d="m461.7 563.3c0 0-0.3-0.3-0.6-0.7-0.9 1-3.2 3.7-6.3 7.3q-0.6 1.8-1.3 3.7c4.2-5 7.5-8.7 8.2-9.6z"/></svg>