<svg version="1.2" xmlns="http://www.w3.org/2000/svg" viewBox="0 0 864 1296" width="864" height="1296"><style>.a{fill:#e92a2a}.b{fill:#d52626}.c{fill:#9a1a1c}.d{fill:#8d1819}</style><path class="a" d="m507.5 580.6c0 0 12.9-22.7-8-49.2-3.9 10.7-20.8 23.9-30.4 27.3 5.6 3.1 12 6.6 16.3 8.2 7.4 2.8 19.8 10.4 22.1 13.7z"/><path class="b" d="m503.7 576.2q-0.6-0.4-1.2-0.8 0 0 0 0 0.6 0.4 1.2 0.8 0 0 0 0zm0.2-8.4c1-9.9-1.4-20.1-7-30.1q0.4-0.6 0.8-1.3c6 10.4 8.5 21.1 7.6 31.4q-0.7 0-1.4 0z"/><path class="b" d="m497 571.9q-0.6-0.3-1.3-0.7 0 0 0 0 0.7 0.4 1.3 0.7 0 0 0 0zm0.5-4.4q-0.6-0.1-1.3-0.3 0 0 0 0c0.6-8.3-0.4-16.5-3.2-24.5q0.5-0.5 1-1.1c3.1 8.4 4.2 17.1 3.5 25.9z"/><path class="b" d="m491.8 569.3q-0.6-0.3-1.3-0.6 0 0 0 0 0.7 0.3 1.3 0.6 0 0 0 0zm0.1-3.5q-0.7-0.3-1.4-0.6c-0.1-6.1-0.9-12.2-2.5-18q0.6-0.5 1.2-0.9c1.8 6.4 2.7 12.9 2.7 19.5z"/><path class="b" d="m484.1 565.8q-0.7-0.3-1.4-0.6 0 0 0 0 0.7 0.3 1.4 0.6 0 0 0 0zm-0.2-4.3q-0.7-0.4-1.4-0.9-0.3-4.3-1.2-8.5 0.6-0.4 1.3-0.8 1 5 1.3 10.2z"/><path class="c" d="m506.6 578.9q-1.4-1.4-2.9-2.7 1.2-4.1 1.6-8.4 0.6 0 1.2-0.1c1 0 2.1-0.2 3-0.6-1.3 8.5-2.7 11.1-2.7 11.2l-0.2 0.3-0.1 0.1zm-4-3.5c-1.8-1.3-3.6-2.4-5.6-3.5q0.4-2.2 0.5-4.4c1.8 0.3 3.5 0.4 5.2 0.4q0.6 0 1.3 0-0.4 3.8-1.4 7.5zm-6.8-4.1q-1.9-1-3.9-1.9 0.1-1.8 0-3.5 2.1 0.8 4.3 1.3-0.1 2-0.4 4.1zm-5.2-2.6c-2.2-0.9-4.3-1.9-6.5-2.8q0-2.2-0.2-4.4c1.1 0.7 2.1 1.3 2.8 1.7q1.9 1.1 3.9 2.1 0 1.7 0 3.4zm-7.8-3.5c-4.2-1.9-8.3-4-11.8-6.7 1.9-0.8 3.8-1.8 5.8-3.1 1.3 1.9 3.6 3.7 5.7 5.2q0.2 2.3 0.3 4.6z"/><path class="d" d="m503.7 576.2q-0.6-0.4-1.2-0.8 1-3.8 1.4-7.6 0.7 0 1.4 0-0.4 4.3-1.6 8.4z"/><path class="d" d="m497 571.9q-0.6-0.3-1.3-0.7 0.3-2 0.5-4 0 0 0 0 0.7 0.2 1.3 0.3-0.2 2.2-0.5 4.4z"/><path class="d" d="m491.8 569.3q-0.6-0.3-1.3-0.6 0.1-1.7 0-3.5 0.7 0.3 1.4 0.6 0 1.8-0.1 3.5z"/><path class="d" d="m484.1 565.8q-0.7-0.3-1.4-0.6 0-2.3-0.2-4.6 0.7 0.5 1.4 0.9 0.1 2.1 0.2 4.3z"/><path class="a" d="m349.5 580.6c0 0-12.9-22.7 8-49.2 3.9 10.7 20.8 23.9 30.5 27.3-5.7 3.1-12.1 6.6-16.4 8.2-7.4 2.8-19.8 10.4-22.1 13.7z"/><path class="b" d="m353.4 576.2q0 0 0 0 0.5-0.4 1.1-0.8 0 0 0 0-0.5 0.4-1.1 0.8zm-0.3-8.4q-0.6 0-1.3 0c-1-10.3 1.6-21 7.5-31.4q0.4 0.7 0.8 1.3c-5.6 10-7.9 20.2-7 30.1z"/><path class="b" d="m360.1 571.9q0 0 0 0 0.6-0.3 1.2-0.7 0 0 0 0-0.6 0.4-1.2 0.7zm-0.6-4.4c-0.7-8.8 0.5-17.5 3.5-25.9q0.5 0.6 1 1.1c-2.7 8-3.8 16.2-3.1 24.5q-0.1 0-0.1 0-0.6 0.2-1.3 0.3z"/><path class="b" d="m365.2 569.3q0 0 0 0 0.7-0.3 1.3-0.6 0 0 0 0-0.6 0.3-1.3 0.6zm-0.1-3.5c0.1-6.6 1-13.1 2.8-19.5q0.5 0.4 1.1 0.9c-1.6 5.8-2.4 11.9-2.5 18q-0.7 0.3-1.4 0.6z"/><path class="b" d="m373 565.8q0 0 0 0 0.7-0.3 1.3-0.6 0 0 0 0-0.6 0.3-1.3 0.6zm0.1-4.3q0.4-5.2 1.4-10.2 0.6 0.4 1.2 0.8-0.8 4.2-1.2 8.5-0.7 0.5-1.4 0.9z"/><path class="c" d="m350.5 578.9v-0.2-0.1l-0.2-0.3c0-0.1-1.4-2.7-2.8-11.2 1 0.4 2.1 0.6 3.1 0.6q0.6 0.1 1.2 0.1 0.4 4.3 1.6 8.4-1.6 1.3-2.9 2.7zm4-3.5q-1-3.8-1.4-7.6 0.6 0.1 1.2 0.1c1.8 0 3.5-0.1 5.2-0.4q0.2 2.2 0.6 4.4c-2 1-3.8 2.2-5.6 3.5zm6.8-4.2q-0.3-2-0.4-4 2.2-0.5 4.2-1.4 0 1.8 0.1 3.5-2 0.9-3.9 1.9zm5.2-2.5q0-1.7 0-3.5 2-0.9 3.8-2c0.8-0.4 1.7-1 2.8-1.7q-0.1 2.1-0.1 4.3c-2.2 1-4.3 1.9-6.5 2.9zm7.8-3.5q0.1-2.3 0.2-4.6c2.2-1.5 4.5-3.3 5.8-5.3 1.9 1.3 3.8 2.4 5.8 3.2-3.6 2.7-7.6 4.8-11.8 6.7z"/><path class="d" d="m353.4 576.2q0.5-0.4 1.1-0.8-1-3.8-1.4-7.6-0.6 0-1.3 0 0.4 4.3 1.6 8.4z"/><path class="d" d="m360.1 571.9q0.6-0.3 1.2-0.7-0.3-2-0.4-4-0.1 0-0.1 0-0.6 0.2-1.3 0.3 0.2 2.2 0.6 4.4z"/><path class="d" d="m365.2 569.3q0.7-0.3 1.3-0.6 0-1.7 0-3.5-0.7 0.3-1.4 0.6 0 1.8 0.1 3.5z"/><path class="d" d="m373 565.8q0.7-0.3 1.3-0.6 0.1-2.3 0.2-4.6-0.7 0.5-1.4 0.9-0.1 2.1-0.1 4.3z"/></svg>