<svg version="1.2" xmlns="http://www.w3.org/2000/svg" viewBox="0 0 864 1296" width="864" height="1296"><style>.a{fill:#e92a2a}.b{fill:#d52626}.c{fill:#9a1a1c}.d{fill:#8d1819}</style><path class="a" d="m500.4 624.5c0 0 7 1.7 15.9 13.3 0.3 2.2 1.9 8.1 3.2 14.7 1.4 6.6 14.9 43.6 15.9 89.4 0.6 30.5-1.7 48-3.1 68-3.8-15.8-5.8-44-10.6-64.5-4.9-20.5-11-40.2-14.5-44.4-0.2-3.5-0.8-7.2-5.6-21.7-4.8-14.4-11-28.7-2.3-47.1 1.1-2.5 2.3-3.4 1.1-7.7z"/><path class="b" d="m533.6 773.9c-1.9-18.3-9.2-41.2-15.4-58.6-7.4-21-15-42.6-14.8-65.1q0.6-0.2 1.3-0.4c-0.3 22.5 7.3 44.2 14.8 65.4 5.6 15.7 12.3 36.9 14.7 53.4-0.2 1.8 0.8 6 0.6 7.8"/><path class="b" d="m535.5 743.6c-2.1-14.1-6.8-28.4-11.1-41.1q-0.7-2.3-1.5-4.5c-5-15.4-10.1-31.6-12.5-48.8q0.7 0 1.4 0.2c2.6 17.3 7.9 33.8 13.4 51q1.6 5 3.1 9.9c2.8 8.8 5.8 18.8 7.6 29.1q-0.2 2.1-0.4 4.2z"/><path class="c" d="m518.3 652c-2-1.3-4.2-2.2-6.5-2.6-0.7-5.2-1.4-12.4-1.6-17.7 0.6-0.2 1.2 0.6 1.7 1 0.5 0.5 2.2 1.1 4.1 4.9 2.6 5 1.5 8.2 2.9 13.7zm-22.9 4.8c-3-8.7 4.6-25.8 6.1-32.2 1.3 0.3 3.1 2.2 4.6 3.3-1.7 7.4-2.6 17.2-2.6 22.3-1.8 0.8-3.6 1.7-5 3.1-0.8 0.8-3.1 3.5-3.1 3.5zm9.4-7c0.2-5.4 1.4-15.6 2.3-20.7 0.5 0.4 1.1 0.8 1.8 1.6 0.2 5 0.8 13.6 1.6 18.5-0.7-0.1-0.9-0.1-1.4-0.1q-1.9 0-3.8 0.5-0.2 0.1-0.5 0.2z"/><path class="d" d="m503.4 650.2c0-5.1 0.9-14.9 2.6-22.2 0.2-1.2 0.8 0.2 1.2 0.2-0.9 5.1-2.4 16.6-2.5 21.6q-0.7 0.2-1.3 0.4z"/><path class="d" d="m511.8 649.4c-0.4-0.1-1-0.2-1.4-0.2-0.8-5.1-1.4-13.4-1.6-18.5 0.4-0.2 0.8 0.5 1.4 1.2 0.3 5.4 0.9 12.3 1.6 17.5z"/><path class="a" d="m356.8 625c0 0-6.9 1.8-15.8 13.3-0.4 2.2-1.9 8.2-3.3 14.7-1.3 6.6-14.9 43.6-15.8 89.4-0.7 30.5 1.7 48 3.1 68 3.8-15.8 5.8-44 10.6-64.5 4.8-20.5 11-40.2 14.5-44.4 0.2-3.5 0.7-7.2 5.6-21.6 4.8-14.5 11-28.8 2.3-47.2-1.2-2.5-2.3-3.4-1.2-7.7z"/><path class="b" d="m322.5 776.9c-0.3-1.7 0.8-6 0.5-7.8 2.5-16.5 9.2-37.7 14.7-53.4 7.5-21.1 15.2-42.9 14.9-65.4q0.6 0.2 1.3 0.5c0.2 22.4-7.5 44-14.9 65-6.1 17.4-13.4 40.3-15.3 58.6"/><path class="b" d="m321.8 744.1c2-14.1 6.8-28.4 11-41.1q0.8-2.3 1.5-4.5c5.1-15.3 10.1-31.5 12.6-48.8q-0.8 0-1.5 0.2c-2.5 17.3-7.8 33.8-13.3 51.1q-1.6 4.9-3.2 9.8c-2.7 8.8-5.7 18.8-7.5 29.1q0.2 2.1 0.4 4.2z"/><path class="c" d="m338.3 651.8c1.5-5.5 0.3-8.7 2.9-13.7 2-3.8 3.6-4.4 4.2-4.9 0.4-0.4 1-1.2 1.6-1-0.2 5.3-0.8 12.5-1.6 17.7-2.3 0.4-4.5 1.3-6.4 2.6zm20.5 2c-1.4-1.4-3.1-2.3-4.9-3.1-0.1-5.1-0.9-14.9-2.6-22.3 1.5-1.1 3.2-3 4.5-3.3 1.6 6.5 9.1 23.5 6.1 32.2 0 0-2.3-2.7-3.1-3.5zm-6.2-3.5q-0.3-0.1-0.6-0.2-1.9-0.5-3.8-0.5c-0.4 0-0.6 0-1.4 0.1 0.8-4.9 1.4-13.4 1.7-18.5 0.7-0.8 1.2-1.2 1.7-1.6 0.9 5.1 2.2 15.3 2.4 20.7z"/><path class="d" d="m353.9 650.8c0-5.2-0.9-14.9-2.6-22.3-0.3-1.2-0.9 0.2-1.2 0.2 0.9 5.1 2.4 16.6 2.5 21.6q0.6 0.2 1.3 0.5z"/><path class="d" d="m345.4 649.9c0.5-0.1 1-0.2 1.5-0.2 0.7-5.1 1.3-13.4 1.6-18.5-0.5-0.1-0.8 0.5-1.5 1.3-0.2 5.3-0.8 12.2-1.6 17.4z"/></svg>