<svg version="1.2" xmlns="http://www.w3.org/2000/svg" viewBox="0 0 864 1296" width="864" height="1296"><style></style><path fill-rule="evenodd" d="m607.7 561.3c-0.5 8.5-1.4 16.3-2.4 24.6-1.8 14.9-5.5 30.2-4.8 50 1.1 30.2 0.8 56.1-2.9 67.5-1.7 5-10.4 29.9-10.8 30.9 0 0-0.4 1.1-1.5 0.8 0 0-5.6-1.6-6.1-8.8l-2.3 2.3c-0.4 0.4-1.1 0.4-1.5-0.1l-0.1-0.2c-0.2-0.2-2.7-3.9-3.5-8.5-1.6-2.4-4.9-8.8-0.9-14.9 1.6-2.5 7.6-8.7 8.9-10.1 0.2-1.2 0.5-5.1 1.6-9.4 0.9-5.2 0.4-9.1-0.8-11.7q-0.5-1-1-2c-0.9-1.2-2-2-3-2.4-0.3-0.1-0.4-0.1-0.6 0-2.3 1.5-2.8 5.6-3.4 9.8-0.6 4-1.3 8-3.1 11.3-2.3 4.1-8.9 5.6-9.8-2.1-0.6-5.5-0.6-12.3-0.6-15.2l0.2-2.9c0.6-11.1 1-16.7 7-26.4 2.6-4.2 2.6-6.6 1-23-0.8-8-6-21.1-11.2-34.9-6-15.9-12.2-32.2-12.6-41.7-0.6-14.7 1.4-22 2.1-24.1-1.3-1.5-4.7-6.1-5.7-12.1-1.1-6.9-0.7-18.9-0.7-19.2 0-0.2-3.7-20.9-9.6-30.4-4.4-7-10.4-19.4-13.3-26.8-1.6 7.3-3 13.3-4 16-1.4 4.5-3.3 9.4-5.1 14.2-2.6 6.8-5.1 13.2-5.7 16.5-0.6 3.3-0.8 20-0.5 49.6 0 1.6 0 2.6 0 2.9 0.1 0.5 1.3 2.8 2.4 4.7 3.8 6.7 10.1 17.8 8.9 27.2-1.3 10.5-2.9 14.9-3.4 16.2 1.1 3.7 9.9 32.4 8.6 53.1-0.5 7.2 2.3 18.5 5.9 32.7 4.6 18.4 10.4 41.2 12.3 67.6 2.9 39.1-5.3 103.2-8.4 127.3-0.6 5.2-1.1 8.6-1.1 9.6-0.2 2.6 0.1 4.3 0.3 6.4 0.4 2.7 0.8 5.9 0.4 11.8q-0.2 2-0.9 4.7c2.2 5.6 4.1 11.2 5.9 16.4 14.4 32.5 8 67 1.8 100.4-1.4 7.2-2.8 14.7-3.9 22l-0.2 1.7c-1.5 13.2-3 26.8 0.3 39.3 1.6 6.3 3.4 10 4.7 12.3q0 0 0 0 0.2 0.2 0.2 0.3 0.4 0.8 0.8 1.4 0.3 0.6 0.6 1c1.3 2.3 1.3 5.1 0.7 7.7 0.4 1 3.3 8.2 10.6 12.3 6.8 3.9 12.9 6.5 15.1 7.6 5.1-0.9 11.1 0.7 12.3 2 0.9 1 1.9 2.5 1.9 6.3 0 3.7-4.5 5.4-6.4 6 0 1.3-0.4 3.7-2.2 6.5-2.5 4-18.6 9.1-25.3 11.1-2.3 0.7-6.8 3.7-10.7 6.4-3.7 2.6-7.2 5-9.4 5.8-2.2 0.8-6.8 1.6-12.2 1.6-6.7 0-14.5-1.2-20.6-5-11.4-7.1-3.5-36.8-3.2-38.1 0.4-1.4 0.8-3.1 1.3-4.8 1.4-5.4 3-11.4 4.7-16.4-0.1-1.8-1.1-3.8-2.1-5.8-1.1-2.3-2.3-4.6-2.3-7.1l0.1-0.2c10.3-37.3-5.1-72.3-19.9-106.1l-1.9-4.4c-0.7-2.8-1.7-5.8-2.6-8.6-2-5.8-4-11.8-4-17.9 1-8.3 3.4-16.4 5.9-25 1.4-4.6 3.5-12.3 5.4-19.5-8.9-13.4-16.6-30.5-18.5-40.7-1.4-7.6-2.6-21.9-4-38.6-1.2-14.7-2.6-31.3-4.3-44.6-2.1-16.5-6.5-35-10-49.9-2.4-10.2-4.4-19-5.1-24.3-1.5-11.8 0.7-25.5 1.2-28.4-1.4-4.2-2-9-2.1-13.9-0.1 4.9-0.7 9.7-2.1 13.9 0.5 2.9 2.7 16.6 1.2 28.4-0.7 5.3-2.7 14.1-5.1 24.3-3.5 14.9-7.9 33.4-10 49.9-1.7 13.3-3.1 29.9-4.3 44.6-1.4 16.7-2.6 31-4 38.6-1.9 10.2-9.7 27.4-18.5 40.8 1.8 6.8 3.8 14.3 5.4 19.4 2.5 8.6 4.9 16.7 5.8 25 0 6.1-2 12.1-3.9 17.9-0.9 2.8-1.9 5.8-2.6 8.6l-1.9 4.4c-14.9 33.8-30.2 68.8-19.9 106.1v0.2c0 2.5-1.1 4.8-2.2 7.1-1.1 2-2 4-2.1 5.8 1.6 5 3.3 11 4.7 16.4 0.4 1.7 0.9 3.4 1.3 4.8 0.3 1.3 8.2 31-3.2 38.1-6.1 3.8-14 5-20.6 5-5.4 0-10-0.8-12.2-1.6-2.2-0.8-5.7-3.2-9.4-5.8-3.9-2.7-8.4-5.7-10.7-6.4-6.8-2-22.8-7.1-25.4-11.1-1.8-2.8-2.1-5.2-2.1-6.5-2-0.6-6.4-2.3-6.4-6 0-3.8 0.9-5.3 1.9-6.3 1.2-1.3 7.2-2.9 12.3-2 2.2-1.1 8.3-3.7 15.1-7.6 7.3-4.1 10.2-11.3 10.5-12.3-0.5-2.6-0.5-5.3 0.8-7.7q0.2-0.4 0.6-1 0.3-0.6 0.8-1.4 0-0.1 0.2-0.3 0 0 0 0c1.3-2.3 3-6 4.7-12.3 3.3-12.5 1.8-26.1 0.3-39.3l-0.2-1.7c-1.2-7.3-2.5-14.8-3.9-22-6.2-33.4-12.6-67.9 1.8-100.4 1.7-5.2 3.7-10.8 5.9-16.4q-0.7-2.7-0.9-4.7c-0.4-5.9 0-9.1 0.4-11.8 0.2-2.1 0.5-3.8 0.3-6.4 0-1-0.5-4.4-1.1-9.6-3.1-24.1-11.3-88.2-8.4-127.3 1.9-26.4 7.7-49.2 12.3-67.6 3.6-14.2 6.4-25.5 5.9-32.7-1.3-20.7 7.4-49.4 8.6-53.1-0.5-1.3-2.1-5.7-3.4-16.2-1.2-9.4 5.1-20.5 8.9-27.2 1.1-1.9 2.3-4.2 2.4-4.7 0-0.3 0-1.3 0-2.9 0.3-29.6 0.1-46.3-0.5-49.6-0.6-3.3-3.1-9.7-5.7-16.5-1.8-4.8-3.7-9.7-5.1-14.2-1-2.7-2.4-8.7-4-16.1-2.9 7.4-8.9 19.9-13.3 26.9-6 9.5-9.6 30.2-9.6 30.4 0 0.3 0.3 12.3-0.8 19.2-0.9 6-4.4 10.6-5.6 12.1 0.7 2.1 2.6 9.4 2 24.1-0.4 9.5-6.6 25.8-12.5 41.7-5.3 13.8-10.4 26.9-11.2 34.9-1.6 16.4-1.6 18.8 1 23 5.9 9.7 6.4 15.3 7 26.4l0.1 2.9c0.1 2.9 0.1 9.7-0.5 15.2-0.9 7.7-7.5 6.2-9.8 2.1-1.9-3.3-2.6-7.3-3.1-11.3-0.6-4.2-1.1-8.3-3.5-9.8-0.1-0.1-0.3-0.1-0.5 0-1 0.4-2.1 1.2-3 2.4q-0.6 1-1.1 2c-1.1 2.6-1.7 6.5-0.8 11.7 1.1 4.3 1.5 8.2 1.6 9.4 1.4 1.4 7.4 7.6 9 10.1 4 6.1 0.7 12.5-0.9 14.9-0.8 4.6-3.4 8.3-3.6 8.5l-0.1 0.2c-0.3 0.5-1 0.5-1.4 0.1l-2.3-2.3c-0.6 7.2-6.1 8.8-6.2 8.8-1.1 0.3-1.4-0.8-1.4-0.8-0.4-1-9.2-25.9-10.8-30.9-3.8-11.4-4-37.3-2.9-67.5 0.6-19.8-3-35.1-4.8-50-1-8.3-2-16.1-2.5-24.6-1.3-22.3 5-33.6 6.2-35.6v-17.5c0-17 12.7-35.5 14.5-38.1 0.2-3.2 1.6-28 4-39.7 2.3-11 6.3-21.6 7.2-23.7-0.7-1.9-3.4-10.3-5-20.5-1.9-11.8 6.1-40.7 10.9-52.8 3.2-8.1 9.8-11.2 15.2-13.6 2.9-1.4 5.4-2.5 6.8-4.1 3.6-4.2 7.1-5.4 10.3-6.4 0.8-0.3 1.6-0.5 2.4-0.8 1.2-0.5 2.3-1.5 3.9-3 2.8-2.5 7-6.3 15.9-11.5 5.2-3 12.9-6.5 21-10.2 12.1-5.6 25.9-11.9 29.1-15.9 1.4-1.6 3.3-7.1 5-12.8-1-2-3.7-7.2-3.9-8-1.1-3.7-1.2-8.6-1.1-11.6-0.6 0.2-1.4 0.4-2.3 0.3-2.9-0.4-5.7-5-9.1-11.1-0.9-1.7-1.8-3.3-2.5-4.2-2.9-4.2-2.3-13.1-0.1-19.8q0.9-3 3.1-3.4c2-0.4 4.2 1.2 5.7 2.6-0.3-8.4-0.2-31.9 9.5-43.5 8.3-10 24.9-12.5 31.3-13.1h2.4c6.3 0.6 23 3.1 31.3 13.1 9.7 11.6 9.8 35.1 9.5 43.5 1.5-1.4 3.7-3 5.7-2.6q2.2 0.4 3.1 3.4c2.2 6.7 2.8 15.6-0.1 19.8-0.7 0.9-1.6 2.5-2.5 4.2-3.4 6.1-6.2 10.7-9.1 11.1-0.9 0.1-1.7-0.1-2.3-0.3 0.1 3 0 7.9-1.1 11.6-0.2 0.8-2.9 6.1-3.9 8.1 1.7 5.7 3.6 11.1 4.9 12.7 3.2 4 17 10.3 29.2 15.9 8.1 3.7 15.8 7.2 20.9 10.2 9 5.2 13.2 9 15.9 11.5 1.7 1.5 2.7 2.5 3.9 3 0.8 0.3 1.6 0.5 2.4 0.8 3.2 1 6.8 2.2 10.4 6.4 1.4 1.6 3.9 2.7 6.8 4.1 5.3 2.4 12 5.5 15.1 13.6 4.8 12.1 12.8 41 11 52.8-1.6 10.2-4.4 18.6-5 20.5 0.8 2.1 4.9 12.7 7.2 23.7 2.4 11.7 3.8 36.5 4 39.7 1.7 2.6 14.5 21.1 14.5 38.1v17.5c1.2 2 7.5 13.3 6.1 35.6zm-22.7-90.2c-2.2 7.5-5 15.5-8 22.7 2.3 13 14.2 20.7 22.4 30.7v-16.3c0-4.7-1.1-9.5-2.6-14.2q-0.2-0.5-0.4-1.1-0.1-0.3-0.2-0.6-0.2-0.5-0.4-1.1c-4.2-11-10.6-19.9-10.7-20zm-60.6-138.7c-13.3 12.7-11.2 37.6 4.4 45.7 9.8 5.1 20.5 7.1 29.9 13.1 5.8 3.7 10.8 8.5 15.4 13.7 1-3 3.2-10.4 4.6-19.1 1.8-11.4-6.1-39.7-10.8-51.7-2.9-7.2-8.8-10-14.1-12.4-1.7-0.8-3.4-1.5-4.8-2.4-9.3 1.3-17 5.8-24.6 13.1zm-93 111.5c0.1 7.7 0.6 15.4 0.5 23.1 0 6.1 7.9 0.1 10-2.8 2.8-4 5.8-7.8 8.5-11.9 8.7-12.6 17.9-25.1 24.7-38.8 9.4-19.1 2.9-36.8-1.3-56.1-1.8-7.8-3.4-16.9 3.9-22 4-2.7 10.2-3.2 14.7-3.9 2.2-0.3 4.3-0.4 6.5-0.5 6.5-0.4 21.8-1.2 20.1-12.6-13.2 2.3-30.1-0.3-37.7-1.4-8.6-1.4-16.8-4-24.2-8-12.5 6.9-21.4 17.5-25 31.9-4.5 17.5-1 36.8-0.4 54.6 0.7 16.1-0.6 32.3-0.3 48.4zm82.3-93.3q0 0 0 0c-6.9-7.2-14.9-12.9-24-17-2.3 0.3-4.4 0.6-6.6 1.2-16.9 4.2-6.3 29.3-3.5 40.4q0.8 3.5 1.3 6.8 0.2 0 0.3 0.2 2.3 3.2 4.4 6.4c12-4 22.8-10.5 30.9-20.3q-0.6-1.3-1.1-2.7c-1.6-5.2-2.1-10.3-1.7-15zm-34.1 53.9c3.5 1.1 8.9 2.4 14.6 3.1q-5.4-12.2-13-23c0.7 6.9 0.1 13.4-1.6 19.9zm16.1 3.3c10.5 1.1 21.8-0.1 24.9-8.1 2-10.1 3.7-18.7 4.4-22.3-3.2-2-5.9-4.5-7.9-7.9-8.1 9.8-18.9 16.2-30.8 20.3q5.4 8.6 9.4 18zm24.7-89.6c0.9 6.9-4.2 11.8-11.6 13.4-5.5 1.2-11.1 1.2-16.6 1.7 8.1 4 15.4 9.2 21.7 15.7 2.4-16.3 16.4-28.1 33.5-30.9q-0.6-0.5-1.1-1.1c-3.2-3.7-6.3-4.7-9.4-5.7q-1.2-0.4-2.4-0.8c-2.9 4.1-8 6.5-14.1 7.7zm-56.7-48.8c-8.6-7-14-17.4-18.8-27.2-1.1-2.2-2-4.4-3.1-6.6-1.2-2.3-3.1-4.7-5.6-5.7-2.3-0.9-4.7 1.1-4.9 3.4q-0.5 2.9-0.5 5.9c-0.2 6.7 0.1 13.5 0.3 20.2 0.2 11.8 1 20.5 8.1 30.4 7.3 10 12.3 16 24.1 20.8 11.1 4.5 59.1 15.2 70-0.7-1.1-0.7-2.2-1.6-3.5-2.8-2.7-2.4-6.8-6.2-15.5-11.2-5.1-3-12.7-6.5-20.8-10.2-12.8-5.8-26.1-11.9-29.8-16.3zm-68.5-3.3c8.2-8 13.2-19.2 18.1-29.4 1.1-2.3 5.8-12 10.5-9.3 4.8 2.9 3.9 10.8 3.8 15.6-0.3 10.5 1.5 22.6-1.2 32.9-3.8 14.7-13.1 25.4-25.1 32.3 11.1 6.3 20.9 16.1 24.1 28.7 5.2 20.7 1.1 41.4 1.2 62.4 0.1 22.5-0.6 45.3-0.1 67.7 0.1 3.4-1.3 7.8-4.1 7.2-0.2 3.4-0.6 6.8-1 10.1 1.5-2.7 3.7-6 5.6-7.9 0.8-0.9 2.3-0.9 3.1-0.1 1.9 1.9 4.3 6 5.7 8.6-0.5-3.5-0.8-7.1-1.1-10.7-2.8 0.6-4.2-3.8-4.1-7.2 0.5-22.4-0.2-45.2-0.1-67.7 0.1-21-4-41.7 1.3-62.4 3.2-12.6 12.9-22.4 24-28.7-12-6.9-21.3-17.6-25.1-32.3-2.7-10.3-0.9-22.4-1.2-32.9-0.1-4.8-1-12.7 3.8-15.6 4.7-2.7 9.4 7 10.5 9.3 4.9 10.2 9.9 21.4 18.1 29.3-3.3-8.2-5.8-25.6-5.9-26.5 0 0 1.5 6 3.4 12.6 0.9-1.8 2.6-5.1 2.8-5.7 1.4-5 0.9-13.4 0.9-13.4l-0.3-5.2 2.4 4.6c0 0 0.8 1.4 2.1 1.2 2.2-0.2 5.5-6.3 7.5-9.9 1-1.9 1.9-3.4 2.7-4.5 2.1-3.1 2.1-10.8-0.2-17.9q-0.5-1.7-1.4-1.9c-1.6-0.3-4.3 2.2-5.8 4.1l-2.2 2.7 0.3-3.5c0-0.3 2.2-31.7-8.8-44.9-8.2-9.9-25.9-12-30.8-12.4-5 0.4-22.7 2.5-30.9 12.4-11 13.2-8.8 44.6-8.8 44.9l0.3 3.5-2.2-2.7c-1.5-1.9-4.2-4.4-5.8-4.1q-0.9 0.2-1.4 1.9c-2.3 7.1-2.3 14.8-0.2 17.9 0.8 1.1 1.7 2.6 2.7 4.5 2 3.6 5.3 9.7 7.5 9.9 1.4 0.2 2.1-1.2 2.1-1.2l2.4-4.6-0.3 5.2c0 0-0.5 8.4 0.9 13.4 0.2 0.5 1.8 3.8 2.8 5.6 1.9-6.5 3.4-12.5 3.4-12.5-0.2 0.9-2.7 18.4-5.9 26.6zm35 212.3c-1.1-1.5-2-1.7-3.2-0.1-1.7 2.2-4.4 6.4-6.1 9.9-2.2 15.9-6.1 31.5-10.5 46.7-1.7 5.8-3.7 21-11.3 24.7-5.3 4.1-4.2 11-3.7 13.2 1.1 4.6 23.6 32.7 31.9 40.4 0.6 0.6 1.8 0.6 2.4 0 7.7-7.5 30.3-36.3 31.4-40.9 0.6-2.1 1.9-8.7-3.4-12.9-7.3-3.8-9.3-18.7-11-24.5-4.4-14.9-8.2-30.3-10.4-45.8-1.7-3.7-4.7-8.6-6.1-10.7zm-51.6-73.6q0 0 0 0c0.8 2.9 1.8 5.8 3.3 8.7 6.8 13.8 16.1 26.2 24.8 38.8 2.7 4.1 5.7 7.9 8.5 11.9 2.1 2.9 10.1 8.9 10 2.8-0.1-7.7 0.4-15.4 0.5-23.1 0.3-16.1-0.9-32.3-0.3-48.4 0.6-17.8 4.1-37.1-0.4-54.6-3.6-14.4-12.5-25-25-31.9-7.4 4-15.6 6.6-24.2 8-7.6 1.1-24.5 3.7-37.7 1.4-1.7 11.4 13.6 12.2 20.1 12.6 2.2 0.1 4.3 0.2 6.5 0.5 4.5 0.7 10.7 1.2 14.7 3.9 7.3 5.1 5.7 14.2 3.9 22-3.6 16.3-8.8 31.5-4.7 47.4zm-38.7-35.3c-1.9 3.3-4.6 5.8-7.8 7.8 0.7 3.8 2.5 12.7 4.5 23.1 3.6 7.4 14.5 8.5 24.8 7.4q4-9.4 9.4-18c-11.9-4.1-22.7-10.6-30.9-20.3zm23 38.1c5.7-0.7 11.1-2 14.7-3.2-1.8-6.4-2.4-12.9-1.7-19.8q-7.6 10.8-13 23zm-21.3-42q-0.4 1.4-1 2.6c8.1 9.9 18.9 16.4 31 20.4q2-3.2 4.3-6.4 0.2-0.2 0.3-0.2 0.5-3.3 1.3-6.8c2.9-11.1 13.4-36.2-3.5-40.4-2.1-0.6-4.3-0.9-6.5-1.2-9.1 4.1-17.2 9.8-24.1 17q0 0-0.1 0.1c0.5 4.7 0 9.7-1.7 14.9zm-17.8-55.7c10.9 15.9 59 5.2 70 0.7 11.8-4.8 16.8-10.8 24.1-20.8 7.1-9.9 7.9-18.6 8.2-30.4 0.1-6.7 0.4-13.5 0.2-20.2q0-3-0.4-5.9c-0.3-2.3-2.6-4.3-5-3.4-2.5 1-4.4 3.4-5.6 5.7-1.1 2.2-2 4.4-3.1 6.6-4.8 9.9-10.3 20.3-18.9 27.3-3.9 4.4-17 10.4-29.8 16.2-8 3.7-15.6 7.2-20.7 10.2-8.8 5-12.8 8.8-15.5 11.2-1.3 1.2-2.4 2.1-3.5 2.8zm-14.2 8.2c17.2 2.8 31.2 14.6 33.5 31 6.4-6.6 13.7-11.8 21.8-15.8-5.5-0.5-11.1-0.5-16.6-1.7-7.4-1.6-12.5-6.5-11.6-13.4-6.1-1.2-11.2-3.6-14.1-7.7q-1.2 0.4-2.5 0.8c-3 1-6.1 2-9.3 5.7q-0.5 0.6-1.2 1.1zm-26.7 86.8c4.7-5.2 9.7-10 15.5-13.7 9.4-6 20.1-8 29.8-13.1 15.7-8.1 17.8-33 4.5-45.7-7.6-7.3-15.3-11.8-24.6-13.1-1.5 0.9-3.1 1.6-4.9 2.4-5.2 2.4-11.1 5.2-14 12.4-4.7 12-12.6 40.3-10.8 51.7 1.3 8.7 3.6 16.1 4.5 19.1zm-25.2 119.6c8.3-10 20.1-17.7 22.4-30.7-3-7.2-5.8-15.3-8-22.7h-0.1c-0.1 0.2-6.5 9.1-10.7 20.1q-0.2 0.6-0.4 1.1-0.1 0.3-0.2 0.6-0.2 0.5-0.4 1.1c-1.5 4.6-2.6 9.5-2.6 14.2zm7.1 30.3c8.1-17.2 17.3-32.9 20.9-51.6-1.1-0.5-2-1.5-2.8-3.1q-1-2.1-2-4.3c-3.2 12.8-15.6 20.4-23.4 30.9-0.6 0.9-5.7 9.4-6.1 26.2q0 0.2 0 0.5 0 0.7 0 1.3 0 0.4 0 0.7 0 0.6 0 1.2 0 0.4 0 0.8 0 0.6 0 1.2 0 0.5 0.1 0.9 0 0.8 0 1.6c0.6 8.5 1.5 16.3 2.5 24.6 0.4 3.4 0.9 6.8 1.5 10.3 0.6-14.2 3.2-28.2 9.3-41.2zm22.2-51.2q-0.8 4.1-2 8.1c-0.6 12 2.4 23.2 8.8 33.3 2.1-4.7 4.4-9.1 7-13.4-7.1-7.8-10.9-17.6-11-28.2-1 0.3-1.9 0.4-2.8 0.2zm6.3-3q0.4-0.2 0.8-0.3c6.8-11.3 11.4-23.6 15.3-36.3 1.2-4.2 2.6-8.2 3.9-12.4 0.3-0.8 4.7-18-2.7-12.5q-2.7 2-4.5 4.8c-10.8 16.8-16.9 37.2-18.6 56.9 1.5 0.5 3.4 0.4 5.8-0.2zm-9.6 15.4c-3.8 11.7-9.4 22.4-15 33.8-2.7 5.4-4.9 10.9-6.6 16.5-1.6 22.6-3.2 49.2-1 72 0.8 9.4 7.7 6.5 9.9 0.7q0.1-0.3 0.1-0.5 0.1-0.1 0.1-0.3 0.1-0.3 0.2-0.7c0.8-4.2 1.3-8.4 2.1-12.5 1.7-8.8 5.6-19.6 8-28.5 0.8-17.2 4.8-34.5 11.6-50.1-6-9.2-9.2-19.5-9.4-30.4zm-7.8 208.1l-10.9-11.2c2.6 7.5 6 16.6 7.1 19.7 1.4-0.8 3.7-2.8 3.7-7.6 0-0.2 0.1-0.6 0.1-0.9zm6.9-3.2c-1.1-0.9-7.8-6.6-14.1-13.2-3.2-3.4-6.3-8-8.5-11.9q0.7 3.9 1.5 7.2c0.2 1 0.8 2.8 1.6 5.1l17.4 17.9c0.7-1.1 1.6-3 2.1-5.1zm4.4-80.7c-4-12.1-5.9-25.2-5.8-38.5-2.1 6.7-4.8 14.1-5.9 20.2-1.1 6-1.3 12.7-3.2 18.4-1.2 3.5-5.1 8.1-9.7 6.6-4.5-1.4-3.5-25.4-3.5-28.4-0.4-14.9 0-29.7 0.9-44.5-2.3 9.8-3.4 19.8-3.3 30.2 1.4 9.6 2.5 19.8 2.1 31.7-0.8 21.9-0.7 39.3 0.5 52.4 0.7 3 5.5 12.1 11 17.9 5.4 5.6 11.1 10.6 13.2 12.4 1.4-2 4.3-7.4 0.9-12.5-1.7-2.7-8.8-9-9.3-10.7 0-0.1-0.3-5.1-1.7-10.3q-0.1-0.2-0.1-0.4c-0.6-3.2-0.7-6-0.2-8.4 0.3-7.1 8.5-13.7 12.2-15.1-0.8 1.1-2.6 3.3-4.6 5.9q0.8 0 1.6 0.4c3.1 2.1 3.7 6.6 4.4 11.3 0.5 3.8 1 7.7 2.8 10.5 2.6 4.1 5.4 2.1 5.7-1.3 0.5-4.2 0.7-9.7 0.6-14.8l-0.2-2.9c-0.5-10.7-1.8-17.8-6.4-25.1-0.9-1.4-1.6-3.1-2-5zm22.4-119c-23.5 30-32.2 74.4-23 111.5 0-3.7 0.4-7.8 1.1-12.2 1.2-8.2 6-21.4 11.3-35.4 5.9-15.7 12-31.9 12.4-41 0.6-13.4-1.1-20.5-1.8-22.9zm6.1-32.5c0.1-0.2 0.2-0.9 0.4-1.9-3.9 6.4-9.3 11.3-18.4 13.8-2.2 0.7-4.5 1.8-6.6 2.5 0 10.3 3.6 19.7 10.4 27.3 2.3-3.7 8-11.3 8-11.3 0.1 0 4.5-4.9 5.5-11.4 1.1-6.7 0.8-18.9 0.7-19zm24.3-61.1c-3.9-17.8-8.4-41.3-9.9-49.1-2.8 1.5-5.9 2.7-8.9 3.8-15.6 5.5-26.6 13.3-37.4 24.2l-0.4 0.6c-0.1 0.1-4.7 11.6-7.2 23.7-2 9.7-3.3 29.2-3.8 36.7 2.3 8.4 5.5 18.4 8.8 25.7 1.4 3.3 2.8 5.8 5 7 1.4-15 5.3-29.3 11.5-43.1 2.6-5.8 7-19 14.7-19.8 8.1-0.9 1.5 16.5 0.8 18.5-5.1 15.2-9.3 30.2-17.3 44.1q1.7-0.5 3.3-1c9.2-3.1 14.2-9.1 17.8-16.3 1.5-7.1 4.3-18.4 8.5-25.2 5.5-9.2 12.7-24.5 14.5-29.8zm34.1 80.7c5.9 12.4 13.4 26.5 15.8 40.1 0.9 4.7 3.7 13.6 9.8 8.9 4.2-3.2 5.6-8.9 6.9-13.7 1.9-6.8 4.1-13.5 5.8-20.4 4.1-16.2 7.6-32.8 8.7-49.5q-0.9-0.6-2-2c-12.1-15-23.6-31.6-33.3-48.1-3.5-6-6.2-11.9-7.9-17.9-9.7 3.2-32.4 7.4-40.6-2 3.5 17.4 7.7 37.5 9.6 43.3 1.5 4.3 3.3 9.2 5.1 14 1.4 3.7 2.8 7.2 3.9 10.3 6.3 12.2 12.2 24.7 18.2 37zm-15.8 19.6c0 1.6 0 2.6 0 2.9q0 0.2-0.1 0.5c1.3 3.8 3.3 7.3 6.6 9.9 8 6.3 15.7 14.6 25.6 17.1-0.4-0.7-0.7-1.5-0.9-2.7-2-10.7-5-20.2-9.2-30.3-4.7-11.1-10.4-21.4-15.9-32.1-2.4-4.8-4.4-9.4-6.4-14 0.7 8 0.4 38.3 0.3 48.7zm-7.9 50.4l0.2 0.4v0.2c9.3-9.6 24.7-12.2 35.6-20.5-2.1-0.8-4.2-2-6.3-3.5-5.8-4.1-13.5-9-17.9-14.7-1.9-2.4-3.3-4.9-4.3-7.5-0.4 0.9-1.1 2.1-2.1 3.9-3.6 6.4-9.7 17.1-8.6 25.8 1.5 12.2 3.4 15.8 3.4 15.9zm-8.5 53.6q0.1 1.8-0.1 3.9 5.7-6.7 13.1-11.4c0.1-3.8 10-7.3 11.9-8.3 6.9-3.8 13.9-8.2 21.2-11.3 11.8-5 20-3.4 25.8 1.8-5.4-8.3-11.7-16.1-18-23.8-14.6-17.5-30.9-11.4-46.4-0.1-2.6 8.8-8.7 31.9-7.5 49.2zm-16.2 171.2c4.9-34.8 9.2-69.2 23.2-101.8l0.1-0.1c0.4-7.6 4.7-17.9 5.7-21 3.6-10.5 8-22 6.9-33.3-0.7-7.8-5.2-13.7-6.5-21-5.1 3.2-9.7 7.4-13.4 12.2-0.8 7.1-3.1 16.3-5.9 27.1-4.6 18.3-10.3 41.1-12.2 67.3-1.5 19.8-0.1 46.2 2.1 70.6zm6.3 56.2c0.7 5.2 1.1 8.7 1.2 9.8 0.1 2.7-0.1 4.7-0.4 6.7-0.4 2.7-0.8 5.7-0.4 11.4q0.1 0.5 0.2 1.1 0.6-1.6 1.3-3.1 2-4.8 4.1-9.3c12.2-27.7 24.3-55.7 30.2-85.4 3.5-17.6 6.4-35.4 7.7-53.3 0.8-9.8 2.2-21.6 0-31.8-3.6 1.2-7.3 2.5-10.9 3.6-4.2 1.4-8.2 2.1-12.4 0.5-2.1-0.8-3.2-2.8-3.5-5.2-13.9 33.4-17.8 68.8-22.9 104.4 2 21 4.4 39.8 5.8 50.6zm12.5 4.3c11.4 13.2 17.7 29.4 18.1 46.6 3.9-10.6 9.1-20.8 15.8-30.4-6.6-16.9-17.8-37.8-17.6-58.3-4.8 14.2-10.4 28.2-16.3 42.1zm-13.5 125q0 0 0 0.1c1.7 11.1 14.8 13.5 20.7 5.9 0-11.5 0.3-23 1-34.4 0.9-16.1 3.6-31.6 8.6-46.2 0.5-18.1-5.6-35.2-17.4-49q-2.5 6-5.1 12c-3.6 9.7-8.8 24-11.5 32.3q-0.1 0.2-0.1 0.3c-3.4 26.4-0.4 52.7 3.8 79zm-3.8 90.7c5.7-6.7 9.8-14.4 12.3-22.9-1.8-22-6-44-9.5-66.1q-0.1-0.6-0.2-1.2-0.1-0.2 0-0.3c-4-24.8-7-49.7-4.5-74.7-11.6 30.4-5.8 61.6 0.3 94.4 1.4 7.2 2.8 14.7 3.9 22.1l0.2 1.8c1.5 13.3 3 27.2-0.3 40-0.8 2.8-1.5 5-2.2 6.9zm44.9-68c-5.9 5-14.8 3.3-18.9-2.8q0 8.6 0.1 17.1c0.1 5.9-0.5 17.3-0.5 17.3q-0.6-6.4-0.7-13.1c-0.2-11.1-0.4-22.2-0.4-33.4-5.5 5.6-15.2 5-19.7-1.6 6 37 13.4 73.8 7.2 110.6-0.8 5-4.8 15.6-4.6 14.7 5.6-20 6.4-40.1 5.1-60.2-2.9 8.6-7.7 16.4-14 23-0.9 1.9-1.7 3.2-2.3 4.1q-0.3 0.5-0.5 0.9c-2.6 4.6 2.1 17.5 2.1 17.5q-0.4-0.8-0.9-1.6c-0.9-1.5-2.1-3.7-3-6.2-1.3 2.7-4.4 7.9-10.3 11.2-4 2.3-10.1 4.4-16.5 8.6-5.3 3.5-8 2.1-8 2.1l5.1-3.1c-4.1-0.5-7 1-7.6 1.6-0.4 0.4-1.3 1.4-1.3 4.8 0 2.9 5.6 4.1 5.6 4.1l1.1 0.2-0.2 1c0 0.1-0.4 2.7 1.7 6 1.7 2.6 13.4 7 24.2 10.2 2.6 0.8 7 3.8 11.3 6.7 3.4 2.4 7 4.9 8.9 5.6 4.4 1.6 20.6 3.2 30.9-3.2 10-6.3 2.3-35.4 2.2-35.7-0.4-1.5-0.8-3.1-1.3-4.8-1-3.9-2.1-8.1-3.3-12q-0.4-1.2-0.7-2.3-0.3-1.1-0.7-2.2v-0.3q0-0.1 0-0.1c-5.5-20.4-4.1-41.7 3.3-61.5 1.6-7.8 3.9-15.5 6.6-23.2zm-8 31.6c-4.5 16.1-4.9 33-1.1 49.4 0.4-1.1 0.9-2.2 1.5-3.2 1-2.1 2-4 2-5.9-3.8-13.8-4.1-27.2-2.4-40.3zm17.5-154c-0.7-2.4-1.6-5-2.6-7.6-7.1 10.2-12.5 21.1-16.4 32.6q0 0.1 0 0.1-0.2 0.3-0.3 0.6c-5.2 15.5-7.9 32-8.5 49.1-0.5 14.1-0.7 28.2-0.6 42.3 3.3 7.8 14.4 9.7 20 2.1 3.9-10.9 8.7-21.6 13.3-32.3l1.9-4.2c0.7-2.8 1.7-5.7 2.6-8.6 1.9-5.6 3.8-11.4 3.8-17.1-0.9-7.9-3.3-16-5.8-24.4-3.1-10.7-6.9-21-7.4-32.6zm12-5.8c8.6-38.4-9.8-80.4 4.3-117.6-3.5-23-4.3-46.1 3.6-68.8q-2.9 1-5.8 2c-6.2 1.9-12.4 4.1-18.6 6.3 1.9 8.8 1.1 18.8 0.5 27.3-1.2 17.2-3.5 34.4-6.7 51.3-2.2 11.6-5.2 22.9-8.8 34-2.5 23.3 11.5 43.3 19.3 67.1q0 0.2 0.1 0.6 0-0.1 0-0.2c0 0 1.5 6 3.5 13.4 3.1-4.8 6-10.1 8.6-15.4zm13.4-71.6c-3-14.4-6.3-28.9-8.7-43.4-12.1 35 3.4 74.1-2.5 110.4 3.1-6.9 5.4-13.5 6.3-18.3 1.4-7.4 2.6-22.5 4-38.4 0.3-3.3 0.5-6.8 0.9-10.3zm17.8-132.5q-0.5 0.9-1 1.7c-5.1 7.7-12.5 12.1-20.7 15.4-13.1 36.6-3.5 73.9 4.2 110.9 1-10.4 2-20.9 3.1-29.9 2.2-16.6 6.5-35.2 10-50.1 2.4-10.2 4.4-18.9 5.1-24.1 1.3-9.9-0.1-20-0.7-23.9zm0.2-43.3c-0.7-4.4-1.5-9.5-2.9-14.3-2.1-4.6-4.6-9-7.3-13.2-12.4-11.8-27.9-1.6-40.2 5.1-5.1 2.8-21.3 8-16.4 17.2 2.2 4.2 3.5 8.2 4.4 12.9 1.8 9.7-1.1 20.5-4.1 29.7-3 8.9-16.8 41.9 4.3 35.2 10.9-3.4 21.6-7.4 32.6-10.9 11.2-3.6 26.4-9.3 29.4-22.4 2.8-12.8 2.3-26.4 0.2-39.3zm5.2 4.1c1.6-10.5 4.1-21.2 9.1-28.6 7.5-14.4 15.7-23.6 25.6-34.5 11.9-13 28.3-5.6 40.6 2.8-9.5-9.6-25.3-12.1-36.1-20.5-1.9 0.6-3.9 1-6.1 1.2q-0.3 0.1-0.8 0.1-0.9 0.2-1.8 0.1c2.7 3.6 2.8 8.3 1.9 12.3-1.3 5.4-11.8 21.5-33.2 42.9-0.5 0.6-1.5 0.5-2.1-0.1-20.6-21.8-32-37-33.3-42.4-1-4-0.7-9 2.3-12.7-0.6 0-1.1 0-1.7-0.1q-0.5 0-0.8-0.1c-2.2-0.2-4.2-0.6-6.1-1.2-10.7 8.4-26.6 10.9-36 20.5 12.3-8.5 28.6-15.8 40.5-2.8 9.9 10.9 18.2 20.2 25.6 34.5 5 7.4 7.5 18.1 9.1 28.6 0.7 4.9 1.5 11.1 1.7 17.5 0.1-6.4 0.9-12.6 1.6-17.5zm89.7-236.2c-8.1 9.6-30.9 5.3-40.7 2.1-1.7 6-4.4 11.9-7.9 17.9-9.7 16.5-21.2 33.1-33.2 48.1q-1.2 1.4-2.1 2c1.1 16.7 4.6 33.3 8.7 49.5 1.7 6.9 3.9 13.6 5.8 20.4 1.3 4.8 2.7 10.5 6.9 13.7 6.1 4.7 9-4.2 9.8-8.9 2.4-13.6 9.9-27.7 15.8-40.1 6-12.3 11.9-24.8 18.3-37 1-3.1 2.4-6.6 3.8-10.3 1.8-4.8 3.7-9.7 5.1-14 1.9-5.8 6.2-25.9 9.7-43.4zm-87.6 271.4c3 13.1 18.2 18.8 29.5 22.4 10.9 3.5 21.6 7.5 32.5 10.9 21.1 6.7 7.3-26.3 4.3-35.2-3-9.2-5.9-20-4.1-29.7 0.9-4.7 2.2-8.7 4.4-12.9 4.9-9.2-11.3-14.4-16.4-17.2-12.3-6.7-27.8-16.9-40.2-5.1-2.7 4.2-5.1 8.6-7.3 13.2-1.4 4.8-2.1 9.9-2.9 14.3-2.1 12.9-2.6 26.5 0.2 39.3zm17.5 132c7.7-37 17.3-74.3 4.2-110.9-8.2-3.3-15.6-7.7-20.7-15.4q-0.5-0.8-0.9-1.7c-0.7 3.9-2.1 14-0.8 23.9 0.7 5.2 2.7 13.9 5.1 24.1 3.5 14.9 7.9 33.5 10 50.1 1.1 9 2.2 19.5 3.1 29.9zm11.5 71.5c-5.9-36.3 9.7-75.4-2.5-110.4-2.4 14.5-5.7 29-8.6 43.4 0.3 3.5 0.6 7 0.8 10.3 1.4 15.9 2.6 31 4 38.4 0.9 4.8 3.2 11.4 6.3 18.3zm10.8 20c1.9-7.4 3.5-13.5 3.5-13.7 7.8-23.7 21.9-43.9 19.4-67.2-3.5-11.1-6.6-22.4-8.8-34-3.2-16.9-5.5-34.1-6.7-51.3-0.5-8.5-1.4-18.5 0.5-27.3-6.2-2.2-12.3-4.4-18.6-6.3q-2.9-1-5.8-2c7.9 22.7 7.1 45.8 3.6 68.8 14.1 37.2-4.3 79.2 4.3 117.6 2.5 5.2 5.5 10.5 8.6 15.4zm6.6-18.7c7 10 12.3 20.7 16.3 31.9-0.1-16.5 7-35.7 17.9-47.3-6-14.2-11.7-28.4-16.6-42.9 0.2 20.5-11 41.4-17.6 58.3zm25.3 126.2c0-14.1-0.2-28.2-0.7-42.3-1-30-8.5-58.3-25.2-82.4-0.9 2.4-2.1 5.2-2.1 6.8-0.4 11.8-4.7 22.6-7.9 33.3-2.6 8.5-4.9 16.6-5.8 24.5 0 5.7 1.9 11.5 3.8 17.1 0.9 2.9 1.9 5.8 2.6 8.6l1.8 4.2c4.7 10.6 9.4 21.4 13.4 32.3 5.5 7.6 16.7 5.7 20.1-2.1zm27.4 76.9c-6.4-6.6-11.1-14.4-14-23-1.4 20.1-0.5 40.2 5.1 60.2 0.2 0.8-3.8-9.7-4.6-14.7-6.2-36.8 1.2-73.6 7.2-110.6-4.5 6.6-14.2 7.2-19.7 1.6 0 11.2-0.2 22.3-0.4 33.4q-0.1 6.7-0.7 13.1c0 0-0.6-11.4-0.5-17.3q0.1-8.5 0.2-17.1c-4.2 6.1-13.1 7.8-19 2.8 2.7 7.6 5 15.4 6.5 23.2 7.5 19.8 8.8 41.1 3.4 61.5q0 0 0 0.1v0.3q-0.4 1.1-0.7 2.2-0.4 1.1-0.7 2.3c-1.2 3.9-2.3 8.1-3.3 12-0.5 1.7-0.9 3.3-1.3 4.8-0.1 0.3-7.8 29.4 2.2 35.7 10.2 6.4 26.5 4.8 30.9 3.2 1.9-0.8 5.4-3.2 8.9-5.6 4.3-2.9 8.7-5.9 11.3-6.7 10.8-3.2 22.5-7.6 24.2-10.2 2.1-3.3 1.7-5.9 1.7-6l-0.2-1 1.1-0.2c0-0.1 5.6-1.3 5.6-4.1 0-3.4-0.9-4.4-1.3-4.8-0.6-0.6-3.5-2.1-7.6-1.6l5.1 3.1c0 0-2.8 1.4-8-2.1-6.4-4.2-12.5-6.3-16.5-8.6-5.9-3.3-9-8.5-10.3-11.2-0.9 2.5-2.1 4.7-3 6.2q-0.5 0.8-0.9 1.6c0 0 4.7-12.9 2.1-17.5q-0.2-0.4-0.5-0.9c-0.6-0.9-1.4-2.2-2.3-4.1zm-37.3 9.4c3.8-16.4 3.4-33.3-1.1-49.4 1.7 13.1 1.4 26.5-2.4 40.3 0 1.9 1 3.8 2 5.9 0.5 1 1.1 2.1 1.5 3.2zm37.7-178.2c2.5 24.9-0.5 49.8-4.5 74.7q0.1 0.1 0.1 0.3-0.2 0.7-0.4 1.4c-3.5 22-7.7 44-9.4 65.8 2.5 8.6 6.6 16.3 12.3 23-0.7-1.9-1.5-4.1-2.2-6.9-3.4-12.8-1.8-26.7-0.3-40l0.2-1.8c1.1-7.4 2.5-14.9 3.9-22.1 6.1-32.8 11.9-64 0.3-94.4zm-13.6-37.4q-2.4-5.6-4.8-11.2c-11.3 12.4-18.5 33.3-17 50h-0.1c4.7 14.2 7.2 29.1 8.1 44.7 0.7 11.4 1 22.9 1 34.4 5.9 7.6 19 5.2 20.7-5.9q0 0 0-0.1c4.2-26.3 7.2-52.6 3.8-79q0-0.2-0.1-0.3c-2.8-8.4-8-22.9-11.6-32.6zm12.7-68c-5.1-35.6-9-71-22.9-104.4-0.3 2.4-1.4 4.4-3.5 5.2-4.2 1.6-8.2 0.9-12.4-0.5-3.6-1.1-7.3-2.4-10.9-3.6-2.2 10.2-0.8 22 0 31.8 1.3 17.9 4.2 35.7 7.7 53.3 6 29.9 18.3 58.1 30.5 86.1q1.7 3.7 3.4 7.6 0.9 2 1.8 4.1 0-0.6 0.1-1.1c0.4-5.7 0-8.7-0.4-11.4-0.2-2-0.5-4-0.3-6.7 0-1.1 0.5-4.6 1.1-9.8 1.4-10.8 3.8-29.6 5.8-50.6zm-15.4-170.6c-3.8-4.8-8.3-9-13.5-12.2-1.3 7.3-5.8 13.2-6.5 21-1.1 11.3 3.3 22.8 6.9 33.3 1.1 3.1 5.3 13.4 5.7 21l0.1 0.1c14.1 32.6 18.3 67 23.2 101.8 2.2-24.3 3.6-50.8 2.1-70.6-1.9-26.2-7.6-49-12.2-67.3-2.8-10.8-5.1-20-5.8-27.1zm-7.8-55.4c-15.4-11.3-31.8-17.4-46.4 0.1-6.3 7.7-12.6 15.5-17.9 23.8 5.7-5.2 13.9-6.8 25.7-1.8 7.3 3.1 14.3 7.5 21.2 11.3 1.9 1 11.8 4.5 11.9 8.3q7.4 4.7 13.1 11.4-0.2-2.1-0.1-3.9c1.2-17.3-4.9-40.4-7.5-49.2zm-8.3-50c-1 2.6-2.4 5.1-4.3 7.5-4.4 5.7-12.1 10.6-17.9 14.7-2.1 1.5-4.2 2.7-6.3 3.5 10.9 8.3 26.3 10.9 35.6 20.5v-0.2l0.2-0.4c0-0.1 1.9-3.7 3.4-15.9 1.1-8.7-5-19.4-8.6-25.8-1-1.8-1.7-3-2.1-3.9zm-0.3-53.5c-2 4.6-4 9.3-6.4 14-5.4 10.7-11.2 21-15.9 32.1-4.2 10.1-7.2 19.6-9.2 30.3-0.2 1.2-0.5 2-0.9 2.7 9.9-2.5 17.7-10.8 25.7-17.1 3.2-2.6 5.2-6.1 6.5-9.9q-0.1-0.3-0.1-0.5c0-0.3 0-1.3 0-2.9-0.1-10.4-0.4-40.9 0.3-48.7zm41.1 3.6c3.6 7.2 8.4 13 17.6 16.1q1.7 0.5 3.3 1c-7.9-13.9-12.2-28.9-17.3-44.1-0.6-2-7.2-19.4 0.8-18.5 7.8 0.8 12.2 14 14.8 19.8 6.2 13.8 10.1 28.1 11.4 43.1 2.2-1.2 3.6-3.7 5.1-7 3.3-7.3 6.5-17.3 8.8-25.7-0.5-7.5-1.8-27-3.8-36.7-2.5-12.1-7.2-23.6-7.2-23.7l-0.2-0.4 0.1-0.1c-10.8-10.9-22.1-18.8-37.7-24.3-3-1.1-6.1-2.3-8.9-3.8-1.5 7.9-6.1 31.4-9.9 49.2 1.8 5.4 8.8 20.8 14.3 29.5 4.2 6.8 7.2 18.5 8.8 25.6zm33.4 33.9c-0.3 6.6-2 18.5-9.7 29.7 6.9 15.6 10.9 32.9 11.7 50.1 2.4 8.9 6.3 19.7 7.9 28.5 0.8 4.1 1.3 8.3 2.2 12.5q0.1 0.4 0.2 0.7 0 0.2 0 0.3 0.1 0.2 0.2 0.5c2.1 5.8 9 8.7 9.9-0.7 2.2-22.8 0.6-49.4-1-72-1.8-5.6-3.9-11.1-6.6-16.5-5.5-11.2-11-21.7-14.8-33.1zm-3.5-13.1c-0.9 0.2-1.8 0.1-2.8-0.2-0.1 10.6-3.9 20.4-11 28.2 2.5 4.2 4.8 8.6 6.9 13.2 10.2-15.7 9-32.3 8.9-33-0.8-2.7-1.5-5.4-2-8.2zm-0.5-2.8c-1.7-19.7-7.8-40.1-18.6-56.9q-1.8-2.8-4.5-4.8c-7.4-5.5-3 11.7-2.8 12.5 1.3 4.2 2.8 8.2 4 12.4 3.9 12.7 8.5 25 15.2 36.3q0.4 0.1 0.8 0.3c2.5 0.6 4.4 0.7 5.9 0.2zm-22 18.3c2.2 2.6 5.6 7.6 8 11.3 6.8-7.6 10.4-17 10.4-27.3-2.2-0.7-4.4-1.8-6.7-2.5-9-2.5-14.4-7.4-18.3-13.8 0.2 1 0.3 1.7 0.3 1.9 0 0.1-0.3 12.3 0.7 19 1.1 6.5 5.5 11.4 5.6 11.4zm21.8 101.4c0.6 4.4 1.1 8.5 1.1 12.2 9.2-37.1 0.4-81.5-23-111.5-0.7 2.4-2.4 9.5-1.8 22.9 0.4 9.1 6.5 25.3 12.4 41 5.3 14 10.1 27.2 11.3 35.4zm22.7 92.4l-10.9 11.2c0 0.3 0 0.7 0 0.9 0 4.8 2.4 6.8 3.8 7.6 1.1-3.1 4.5-12.2 7.1-19.7zm4.7-17.1c-2.1 3.9-5.2 8.5-8.4 11.9-6.4 6.6-13.1 12.3-14.2 13.2 0.6 2.1 1.5 4 2.2 5.1l17.4-17.9c0.8-2.3 1.3-4.1 1.6-5.1q0.8-3.3 1.4-7.2zm3.6-91.6c0-10.4-1-20.4-3.3-30.2 0.9 14.8 1.3 29.6 0.9 44.5-0.1 3 0.9 27-3.5 28.4-4.6 1.5-8.6-3.1-9.7-6.6-1.9-5.7-2.1-12.4-3.2-18.4-1.2-6.1-3.8-13.5-5.9-20.2 0.1 13.3-1.8 26.4-5.8 38.5-0.5 1.9-1.1 3.6-2 5-4.6 7.3-5.9 14.4-6.5 25.1l-0.1 2.9c-0.1 5.1 0.1 10.6 0.5 14.8 0.4 3.4 3.1 5.4 5.8 1.3 1.8-2.8 2.3-6.7 2.8-10.5 0.6-4.7 1.2-9.2 4.4-11.3q0.7-0.4 1.6-0.4c-2-2.6-3.8-4.8-4.6-5.9 3.7 1.4 11.8 8 12.2 15.1 0.4 2.4 0.4 5.2-0.3 8.4q0.1 0.2 0 0.4c-1.4 5.2-1.7 10.2-1.8 10.3-0.4 1.7-7.6 8-9.3 10.7-3.3 5.1-0.5 10.5 0.9 12.5 2.2-1.8 7.9-6.8 13.3-12.4 5.4-5.8 10.3-14.9 11-17.9 1.2-13.1 1.3-30.5 0.5-52.4-0.4-11.9 0.7-22.1 2.1-31.7zm5.3-49.5q0-0.6 0-1.3 0-0.3 0-0.5c-0.5-16.8-5.5-25.3-6.1-26.2-7.8-10.5-20.2-18.1-23.5-30.9q-0.9 2.2-1.9 4.3c-0.8 1.6-1.7 2.6-2.8 3.1 3.6 18.7 12.8 34.4 20.9 51.6 6.1 13 8.7 27 9.3 41.2 0.5-3.5 1-6.9 1.5-10.3 1-8.3 1.9-16.1 2.4-24.6q0.1-0.8 0.1-1.6 0-0.4 0-0.9 0.1-0.6 0.1-1.2 0-0.4 0-0.8 0-0.6 0-1.2 0-0.3 0-0.7z"/></svg>