<svg version="1.2" xmlns="http://www.w3.org/2000/svg" viewBox="0 0 864 1296" width="864" height="1296"><style>.a{fill:#e92a2a}.b{fill:#d52626}.c{fill:#9a1a1c}.d{fill:#8d1819}</style><path class="a" d="m328.4 378.1c-9.8 5.1-20.5 7.1-29.9 13.1-5.8 3.7-10.8 8.6-15.5 13.7-0.9-3-3.1-10.3-4.5-19-1.8-11.4 6.1-39.7 10.8-51.7 2.9-7.3 8.8-10 14.1-12.4 1.7-0.8 3.4-1.6 4.8-2.5 9.3 1.3 17.1 5.9 24.6 13.2 13.3 12.7 11.2 37.6-4.4 45.6z"/><path class="b" d="m282.7 383.8q-0.6-0.4-1.2-0.8c6.2-22.9 21.6-43.3 36.2-61.1q0.6 0.3 1.2 0.6c-15.3 18.6-30.3 38.6-36.2 61.3z"/><path class="b" d="m283.7 351.4q0.9-3.1 1.8-6c6.6-10.6 17.2-19 26.4-25.4q0.8 0.2 1.6 0.5c-11 7.6-23.9 17.8-29.8 30.9z"/><path class="b" d="m283 404.9q-0.2-0.8-0.6-1.9 0 0 0 0 0.4 1.1 0.7 1.9-0.1 0-0.1 0zm4.7-19.2q-0.7-0.1-1.3-0.3c4.8-13.1 13-25 21.1-36.7 5.4-7.8 11-15.8 15.4-24.1q0.5 0.4 1.1 0.7c-4.4 8.3-10 16.3-15.3 24-8.1 11.6-16.3 23.4-21 36.4z"/><path class="b" d="m297.1 384.9c3.7-5.6 8.2-10.9 12.6-16 9.6-11.2 19.5-22.8 21.4-38.1q0.6 0.6 1.2 1.2c-2.2 15-12 26.4-21.4 37.5-4.2 4.8-8.3 9.7-11.9 14.9q-1 0.3-1.9 0.5z"/><path class="b" d="m316.4 377.6c12.2-10.6 23.7-21.9 22.4-36.8q0.8 1.8 1.4 3.7c-0.6 12-9.2 21.6-19.1 30.6q-2.3 1.4-4.7 2.5z"/><path class="c" d="m283.4 404.3c0.4-6.4 1.9-12.5 4-18.4q1.6 0.3 3.2 0.3 1.5 0 2.9-0.3 1.5-0.4 3.3-0.8c-2.6 3.9-4.9 8-6.5 12.4q-0.5 0.5-1 0.9c-2 1.9-4 3.9-5.9 5.9zm-1.2-1.2c-0.5-1.6-1.1-3.6-1.7-6.1q-0.2-0.5-0.3-1.1 0.7-6.1 2.2-12 1.8 1.1 3.7 1.6c-2 5.7-3.4 11.5-3.9 17.6zm10.2-7.4c1.7-3.9 3.9-7.6 6.3-11.1 5.3-1.5 11.4-3.8 17.4-6.8q-1.7 1.5-3.4 2.9c-2.8 2.5-5.6 4.9-8.2 7.3-2.1 1-4.2 2.1-6.3 3.4q-3 1.9-5.8 4.3zm-13-3.5q-0.6-2.7-1.1-5.7 0-0.2-0.1-0.5-0.1-0.7-0.1-1.4c-0.1-1.4-0.1-2.9-0.1-4.5q1.5 1.8 3.3 3.1-1.2 4.4-1.9 9zm28.9-5.9q2.5-2.2 5.3-4.6c2.4-2.1 4.9-4.2 7.3-6.4 8.9-5.1 16.9-11.7 20.3-19.6-0.3 8-3.6 15.8-9.8 20.5q-1.5 1.2-3.3 2.1c-3.1 1.6-6.3 2.9-9.5 4.1l-6 2.3q-2.2 0.8-4.3 1.6z"/><path class="d" d="m282.8 405q-0.3-0.7-0.6-1.9c0.5-6.1 1.9-11.9 4-17.6q0.6 0.2 1.3 0.4c-2.2 5.9-3.7 12-4 18.4q-0.3 0.3-0.6 0.6 0 0.1-0.1 0.1z"/><path class="d" d="m290.3 397.5c1.6-4.4 3.9-8.5 6.5-12.4q1-0.3 1.9-0.5c-2.4 3.5-4.6 7.2-6.3 11.1q-1.1 0.9-2.1 1.8z"/><path class="d" d="m304.5 388c2.6-2.4 5.3-4.8 8.2-7.3q1.7-1.4 3.4-2.9 2.4-1.2 4.7-2.5c-2.3 2.2-4.8 4.3-7.3 6.4q-2.7 2.4-5.2 4.6-1.9 0.8-3.8 1.7z"/><path class="d" d="m280.2 395.9q-0.4-1.7-0.8-3.7 0.7-4.5 1.9-9 0.5 0.4 1.1 0.7-1.5 5.9-2.2 12z"/><path class="a" d="m528.9 378.1c9.8 5.1 20.4 7.1 29.8 13.1 5.8 3.7 10.8 8.6 15.5 13.7 1-3 3.2-10.3 4.6-19 1.7-11.4-6.1-39.7-10.9-51.7-2.8-7.3-8.8-10-14-12.4-1.7-0.8-3.4-1.6-4.9-2.5-9.3 1.3-17 5.9-24.6 13.2-13.3 12.7-11.2 37.6 4.5 45.6z"/><path class="b" d="m574.6 383.8q0.5-0.4 1.1-0.8c-6.2-22.9-21.5-43.3-36.1-61.1q-0.7 0.3-1.3 0.6c15.3 18.6 30.4 38.6 36.3 61.3z"/><path class="b" d="m573.5 351.4q-0.8-3.1-1.7-6c-6.6-10.6-17.2-19-26.4-25.4q-0.9 0.2-1.7 0.5c11 7.6 24 17.8 29.8 30.9z"/><path class="b" d="m574.2 404.9q0 0 0 0 0.3-0.8 0.6-1.9 0 0 0 0-0.3 1.1-0.6 1.9zm-4.7-19.2c-4.7-13-12.9-24.8-20.9-36.4-5.4-7.7-10.9-15.7-15.4-24q0.6-0.3 1.2-0.7c4.4 8.3 10 16.3 15.3 24.1 8.1 11.7 16.4 23.6 21.1 36.7q-0.6 0.2-1.3 0.3z"/><path class="b" d="m560.2 384.9c-3.8-5.6-8.3-10.9-12.7-16-9.6-11.2-19.5-22.8-21.4-38.1q-0.6 0.6-1.2 1.2c2.2 15 12 26.4 21.5 37.5 4.1 4.8 8.3 9.7 11.9 14.9q0.9 0.3 1.9 0.5z"/><path class="b" d="m540.9 377.6c-12.3-10.6-23.8-21.9-22.4-36.8q-0.8 1.8-1.4 3.7c0.6 12 9.1 21.6 19 30.6q2.4 1.4 4.8 2.5z"/><path class="c" d="m573.7 404c-1.9-2.1-3.8-4-5.9-5.9q-0.4-0.5-0.9-0.9c-1.7-4.4-4-8.5-6.6-12.5q1.8 0.5 3.4 0.8 1.4 0.3 2.9 0.3 1.5 0 3.1-0.3c2.1 5.9 3.6 12 4 18.5zm1.2-1.2c-0.5-6.2-1.9-12-3.9-17.6q1.9-0.6 3.7-1.6 1.5 5.8 2.2 11.9-0.1 0.6-0.3 1.2c-0.6 2.4-1.2 4.5-1.7 6.1zm-10.2-7.5q-2.8-2.3-5.8-4.3c-2.1-1.3-4.2-2.4-6.3-3.4-2.6-2.4-5.3-4.7-8.2-7.2q-1.7-1.5-3.4-2.9c6 2.9 12.2 5.2 17.4 6.7 2.4 3.5 4.6 7.2 6.3 11.1zm13-3.4q-0.7-4.6-1.9-9.1 1.8-1.2 3.3-3c0 1.6 0 3.1-0.1 4.4q0 0.8-0.1 1.5-0.1 0.2-0.1 0.5-0.5 3-1.1 5.7zm-28.9-5.9q-2.1-0.9-4.2-1.7l-0.5-0.3v0.2q-1.9-0.8-3.9-1.5l-0.4-0.2-0.6-0.2-0.7-0.3v0.1c-3.2-1.3-6.4-2.6-9.5-4.1q-1.8-1-3.3-2.1c-6.1-4.8-9.5-12.5-9.8-20.6 3.5 7.9 11.4 14.6 20.4 19.6 2.3 2.2 4.8 4.3 7.3 6.5q2.7 2.3 5.2 4.6z"/><path class="d" d="m574.2 404.8q0.2-0.7 0.6-1.9c-0.5-6.1-1.9-11.9-4-17.6q-0.6 0.2-1.3 0.4c2.2 5.9 3.6 12 4 18.4q0.3 0.3 0.6 0.6 0 0.1 0.1 0.1z"/><path class="d" d="m566.8 397.5c-1.6-4.4-3.9-8.6-6.5-12.5q-1-0.2-1.9-0.5c2.4 3.5 4.6 7.2 6.2 11.1q1.1 0.9 2.2 1.9z"/><path class="d" d="m552.7 388c-2.6-2.4-5.3-4.8-8.2-7.3q-1.7-1.4-3.4-2.9-2.4-1.2-4.7-2.5c2.4 2.2 4.9 4.3 7.3 6.4q2.7 2.4 5.3 4.6 1.9 0.8 3.7 1.7z"/><path class="d" d="m576.8 395.7q0.5-1.7 0.9-3.6-0.7-4.6-1.9-9.1-0.6 0.4-1.2 0.8 1.6 5.8 2.2 11.9z"/></svg>