<svg version="1.2" xmlns="http://www.w3.org/2000/svg" viewBox="0 0 864 1296" width="864" height="1296"><style>.a{fill:#e92a2a}.b{fill:#d52626}</style><path class="a" d="m479.6 404.5c3.5 1.1 8.9 2.4 14.7 3.2-3.6-8.2-7.9-15.8-13-23 0.6 6.9 0 13.4-1.7 19.8z"/><path class="b" d="m491.1 407.2q-0.8-0.1-1.5-0.3c-1.9-5.3-4.6-10.2-8.1-14.6q0.1-1 0.1-2c4.2 5 7.4 10.6 9.5 16.9z"/><path class="b" d="m487.4 406.5q-0.9-0.2-1.7-0.4-2-3.9-4.8-7.9 0.2-1 0.3-2c2.4 3.2 4.5 6.7 6.2 10.3z"/><path class="a" d="m377.5 404.5c-3.5 1.1-8.9 2.4-14.6 3.2 3.5-8.2 7.9-15.8 13-23-0.7 6.9-0.1 13.4 1.6 19.8z"/><path class="b" d="m366.1 407.2q0.7-0.1 1.5-0.3c1.8-5.3 4.5-10.2 8-14.6q0-1 0-2c-4.3 5-7.5 10.6-9.5 16.9z"/><path class="b" d="m369.7 406.5q0.9-0.2 1.7-0.4 2.1-3.9 4.8-7.9-0.2-1-0.3-2c-2.4 3.2-4.4 6.7-6.2 10.3z"/></svg>