<svg version="1.2" xmlns="http://www.w3.org/2000/svg" viewBox="0 0 864 1296" width="864" height="1296"><style>.a{fill:#e92a2a}.b{fill:#d52626}.c{fill:#9a1a1c}.d{fill:#8d1819}</style><path class="a" d="m407 811.5c-0.3 3.5-0.6 7-0.9 10.4-1.3 15.8-2.6 30.9-4 38.4-0.8 4.8-3.1 11.3-6.3 18.3 5.9-36.4-9.6-75.5 2.6-110.5 2.3 14.5 5.7 28.9 8.6 43.4z"/><path class="a" d="m450.2 811.5c0.3 3.5 0.6 7 0.9 10.4 1.3 15.8 2.6 30.9 4 38.4 0.8 4.8 3.2 11.3 6.3 18.3-5.9-36.4 9.6-75.5-2.6-110.5-2.3 14.5-5.7 28.9-8.6 43.4z"/><path class="b" d="m400.7 866q0 0 0 0 0.7-2.4 1.2-4.4-0.5 2-1.2 4.4zm-0.2-10.3c-0.2-5.2-0.6-10.4-0.9-15.4-1.3-17.1-2.6-34.8 2.6-51.7q0.3 1.4 0.6 2.9c-4.3 15.9-3.1 32.7-1.9 48.9 0.4 4.7 0.7 9.5 0.9 14.4q-0.6 0.5-1.3 0.9z"/><path class="b" d="m456.5 866q-0.8-2.7-1.3-5.1 0 0 0 0 0.5 2.3 1.3 5.1 0 0 0 0zm0.2-10.3q-0.7-0.4-1.3-0.9c0.2-4.9 0.6-9.7 0.9-14.4 1.2-16.2 2.4-33-1.9-48.9q0.3-1.5 0.6-2.9c5.2 16.9 3.9 34.6 2.6 51.7-0.3 5-0.7 10.2-0.9 15.4z"/><path class="c" d="m395.8 878.5c1.2-7.3 1.5-14.6 1.4-22q0.2 0 0.3 0c1.1 0 2.1-0.3 3-0.8q0.3 5.1 0.2 10.3-0.7 2.3-1.7 4.8c-0.9 2.4-2 5-3.2 7.7zm6.2-17.6q0-3-0.2-6.1 0.2-0.2 0.5-0.4 0.5-0.5 0.9-1.1-0.2 1.7-0.4 3.2-0.3 2.1-0.7 3.8 0 0.3-0.1 0.6z"/><path class="d" d="m400.7 866q0.1-5.2-0.2-10.3 0.7-0.4 1.3-0.9 0.2 3.1 0.2 6.1 0 0.3-0.1 0.7-0.5 2-1.2 4.4z"/><path class="c" d="m461.4 878.5c-2-4.5-3.7-8.8-4.9-12.5q0-5.2 0.2-10.3c0.9 0.5 2 0.8 3 0.8q0.2 0 0.3 0c-0.1 4.2 0 8.4 0.3 12.6q0.3 4.7 1.1 9.4zm-6.2-17.6q-0.1-0.3-0.1-0.6c-0.4-1.9-0.7-4.3-1-7q0.4 0.6 0.9 1.1 0.2 0.2 0.4 0.4-0.1 3-0.2 6.1z"/><path class="d" d="m456.5 866q-0.8-2.8-1.3-5.1 0.1-3.1 0.2-6.1 0.6 0.5 1.3 0.9-0.2 5.1-0.2 10.3z"/></svg>