<svg version="1.2" xmlns="http://www.w3.org/2000/svg" viewBox="0 0 864 1296" width="864" height="1296"><style>.a{fill:#e92a2a}.b{fill:#d52626}.c{fill:#9a1a1c}.d{fill:#8d1819}</style><path class="a" d="m481.2 737.2c1.3 17.9 4.2 35.8 7.8 53.4 5.9 29.7 18.1 57.8 30.3 85.6l0.2 0.5c1.3 2.8 2.6 5.8 3.8 8.7q0.7 1.5 1.3 2.9 0.1-0.6 0.1-1.1c0.4-5.7 0-8.7-0.3-11.3-0.3-2.1-0.6-4.1-0.4-6.8 0.1-1.1 0.5-4.6 1.2-9.8 1.3-10.8 3.8-29.6 5.7-50.6-5-35.6-8.9-71-22.9-104.4-0.3 2.5-1.3 4.4-3.4 5.2-4.2 1.6-8.2 0.9-12.4-0.5-3.7-1.1-7.3-2.3-10.9-3.6-2.3 10.2-0.8 22-0.1 31.8z"/><path class="b" d="m524 873c-3.2-8.8-6.9-17.7-10.4-26.3-4.7-11.6-9.7-23.5-13.6-35.6-8.6-26-13.2-49.9-14-72.4q0.1-0.1 0.2-0.2 0.5-1.3 1.1-2.5c0.6 23.6 5.5 49.1 15.1 78.3 3.9 11.7 8.6 23.2 13.2 34.4 2.8 6.8 5.7 13.8 8.4 20.8-0.1 1.3-0.1 2.5 0 3.5zm-35.2-165q-0.6-0.2-1.3-0.5 0.7 0.3 1.3 0.5z"/><path class="b" d="m524.6 863.4c-1-21.8-8.9-43.2-16.5-63.9-8.3-22.5-16.8-45.5-16.6-69.3q0.7-0.6 1.3-1.2c-0.5 24.1 8.1 47.6 16.5 70.4 6.9 18.7 14 38 16.1 57.7q-0.1 1.2-0.2 2.2-0.3 2.3-0.6 4.1zm-29.2-153.5q-0.7-0.1-1.3-0.3 0 0 0 0 0.6 0.2 1.3 0.3 0 0 0 0z"/><path fill-rule="evenodd" class="b" d="m527 844.6c-1.9-18.3-8.2-36.2-14.3-53.6-7.5-21-15.1-42.6-14.9-65.1q0.6-0.2 1.3-0.4c-0.3 22.5 7.4 44.2 14.8 65.4 5.6 15.7 11.3 31.9 13.8 48.4q-0.4 2.7-0.7 5.3zm-27.5-134.2q-0.1 0-0.3 0 0.2 0 0.3 0 0.1 0 0.1 0 0 0-0.1 0zm1.1 0q-0.5 0-1 0 0.5 0 1 0z"/><path class="b" d="m529.9 819.3c-2-14.1-6.8-28.4-11.1-41.1q-0.7-2.3-1.5-4.5c-5-15.4-10-31.6-12.5-48.8q0.7 0 1.4 0.2c2.6 17.3 7.9 33.8 13.4 51q1.6 5 3.1 9.9c2.8 8.8 5.8 18.8 7.6 29.1q-0.2 2.1-0.4 4.2z"/><path class="c" d="m482.9 753.6q-1-8.2-1.7-16.4c-0.7-9.8-2.1-21.6 0.1-31.8q0.7 0.3 1.3 0.5 2.4 0.8 4.8 1.6 0.1 0 0.1 0c-1.3 10.2-1.8 20.5-1.5 31.2-1.9 4.8-2.6 9.8-3.1 14.9zm4.4-17.6c-0.2-9.6 0.3-18.9 1.5-28q1.7 0.5 3.4 1.1 0.9 0.3 1.9 0.5c-1.7 6.9-2.5 13.8-2.6 20.6-1.6 1.7-3 3.7-4.2 5.8zm30.3-3.4c-2.5-3.9-6.8-6.7-11.4-7.5-0.7-5.2-1.2-10.4-1.5-15.7q0.9-0.4 1.6-1c1-1 1.5-2.4 1.8-4.1 3.8 9.3 6.9 18.8 9.5 28.3zm-24.8-3.6c0.2-6.3 1-12.7 2.6-19.1q1.9 0.5 3.8 0.5c-0.9 5.2-1.4 10.4-1.4 15.5-1.8 0.8-3.5 1.8-5 3.1zm6.3-3.5c0.1-5 0.5-10.1 1.5-15.1q0.3-0.1 0.5-0.1 1.2-0.1 2.3-0.4 0.4 7.6 1.4 15-0.7-0.1-1.4-0.1-1.9 0-3.7 0.5-0.3 0.1-0.6 0.2z"/><path class="d" d="m486 738.7c-0.3-10.7 0.2-21 1.5-31.2q0.7 0.3 1.3 0.5c-1.2 9.1-1.7 18.4-1.5 28q-0.6 1.2-1.1 2.5-0.1 0.1-0.2 0.2z"/><path class="d" d="m491.5 730.2c0.1-6.8 0.9-13.7 2.6-20.6q0.6 0.2 1.3 0.3c-1.6 6.4-2.4 12.8-2.6 19.1q-0.6 0.6-1.3 1.2z"/><path class="d" d="m497.8 725.9c0-5.1 0.5-10.3 1.4-15.5q0.2 0 0.3 0 0.5 0 1.1 0c-1 5-1.4 10.1-1.5 15.1q-0.7 0.2-1.3 0.4z"/><path class="d" d="m506.2 725.1q-0.7-0.2-1.4-0.2-1-7.4-1.4-15 0.6-0.2 1.2-0.4 0.1 0 0.1-0.1c0.3 5.3 0.8 10.5 1.5 15.7z"/><path class="a" d="m376.1 736.7c-1.3 17.9-4.2 35.7-7.7 53.3-6 29.8-18.2 57.8-30.4 85.7l-0.2 0.5c-1.3 2.8-2.6 5.7-3.8 8.7q-0.6 1.4-1.2 2.9-0.2-0.6-0.2-1.1c-0.4-5.7 0-8.7 0.4-11.3 0.3-2.1 0.5-4.1 0.3-6.8 0-1.1-0.5-4.6-1.1-9.8-1.4-10.8-3.8-29.6-5.8-50.6 5.1-35.6 8.9-71 22.9-104.5 0.3 2.6 1.4 4.5 3.5 5.3 4.2 1.6 8.1 0.9 12.4-0.5 3.6-1.1 7.2-2.3 10.9-3.6 2.2 10.2 0.7 22 0 31.8z"/><path class="b" d="m333.3 872.5c0.1-1.1 0.1-2.2 0.1-3.5 2.6-7 5.5-14 8.3-20.8 4.6-11.2 9.4-22.7 13.2-34.4 9.6-29.2 14.5-54.7 15.1-78.3q0.6 1.2 1.2 2.4 0 0.2 0.1 0.3c-0.8 22.5-5.4 46.4-13.9 72.4-4 12.1-8.9 24-13.7 35.6-3.5 8.6-7.2 17.5-10.4 26.3zm35.2-165q0.6-0.2 1.3-0.5-0.7 0.3-1.3 0.5z"/><path class="b" d="m332.7 862.9q-0.2-1.8-0.5-4.1-0.2-1-0.3-2.2c2.1-19.7 9.2-39 16.1-57.7 8.4-22.9 17.1-46.3 16.5-70.4q0.7 0.6 1.3 1.2c0.2 23.8-8.2 46.8-16.5 69.3-7.7 20.7-15.5 42.1-16.6 63.9zm29.3-153.5q0 0 0 0 0.6-0.1 1.3-0.3 0 0 0 0-0.7 0.2-1.3 0.3z"/><path fill-rule="evenodd" class="b" d="m330.3 844.1q-0.3-2.6-0.6-5.4c2.4-16.4 8.1-32.6 13.7-48.3 7.5-21.2 15.2-42.9 14.8-65.4q0.7 0.2 1.4 0.4c0.1 22.5-7.5 44.1-14.9 65.1-6.2 17.4-12.5 35.3-14.4 53.6zm27.5-134.2q0 0 0 0 0.2 0 0.3 0-0.1 0-0.3 0zm-1.1 0q0.5 0 1 0-0.5 0-1 0zm1 0q0.1 0 0.1 0 0 0 0 0 0 0-0.1 0z"/><path class="b" d="m327.4 818.8c2.1-14.2 6.8-28.4 11.1-41.1q0.8-2.3 1.5-4.5c5.1-15.4 10.1-31.6 12.5-48.8q-0.7 0-1.4 0.1c-2.6 17.4-7.9 33.9-13.4 51.1q-1.5 4.9-3.1 9.9c-2.8 8.8-5.8 18.8-7.6 29.1q0.2 2.1 0.4 4.2z"/><path class="c" d="m374.5 753.1c-0.6-5.1-1.3-10.2-3.2-14.9 0.4-10.7-0.1-21.1-1.5-31.2q0 0 0.1 0 2.4-0.8 4.8-1.6 0.7-0.3 1.3-0.5c2.3 10.2 0.8 22 0.1 31.8q-0.6 8.2-1.6 16.4zm-4.5-17.6c-1.1-2.1-2.5-4.1-4.2-5.8 0-6.8-0.8-13.7-2.5-20.6q0.9-0.2 1.8-0.5 1.7-0.6 3.4-1.1c1.2 9.1 1.7 18.4 1.5 28zm-30.3-3.4c2.6-9.5 5.7-19 9.6-28.3 0.2 1.7 0.7 3.1 1.7 4.1q0.7 0.6 1.6 1c-0.2 5.3-0.8 10.5-1.5 15.6-4.6 0.9-8.9 3.7-11.4 7.6zm24.8-3.6c-1.5-1.3-3.1-2.3-4.9-3.1-0.1-5.1-0.5-10.3-1.5-15.5q1.9-0.1 3.9-0.5c1.6 6.4 2.3 12.8 2.5 19.1zm-6.3-3.5q-0.3-0.1-0.5-0.2-1.9-0.5-3.8-0.5-0.7 0-1.4 0.1 1.1-7.4 1.4-15 1.2 0.3 2.3 0.4 0.3 0 0.5 0.1c1 5 1.5 10.1 1.5 15.1z"/><path class="d" d="m371.3 738.2c0.4-10.7-0.1-21.1-1.5-31.2q-0.7 0.3-1.3 0.5c1.2 9.1 1.7 18.4 1.5 28q0.6 1.2 1.2 2.4 0 0.2 0.1 0.3z"/><path class="d" d="m365.8 729.7c0-6.8-0.8-13.7-2.5-20.6q-0.7 0.2-1.3 0.3c1.6 6.4 2.3 12.8 2.5 19.1q0.7 0.6 1.3 1.2z"/><path class="d" d="m359.6 725.4c-0.1-5.1-0.5-10.3-1.5-15.5q-0.1 0-0.3 0-0.5 0-1.1 0c1 5 1.5 10.1 1.5 15.1q0.7 0.2 1.4 0.4z"/><path class="d" d="m351.1 724.5q0.7-0.1 1.4-0.1 1.1-7.4 1.4-15-0.6-0.2-1.2-0.4 0-0.1-0.1-0.1c-0.2 5.3-0.8 10.5-1.5 15.6z"/></svg>