<svg version="1.2" xmlns="http://www.w3.org/2000/svg" viewBox="0 0 864 1296" width="864" height="1296"><style>.a{fill:#e92a2a}.b{fill:#d52626}</style><path class="a" d="m339.5 1056.3c-2.4 8.6-6.6 16.4-12.3 23.1 0.7-1.9 1.5-4.2 2.2-7 3.4-12.8 1.9-26.6 0.4-40l-0.2-1.7c-1.2-7.4-2.6-14.9-3.9-22.2-6.1-32.9-11.9-64-0.3-94.4-2.5 25 0.5 49.9 4.4 74.8v0.1 0.1q0.1 0.4 0.2 0.8c3.5 22.2 7.8 44.3 9.5 66.4z"/><path class="a" d="m517.7 1056.3c2.4 8.6 6.6 16.4 12.3 23.1-0.7-1.9-1.5-4.2-2.2-7-3.4-12.8-1.9-26.6-0.4-40l0.2-1.7c1.2-7.4 2.6-14.9 3.9-22.2 6.1-32.9 11.9-64 0.3-94.4 2.5 25-0.5 49.9-4.4 74.8v0.1 0.1q-0.1 0.4-0.2 0.8c-3.5 22.2-7.8 44.3-9.5 66.4z"/><path class="b" d="m331.1 1074.3c8.1-17.9 2.8-40.4-1.9-60.4-0.9-3.8-1.7-7.4-2.5-10.9-3.7-18.1-7.2-35.9-8-53.8 0.2-4.9 0.6-9.8 1.3-14.7-1 24.3 4 48.4 8.8 71.8q1.3 6.1 2.5 12.1 0.4 1.8 0.7 3.6c3.1 15.2 6.5 32.1 2.4 47q-1.5 2.7-3.3 5.3z"/><path class="b" d="m526.1 1074.3q-1.8-2.6-3.2-5.3c-4.2-14.9-0.8-31.8 2.3-47q0.4-1.8 0.7-3.6 1.2-6 2.5-12.1c4.8-23.3 9.8-47.4 8.8-71.6 0.7 4.9 1.1 9.8 1.3 14.7-0.9 17.9-4.3 35.6-8 53.6-0.7 3.5-1.6 7.1-2.5 10.9-4.7 20-9.9 42.5-1.9 60.4z"/></svg>