<svg version="1.2" xmlns="http://www.w3.org/2000/svg" viewBox="0 0 864 1296" width="864" height="1296"><style>.a{fill:#e92a2a}.b{fill:#d52626}.c{fill:#9a1a1c}.d{fill:#8d1819}</style><path class="a" d="m486.3 389.8q5.4 8.6 9.5 18v0.2c10.4 1.1 21.5-0.2 24.8-8l0.1-0.1c2-10.2 3.6-18.9 4.3-22.5-3.2-2-5.9-4.5-7.8-7.9-8.1 9.8-18.9 16.2-30.9 20.3z"/><path class="b" d="m502 395.2c-4.4 0-8.8-0.5-13.2-1.3q-0.2-0.4-0.4-0.7 0.9-0.2 1.8-0.4c4 0.7 7.9 1 11.8 1q6.9 0 13.7-1.4 0 0.7 0 1.3-6.8 1.5-13.7 1.5z"/><path class="b" d="m500.8 387.7c0.8-0.6 1.7-1.2 2.5-1.7q3.5-0.4 6.8-1.1 1.1 0.4 2 1-5.6 1.3-11.3 1.8z"/><path class="b" d="m504.6 402.1c-4.1 0-8.2-0.5-12.3-1.7q-0.4-0.8-0.8-1.6c4.3 1.4 8.7 2 13.1 2q4.4 0 8.7-0.8-0.7 0.8-1.4 1.5-3.6 0.6-7.3 0.6z"/><path class="c" d="m497.5 408c3.9-0.3 7.6-1.8 10.9-3.8 1.3-0.7 2.5-1.6 3.5-2.7q4.5-0.7 8.9-2.3-0.1 0.3-0.1 0.7l-0.1 0.1c-1.8 4.3-5.2 6.1-11.1 7.5-2.2 0.5-5.3 0.7-7.8 0.7zm15.7-8.1c1.4-1.8 2.3-3.9 2.4-6.1q0 0 0-0.1 3.3-0.7 6.5-1.6-0.5 2.6-1.1 5.5-3.8 1.5-7.8 2.3zm-23-7.2q-1.2-0.2-2.4-0.4-0.7-1.3-1.5-2.5 2.5-0.9 4.9-1.9 0.9 0 1.9 0 3.8 0 7.6-0.3-1.2 0.8-2.3 1.6c-2.5 1.6-5.3 2.8-8.2 3.5zm25.4-0.3c-0.2-2.6-1.6-5-3.6-6.5q6.1-1.3 12-3.6c-0.4 2.4-1 5.1-1.6 8.3q-3.4 1-6.8 1.8zm-21.3-5.8q4.5-2.1 8.7-4.7 0.8-0.5 1.6-1.1c6.1-0.8 12-2.7 17.5-5.5q1.4 1.1 2.9 2-0.3 1.4-0.7 3.5-7 2.7-14.2 4.1-0.9-0.3-1.8-0.3-0.2 0-0.3 0c-1.7 0-3.2 0.6-4.7 1.4q-4.5 0.5-9 0.6zm12.8-7.5q4.8-3.6 9-8.3 0.5-0.6 1.1-1.3c1 1.9 2.3 3.4 3.8 4.8-4.4 2.3-9.1 3.8-13.9 4.8z"/><path class="d" d="m515.7 393.7q0-0.6 0-1.3 3.4-0.7 6.8-1.8-0.2 0.7-0.3 1.5-3.2 1-6.5 1.6zm-27.3-0.5q-0.3-0.4-0.5-0.9 1.2 0.3 2.3 0.5-0.9 0.2-1.8 0.4z"/><path class="d" d="m493.1 388q-0.9 0-1.9 0 1.6-0.7 3.1-1.4 4.6-0.1 9-0.6c-0.8 0.5-1.7 1.1-2.5 1.7q-3.8 0.3-7.7 0.3zm19-2.1q-0.9-0.6-2-1 7.3-1.4 14.3-4.1-0.2 0.8-0.3 1.6-6 2.2-12 3.5z"/><path class="d" d="m511.9 401.5q0.7-0.7 1.4-1.5 3.9-0.8 7.8-2.3-0.2 0.7-0.3 1.5-4.4 1.6-8.9 2.3z"/><path class="d" d="m504.6 380.9q1.3-0.9 2.5-1.8c4.9-0.9 9.6-2.5 14-4.7q0.5 0.4 1 0.9c-5.4 2.8-11.3 4.7-17.4 5.6z"/><path class="a" d="m370.8 389.8q-5.4 8.6-9.4 18l-0.1 0.2c-10.4 1.1-21.5-0.2-24.8-8v-0.1c-2-10.2-3.7-18.9-4.4-22.5 3.2-2 5.9-4.5 7.8-7.9 8.2 9.8 18.9 16.2 30.9 20.3z"/><path class="b" d="m355.1 395.2c4.4 0 8.8-0.5 13.2-1.3q0.2-0.4 0.4-0.7-0.9-0.2-1.8-0.4c-3.9 0.7-7.9 1-11.8 1q-6.8 0-13.6-1.4-0.1 0.7-0.1 1.3 6.9 1.5 13.7 1.5z"/><path class="b" d="m356.4 387.7c-0.9-0.6-1.7-1.2-2.6-1.7q-3.4-0.4-6.8-1.1-1 0.4-1.9 1 5.5 1.3 11.3 1.8z"/><path class="b" d="m352.5 402.1c4.1 0 8.2-0.5 12.3-1.7q0.4-0.8 0.8-1.6c-4.3 1.4-8.7 2-13.1 2q-4.3 0-8.6-0.8 0.6 0.8 1.3 1.5 3.7 0.6 7.3 0.6z"/><path class="c" d="m359.6 408l-4.2 0.2c-2.4 0-5.6-0.2-7.8-0.7-5.9-1.4-9.3-3.2-11.1-7.5v-0.1q-0.1-0.4-0.2-0.7 4.4 1.6 8.9 2.3c1.1 1.1 2.2 2 3.5 2.7 3.3 2 7 3.5 10.9 3.8zm-15.7-8q-4-0.8-7.9-2.3-0.5-2.9-1.1-5.6 3.3 1 6.5 1.6 0 0.1 0 0.1c0.2 2.3 1.1 4.4 2.5 6.2zm23-7.2c-2.9-0.8-5.7-1.9-8.2-3.6q-1.2-0.7-2.3-1.5 3.8 0.3 7.6 0.3 1 0 1.9 0 2.4 0.9 4.9 1.8-0.8 1.3-1.5 2.5-1.2 0.3-2.4 0.5zm-25.4-0.4q-3.5-0.7-6.8-1.8c-0.7-3.1-1.2-5.9-1.6-8.2q5.9 2.2 12 3.5c-2 1.5-3.4 4-3.6 6.5zm21.3-5.8q-4.5-0.1-9-0.6c-1.5-0.8-3-1.4-4.7-1.4q-0.2 0-0.3 0-1 0-1.8 0.3-7.3-1.4-14.2-4.1-0.4-2.1-0.7-3.4 1.5-1 2.9-2.1c5.5 2.8 11.3 4.7 17.5 5.6q0.8 0.5 1.5 1 4.2 2.6 8.8 4.7zm-12.8-7.5c-4.9-0.9-9.5-2.5-13.9-4.7 1.5-1.4 2.8-3 3.8-4.8q0.6 0.6 1.1 1.3 4.2 4.6 9 8.2z"/><path class="d" d="m341.4 393.7q-3.2-0.6-6.5-1.6-0.1-0.8-0.2-1.5 3.3 1.1 6.8 1.8-0.1 0.7-0.1 1.3zm27.3-0.5q-0.9-0.2-1.8-0.4 1.2-0.2 2.4-0.5-0.3 0.5-0.6 0.9z"/><path class="d" d="m364 388q-3.8 0-7.6-0.3c-0.9-0.6-1.7-1.2-2.6-1.7q4.5 0.5 9 0.6 1.5 0.7 3.1 1.4-0.9 0-1.9 0zm-18.9-2.1q-6.1-1.3-12-3.5-0.2-0.8-0.3-1.6 6.9 2.7 14.2 4.1-1 0.4-1.9 1z"/><path class="d" d="m345.2 401.5q-0.7-0.7-1.3-1.5-4-0.8-7.9-2.3 0.2 0.7 0.3 1.5 4.4 1.6 8.9 2.3z"/><path class="d" d="m352.5 380.9q-1.3-0.9-2.5-1.8c-4.9-0.9-9.5-2.5-13.9-4.7q-0.6 0.4-1.1 0.9c5.5 2.8 11.3 4.7 17.5 5.6z"/></svg>