<svg version="1.2" xmlns="http://www.w3.org/2000/svg" viewBox="0 0 864 1296" width="864" height="1296"><style>.a{fill:#e92a2a}.b{fill:#d52626}.c{fill:#9a1a1c}.d{fill:#8d1819}</style><path class="a" d="m431.4 443.9c0.1 7.7 0.6 15.5 0.6 23.2-0.1 6 7.9 0 9.9-2.9 2.8-3.9 5.8-7.8 8.6-11.8 8.6-12.7 18-25.1 24.8-38.9 9.4-19 2.8-36.8-1.5-56-1.7-7.9-3.4-16.9 3.9-22 4-2.8 10.2-3.2 14.8-3.9 2.2-0.4 4.3-0.5 6.4-0.6 6.5-0.4 21.9-1.1 20.2-12.5-13.2 2.2-30.2-0.3-37.8-1.5-8.5-1.3-16.8-4-24.1-8-12.6 7-21.4 17.6-25.1 32-4.5 17.5-1 36.8-0.3 54.5 0.6 16.1-0.6 32.3-0.4 48.4z"/><path class="b" d="m430.8 380.7q-0.2-2.6-0.3-5.3 0 0 0-0.1 0 0 0 0 0.1 2.7 0.4 5.4zm4.1-11.2q-0.3-1.2-0.5-2.5 1.9-2.6 4.4-4.9c8-7.3 17.7-13.4 27.1-19.2q1.2-0.8 2.5-1.6 0.1 0.7 0.3 1.5-0.7 0.4-1.4 0.9c-6.2 3.9-12.6 8-19.5 13.1-6 4.4-10.2 8.5-12.9 12.7z"/><path class="b" d="m498.8 323.7c-5.4 0-10.7-0.5-15.8-1.5-2.8-0.6-5.7-1.3-8.8-2.1-6.2-1.6-12.5-3.3-18.6-3.3-4.6 0-8.6 1-12.2 2.9q1.3-1.4 2.8-2.8c2.7-1 5.4-1.5 8.5-1.5 4.3 0 8.8 1.1 13.5 2.1l0.7 0.2c10 2.3 20.7 4.4 31.8 4.4 6.4 0 12.5-0.7 18.5-2.2q0 0.8-0.1 1.4c-6.8 1.6-13.7 2.4-20.3 2.4z"/><path class="b" d="m432 341.4q0.1-0.2 0.1-0.4 0.5-2 1.2-3.9 0-0.1 0-0.1-0.6 1.9-1.2 4 0 0.2-0.1 0.4zm4.6-6.4q0.3-1.2 0.7-2.5c5.8-5.3 13.2-7.7 23.3-7.7 5.9 0 12.2 0.8 18.3 1.6 6.3 0.8 12.7 1.6 18.8 1.6 8.8 0 15.5-1.7 21.2-5.3q-0.4 1.2-1.1 2.2c-5.4 3-11.8 4.4-19.8 4.4-6.2 0-12.7-0.9-19-1.7-6.1-0.8-12.4-1.6-18.3-1.6-10.7 0-18.3 2.8-24.1 9z"/><path class="b" d="m429.9 365.5q0-2.6 0-5.1 0 0 0 0 0 2.5 0 5.1zm3.9-12.1q0-2.1 0.2-4.2c2.7-5.2 6.4-9.4 12.1-11.6 8-3.2 16.5-3.7 24.8-4q-0.6 0.6-1 1.4-3.4 0.1-6.7 0.3c-17.2 1.5-24.8 7.2-29.4 18.1z"/><path class="b" d="m432.5 469.2c-0.3-0.4-0.5-0.9-0.5-1.7q0.1 1.2 0.5 1.7 0 0 0 0zm8.7-18.9c3-3.6 6.4-6.9 10-10.4q1.6-1.5 3.2-3.2c3.8-3.7 7.2-7.4 10.1-11.1q-3.6 5.1-7.4 10.1-1.7 1.7-3.4 3.4c-3.5 3.5-7 6.9-10.1 10.5q-1.3 0.6-2.4 0.7zm31.2-36.6c3.6-6.8 6-13.9 7.4-21.7q0.1-0.2 0.3-0.3 0 3.6-0.4 7.2-0.5 1.9-1.1 3.7c-1.9 3.8-4 7.5-6.2 11.1z"/><path class="b" d="m431.7 453q-0.1-1.3-0.1-2.6 0 1.3 0.1 2.6zm3.1-7.5q-0.3-0.8-0.5-1.8c3.7-6.2 9-10.9 14.5-15.7q2.4-2 4.8-4.2c14.6-13.4 22.8-26.6 25.6-41.4q0.3 1.9 0.5 3.8c-2.5 10.2-7.7 19.6-15.6 28.9-3.7 4.3-8.1 8.1-12.3 11.8-6.7 5.7-13 11.2-17 18.6z"/><path class="b" d="m431.6 425.9q0-1.6 0.1-3.2 0 0 0 0-0.1 1.6-0.1 3.2 0 0 0 0zm5.8-10.1q0.4-1.5 0.8-3.1c3.9-4.9 8.5-9.4 13-13.8 12.1-11.9 23.5-23.1 22.5-40.8l0.2-0.4q0.5 2.5 1.1 5c-1.1 15.6-12.1 26.4-22.7 36.9-5.3 5.1-10.6 10.4-14.9 16.2z"/><path class="b" d="m431.8 396.8q0-0.6 0-1.3 0-1.3-0.1-2.6 0 0 0 0 0.1 1.3 0.1 2.7 0 0.6 0.1 1.2 0 0-0.1 0zm6.8-13.7q-0.3-1-0.6-1.9 3.8-5 9.2-9.2c1.8-1.4 3.7-2.7 5.6-4 7.4-5.3 15-10.8 18.3-19.5q0.4 0.8 0.8 1.7c-2.9 6.6-8.1 11.3-13.5 15.3l-1.1 0.9c-7.2 5.3-13.8 10.3-18.7 16.7z"/><path class="b" d="m431.9 411.1q0.1-2.3 0.1-4.7 0 0 0 0 0 2.3-0.1 4.6 0 0 0 0.1zm8.4-16.9q0-1.1-0.1-2.3c2.5-3.1 5.5-6.3 9.2-9.5 1.6-1.4 3.3-2.9 5-4.3 8-6.6 16.2-13.5 18.6-24.4q0.3 1.5 0.6 2.9c-2.8 9-9.5 15.2-16.2 20.8-6.6 5.6-12.5 10.9-17.1 16.8z"/><path class="b" d="m431.4 439.9q0-2.7 0-5.3 0 0 0 0 0 2.6 0 5.2zm2.7-8.2q0.3-1.8 0.6-3.5c3.3-5.1 7.7-9.2 12-12.7q1.8-1.5 3.7-3c14.5-11.9 29.5-24.1 26-43.9q0.9 3.7 1.7 7.4c-0.5 8-3.7 15.6-9.4 22.1-4.1 4.6-9.3 8.7-14.4 12.7-7.9 6.2-15.9 12.5-20.2 20.9z"/><path class="c" d="m472.7 351.9q-0.4-0.8-0.8-1.7 0.3-0.6 0.5-1.2 0.1 1.5 0.3 2.9zm-1.6-3.4q-0.2-0.5-0.4-0.9c-0.7-1.6-1.4-3.2-1.9-4.8q2.6-1.6 5.3-3.4c-0.8 1.4-1.3 2.9-1.5 4.4q-0.2 0.1-0.3 0.4-0.4 2.3-1.2 4.3zm-2.6-7.2c-0.2-1-0.2-2.1 0-3.1 0.2-1.2 0.7-2.3 1.3-3.2q2.1-0.1 4.2-0.1 2.5-0.1 5-0.2 0 0-0.1 0.1 0 0 0 0-0.2 0-0.4 0.1c-3.2 2.1-6.6 4.3-10 6.4zm2.4-7.7c1.6-1.6 3.8-2.8 6-3.4 2.2-0.6 4.5-0.8 6.7-0.8 1.8 0 3.7 0.1 5.5 0.2q1.9 0.1 3.9 0.1c5.9 0 11.9-0.5 17.7-1.4 1.2-0.2 2.8-0.5 4.3-0.9-3 1.9-7.2 2.8-10.8 3.2-2 0.2-3.8 0.3-5.2 0.4q-1.7 0.1-3.4 0.2-0.8 0.1-1.6 0.2-0.7 0-1.5 0.2c-2.1 0.3-4.6 0.6-7 1q-1.1 0.2-2.3 0.5c-3.3 0.3-6.7 0.4-10 0.5q-1.1 0-2.3 0z"/><path class="d" d="m468.8 342.8q-0.2-0.7-0.3-1.5c3.4-2.1 6.8-4.3 10-6.4q0.2-0.1 0.4-0.1 0 0 0 0-0.6 0.3-1.2 0.7c-1.6 1.1-2.8 2.5-3.6 3.9q-2.7 1.8-5.3 3.4z"/><path class="d" d="m469.8 335q0.5-0.7 1.1-1.4 1.2 0 2.3 0c3.3-0.1 6.7-0.2 10-0.5-1.5 0.4-2.9 0.9-4.2 1.6q-2.5 0.1-5 0.2-2.1 0-4.2 0.1z"/><path class="d" d="m471.9 350.2q-0.4-0.9-0.8-1.7 0.8-2 1.2-4.3 0.1-0.3 0.3-0.4c-0.3 1.7-0.3 3.4-0.2 5.2q-0.2 0.6-0.5 1.2z"/><path fill-rule="evenodd" class="c" d="m433.8 469.7q-0.1 0-0.2 0-0.1 0-0.2-0.1-0.5-0.1-0.9-0.4c2.1-7.7 6.1-13.9 11.1-19.6q1-0.4 2.2-1.2c3.3-2 5.8-5.3 8.2-8.4q1.5-2.1 3.1-4.3c2.9-2.8 5.7-5.7 8.2-8.8 6-7.3 10.4-15.4 13.3-24.3q0.4-0.8 0.8-1.6c-0.8 4.1-2 8.3-4.1 12.5-6.8 13.8-16.2 26.2-24.8 38.9-2.8 4-5.8 7.9-8.6 11.8-1.4 2-5.6 5.5-8.1 5.5zm-1.8-3.3q0-0.5 0-1c0-4.1-0.2-8.2-0.3-12.4q0.2-0.1 0.2-0.3c0.8-2.6 1.7-5 2.9-7.2 1 2.8 2.7 4.9 5.5 4.9q0.4 0 0.9-0.1c-3.9 4.6-7.2 9.7-9.2 16.1zm-0.4-16.9q-0.1-2.8-0.2-5.6 0-0.2 0-0.5 0-1.8 0-3.6l0.1-0.7c0.5-2.7 1.4-5.2 2.6-7.5q0 0.2-0.1 0.5c-0.5 3.1-0.6 7.8 0.3 11.6q-1.6 2.7-2.7 5.8zm-0.2-14.9q0.1-4.4 0.2-8.7 0.1-0.1 0.2-0.3c1.5-3.4 3.4-6.7 5.6-9.8q-0.4 1.8-0.9 3.5c-0.8 3-1.3 5.9-1.8 8.8-1.3 2-2.4 4.2-3.3 6.5zm33.1-9c2.7-3.9 5.4-7.8 7.9-11.9-2.2 4.1-4.8 8-7.9 11.9zm-32.8-2.9q0.2-5.8 0.2-11.7c1.7-6.5 4.6-11.9 8.4-16.8 0.3 6.2-0.7 12.4-2.1 18.5-2.5 3.1-4.7 6.4-6.5 10zm0.3-16.3q0-4.8-0.1-9.6c1.4-5.4 3.7-9.8 6.7-13.7 0.6 2.7 1.2 5.4 1.5 8.1q0 0.4 0.1 0.7c-3.7 4.7-6.4 9.4-8.2 14.5zm-0.3-13.5c-0.2-4-0.5-8.1-0.8-12.2v-0.3c0.6-3.9 1.8-7.4 4.1-10.8q0.6 3.5 1.7 7 0.7 2.3 1.3 4.6-4 5.3-6.3 11.7zm-1.2-17.6q-0.1-0.1-0.1-0.2-0.1-2.4-0.3-4.9-0.1-2.3-0.2-4.7l0.2-0.8c1.1-4.2 2.3-8 3.7-11.3q-0.3 6.8 0.7 13.6-2.7 3.8-4 8.3zm-0.6-14.9c0-6.5 0.6-12.9 2.1-19l0.1-0.1q2-3.5 4.5-6.2c-1.3 4.7-2.1 9.4-2.6 14.2-1.7 3.4-3 7.2-4.1 11.1zm3.4-23.4c1.7-5.1 4.2-9.7 7.3-13.8q-1.4 3.3-2.5 6.7-0.4 1.3-0.8 2.7-2.2 1.9-4 4.4z"/><path class="d" d="m430.9 380.7q-0.3-2.7-0.4-5.4 1.3-4.5 4-8.3 0.2 1.3 0.5 2.6c-2.3 3.4-3.5 6.9-4.1 10.8z"/><path class="d" d="m432 341.4q0.1-0.2 0.1-0.4 0.6-2.1 1.2-4 1.8-2.5 4-4.4-0.4 1.2-0.7 2.5-2.5 2.7-4.5 6.2z"/><path class="d" d="m429.9 365.5q0-2.6 0-5.1c1.1-3.9 2.4-7.7 4.1-11.1q-0.2 2-0.2 4.1c-1.4 3.3-2.6 7.1-3.7 11.3z"/><path class="d" d="m432.5 469.2q-0.4-0.5-0.5-1.7 0-0.2 0-0.4 0-0.4 0-0.7c2-6.4 5.3-11.5 9.2-16.1q1.1-0.1 2.4-0.7c-5 5.7-9 11.9-11.1 19.6zm24.6-33.5q3.8-5 7.4-10.1c3.1-3.9 5.7-7.8 7.9-11.9 2.2-3.6 4.3-7.3 6.2-11.1-2.9 8.9-7.3 17-13.3 24.3-2.5 3.1-5.3 6-8.2 8.8z"/><path class="d" d="m431.7 453q-0.1-1.3-0.1-2.6 0-0.4 0-0.9 1.1-3.1 2.7-5.8 0.2 1 0.5 1.8c-1.2 2.2-2.1 4.6-2.9 7.2q0 0.2-0.2 0.3z"/><path class="d" d="m431.6 425.9q0-1.6 0.1-3.2c1.8-3.6 4-6.9 6.5-10q-0.4 1.6-0.8 3.1c-2.2 3.1-4.1 6.4-5.6 9.8q-0.1 0.2-0.2 0.3z"/><path class="d" d="m431.9 396.8q-0.1-0.6-0.1-1.2 0-1.4-0.1-2.7 2.3-6.4 6.3-11.7 0.3 0.9 0.6 1.9c-3 3.9-5.3 8.3-6.7 13.7z"/><path class="d" d="m431.9 411q0.1-2.3 0.1-4.6c1.8-5.1 4.5-9.8 8.2-14.5q0.1 1.2 0.1 2.3c-3.8 4.9-6.7 10.3-8.4 16.8z"/><path class="d" d="m431.4 439.8q0-2.6 0-5.2c0.9-2.3 2-4.5 3.3-6.5q-0.3 1.8-0.6 3.5c-1.2 2.3-2.1 4.8-2.6 7.5z"/><path class="a" d="m425.8 443.9c-0.1 7.7-0.6 15.4-0.5 23.1 0 6.1-7.9 0.1-10-2.8-2.8-4-5.8-7.8-8.6-11.9-8.6-12.6-17.9-25-24.7-38.8-9.4-19-2.8-36.9 1.4-56.1 1.7-7.9 3.4-16.9-3.9-22-4-2.7-10.2-3.2-14.7-3.9-2.2-0.3-4.3-0.4-6.5-0.5-6.5-0.5-21.8-1.2-20.2-12.6 13.2 2.3 30.2-0.3 37.8-1.4 8.6-1.4 16.8-4 24.2-8 12.5 6.9 21.4 17.5 25 31.9 4.5 17.5 1 36.8 0.4 54.6-0.7 16.1 0.5 32.3 0.3 48.4z"/><path class="b" d="m426.4 380.7q0.2-2.7 0.4-5.4 0 0 0 0 0 0 0 0.1-0.2 2.6-0.4 5.3zm-4.1-11.2c-2.8-4.2-7-8.3-13-12.7-6.9-5.1-13.3-9.2-19.5-13.1q-0.7-0.5-1.4-0.9 0.2-0.8 0.3-1.5 1.3 0.8 2.6 1.6c9.3 5.8 19.1 11.9 27 19.2q2.6 2.3 4.4 4.9-0.2 1.3-0.4 2.5z"/><path class="b" d="m358.5 323.7c5.3 0 10.6-0.5 15.7-1.5 2.9-0.6 5.8-1.4 8.8-2.2 6.2-1.6 12.5-3.2 18.7-3.2 4.6 0 8.6 0.9 12.1 2.9q-1.3-1.5-2.8-2.8c-2.6-1-5.4-1.5-8.4-1.5-4.4 0-8.8 1-13.6 2.1l-0.7 0.2c-10 2.2-20.7 4.3-31.7 4.3-6.5 0-12.5-0.7-18.6-2.1q0 0.7 0.1 1.4c6.8 1.6 13.7 2.4 20.4 2.4z"/><path class="b" d="m425.2 341.4v-0.1q-0.1-0.2-0.1-0.4-0.5-2-1.2-3.9 0 0 0 0 0.7 1.9 1.2 3.9 0.1 0.2 0.1 0.5zm-4.5-6.4c-5.8-6.2-13.5-9-24.1-9-5.9 0-12.2 0.8-18.4 1.6-6.3 0.8-12.8 1.7-19 1.7-8 0-14.3-1.4-19.7-4.4q-0.7-1-1.1-2.2c5.6 3.6 12.4 5.3 21.1 5.3 6.2 0 12.6-0.8 18.8-1.6 6.1-0.8 12.5-1.6 18.4-1.6 10 0 17.5 2.4 23.2 7.7q0.4 1.3 0.8 2.5z"/><path class="b" d="m427.3 365.5v-0.1q0-2.5 0-5.1 0 0 0 0.1 0.1 2.5 0 5.1zm-3.8-12.1c-4.7-10.9-12.3-16.6-29.4-18.1q-3.4-0.2-6.7-0.4-0.5-0.7-1.1-1.3c8.3 0.3 16.8 0.8 24.8 3.9 5.7 2.3 9.4 6.5 12.1 11.7q0.2 2.1 0.3 4.2z"/><path class="b" d="m424.7 469.1q0 0 0 0 0.5-0.5 0.5-1.6c0 0.8-0.2 1.3-0.5 1.6zm-8.6-18.8q-1.1-0.2-2.5-0.7c-3.1-3.6-6.5-7-10.1-10.5q-1.7-1.7-3.4-3.4-3.7-5-7.4-10.1c2.9 3.7 6.3 7.3 10.1 11.1q1.6 1.6 3.2 3.2c3.6 3.5 7.1 6.8 10.1 10.4zm-31.2-36.6c-2.3-3.6-4.4-7.3-6.3-11.2q-0.5-1.8-1-3.6-0.5-3.7-0.4-7.3 0.1 0.1 0.2 0.4c1.4 7.8 3.8 14.9 7.5 21.7z"/><path class="b" d="m425.5 453q0.1-1.3 0.1-2.6 0 1.3-0.1 2.6zm-3.1-7.5c-4-7.5-10.3-12.9-17-18.7-4.2-3.6-8.6-7.4-12.3-11.8-7.9-9.2-13-18.7-15.6-28.8q0.2-1.9 0.5-3.9c2.9 14.9 11 28.1 25.6 41.4q2.4 2.2 4.8 4.3c5.5 4.8 10.8 9.4 14.5 15.7q-0.2 0.9-0.5 1.8z"/><path class="b" d="m425.6 425.9q0 0 0 0 0-1.6-0.1-3.2 0 0 0 0 0.1 1.6 0.1 3.2zm-5.8-10.1c-4.3-5.9-9.6-11.1-14.9-16.3-10.6-10.4-21.5-21.2-22.7-36.8q0.6-2.5 1.2-5l0.1 0.3c-0.9 17.8 10.5 29 22.6 40.8 4.4 4.5 9 9 12.9 13.9q0.4 1.5 0.8 3.1z"/><path class="b" d="m425.4 396.8q0 0 0 0 0-0.7 0-1.3 0.1-1.3 0.1-2.6 0 0 0 0 0 1.3-0.1 2.6 0 0.7 0 1.3zm-6.7-13.7c-4.9-6.5-11.5-11.4-18.8-16.8l-1.1-0.8c-5.4-4-10.6-8.7-13.5-15.4q0.4-0.8 0.8-1.7c3.3 8.8 10.9 14.2 18.3 19.5 1.9 1.3 3.8 2.7 5.6 4.1q5.4 4.2 9.2 9.1-0.3 1-0.5 2z"/><path class="b" d="m425.3 411q0 0 0 0-0.1-2.3-0.1-4.6 0 0 0.1 0 0 2.3 0 4.6zm-8.4-16.9c-4.5-5.9-10.4-11.1-17.1-16.7-6.6-5.6-13.3-11.9-16.2-20.8q0.3-1.5 0.6-2.9c2.4 10.8 10.6 17.7 18.6 24.4 1.7 1.4 3.4 2.8 5.1 4.3 3.6 3.2 6.6 6.3 9.2 9.5q-0.1 1.1-0.2 2.2z"/><path class="b" d="m425.8 439.8q0-2.6 0-5.3 0 0 0 0 0 2.7 0 5.3zm-2.7-8.2c-4.2-8.4-12.3-14.7-20.1-20.9-5.1-4-10.4-8.1-14.5-12.8-5.6-6.4-8.9-14.1-9.4-22q0.8-3.7 1.7-7.4c-3.4 19.8 11.6 32 26.1 43.8q1.8 1.5 3.6 3c4.3 3.6 8.8 7.7 12.1 12.8q0.3 1.7 0.5 3.5z"/><path class="c" d="m384.5 351.9q0.2-1.5 0.3-3 0.3 0.6 0.5 1.2-0.4 0.9-0.8 1.8zm1.6-3.5q-0.8-2-1.2-4.3-0.1-0.2-0.2-0.3c-0.3-1.6-0.8-3.1-1.5-4.4q2.6 1.7 5.2 3.4c-0.5 1.6-1.2 3.2-1.9 4.7q-0.2 0.5-0.4 0.9zm2.6-7.1c-3.4-2.1-6.8-4.3-10-6.5q-0.2-0.1-0.3-0.1-0.1 0-0.1 0 0 0-0.1-0.1 2.6 0.1 5.1 0.2 2 0.1 4.1 0.1c0.6 1 1.1 2.1 1.3 3.2 0.2 1.1 0.2 2.1 0 3.2zm-2.4-7.7q-1.2 0-2.3-0.1c-3.3-0.1-6.7-0.2-10-0.4q-1.1-0.3-2.3-0.5c-2.4-0.5-4.9-0.8-7-1.1q-0.7-0.1-1.5-0.2-0.8-0.1-1.6-0.1-1.6-0.2-3.4-0.3c-1.4 0-3.2-0.1-5.2-0.4-3.6-0.4-7.8-1.2-10.8-3.1 1.5 0.4 3.1 0.7 4.3 0.8 5.9 1 11.8 1.4 17.7 1.4q2 0 3.9 0c1.8-0.1 3.7-0.2 5.5-0.2 2.3 0 4.5 0.2 6.7 0.8 2.2 0.6 4.4 1.8 6 3.4z"/><path class="d" d="m388.4 342.8q0.2-0.8 0.3-1.5c-3.4-2.1-6.8-4.3-10-6.5q-0.2-0.1-0.3-0.1-0.1 0-0.1 0 0.6 0.3 1.2 0.7c1.6 1.2 2.8 2.5 3.7 4q2.6 1.7 5.2 3.4z"/><path class="d" d="m387.4 334.9q-0.5-0.7-1.1-1.3-1.2 0-2.3-0.1c-3.3-0.1-6.7-0.2-10-0.4 1.5 0.4 2.9 0.9 4.2 1.5q2.6 0.1 5.1 0.2 2 0.1 4.1 0.1z"/><path class="d" d="m385.3 350.1q0.4-0.8 0.8-1.7-0.8-2-1.2-4.3-0.1-0.2-0.2-0.3c0.2 1.6 0.3 3.4 0.1 5.1q0.3 0.6 0.5 1.2z"/><path fill-rule="evenodd" class="c" d="m423.4 469.9c-2.5 0-6.8-3.6-8.2-5.6-2.8-4-5.9-7.8-8.6-11.9-8.7-12.6-18-25-24.8-38.7-2.1-4.3-3.3-8.8-4.1-12.9 0.3 0.5 0.7 1.2 0.9 1.7 2.9 9 7.4 17.1 13.3 24.3 2.5 3.1 5.4 6 8.2 8.9q1.6 2.1 3.2 4.2c2.3 3.2 4.8 6.4 8.1 8.5q1.2 0.7 2.2 1.2c5 5.7 9 11.8 11.1 19.5-0.2 0.3-0.5 0.6-0.9 0.7q-0.1 0-0.2 0m1.7-3.5c-2.1-6.4-5.3-11.4-9.2-16q0.4 0 0.8 0c2.8 0 4.5-2 5.5-4.8 1.2 2.2 2.2 4.5 2.9 7.1q0.1 0.3 0.2 0.4c-0.1 4.1-0.3 8.2-0.3 12.4q0 0.4 0.1 0.9zm0.4-16.8q-1.2-3.1-2.8-5.8c0.9-3.8 0.8-8.5 0.3-11.7q0-0.2-0.1-0.4c1.2 2.3 2.1 4.8 2.6 7.5l0.1 0.7q0 1.8 0 3.6 0 0.2 0 0.5 0 2.8-0.1 5.6zm0.1-15c-0.8-2.3-1.9-4.4-3.2-6.4-0.5-2.9-1.1-5.9-1.9-8.8q-0.5-1.7-0.9-3.5c2.2 3.1 4.2 6.3 5.6 9.8q0.1 0.2 0.2 0.3 0.1 4.3 0.2 8.6zm-33.1-8.9c-3.1-3.9-5.7-7.9-7.8-11.9 2.4 4.1 5.1 8 7.8 11.9zm32.8-2.9c-1.7-3.6-4-6.9-6.5-10-1.4-6.1-2.3-12.4-2.1-18.6 3.8 5 6.7 10.4 8.4 16.9q0.1 5.8 0.2 11.7zm-0.3-16.3c-1.8-5.2-4.4-9.9-8.1-14.5q0-0.4 0-0.7c0.3-2.7 0.9-5.4 1.6-8.1 2.9 3.9 5.2 8.3 6.7 13.7q-0.2 4.8-0.2 9.6zm0.3-13.5q-2.2-6.4-6.3-11.8 0.6-2.3 1.3-4.5 1.1-3.5 1.8-7.1c2.2 3.4 3.5 6.9 4 10.8l0.1 0.4c-0.3 4.1-0.7 8.1-0.9 12.2zm1.3-17.6q-1.3-4.5-4.1-8.3 1-6.8 0.8-13.6c1.4 3.3 2.5 7 3.6 11.3l0.2 0.7q-0.1 2.4-0.2 4.8-0.1 2.4-0.3 4.8 0 0.1 0 0.3zm0.5-15c-1.1-3.9-2.4-7.7-4.1-11.1-0.4-4.7-1.3-9.5-2.5-14.2q2.4 2.7 4.4 6.2l0.1 0.1c1.5 6.2 2.1 12.6 2.1 19zm-3.4-23.3q-1.8-2.5-4-4.5-0.3-1.3-0.8-2.6-1.1-3.5-2.5-6.7c3.1 4.1 5.6 8.6 7.3 13.8z"/><path class="d" d="m426.4 380.7q0.2-2.7 0.4-5.4-1.3-4.5-4.1-8.3-0.2 1.3-0.4 2.5c2.2 3.4 3.5 6.9 4 10.8z"/><path class="d" d="m425.2 341.3q-0.1-0.2-0.1-0.4-0.5-2-1.2-3.9-1.8-2.5-4-4.5 0.4 1.3 0.8 2.5 2.4 2.7 4.4 6.2z"/><path class="d" d="m427.3 365.4q0-2.5 0-5.1c-1.1-3.9-2.4-7.7-4.1-11.1q0.2 2.1 0.3 4.2c1.4 3.3 2.5 7 3.6 11.3z"/><path class="d" d="m424.7 469.1c-2.1-7.7-6.1-13.8-11.1-19.5q1.4 0.5 2.5 0.7c3.9 4.6 7.1 9.6 9.2 16q0 0.4 0 0.7 0 0.3-0.1 0.5 0 1.1-0.5 1.6zm-24.6-33.4c-2.8-2.9-5.7-5.8-8.2-8.9-5.9-7.2-10.4-15.3-13.3-24.3 1.9 3.9 4 7.6 6.3 11.2 2.1 4 4.7 8 7.8 11.9q3.7 5.1 7.4 10.1z"/><path class="d" d="m425.5 453q0.1-1.3 0.1-2.6 0.1-0.5 0.1-0.9-1.2-3.1-2.8-5.8-0.2 0.9-0.5 1.8c1.2 2.2 2.2 4.5 2.9 7.1q0.1 0.3 0.2 0.4z"/><path class="d" d="m425.6 425.9q0-1.6-0.1-3.2c-1.7-3.6-4-6.9-6.5-10q0.4 1.5 0.8 3.1c2.2 3.1 4.2 6.3 5.6 9.8q0.1 0.2 0.2 0.3z"/><path class="d" d="m425.4 396.8q0-0.7 0-1.3 0.1-1.3 0.1-2.6-2.2-6.4-6.3-11.8-0.3 1-0.5 2c2.9 3.9 5.2 8.3 6.7 13.7z"/><path class="d" d="m425.3 411q-0.1-2.3-0.1-4.6c-1.8-5.2-4.4-9.9-8.1-14.5q-0.1 1.1-0.2 2.2c3.8 5 6.7 10.4 8.4 16.9z"/><path class="d" d="m425.8 439.8q0-2.6 0-5.3c-0.8-2.3-1.9-4.4-3.2-6.4q0.3 1.7 0.5 3.5c1.2 2.3 2.1 4.8 2.6 7.5z"/></svg>