<svg version="1.2" xmlns="http://www.w3.org/2000/svg" viewBox="0 0 864 1296" width="864" height="1296"><style>.a{fill:#e92a2a}.b{fill:#d52626}.c{fill:#9a1a1c}.d{fill:#8d1819}</style><path class="a" d="m517.1 427.4v0.1c1.8 5.3 8.8 20.8 14.3 29.6 4.2 6.7 7.2 18.4 8.8 25.5 3.6 7.2 8.5 13 17.7 16.1q1.6 0.6 3.3 1c-8-13.8-12.2-28.8-17.3-44-0.7-2-7.3-19.5 0.8-18.6 7.7 0.9 12.1 14 14.8 19.9 6.1 13.8 10 28.1 11.4 43.1 2.2-1.2 3.6-3.7 5-7.1 3.3-7.3 6.5-17.3 8.8-25.6-0.4-7.5-1.8-27-3.8-36.7-2.4-12.1-7.1-23.7-7.2-23.8l-0.1-0.4v-0.1c-10.8-10.9-22.1-18.7-37.7-24.3-3-1-6.1-2.2-8.9-3.8-1.5 7.9-6 31.4-9.9 49.1z"/><path class="b" d="m563.9 468.1q-0.4-1.2-0.9-2.3c5.5-24.2 3.3-48.8-6.1-71.5q0.8 0.1 1.5 0.2c9.6 23.5 11.5 48.8 5.5 73.6zm-6.1-75q-1-0.7-2-1.4 0 0 0 0 1 0.7 2 1.3 0 0.1 0 0.1z"/><path class="b" d="m569.9 491.8c8.2-19.1 12-39.1 11.3-59.5q-0.1-0.9-0.3-1.6c-0.4-2.2-0.9-4.3-1.4-6.3 1.9 22.3-1.4 44.1-10 64.9q0.2 1.3 0.4 2.5z"/><path class="b" d="m557 491.6q-0.8-1.6-1.5-3.3c-7.3-7.3-14.1-15.1-20.3-23.1q0.8 1.9 1.4 3.8c6.3 7.9 13.1 15.5 20.4 22.6z"/><path class="b" d="m549.4 472.4c-7.4-7.8-14.2-16.1-20.3-24.9q-0.3-1.6-0.5-3.2c5.9 8.9 12.5 17.3 19.8 25.1q0.5 1.5 1 3zm-32.3-44.9v-0.1q0.2-0.8 0.4-1.6 0 0 0 0-0.2 0.8-0.4 1.7z"/><path class="b" d="m566.7 477.1c8.4-23.5 10-48.8 4.5-73.1q-0.9-0.8-1.7-1.6c5.8 24.4 4.7 48.8-3.4 72.5q0.3 1.1 0.6 2.2z"/><path class="b" d="m543.1 437.2q0.1 0 0.3-0.1 0.3 0 0.7 0 0.2 0 0.3 0c-0.1-12-1.9-23.8-5.3-35.3q-0.5 0.6-1 1.2c3.2 11.1 4.9 22.6 5 34.2z"/><path class="b" d="m541 439.6q0.2-0.9 0.7-1.5-5.9-11.8-10.1-24.3-0.4 1-0.8 2 4.2 12.2 10.2 23.8z"/><path class="b" d="m551.5 441.5c0.2-15.1-1.9-30-6.3-44.5q-0.6 0.4-1.2 0.7c4.2 13.8 6.2 28 6.2 42.4q0.7 0.6 1.3 1.4z"/><path class="b" d="m557.5 452.4q-0.5-1.2-1.1-2.5c1.8-18.5-0.8-37.2-7.5-54.6q0.7-0.2 1.3-0.4c7 18.3 9.5 37.9 7.3 57.4zm-10.8-65.8q-0.9-0.4-1.9-0.9 0 0 0 0 1 0.5 1.9 0.9 0 0 0 0z"/><path class="b" d="m544.1 456.1q-0.1-0.2-0.2-0.4c-0.2-0.5-0.6-1.8-1.2-3.5-5.8-7.8-10.6-16.2-14.5-25.1q-0.2 1.3-0.3 2.7c4.3 9.3 9.7 18.2 16.2 26.3z"/><path class="c" d="m531.5 457.2q-0.1-0.1-0.1-0.1c-1.9-3-3.9-6.8-5.9-10.6-3.3-6.6-6.3-13.5-7.8-17.5q5.2 9.5 11.4 18.5 0.9 4.9 2.4 9.7zm-2.9-12.9q-6.1-8.9-11.1-18.5c0.8-3.9 1.7-8 2.5-12.1q0.4-1.8 0.7-3.6 2.9 10.2 7.2 19.7c-0.2 3.9-0.1 7.9 0.3 11.9q0.2 1.3 0.4 2.6zm-0.4-17.2q-4.2-9.6-6.9-19.9c1.1-5.4 2.2-10.6 3.1-15.2q2.4 12.1 6.4 23.8c-1.3 3.6-2.2 7.4-2.6 11.3zm3.4-13.3q-4.2-12.4-6.6-25.3c0.5-2.3 0.9-4.4 1.2-6.1q0.5-2.4 0.8-4 0.5 0.2 0.9 0.4 0.4 0.2 0.8 0.4 5.9 11.6 9.4 23.8c-1.7 1.9-3.1 4.1-4.4 6.3q-1.2 2.2-2.1 4.5zm7.5-12q-3.2-11.1-8.5-21.7 2.6 1.1 5.3 2 1.5 0.6 2.9 1.1 3 7.2 5.2 14.5c-1.8 1.2-3.4 2.6-4.9 4.1zm6.1-4.8q-2-6.6-4.7-13.1 1 0.4 2 0.8 1.2 0.5 2.3 1 2.3 4.8 4.1 9.6-0.3 0.1-0.6 0.3-1.6 0.6-3.1 1.4zm15.2-2q-1-0.3-2-0.5-0.3-0.7-0.6-1.4 1.3 0.9 2.6 1.9zm-10.2-0.1q-1.6-4.2-3.5-8.2 4.8 2.3 9.1 5 0.5 1.3 1.1 2.6-0.8 0-1.6 0c-1.7 0-3.4 0.2-5.1 0.6z"/><path class="d" d="m529.1 447.5q-0.3-1.6-0.5-3.2-6.1-8.9-11.1-18.5-0.2 0.8-0.4 1.7 0.3 0.6 0.6 1.5 5.2 9.5 11.4 18.5z"/><path class="d" d="m538.1 403q0.5-0.6 1-1.2-3.2-11.1-8.5-21.7-1-0.4-1.9-0.9 5.9 11.6 9.4 23.8z"/><path class="d" d="m530.8 415.8q0.4-1 0.8-2-4.2-12.4-6.6-25.3-0.3 1.7-0.6 3.5 2.4 12.1 6.4 23.8z"/><path class="d" d="m544 397.7q0.6-0.3 1.2-0.7-2-6.6-4.7-13.1-0.8-0.4-1.7-0.7 3 7.2 5.2 14.5z"/><path class="d" d="m548.9 395.3q0.7-0.2 1.3-0.4-1.6-4.2-3.5-8.2-0.9-0.5-1.9-1 2.3 4.8 4.1 9.6z"/><path class="d" d="m527.9 429.8q0.1-1.4 0.3-2.7-4.2-9.6-6.9-19.9-0.3 1.5-0.6 2.9 2.9 10.2 7.2 19.7z"/><path class="d" d="m558.4 394.5q-0.3-0.7-0.6-1.4-1-0.7-2-1.4 0.6 1.3 1.1 2.6 0.8 0.1 1.5 0.2z"/><path class="a" d="m340.1 427.4v0.1c-1.8 5.3-8.8 20.8-14.3 29.6-4.2 6.7-7.3 18.4-8.8 25.5-3.6 7.2-8.4 13.2-17.7 16.4-1 0.3-2.4 0.7-3.5 1 7.9-13.8 12.4-29.1 17.5-44.3 0.7-2 7.3-19.2-0.7-18.3-7.8 0.8-12.2 14-14.8 19.8-6.1 13.8-10.2 28.2-11.5 43.2-2.2-1.2-3.7-3.9-5.2-7.2-3.3-7.3-6.8-17.3-9.2-25.7 0.5-7.5 2.4-27.1 4.3-36.8 2.5-12.1 7.2-23.7 7.3-23.8l0.1-0.4-0.1-0.1c10.9-10.9 22.2-18.7 37.8-24.3 3-1 6.1-2.2 8.9-3.8 1.5 7.9 6 31.4 9.9 49.1z"/><path class="b" d="m293.3 468.1c-6-24.8-4.1-50.1 5.5-73.6q0.7-0.1 1.5-0.2c-9.5 22.7-11.6 47.3-6.2 71.5q-0.4 1.1-0.8 2.3zm6.1-75q0 0 0 0 1-0.7 2-1.4 0 0 0 0-1 0.7-2 1.4z"/><path class="b" d="m287.3 491.8c-8.2-19.1-12-39.1-11.4-59.5q0.2-0.9 0.3-1.6c0.5-2.2 1-4.3 1.5-6.3-1.9 22.3 1.4 44.1 10 64.9q-0.2 1.3-0.4 2.5z"/><path class="b" d="m300.2 491.6q0.8-1.6 1.5-3.3c7.3-7.3 14-15.1 20.2-23.1q-0.7 1.9-1.3 3.8c-6.3 7.9-13.1 15.5-20.4 22.6z"/><path class="b" d="m307.8 472.4q0.5-1.5 1-3c7.2-7.8 13.9-16.2 19.8-25.1q-0.2 1.6-0.5 3.2c-6.1 8.8-12.9 17.1-20.3 24.9zm32.3-44.9q-0.2-0.9-0.4-1.7 0 0 0 0 0.2 0.8 0.4 1.6z"/><path class="b" d="m290.5 477.1c-8.4-23.5-10-48.8-4.5-73.1q0.8-0.8 1.7-1.6c-5.8 24.4-4.7 48.8 3.4 72.5q-0.3 1.1-0.6 2.2z"/><path class="b" d="m314.1 437.2q-0.1 0-0.3-0.1-0.3 0-0.7 0-0.2 0-0.3 0c0.1-12 1.9-23.8 5.3-35.3q0.5 0.6 1 1.2c-3.2 11.1-4.9 22.6-5 34.2z"/><path class="b" d="m316.2 439.6q-0.2-0.9-0.8-1.5 6-11.8 10.2-24.3 0.4 1 0.8 2-4.3 12.2-10.2 23.8z"/><path class="b" d="m305.6 441.5c-0.1-15.1 2-30 6.4-44.5q0.6 0.4 1.2 0.7c-4.2 13.8-6.3 28-6.2 42.4q-0.7 0.6-1.4 1.4z"/><path class="b" d="m299.7 452.4v-0.1c-2.2-19.5 0.3-39.1 7.3-57.4q0.6 0.2 1.3 0.4c-6.7 17.4-9.3 36.1-7.5 54.6q-0.6 1.3-1.1 2.5zm10.8-65.7q0 0 0-0.1 0.9-0.4 1.9-0.9 0 0 0 0-1 0.5-1.9 1z"/><path class="b" d="m313.1 456.1q0.1-0.2 0.2-0.4c0.1-0.5 0.6-1.8 1.2-3.5 5.7-7.8 10.6-16.2 14.5-25.1q0.2 1.3 0.2 2.7c-4.3 9.3-9.6 18.2-16.1 26.3z"/><path class="c" d="m325.7 457.2q1.5-4.8 2.4-9.7 6.2-9 11.4-18.5c-1.5 4-4.5 10.9-7.8 17.5-2 3.8-4 7.6-5.9 10.6q-0.1 0-0.1 0.1zm2.9-12.9q0.2-1.3 0.4-2.6c0.4-4 0.5-8 0.2-11.9q4.4-9.5 7.2-19.7 0.4 1.8 0.8 3.6c0.8 4.1 1.7 8.2 2.5 12.1q-5 9.6-11.1 18.5zm0.4-17.2c-0.5-3.9-1.3-7.7-2.6-11.3q4-11.7 6.4-23.8c0.9 4.6 2 9.8 3.1 15.2q-2.7 10.3-6.9 19.9zm-3.4-13.3q-0.9-2.3-2.1-4.5c-1.3-2.2-2.7-4.4-4.4-6.3q3.5-12.2 9.4-23.8 0.4-0.2 0.8-0.4 0.4-0.2 0.9-0.4 0.3 1.6 0.8 4c0.3 1.7 0.7 3.8 1.1 6.1q-2.3 12.9-6.5 25.3zm-7.5-12c-1.5-1.5-3.1-2.9-4.9-4.1q2.2-7.3 5.2-14.5 1.4-0.5 2.9-1.1 2.7-0.9 5.3-2-5.3 10.6-8.5 21.7zm-6.1-4.8q-1.5-0.8-3.1-1.4-0.3-0.2-0.6-0.3 1.8-4.8 4.1-9.6 1.1-0.5 2.3-1 1-0.4 2-0.8-2.7 6.5-4.7 13.1zm-15.3-2q1.3-1 2.7-1.9-0.3 0.7-0.6 1.4-1.1 0.2-2.1 0.5zm10.3-0.1c-1.7-0.4-3.4-0.6-5.2-0.6q-0.7 0-1.5 0 0.5-1.3 1.1-2.6 4.3-2.7 9.1-5-1.9 4-3.5 8.2z"/><path class="d" d="m328.1 447.5q0.3-1.6 0.5-3.2 6.1-8.9 11.1-18.5 0.2 0.8 0.4 1.7-0.3 0.6-0.6 1.5-5.2 9.5-11.4 18.5z"/><path class="d" d="m319.1 403q-0.5-0.6-1-1.2 3.2-11.1 8.5-21.7 1-0.4 1.9-0.9-5.9 11.6-9.4 23.8z"/><path class="d" d="m326.4 415.8q-0.4-1-0.8-2 4.2-12.4 6.5-25.3 0.4 1.7 0.7 3.5-2.4 12.1-6.4 23.8z"/><path class="d" d="m313.2 397.7q-0.6-0.3-1.2-0.7 2-6.6 4.7-13.1 0.8-0.4 1.7-0.7-3 7.2-5.2 14.5z"/><path class="d" d="m308.3 395.3q-0.7-0.2-1.3-0.4 1.6-4.2 3.5-8.2 0.9-0.5 1.9-1-2.3 4.8-4.1 9.6z"/><path class="d" d="m329.2 429.8q0-1.4-0.2-2.7 4.2-9.6 6.9-19.9 0.2 1.5 0.5 2.9-2.8 10.2-7.2 19.7z"/><path class="d" d="m298.7 394.5q0.3-0.7 0.6-1.4 1.1-0.7 2.1-1.4-0.6 1.3-1.1 2.6-0.8 0.1-1.6 0.2z"/></svg>