<svg version="1.2" xmlns="http://www.w3.org/2000/svg" viewBox="0 0 864 1296" width="864" height="1296"><style>.a{fill:#e92a2a}.b{fill:#d52626}</style><path class="a" d="m426.1 259.5c-0.2 11.7-1 20.5-8.2 30.3-7.2 10.1-12.2 16.1-24 20.8-11.1 4.5-59.1 15.2-70-0.7 1.1-0.6 2.1-1.6 3.4-2.8 2.7-2.4 6.8-6.1 15.5-11.2 5.1-2.9 12.7-6.4 20.8-10.1 12.8-5.9 26-12 29.8-16.3 8.6-7 14.1-17.4 18.9-27.3 1-2.2 2-4.4 3.1-6.5 1.1-2.3 3.1-4.8 5.6-5.8 2.3-0.9 4.7 1.1 4.9 3.4q0.5 3 0.5 6c0.2 6.7-0.1 13.5-0.3 20.2z"/><path class="a" d="m431.1 259.5c0.2 11.7 1 20.5 8.2 30.3 7.2 10.1 12.2 16.1 24 20.8 11.1 4.5 59.1 15.2 70-0.7-1.1-0.6-2.1-1.6-3.4-2.8-2.7-2.4-6.8-6.1-15.5-11.2-5.1-2.9-12.7-6.4-20.8-10.1-12.8-5.9-26-12-29.8-16.3-8.6-7-14.1-17.4-18.9-27.3-1-2.2-2-4.4-3.1-6.5-1.1-2.3-3-4.8-5.6-5.8-2.3-0.9-4.7 1.1-4.9 3.4q-0.5 3-0.5 6c-0.2 6.7 0.2 13.5 0.3 20.2z"/><path class="b" d="m388 273.8l0.2-0.3c2.2-1.3 3.9-2.6 5-3.8 3-1.3 6.1-2.5 9.2-3.6 10.3-3.8 20-7.4 24-16.9q-0.1 1.6-0.1 3.2c-4.8 8-14.2 11.5-23.4 14.9-4.6 1.7-9.4 3.5-13.6 5.8z"/><path class="b" d="m399.6 263.3q1.7-2 3.2-4.2c1.8-1.2 3.6-2.5 5.4-3.7 7.8-5.2 15.2-10.1 17.9-19.2q0.1-0.1 0.1-0.2 0.2 1.6 0.2 3.3 0 0 0 0.1c-3.4 7.7-10.5 12.4-17.4 17-3.2 2.2-6.5 4.4-9.4 6.9z"/><path class="b" d="m406.3 253.5q1.7-2.7 3.1-5.6l5.5-6.4q0.9-1.1 2-2.2c2.7-2.8 5.7-6 5.7-9.6q0.7 0.1 1.3 0.5c-0.2 3.3-2.4 5.7-4.5 8.2q-0.6 0.6-1.1 1.2l-11.9 13.9z"/><path class="b" d="m352.8 290.8c2.3-1.1 4.8-2.3 7.3-3.4 5.6-1.4 11.5-2.3 17.2-3.3 20.8-3.5 40.5-6.7 48.8-26.5h0.1q-0.1 0.9-0.1 1.9 0 0.7 0 1.4c-9.2 17.8-29.2 21.1-48.4 24.4-8.4 1.4-17.1 2.8-24.9 5.5z"/><path class="b" d="m332.9 302.4c1.4-1 3-2.2 5-3.5 8.1-2.7 16.9-3.6 25.5-4.6 3.7-0.4 7.6-0.8 11.2-1.4l1.2-0.2c18.7-2.9 41.7-6.4 49.9-24.8q-0.1 2-0.4 4c-10.3 17.8-33.2 20.3-55.4 22.9-13.1 1.4-26.6 2.9-37 7.6z"/><path class="b" d="m356 309.2c-2.7 0-5.4-0.1-8.5-0.2-2.1-0.1-4.4-0.3-6.5-0.4-3.2-0.3-6.5-0.5-9.7-0.5q-2.9 0-5.4 0.3 0.7-0.6 1.4-1.3 0.1 0 0.1-0.1 3-0.2 6.7-0.2c4.2 0 8.6 0.2 12.8 0.4 4.1 0.3 8.4 0.5 12.3 0.5 1.6 0 3.1 0 4.5-0.1 22.8-1.4 40.1-7 54.1-17.6q-1.3 1.8-2.5 3.4c-10.9 7.3-23.8 12.1-39.3 14.4-6 0.9-12.5 1.4-20 1.4z"/><path class="b" d="m469.2 273.8l-1.3-0.7c-4.1-2.3-8.9-4.1-13.6-5.8-9.1-3.4-18.6-6.9-23.4-14.9q0-1.6-0.1-3.2c4 9.5 13.8 13.1 24.1 16.9 3 1.1 6.1 2.3 9.1 3.6 1.1 1.2 2.8 2.5 5 3.8z"/><path class="b" d="m457.6 263.3c-2.9-2.5-6.2-4.7-9.4-6.9-6.9-4.6-13.9-9.3-17.4-17.1q0 0 0 0 0-1.7 0.2-3.3 0.1 0.1 0.1 0.2c2.7 9.1 10.1 14 17.9 19.2 1.8 1.2 3.7 2.4 5.4 3.7q1.5 2.2 3.2 4.2z"/><path class="b" d="m450.9 253.5l-12-13.9q-0.5-0.6-1.1-1.2c-2.1-2.5-4.3-4.9-4.5-8.2q0.6-0.4 1.3-0.5c0.1 3.6 3.1 6.8 5.7 9.6q1.1 1.1 2 2.2l5.5 6.4q1.4 2.8 3.1 5.6z"/><path class="b" d="m504.4 290.8c-7.8-2.7-16.4-4.1-24.9-5.5-19.2-3.3-39.1-6.6-48.4-24.4q0-0.7 0-1.4 0-1 0-1.9c8.3 19.8 28 23 48.9 26.5 5.7 1 11.5 1.9 17.1 3.3 2.5 1.1 5 2.3 7.3 3.4z"/><path class="b" d="m524.3 302.4c-10.4-4.7-23.9-6.2-37-7.6-22.2-2.6-45.1-5.1-55.3-22.9q-0.3-2-0.5-4c8.2 18.4 31.2 21.9 49.9 24.8l1.2 0.2c3.7 0.6 7.5 1 11.3 1.4 8.5 1 17.3 1.9 25.4 4.6 2 1.3 3.6 2.5 5 3.5z"/><path class="b" d="m501.2 309.2c-7.4 0-14-0.5-20-1.4-15.5-2.3-28.4-7.1-39.3-14.4q-1.2-1.6-2.5-3.4c14.1 10.6 31.3 16.2 54.1 17.6 1.4 0.1 2.9 0.1 4.6 0.1 3.8 0 8.1-0.2 12.2-0.5 4.2-0.2 8.6-0.4 12.8-0.4q3.7 0 6.7 0.2 0 0.1 0.1 0.1 0.7 0.7 1.4 1.3-2.5-0.3-5.4-0.3c-3.2 0-6.5 0.2-9.6 0.5-2.2 0.1-4.4 0.3-6.6 0.4-3 0.1-5.8 0.2-8.5 0.2z"/></svg>