<svg width="33" height="32" viewBox="0 0 33 32" fill="none" xmlns="http://www.w3.org/2000/svg">
<path d="M29.9375 11C29.6298 10.99 29.3244 11.0561 29.0484 11.1923C28.7723 11.3286 28.5342 11.5309 28.355 11.7813C28.3398 11.803 28.318 11.8194 28.2929 11.828C28.2677 11.8366 28.2405 11.8369 28.2151 11.829C28.1898 11.8211 28.1676 11.8052 28.1519 11.7838C28.1361 11.7624 28.1276 11.7366 28.1275 11.71V9.41938C28.1275 8.1225 27.1062 7.03125 25.81 7.00063C25.4932 6.99262 25.1779 7.04812 24.8828 7.16384C24.5878 7.27957 24.3188 7.45318 24.0919 7.67446C23.865 7.89573 23.6847 8.16019 23.5615 8.45225C23.4384 8.74431 23.375 9.05805 23.375 9.375V14.5C23.375 14.5332 23.3618 14.5649 23.3384 14.5884C23.3149 14.6118 23.2832 14.625 23.25 14.625H10.25C10.2168 14.625 10.1851 14.6118 10.1616 14.5884C10.1382 14.5649 10.125 14.5332 10.125 14.5V9.41938C10.125 8.1225 9.10375 7.03125 7.8075 7.00063C7.49086 6.99296 7.17588 7.0487 6.8811 7.16458C6.58633 7.28046 6.31771 7.45413 6.09105 7.67537C5.86439 7.89661 5.68428 8.16095 5.56131 8.45284C5.43834 8.74473 5.37499 9.05827 5.375 9.375V11.7113C5.37494 11.7378 5.36641 11.7637 5.35065 11.7851C5.33489 11.8065 5.31272 11.8223 5.28736 11.8302C5.262 11.8382 5.23477 11.8378 5.20962 11.8293C5.18447 11.8207 5.16271 11.8043 5.1475 11.7825C4.96824 11.5316 4.72974 11.3288 4.45322 11.1923C4.17669 11.0558 3.87072 10.9897 3.5625 11C2.54375 11.0319 1.75 11.8944 1.75 12.9138V19.0838C1.75 20.1031 2.54625 20.9656 3.5625 20.9975C3.87019 21.0075 4.17559 20.9414 4.45164 20.8052C4.72768 20.6689 4.96584 20.4666 5.145 20.2163C5.15984 20.1932 5.18184 20.1757 5.20762 20.1664C5.2334 20.1571 5.26153 20.1565 5.28767 20.1647C5.31381 20.173 5.33652 20.1896 5.3523 20.212C5.36808 20.2344 5.37606 20.2614 5.375 20.2888V22.5806C5.375 23.875 6.39625 24.9688 7.6925 25C8.00919 25.0077 8.32422 24.9519 8.61904 24.836C8.91386 24.7201 9.18251 24.5464 9.40917 24.325C9.63584 24.1037 9.81594 23.8393 9.93888 23.5474C10.0618 23.2554 10.1251 22.9418 10.125 22.625V17.5C10.125 17.4669 10.1382 17.4351 10.1616 17.4116C10.1851 17.3882 10.2168 17.375 10.25 17.375H23.25C23.2832 17.375 23.3149 17.3882 23.3384 17.4116C23.3618 17.4351 23.375 17.4669 23.375 17.5V22.5806C23.375 23.8775 24.3962 24.9688 25.6925 24.9994C26.0091 25.007 26.3241 24.9513 26.6189 24.8354C26.9137 24.7195 27.1823 24.5459 27.409 24.3246C27.6356 24.1034 27.8157 23.8391 27.9387 23.5472C28.0617 23.2553 28.125 22.9417 28.125 22.625V20.2888C28.1251 20.2622 28.1336 20.2363 28.1494 20.2149C28.1651 20.1935 28.1873 20.1777 28.2126 20.1698C28.238 20.1618 28.2652 20.1622 28.2904 20.1708C28.3155 20.1793 28.3373 20.1957 28.3525 20.2175C28.5318 20.4684 28.7703 20.6712 29.0468 20.8077C29.3233 20.9442 29.6293 21.0103 29.9375 21C30.9562 20.9681 31.75 20.1056 31.75 19.0863V12.915C31.75 11.8956 30.9538 11.0331 29.9375 11Z" fill="white" fill-opacity="0.5"/>
</svg>
