<svg width="30" height="28" viewBox="0 0 30 28" fill="none" xmlns="http://www.w3.org/2000/svg">
<path d="M15.3475 4.33C15.2545 4.24099 15.1306 4.19131 15.0019 4.19131C14.8731 4.19131 14.7493 4.24099 14.6563 4.33L3.15 15.3219C3.10114 15.3686 3.06226 15.4248 3.03573 15.487C3.00919 15.5492 2.99555 15.6161 2.99563 15.6837L2.99375 26C2.99375 26.5304 3.20447 27.0391 3.57954 27.4142C3.95461 27.7893 4.46332 28 4.99375 28H11C11.2652 28 11.5196 27.8946 11.7071 27.7071C11.8946 27.5196 12 27.2652 12 27V18.5C12 18.3674 12.0527 18.2402 12.1464 18.1464C12.2402 18.0527 12.3674 18 12.5 18H17.5C17.6326 18 17.7598 18.0527 17.8536 18.1464C17.9473 18.2402 18 18.3674 18 18.5V27C18 27.2652 18.1054 27.5196 18.2929 27.7071C18.4804 27.8946 18.7348 28 19 28H25.0038C25.5342 28 26.0429 27.7893 26.418 27.4142C26.793 27.0391 27.0038 26.5304 27.0038 26V15.6837C27.0038 15.6161 26.9902 15.5492 26.9637 15.487C26.9371 15.4248 26.8982 15.3686 26.8494 15.3219L15.3475 4.33Z" fill="white" fill-opacity="0.5"/>
<path d="M29.6819 13.2594L25.0069 8.78687V2C25.0069 1.73478 24.9015 1.48043 24.714 1.29289C24.5264 1.10536 24.2721 1 24.0069 1H21.0069C20.7416 1 20.4873 1.10536 20.2998 1.29289C20.1122 1.48043 20.0069 1.73478 20.0069 2V4L16.3869 0.53875C16.0481 0.19625 15.5444 0 15 0C14.4575 0 13.955 0.19625 13.6162 0.539375L0.322493 13.2581C-0.0662568 13.6331 -0.115007 14.25 0.238743 14.6562C0.327575 14.7588 0.436344 14.8422 0.55843 14.9014C0.680516 14.9605 0.813365 14.9942 0.948893 15.0004C1.08442 15.0066 1.21979 14.9852 1.34677 14.9374C1.47375 14.8896 1.58967 14.8165 1.68749 14.7225L14.6562 2.33C14.7493 2.24099 14.8731 2.19131 15.0019 2.19131C15.1306 2.19131 15.2544 2.24099 15.3475 2.33L28.3175 14.7225C28.5085 14.9057 28.7645 15.0057 29.0291 15.0006C29.2938 14.9954 29.5456 14.8855 29.7294 14.695C30.1131 14.2975 30.0812 13.6412 29.6819 13.2594Z" fill="white" fill-opacity="0.5"/>
</svg>
