<svg width="33" height="32" viewBox="0 0 33 32" fill="none" xmlns="http://www.w3.org/2000/svg">
<path d="M18.625 2H9.5C8.43949 2.00116 7.42275 2.42296 6.67285 3.17285C5.92296 3.92275 5.50116 4.93949 5.5 6V26C5.50116 27.0605 5.92296 28.0773 6.67285 28.8271C7.42275 29.577 8.43949 29.9988 9.5 30H18.625V2ZM23.5 2H22.375V30H23.5C24.5605 29.9988 25.5773 29.577 26.3271 28.8271C27.077 28.0773 27.4988 27.0605 27.5 26V6C27.4988 4.93949 27.077 3.92275 26.3271 3.17285C25.5773 2.42296 24.5605 2.00116 23.5 2Z" fill="white" fill-opacity="0.5"/>
</svg>
