<svg width="33" height="32" viewBox="0 0 33 32" fill="none" xmlns="http://www.w3.org/2000/svg">
<path d="M6.75 31H4.75C4.35218 31 3.97064 30.842 3.68934 30.5607C3.40804 30.2794 3.25 29.8978 3.25 29.5V20.5C3.25 20.1022 3.40804 19.7206 3.68934 19.4393C3.97064 19.158 4.35218 19 4.75 19H6.75C7.14782 19 7.52936 19.158 7.81066 19.4393C8.09196 19.7206 8.25 20.1022 8.25 20.5V29.5C8.25 29.8978 8.09196 30.2794 7.81066 30.5607C7.52936 30.842 7.14782 31 6.75 31ZM20.75 31H18.75C18.3522 31 17.9706 30.842 17.6893 30.5607C17.408 30.2794 17.25 29.8978 17.25 29.5V14.5C17.25 14.1022 17.408 13.7206 17.6893 13.4393C17.9706 13.158 18.3522 13 18.75 13H20.75C21.1478 13 21.5294 13.158 21.8107 13.4393C22.092 13.7206 22.25 14.1022 22.25 14.5V29.5C22.25 29.8978 22.092 30.2794 21.8107 30.5607C21.5294 30.842 21.1478 31 20.75 31ZM27.75 31H25.75C25.3522 31 24.9706 30.842 24.6893 30.5607C24.408 30.2794 24.25 29.8978 24.25 29.5V7.5C24.25 7.10218 24.408 6.72064 24.6893 6.43934C24.9706 6.15804 25.3522 6 25.75 6H27.75C28.1478 6 28.5294 6.15804 28.8107 6.43934C29.092 6.72064 29.25 7.10218 29.25 7.5V29.5C29.25 29.8978 29.092 30.2794 28.8107 30.5607C28.5294 30.842 28.1478 31 27.75 31ZM13.75 31H11.75C11.3522 31 10.9706 30.842 10.6893 30.5607C10.408 30.2794 10.25 29.8978 10.25 29.5V2.5C10.25 2.10218 10.408 1.72064 10.6893 1.43934C10.9706 1.15804 11.3522 1 11.75 1H13.75C14.1478 1 14.5294 1.15804 14.8107 1.43934C15.092 1.72064 15.25 2.10218 15.25 2.5V29.5C15.25 29.8978 15.092 30.2794 14.8107 30.5607C14.5294 30.842 14.1478 31 13.75 31Z" fill="white" fill-opacity="0.5"/>
</svg>
