
<svg version="1.2" xmlns="http://www.w3.org/2000/svg" viewBox="0 0 864 1296" width="864" height="1296"><style>.a{fill:#e92a2a}.b{fill:#d52626}</style><path class="a" d="m413 748.6c-0.2-3.2-0.5-7.7-0.8-10.9q-0.2-2.4-0.5-4.9c1.4-22.3 4.9-44.5 10.4-66.1 0.7 0.1 1.7 0.3 2.4 0.4 0.3 1.6 0.6 4.2 0.9 7.6 0.2 2.6 0.4 5.5 0.4 8.6-0.1 2.4-0.2 4.9-0.5 7.3-0.1 1.3-0.3 2.9-0.6 4.6-0.6 3.1-1.4 6.8-2.4 11-0.6 2.6-1.3 5.5-2 8.5-0.6 2.7-1.2 5.6-1.9 8.6-0.7 3-1.5 6.2-2.2 9.3-1 4.9-2.2 10.4-3.1 15.4zm-2.1-22.7q-0.2-1.4-0.4-2.7c-0.6-4.6-1.4-9.1-2.4-13.7q-0.8-4.3-2-8.6c1.8-12.4 5.9-24.4 12.1-35.5q1.3 0.5 2.6 0.9c-4.9 19.6-8.3 39.6-9.9 59.6zm-5.6-27.8c0 1.1-0.7-2.1-1-3.2q-0.6-1.9-1.3-3.8c-0.4-1.2-0.9-2.2-1.3-3.3 2.5-10.9 6.1-19.3 11-26.1 0.1 0.1 2.9 2.3 4.4 3.1-5.8 10.4-9.8 21.6-11.8 33.2 0 0 0 0.1 0 0.1zm-4.4-12.4q-0.2-0.4-0.3-0.7c-1.3-3.2-2.6-6.5-3.9-9.7q-0.7-1.7-1.5-3.3l11.3-18.7c1.5 2.7 3.2 5.3 5.3 7.5-4.8 6.5-8.4 14.6-10.9 24.8zm-6.2-15.2c-1.5-3.6-2.9-7.2-4.2-10.9q-0.1-0.2-0.2-0.5c3.5-5.4 7.5-10.8 11.7-15.9q0.2 0.5 0.4 0.9c1.1 2.6 2.4 4.9 3.7 7.4l-8.1 13.4zm-4.8-13q-0.4-1.4-0.8-2.8-1-3.4-1.9-6.8c3.5-4.3 7.2-8.4 11.2-12.4q0.7 1.3 1.3 2.6 0.9 1.9 1.7 3.8c-4.1 5-8 10.3-11.5 15.6zm-3.1-11.2q-0.7-2.9-1.3-5.9c3-3.4 6.3-6.9 9.9-10.3q1.1 2.1 2.3 4.2c-3.9 3.8-7.5 7.9-10.9 12zm-1.6-7.5c-1.1-5.1-2-10.2-2.9-15.4q-1-6-2.2-12-0.2-6.7-1.2-13.4 1.9 3.9 4.1 8.3 1 1.9 1.9 3.9c2.4 4.8 5 9.9 8 15.3q0.9 1.7 1.8 3.4c-3.4 3.3-6.6 6.6-9.5 9.9z"/><path class="b" d="m401.7 687.8c2.5-10.8 6.1-19.3 11-26.1q-0.5-0.5-0.9-1c-4.9 6.6-8.4 14.7-11 25 0.3 0.7 0.3 1.5 0.6 2.2z"/><path class="b" d="m405.2 698c2-11.6 6-22.7 11.8-33.1q0.6 0.3 1.2 0.5c-6.3 11.2-10.3 23.7-12.2 36.2 0 0-0.5-2.6-0.8-3.6z"/><path class="b" d="m411.7 736.2c1.3-22.3 4.8-47.8 10.4-69.4q-0.7-0.2-1.3-0.4c-5 19.6-8.4 39.6-10 59.6 0.3 2.3 0.9 10.2 0.9 10.2z"/><path class="b" d="m385.1 640.5c-0.1-0.6-0.1-1.2-0.2-1.7 3-3.3 6.2-6.6 9.6-9.9q0.4 0.6 0.7 1.2c-3.6 3.4-6.8 6.9-9.9 10.3z"/><path class="b" d="m386.7 647.8c-0.1-0.5 0-1-0.1-1.5 3.4-4.1 7.1-8.2 11-12q0 0.1 0.1 0.2 0.3 0.5 0.5 0.9c-4 4-7.7 8.2-11.2 12.5z"/><path class="b" d="m390.1 659.1c-0.2-0.5-0.2-1.1-0.4-1.7 3.5-5.3 7.4-10.5 11.6-15.6q0.1 0.2 0.1 0.3 0.3 0.6 0.5 1.1c-4.2 5.1-8.1 10.5-11.6 15.9z"/><path class="b" d="m394.9 671.9c-0.2-0.5-0.1-1-0.3-1.5l3.4-5.6 7.8-13q0.1 0.1 0.2 0.2 0.3 0.6 0.6 1.2l-11.5 19z"/><path class="a" d="m442.3 749c-1-5-0.7-11.9-1.8-16.7q-1-4.7-2-9.2-1.1-4.5-2-8.6-1.1-4.4-2-8.4c-0.9-4.1-1.8-7.9-2.3-11q-0.5-2.4-0.7-4.3c-0.3-2.4-0.5-4.9-0.5-7.3-0.1-3.2 0.1-6.1 0.3-8.7 0.3-3.3 0.7-6 0.9-7.6q1.2-0.2 2.2-0.4c5.5 21.5 9 44.2 10.4 66.4-0.2 1.6 0 2.6-0.1 4.3-0.3 3.2-0.7 11.7-0.8 14.9zm3.3-22.5c-1.6-19.9-5-40.6-9.9-60q1.3-0.4 2.6-1c6.2 11.1 10.3 23 12.1 35.4q-1.1 4.2-2 8.5c-1 4.5-1.7 9.1-2.4 13.6-0.1 0.9-0.2 2-0.4 2.9zm5.7-28.6c-2-11.5-6-22.6-11.8-33 1.5-0.7 4.3-3 4.3-3 5 6.7 8.5 14.9 11 25.7q-0.6 1.7-1.2 3.3-0.7 1.9-1.4 3.9-0.5 1.5-0.9 3.1zm4.3-12.4c-2.5-10.1-6-18-10.8-24.6 2.1-2.1 3.8-4.7 5.3-7.4l11.2 18.6q-0.7 1.7-1.4 3.3c-1.3 3.1-2.7 6.3-4 9.4q-0.1 0.4-0.3 0.7zm6.4-14.9l-3.4-5.6-7.8-12.9c1.3-2.5 2.4-5.1 3.5-7.7q0.2-0.5 0.4-0.9c4.2 5.1 8.1 10.4 11.6 15.7q-0.1 0.3-0.2 0.6c-1.2 3.6-2.7 7.2-4.1 10.8zm4.8-13c-3.5-5.3-7.4-10.5-11.5-15.5q0.8-1.9 1.7-3.7 0.6-1.4 1.3-2.7c4 4 7.7 8.1 11.2 12.4q-0.9 3.4-1.9 6.8-0.4 1.4-0.8 2.7zm3.1-11.1c-3.4-4.1-7.1-8.1-10.9-12q1.2-2 2.3-4.1c3.6 3.4 6.9 6.8 9.9 10.3q-0.6 2.9-1.3 5.8zm1.6-7.4c-2.9-3.3-6.1-6.6-9.5-9.9q0.9-1.7 1.8-3.4c2.9-5.4 5.5-10.5 7.9-15.2q1-2 2-3.9 2.2-4.4 4.1-8.2-1 6.6-1.3 13.3-1.1 6-2.1 11.9c-0.9 5.1-1.8 10.3-2.9 15.4z"/><path class="b" d="m454.8 687.6q0.4-1 0.8-2c-2.5-10.2-6-18.1-10.8-24.6q-0.5 0.4-1 0.9c5 6.8 8.5 15 11 25.7z"/><path class="b" d="m469.5 648.1q0.2-0.8 0.4-1.6c-3.4-4.1-7.1-8.1-10.9-11.9q-0.1 0.1-0.2 0.2-0.2 0.5-0.5 1c4 3.9 7.7 8.1 11.2 12.3z"/><path class="b" d="m466.2 659.3q0.3-0.8 0.6-1.6c-3.5-5.3-7.4-10.5-11.6-15.5q0 0.1-0.1 0.2-0.2 0.6-0.4 1.1c4.2 5.1 8.1 10.4 11.5 15.8z"/><path class="b" d="m461.3 672.1q0.3-0.7 0.6-1.5l-3.3-5.5-7.8-12.9q-0.1 0.1-0.2 0.2-0.2 0.6-0.6 1.1z"/><path class="b" d="m450.4 700.9c0.3-1 0.6-2 0.9-3-2.1-11.5-6-22.6-11.8-32.9-0.4 0.2-0.8 0.4-1.2 0.6 6.2 11 10.3 22.9 12.1 35.3z"/><path class="b" d="m444.8 733c-1.4-22.1-4.9-44.7-10.4-66.2q0.7-0.1 1.3-0.3c5 19.4 8.4 39.6 10 59.5-0.3 2.3-0.6 4.9-0.9 7.2z"/><path class="b" d="m471.2 640.7q0.1-0.8 0.3-1.6c-2.9-3.3-6.1-6.6-9.6-9.8q-0.3 0.6-0.6 1.2c3.5 3.3 6.8 6.8 9.9 10.2z"/></svg>