
<svg version="1.2" xmlns="http://www.w3.org/2000/svg" viewBox="0 0 864 1296" width="864" height="1296"><style>.a{fill:#e92a2a}.b{fill:#d52626}.c{fill:#9a1a1c}.d{fill:#8d1819}</style><path class="a" d="m518.3 392c-1.1 25.8 17.9 72 19.4 77.8 0 0 4.8 11.9 8 17.3 4.7 8 10.8 15.2 17.9 21.6 12-31.5 16.9-71.5 2.5-102.2-16-4.8-29.2-15.7-36.9-30.7-3.3 5.2-7 11.4-10.9 16.2z"/><path class="b" d="m561.4 482.4q-0.6 0-1.3-0.2c-2.3-26.6-14.8-86.1-14.8-86.2 0.6 0.5 1 0.9 1.6 1.3 5.9 26.9 12 56.6 14.5 85.1zm-6-2q-0.7-0.3-1.4-0.8c-2.1-8.8-4.2-17.7-6.2-26.5-4.8-21.5-5.5-43.6-5.4-59.6q0.6 0.6 1.3 1.1c0 22.2 1.8 41.5 5.4 58.2 1.9 9.2 4.1 18.5 6.3 27.6zm-10.4-8.9q-1.1-1.3-2.1-2.7-1.6-5-2.9-10c-5.6-20.7-8-42.8-10-64.3 0.4-0.5 0.9-1 1.4-1.5 2 20.6 4.5 41.7 9 62q1.8 8.1 4.6 16.5zm-12.7-21.5q-2.4-4.9-4.1-9.9c-1.6-6.8-3-13.8-4-20.6-0.1-2 0-3.8 0.2-5.8 0-0.8 0-1.7 0.1-2.6 1.8 13.7 4.3 26.5 7.8 38.9zm-11.5-60.9q0 0 0 0 0.6-0.8 1.2-1.6 0 0 0 0-0.6 0.8-1.2 1.6z"/><path class="b" d="m567 481.7q0.7-0.3 1.4-0.7c0.3-24.5-4.2-51.4-12.4-78.1q-0.9-0.4-1.7-0.8c8.6 27.2 13.1 54.7 12.7 79.6z"/><path fill-rule="evenodd" class="c" d="m563.1 508.2q-0.1-0.1-0.2-0.3c-0.2-8.7-0.8-16.9-1.6-25.6q0.8 0.1 1.5 0.1c1.5 0 3-0.3 4.2-0.9-0.1 6.7-0.4 13.2-1.2 19.6-0.8 2.6-1.1 4.1-2.1 6.6zm-2.8-2.2q-0.6-0.9-1.3-1.8c-5.9-11.5-10.6-22.3-14.1-32.8 2.6 3.2 5.7 6.2 9.1 8.2 1.8 7.6 3.5 15 5.3 22.4zm1-1.4q-0.5-2-1-4c-1.6-6.7-3.3-13.5-5-20.3q1.3 0.6 2.6 1.1c0.8 0.3 1.5 0.5 2.2 0.7 0.7 7.5 1 15 1.2 22.5zm-10.5-9.9c-8.5-9.1-16.9-36.7-19.1-41.1-0.2-0.5-6.8-20.8-6.8-20.8 0-0.1-5.9-27-6.5-40.8q0.3-0.5 0.7-1 0.8-1 1.6-2 0 0 0 0c0.9 10 1.9 20.3 3.5 30.5 0.2 7 1.6 13.8 3.9 20.4 1.6 6.8 4.1 14.3 6.5 20.9 5.5 15.1 11.9 26.7 21.2 39.8zm3.6 3.1c-8.9-13.2-15.8-27.2-20.4-41.7q-1-3.1-1.9-6.3 0.2 0.3 0.3 0.6c2.8 5.5 6.2 12.4 10.5 18.4 3.1 9.6 6.8 19.2 11.5 29zm13.1-2.9q0.6-6.9 0.7-14.1c1.3-0.8 2.5-1.9 3.6-3.1-1.1 5.8-2.6 11.6-4.3 17.2zm-43.1-83.8c-1-7.6-1.8-15.4-2.6-23.8q2.6-3.5 5-7.2 0.9-1.3 1.7-2.6 0.5 5.1 0.9 10.2 0.3 3.4 0.6 6.8c-1.1 1.5-1.6 2.9-2 3.9-1.9 4-3.1 8.3-3.6 12.7zm6.9-18.1c-0.5-4.7-1-11-1.4-15.7 1 1.8 2.4 4.1 3.6 5.7 1.3 1.9 3.3 4.5 4.8 6.2-2.9 0.9-5.7 2.5-7 3.8z"/><path class="d" d="m562.4 507.7c-2.3-2-3.8-3.7-5.8-6.1-10.3-12.6-17.1-26.8-22.6-41.7-2.5-7-4.5-14.2-6.2-21.5 1.2 3.7 2.8 7.9 4.5 11.4 0.6 2.3 1.1 4 1.8 6.3 4.7 14.5 11.2 28 20.2 41.3-4.7-10-8.3-19-11.4-28.7q1 1.4 2.1 2.7c3.5 10.6 8.1 21.2 14 32.8 0.5 0.6 0.7 0.8 1.2 1.4 0 0-4.4-18.4-6.2-26 0.4 0.3 0.9 0.5 1.4 0.7 1.6 6.8 3.3 13.6 5 20.2 0.3 1.4 0.5 2.4 0.8 3.7-0.2-7.5-0.5-14.6-1.1-22.1 0.4 0.1 0.8 0.2 1.3 0.2 0.8 8.7 1.3 17.3 1.4 25.9zm-38.1-88.2c-1.7-10.7-2.6-19.7-3.6-30.2 0.4-0.5 1-1.1 1.4-1.6 0.8 8.5 1.4 15.7 2.5 23.5zm5.8-25.3c-0.1-1.3-1.2-13.4-1.5-16.7 0.2-0.2 0.6-1.1 0.8-1.3 0.3 0.5 0.3 0.7 0.6 1.2 0.5 4.9 1 10.4 1.5 15.3 0 0-1.1 1.2-1.4 1.5z"/><path class="d" d="m565.8 501.6c0.7-6.6 1.1-13.3 1.2-20.1 0.5-0.2 0.9-0.4 1.4-0.7-0.1 4.9-0.3 9.8-0.7 14.5q-0.9 3.2-1.9 6.3z"/><path class="a" d="m338 392.3c1.1 25.8-17.8 72-19.3 77.8 0 0-4.9 11.9-8.1 17.3-4.7 8-10.6 15.5-17.7 21.9-12-31.5-17-71.8-2.7-102.5 16.1-4.8 29.2-15.7 37-30.7 3.2 5.2 7 11.4 10.8 16.2z"/><path class="b" d="m294.9 482.7c2.5-28.6 8.6-58.2 14.5-85.1 0.7-0.4 1.1-0.8 1.7-1.3 0 0.1-12.5 59.5-14.9 86.2q-0.6 0.1-1.3 0.2zm6-2c2.2-9.1 4.4-18.4 6.4-27.6 3.6-16.7 5.3-36 5.4-58.2q0.6-0.5 1.3-1.1c0 16-0.6 38.1-5.5 59.6-1.9 8.8-4 17.7-6.1 26.5q-0.7 0.5-1.5 0.8zm10.5-8.9q2.8-8.4 4.5-16.5c4.5-20.3 7.1-41.4 9.1-62 0.5 0.4 1 1 1.3 1.5-1.9 21.4-4.4 43.6-9.9 64.3q-1.4 5-3 10-1 1.4-2 2.7zm12.7-21.6c3.5-12.3 5.9-25.1 7.8-38.8 0.1 0.8 0 1.8 0.1 2.6 0.1 2 0.2 3.8 0.2 5.8-1.1 6.8-2.4 13.8-4 20.6q-1.8 5-4.1 9.8zm11.5-60.8q-0.6-0.8-1.2-1.6 0 0 0 0 0.6 0.8 1.2 1.6 0 0 0 0z"/><path class="b" d="m289.3 482q-0.7-0.3-1.3-0.7c-0.3-24.5 4.1-51.4 12.4-78.1q0.8-0.4 1.6-0.8c-8.6 27.2-13.1 54.7-12.7 79.6z"/><path fill-rule="evenodd" class="c" d="m290.7 502.9c-0.8-6.5-1.3-14.5-1.4-21.1 1.3 0.5 2.7 0.9 4.2 0.9q0.7 0 1.5-0.1c-0.7 8.7-1.4 17.2-1.5 26-0.1 0.1-0.5 0.6-0.6 0.7 0 0-1.4-3.9-2.2-6.4zm5.3 3.4l1-4c1.8-7.4 3.6-14.8 5.4-22.4 3.4-2 6.4-5 9.1-8.2-3.5 10.5-8.2 21.3-14.1 32.8q-0.7 0.9-1.4 1.8zm-0.9-1.3c0.2-7.6 0.5-15 1.2-22.6 0.6-0.1 1.4-0.4 2.1-0.6q1.4-0.5 2.6-1.2c-1.6 6.8-3.3 13.6-4.9 20.3q-0.5 2-1 4.1zm5.5-4.1c9.3-13.1 15.7-24.6 21.2-39.8 2.4-6.5 4.9-14.1 6.5-20.9 2.3-6.6 3.7-13.3 3.9-20.3 1.5-10.3 2.6-20.6 3.5-30.6q0 0 0 0 0.8 1 1.5 2 0.4 0.5 0.8 1c-0.6 13.8-6.5 40.7-6.6 40.9 0 0-6.5 20.2-6.8 20.7-2.2 4.5-10.6 32-19.1 41.1zm1.3-2.7c4.6-9.9 8.4-19.5 11.5-29.1 4.3-5.9 7.8-12.8 10.5-18.4q0.2-0.3 0.3-0.6-0.9 3.2-1.9 6.4c-4.6 14.5-11.5 28.4-20.4 41.7zm-13.7-2.2c-1.6-5.6-3-12.6-4.1-18.4 1 1.3 2.7 2.8 4 3.6 0.1 4.8 0.2 10.6 0.6 15.2zm43.7-84.5c-0.5-4.4-1.7-8.7-3.6-12.7-0.4-1-0.9-2.4-2-3.9q0.3-3.4 0.6-6.8 0.4-5.1 0.9-10.2 0.8 1.3 1.7 2.6 2.4 3.7 5 7.2c-0.8 8.4-1.6 16.2-2.6 23.8zm-6.9-18.1c-1.3-1.3-4.1-2.9-7-3.8 1.5-1.7 3.5-4.3 4.8-6.2 1.2-1.6 2.6-3.9 3.6-5.7-0.4 4.7-0.9 11-1.4 15.7z"/><path class="d" d="m293.5 508.5c0.1-8.7 0.7-17.2 1.4-25.9 0.5 0 0.9-0.1 1.4-0.2-0.7 7.5-1 14.6-1.2 22.1 0.4-1.3 0.6-2.3 0.9-3.7 1.6-6.7 3.3-13.4 5-20.2 0.4-0.2 0.9-0.4 1.4-0.7-1.8 7.5-6.3 26-6.3 26 0.5-0.6 0.8-0.9 1.2-1.4 6-11.6 10.6-22.2 14.1-32.7 0.7-0.9 1.4-1.9 2.1-2.8-3.2 9.7-6.7 18.7-11.4 28.7 8.9-13.3 15.5-26.8 20.1-41.3 0.7-2.3 1.2-4 1.9-6.3 1.6-3.5 3.3-7.7 4.4-11.4-1.6 7.3-3.7 14.5-6.2 21.5-5.5 14.9-12.3 29.1-22.6 41.7-1.9 2.4-3.4 4.1-5.7 6.1zm38.4-97c1-7.7 1.7-15 2.5-23.5 0.4 0.5 0.9 1.1 1.3 1.6-0.9 10.5-1.8 19.5-3.5 30.2zm-6.9-18.3c0.5-4.9 1-10.5 1.5-15.4 0.3-0.5 0.3-0.6 0.6-1.2 0.1 0.3 0.6 1.1 0.7 1.4-0.3 3.2-1.3 15.4-1.5 16.7-0.2-0.4-1.3-1.5-1.3-1.5z"/><path class="d" d="m290.7 502.9c-0.8-6.6-1.3-14.3-1.4-21.1-0.4-0.2-0.9-0.4-1.3-0.7 0 4.8 0.2 10.5 0.6 15.2 0.7 2.1 0.7 3 1.4 5z"/></svg>