
<svg version="1.2" xmlns="http://www.w3.org/2000/svg" viewBox="0 0 864 1296" width="864" height="1296"><style>.a{fill:#e92a2a}.b{fill:#d52626}.c{fill:#9a1a1c}.d{fill:#8d1819}</style><path class="a" d="m561.2 590.3v0.1c2.7 7.7 4.8 14.6 5.5 19.6q0.1 1.3 0.3 2.5c1.4-12.5 4.7-24.5 9-36.5 7.1-19.7 18.2-38.2 20.6-59.2v-17.4c0-13.8-9.8-29-13.3-34.2 0.5 19.2-13.1 34.3-21.5 50.9-11.8 23.2-6.7 49.9-0.6 74.2z"/><path class="b" d="m559.2 583.3q-0.5-2.2-1-4.4 0 0 0 0 0.5 2.2 1 4.4 0 0 0 0zm2.5-22.4q-0.5-0.8-0.9-1.7 1.9-10.8 5.2-21.3c2-6.6 4.5-13.1 7-19.4 6.4-16.5 13-33.6 10.6-51.9q0.7 1 1.6 2.5c1.6 18.5-5.4 36.1-12.1 53.1q-1 2.6-2 5.2c-4.2 10.9-7.3 22.1-9.4 33.5z"/><path class="b" d="m564.1 600.2q-0.7-2.5-1.6-5.1 0 0 0-0.1 0.9 2.7 1.6 5.2 0 0 0 0zm8.3-32q-0.6 0-1.2-0.2 2.2-6.2 5-12.5 1.4-3 2.7-5.9c4.6-10.1 9.3-20.5 12.1-31.5 2.9-11.3 3.1-23.8 0.6-36.5q1.1 2.7 2.1 5.7c2 16.4-0.5 32.7-7.2 48.7-1.9 4.3-3.8 8.6-5.7 12.8-2.9 6.3-5.8 12.8-8.4 19.4zm-5.6-2q-0.5-0.3-1-0.7 1.2-6.5 2.9-12.8c2.2-8.4 5.5-16.7 8.7-24.7 7-17.5 14.2-35.6 10-55q1 1.8 2 3.9c2.5 18.1-4.3 35.1-10.9 51.5-1.3 3.3-2.6 6.7-3.9 10q-5 13.4-7.8 27.8z"/><path class="c" d="m566.1 612c-0.4-3-0.7-7.7-2-11.8 1.1-8.2 2.9-15.9 5.2-23.1q1.4-4.5 3.1-8.9 0.9 0.1 1.7 0.1c1.7 0 3.6-0.3 5.3-0.9q-1.9 4.5-3.6 9.2c-4.3 11.9-7 25.2-8.4 37.5zm-2.4-16.2q0.4-15.2 3.1-29.6 1.7 1.1 3.7 1.6 0.4 0.1 0.7 0.2c-3.4 9.3-5.9 18.4-7.5 27.8zm-1.2-0.8q-0.6-1.6-1.2-3.3-0.1-0.3-0.2-0.5 0-0.1 0-0.1 0-0.1 0-0.2-1-3.8-1.9-7.6 0.6-11.3 2.5-22.4c1.1 1.8 2.5 3.3 4.1 4.6-1.9 9.7-3 19.6-3.3 29.5zm-4.2-16.1c-4.5-20.8-6.3-42.6 3.5-61.9q1.3-2.6 2.8-5.1c-3.7 13.5-9.1 28.3-5.7 42.1 0.4 1.8 1.1 3.6 1.9 5.2q-1.8 9.8-2.5 19.7z"/><path class="d" d="m559.2 583.3q-0.5-2.2-1-4.4 0.8-9.9 2.6-19.7 0.4 0.9 0.9 1.7-1.9 11.1-2.5 22.4z"/><path class="d" d="m564.1 600.2q-0.7-2.5-1.6-5.2c0.3-9.9 1.4-19.8 3.3-29.5q0.5 0.4 1 0.7-2.7 14.4-3.1 29.6c1.6-9.4 4.1-18.5 7.5-27.8q0.6 0.2 1.2 0.2-1.7 4.4-3.1 8.9c-2.3 7.2-4.1 14.9-5.2 23.1z"/><path class="a" d="m289.3 614.3c-1.4-12.5-4.2-25.6-8.5-37.6-7.1-19.7-18.1-37.6-20.5-58.6v-17.4c0-13.9 9.6-30.8 13-36.1-0.5 19.2 13.7 34.6 22.2 51.3 11.8 23.1 6.3 51.5 0.2 75.8z"/><path class="b" d="m297.1 583.5q0-0.1 0-0.1 0.5-2.2 1-4.4 0 0 0 0-0.5 2.3-1 4.5zm-2.5-22.4c-2.1-11.5-5.2-22.7-9.4-33.5q-1-2.7-2-5.3c-6.7-17-13.7-34.6-12.1-53.1q0.9-1.4 1.6-2.5c-2.4 18.3 4.2 35.4 10.6 51.9 2.5 6.3 5 12.9 7 19.4q3.3 10.5 5.2 21.3-0.4 0.9-0.9 1.8z"/><path class="b" d="m292.2 600.3q0 0 0 0 0.7-2.5 1.6-5.1 0 0 0 0-0.9 2.7-1.6 5.1zm-8.3-31.9c-2.6-6.7-5.5-13.2-8.4-19.5-1.9-4.2-3.8-8.5-5.7-12.8-6.7-15.9-9.2-32.3-7.2-48.7q1-3 2.1-5.7c-2.4 12.7-2.3 25.3 0.6 36.5 2.8 11 7.5 21.5 12.1 31.5q1.3 3 2.7 5.9 2.8 6.3 5 12.5-0.6 0.2-1.2 0.3zm5.6-2.1q-2.7-14.4-7.8-27.8c-1.3-3.3-2.6-6.7-3.9-10-6.6-16.4-13.4-33.4-10.9-51.5q1-2.1 2-3.9c-4.2 19.4 3 37.5 10 55 3.2 8.1 6.5 16.4 8.7 24.7q1.7 6.3 2.9 12.8-0.5 0.4-1 0.7z"/><path class="c" d="m289.4 614.6c-1.5-12.4-4.4-26-8.6-37.9q-1.7-4.6-3.6-9.1c1.6 0.5 3.3 0.9 5 0.9q0.8 0 1.6-0.1 1.8 4.4 3.2 8.8c2.3 7.2 4 14.9 5.1 23.1-1.2 4.1-1.5 8.7-1.9 11.7-0.1 0.6-0.8 2.6-0.8 2.6zm3.2-18.7c-1.7-9.3-4.1-18.5-7.5-27.8q0.3 0 0.6-0.1 2.1-0.6 3.7-1.7 2.8 14.4 3.2 29.6zm1.2-0.7c-0.3-9.9-1.5-19.8-3.3-29.6 1.6-1.2 2.9-2.8 4-4.5q2 11 2.5 22.3-0.8 3.9-1.8 7.7 0 0 0 0.1v0.1q0 0-0.1 0-0.1 0.3-0.1 0.5-0.6 1.7-1.2 3.4zm4.2-16.2q-0.7-9.9-2.5-19.7c0.8-1.6 1.4-3.4 1.9-5.1 3.3-13.8-1.8-31.1-5.5-44.6q1.5 2.5 2.8 5.1c9.8 19.3 7.7 43.5 3.3 64.3z"/><path class="d" d="m297.1 583.4q0.5-2.2 1-4.4-0.8-9.9-2.6-19.7-0.4 0.9-0.9 1.8 1.9 11 2.5 22.3z"/><path class="d" d="m292.2 600.3q0.7-2.5 1.6-5.1c-0.3-9.9-1.4-19.8-3.3-29.6q-0.5 0.4-1 0.7 2.7 14.4 3.1 29.6c-1.6-9.3-4.1-18.5-7.5-27.8q-0.6 0.2-1.2 0.3 1.7 4.4 3.2 8.8c2.3 7.2 4 14.9 5.1 23.1z"/></svg>