
<svg version="1.2" xmlns="http://www.w3.org/2000/svg" viewBox="0 0 864 1296" width="864" height="1296"><style>.a{fill:#e92a2a}</style><path class="a" d="m292 507.6l-0.4 0.7c-8.3-14.2-18.6-27.7-17.2-44.9q0-0.3 0.1-0.6 0-0.3 0-0.6v-0.2c0.3-5.2 1.7-27.3 3.8-37.8 2.1-10 5.6-19.8 6.7-22.6 1.1 1.6 2.4 3.2 3.5 4.7l0.1 0.2c-14.2 31-9.1 68.6 3.1 100.1z"/><path class="a" d="m564.2 508.3c12.1-31.5 17.6-71 3.4-102l0.1-0.1q1.8-2.3 3.5-4.6c1.1 2.8 4.9 13.6 6.9 23.6 2.2 10.5 3.5 32.6 3.8 37.8v0.2q0 0.3 0.1 0.6 0 0.3 0 0.6c1.4 17.2-8.9 30.7-17.1 44.9l-0.8-0.6z"/></svg>