
<svg version="1.2" xmlns="http://www.w3.org/2000/svg" viewBox="0 0 864 1296" width="864" height="1296"><style>.a{fill:#e92a2a}.b{fill:#d52626}.c{fill:#9a1a1c}.d{fill:#8d1819}</style><path class="a" d="m566.8 632.4c16-20.2 29.6-42.1 33.9-67.7l0.1-0.2c0.4-3.9 1.2-7.9 1.5-12 1.1-18-3.7-29.5-5.6-33.2-2.1 15.3-8.5 30.3-14.7 44.4-8.2 18.6-13.4 37.6-14.8 57.5 0.1 3.2 0 5.9-0.4 8.4q0 1.4 0 2.8z"/><path class="b" d="m567.2 624q0.1-1.3 0-2.8 0.2-3.1 0.6-6.3 0-0.1 0.1-0.3-0.4 3.2-0.6 6.4 0 0.1-0.1 0.2 0-0.1 0.1-0.1 0 0.1 0 0.2 0 1.3 0 2.6 0 0-0.1 0.1zm7.6-14.4q-0.5-0.4-1-0.8 1.4-2.6 2.8-5.1c11.1-20.1 22.6-40.8 25-64.2q0.3 3.3 0.3 7c-3.7 20.8-14 39.5-24.1 57.7q-1.5 2.7-3 5.4zm-2.6-3.1q-0.4-0.8-0.7-1.8c2.7-6.7 5.7-13.2 8.7-19.6 8.9-19.6 18.2-39.7 17.8-61.9q0.6 1.6 1.3 3.8c-0.6 20.9-9.4 39.9-17.9 58.4-3.1 6.9-6.3 13.9-9.2 21.1z"/><path class="c" d="m566.8 632.3q0-1.2 0.1-2.5 0.4-2.7 0.4-5.9c2.4-4.8 5-9.6 7.5-14.3 1.3 1 2.9 1.5 4.6 1.5q1.4 0 2.9-0.5c-4.7 7.5-9.9 14.7-15.5 21.7zm0.5-11.2q0-0.1 0-0.1c1.4-4.9 3.1-9.8 4.9-14.5q0.7 1.3 1.6 2.3c-2.2 4-4.4 8.1-6.5 12.3zm0.6-6.5q1-8.9 3-17.6c-0.1 2-0.1 3.9 0.2 5.8q0.2 1 0.4 1.9-1.9 4.9-3.6 9.9z"/><path class="d" d="m567.3 623.9q0-1.3 0-2.6 0-0.1 0-0.2c2.1-4.2 4.3-8.3 6.5-12.3q0.5 0.4 1 0.8c-2.5 4.7-5.1 9.5-7.5 14.3zm0-2.9q0.2-3.2 0.6-6.4 1.7-5 3.6-9.9 0.3 1 0.7 1.8c-1.8 4.7-3.5 9.6-4.9 14.5z"/><path class="a" d="m289.6 632.4c-16-20.2-29.7-42.1-34-67.7v-0.2c-0.4-3.9-0.8-7.8-1-11.8-1.1-18.1 3.1-29.5 5-33.1 2.1 15.3 8.5 30 14.7 44.1 8.3 18.6 13.4 37.6 14.8 57.5-0.1 3.2 0 5.9 0.4 8.4q0 1.4 0.1 2.8z"/><path class="b" d="m281.5 609.5q-1.6-2.8-3-5.5c-10.1-18.2-20.4-36.9-24.1-57.6q0-3.8 0.3-7.1c2.4 23.4 13.8 44.2 24.9 64.2q1.4 2.5 2.8 5.1-0.4 0.5-0.9 0.9zm2.5-3.2c-2.8-7.2-6-14.2-9.2-21.1-8.4-18.5-17.2-37.5-17.8-58.3q0.7-2.2 1.3-3.8c-0.4 22.1 8.8 42.3 17.8 61.8 2.9 6.4 5.9 13 8.6 19.7q-0.3 0.9-0.7 1.7z"/><path class="c" d="m289.5 632.3c-5.5-7-10.8-14.2-15.5-21.7q1.6 0.5 2.9 0.5c1.8 0 3.3-0.5 4.6-1.5 2.6 4.7 5.1 9.5 7.5 14.3q0.1 3.2 0.5 5.9 0 1.3 0 2.5zm-0.4-11.2c-2.2-4.2-4.4-8.3-6.6-12.3q0.9-1 1.6-2.3c1.9 4.7 3.6 9.6 5 14.5q0 0 0 0.1zm-0.7-6.5q-1.6-5-3.6-9.9 0.3-0.9 0.4-1.9c0.3-1.9 0.3-3.8 0.2-5.8q2 8.7 3 17.6z"/><path class="d" d="m289 623.9c-2.4-4.8-4.9-9.6-7.5-14.3q0.5-0.4 1-0.8c2.2 4 4.4 8.1 6.6 12.3q0 0.1 0 0.2-0.1 1.3-0.1 2.6zm0.1-2.9c-1.4-4.9-3.1-9.8-5-14.5q0.4-0.8 0.7-1.8 2 4.9 3.6 9.9 0.4 3.2 0.7 6.4z"/></svg>