<svg version="1.2" xmlns="http://www.w3.org/2000/svg" viewBox="0 0 864 1296" width="864" height="1296"><style>.a{fill:#e92a2a}.b{fill:#d52626}.c{fill:#9a1a1c}.d{fill:#8d1819}</style><path class="a" d="m383.3 562.6c-1 5.1-5.4 10.5-8.6 14.3-4.3 5.4-8.4 2.9-12.9-0.7-4-3.1-7.9-6.4-11.7-9.6-0.7-2.2-1.7-6.4-2.6-13.6-1.1-8.5 4.6-17.6 8.1-23 0.6-1 1.1-1.8 1.5-2.5 13.6 6.2 29.9 16.9 26.2 35.1z"/><path class="b" d="m361.1 571.6q0.6-0.3 1.3-0.6c-7.2-6.6-12.1-15-14.3-24.8q-0.4 1.6-0.5 3.3c2.5 8.6 7.1 16.1 13.5 22.1z"/><path class="b" d="m369.3 565.3q0.4-0.6 0.8-1.1c-8.6-6.7-15.2-15.6-19.1-25.9q-0.4 0.8-0.7 1.7c4 10 10.5 18.7 19 25.3z"/><path class="b" d="m373.9 556.1c-8.9-5.7-15.7-14-19.4-24q0.5-0.8 0.9-1.4 0.1 0 0.1 0.1c3.5 9.9 10.1 18.3 18.8 24q-0.2 0.6-0.4 1.3z"/><path class="b" d="m375.3 545.8c-7.4-4.8-13.4-11.3-18.5-17.3q0.2-0.4 0.5-0.8 0.5 0.3 1 0.5c4.8 5.5 10.3 11.5 16.9 16q0.1 0.8 0.1 1.6z"/><path class="c" d="m369.7 580.3q-0.1 0-0.3 0c-2.3-0.1-4.8-1.8-7.3-3.8q-2.3-1.8-4.6-3.7 1.9-0.4 3.7-1.1c3.3 3 7 5.7 11.2 7.9-0.9 0.5-1.8 0.7-2.7 0.7zm3.9-1.6c-4.1-2.1-7.8-4.7-11.1-7.6q2-1 3.7-2.4 1.8-1.5 3.2-3.3 4.6 3.6 9.9 6.3c-1.4 2-3 3.9-4.3 5.5q-0.7 0.9-1.4 1.5zm6.5-8.1q-5.3-2.7-9.9-6.3c1.7-2.4 3-5.2 3.8-8.1 3.1 2 6.4 3.6 9.9 4.9q-0.2 1-0.4 2 0 0 0 0.1c-0.6 2.5-1.9 5-3.4 7.4zm3.9-10.8q-5.1-2-9.6-4.9 0.2-1 0.4-2 0.6-3.5 0.6-7 3.3 2.2 6.9 3.8h0.2c1.2 3 1.8 6.4 1.5 10.1zm-2.2-11.9q-3.4-1.6-6.4-3.6-0.1-2.7-0.5-5.3c2.8 2.6 5.2 5.6 6.9 8.9z"/><path class="d" d="m372.4 579.6q0.6-0.4 1.2-0.9c-4.1-2.1-7.8-4.7-11.1-7.6q-0.7 0.3-1.3 0.6c3.2 3 7 5.7 11.2 7.9z"/><path class="d" d="m379.3 571.7q0.4-0.5 0.7-1.1-5.2-2.7-9.8-6.3-0.4 0.6-0.8 1.1 4.6 3.6 9.9 6.3z"/><path class="d" d="m383.9 561.1q0-0.7 0.1-1.3-5.2-2-9.6-4.9-0.2 0.7-0.4 1.3c3.1 2 6.4 3.6 9.9 4.9z"/><path class="d" d="m382.5 549.7q-0.3-0.9-0.7-1.8-3.4-1.6-6.4-3.6 0 0.8 0 1.6 3.3 2.2 6.9 3.8z"/><path class="a" d="m472.7 562.8c1 5.1 5.4 10.5 8.6 14.3 4.3 5.3 8.4 2.9 12.9-0.7 4-3.2 7.9-6.4 11.8-9.6l0.4-0.2c0.7-2.3 1.7-6.3 2.6-13.5 1.1-8.5-4.8-17.7-8.3-23.1-0.6-0.9-1-1.8-1.4-2.5-13.7 6.2-30.3 17.1-26.6 35.3z"/><path class="b" d="m495 571.7q-0.7-0.2-1.4-0.6c7.2-6.5 12.1-15 14.3-24.8q0.4 1.7 0.5 3.4c-2.5 8.6-7.1 16.1-13.4 22z"/><path class="b" d="m486.7 565.4q-0.4-0.5-0.8-1c8.6-6.7 15.2-15.6 19.1-25.9q0.4 0.8 0.7 1.7c-4 10-10.5 18.7-19 25.2z"/><path class="b" d="m482.1 556.3q-0.2-0.7-0.3-1.4c8.6-5.6 15.3-14 18.7-24q0 0 0.1-0.1 0.4 0.7 0.9 1.5c-3.7 10-10.5 18.3-19.4 24z"/><path class="b" d="m473.5 549.8q0 0 0 0 0.3-0.9 0.7-1.7 0.1-0.1 0.1-0.1-0.4 0.9-0.7 1.8zm7.2-3.8q0-0.9 0-1.7c6.7-4.5 12.2-10.4 17-15.9q0.5-0.3 1-0.5 0.2 0.4 0.5 0.8c-5.2 6-11.2 12.5-18.5 17.3z"/><path class="c" d="m486.3 580.5c-0.9 0-1.8-0.2-2.7-0.7 4.2-2.2 7.9-4.9 11.2-7.9q1.8 0.7 3.7 1.1-2.3 1.8-4.6 3.7c-2.5 2-5 3.7-7.3 3.8q-0.2 0-0.3 0zm-3.9-1.6q-0.7-0.6-1.4-1.5c-1.3-1.6-2.9-3.5-4.3-5.5q5.3-2.7 9.9-6.3 1.4 1.8 3.2 3.3 1.7 1.4 3.7 2.4c-3.3 2.9-7 5.5-11.1 7.6zm-6.5-8.1c-1.5-2.4-2.8-4.9-3.4-7.4q0-0.1 0-0.2-0.2-0.9-0.4-1.9c3.5-1.3 6.8-2.9 9.9-4.9 0.8 2.9 2.1 5.7 3.8 8.1q-4.6 3.6-9.9 6.3zm-3.9-10.9c-0.3-3.6 0.3-7 1.5-10l0.2-0.1q3.6-1.6 6.9-3.7 0 3.5 0.6 6.9 0.2 1.1 0.4 2.1-4.4 2.9-9.6 4.8zm2.2-11.8c1.7-3.3 4.1-6.3 6.9-8.9q-0.4 2.6-0.5 5.3-3 2-6.4 3.6z"/><path class="d" d="m483.6 579.8q-0.6-0.4-1.2-0.9c4.1-2.1 7.8-4.7 11.1-7.6q0.7 0.3 1.3 0.6c-3.2 3-7 5.7-11.2 7.9z"/><path class="d" d="m476.7 571.9q-0.4-0.6-0.7-1.1 5.2-2.7 9.8-6.3 0.4 0.5 0.8 1.1-4.6 3.6-9.9 6.3z"/><path class="d" d="m472.2 561.3q-0.1-0.7-0.2-1.4 5.2-1.9 9.6-4.8 0.2 0.6 0.4 1.3c-3.1 2-6.3 3.6-9.8 4.9z"/><path class="d" d="m473.5 549.9q0.3-0.9 0.7-1.8 3.4-1.6 6.4-3.6 0 0.8 0 1.6-3.2 2.1-6.9 3.7z"/></svg>