
<svg version="1.2" xmlns="http://www.w3.org/2000/svg" viewBox="0 0 864 1296" width="864" height="1296"><style>.a{fill:#e92a2a}.b{fill:#d52626}</style><path class="a" d="m313.5 534.4c0.6-13.6-1.7-19.8-2.4-21.9q-6.7 5-12 11.4c0.6 1.9 0.8 5.2 1.2 7.1 3.6 17.3 1.8 34.2-1.8 51 0.6-1.7 1.2-3.5 1.9-5.2 5.8-15.3 12.6-31.9 13-40.8z"/><path class="a" d="m541.7 533.9c-0.5-13.6 2.3-19.8 2.9-21.9 4.5 3.4 8.9 7.5 12.4 11.7-0.6 1.9-1.3 4.3-1.7 6.3-3.7 17.2-1.4 35.4 2.2 52.2-0.7-1.7-2.1-3.8-2.8-5.6-5.7-15.3-12.5-31.9-12.9-40.9z"/><path class="b" d="m302.5 552.9q0-1.2 0-2.3c6.1-9 9.5-17.1 10.4-24.9q0.1 2.8 0.1 6.3c-1.8 6.6-5.3 13.5-10.5 20.9zm-0.8-15.8q-0.1-0.9-0.2-1.8c5.1-7.3 8.4-13.7 10.1-19.9q0.3 1.1 0.5 2.6c-2 6-5.4 12.2-10.4 19.1z"/><path class="b" d="m553 553.1c-5.1-7.3-8.6-14.1-10.4-20.5q-0.1-3.3 0.1-6c1 7.5 4.4 15.5 10.3 24.2q0 1.1 0 2.3zm0.8-15.8c-5-6.9-8.4-13-10.4-19q0.2-1.5 0.5-2.6c1.8 6.2 5 12.5 10.1 19.7q-0.1 0.9-0.2 1.9z"/></svg>