
<svg version="1.2" xmlns="http://www.w3.org/2000/svg" viewBox="0 0 864 1296" width="864" height="1296"><style>.a{fill:#fff;stroke:#000;stroke-miterlimit:10;stroke-width:.4}</style><path class="a" d="m598.4 517.2v-17.1c0-12.4-6.8-25.6-11.1-32.6 4.2-14.2 4.3-48 2-63.7-1.4-9.6-8.1-17.4-11.3-22.3q0-0.6 0.1-1.2c1.8-11.5-6-39.9-10.7-51.8-3.1-7.9-9.6-10.9-14.9-13.3-2.8-1.4-5.3-2.5-6.6-4.1-3.6-4.1-7.1-5.2-10.2-6.2-0.8-0.3-1.6-0.5-2.3-0.9-1.2-0.4-2.3-1.4-3.9-2.8-2.7-2.5-6.8-6.2-15.6-11.3-4.8-2.8-11.6-6.1-18.8-9.5-11.7-5.6-25.5-12.1-28.7-16.2-3-3.7-3.3-15.3-3.4-19.2 1.5-3.6 1.6-9.3 1.6-12.6 0.5 0.3 1.3 0.5 2.1 0.4 3-0.4 5.7-5 9-10.9 0.9-1.6 1.8-3.2 2.5-4.2 2.8-4 2.2-12.8 0.1-19.4q-0.9-2.9-3.1-3.3c-1.9-0.4-4.1 1.1-5.6 2.5 0.3-8.2 0.2-31.3-9.3-42.6-8.2-9.8-24.5-12.3-30.7-12.9h-2.4c-6.2 0.6-22.5 3.1-30.7 12.9-9.5 11.3-9.6 34.4-9.3 42.6-1.5-1.4-3.7-2.9-5.6-2.5q-2.2 0.4-3.1 3.3c-2.1 6.6-2.7 15.4 0.2 19.4 0.6 1 1.5 2.6 2.4 4.2 3.3 5.9 6.1 10.5 9 10.9 0.9 0.1 1.6-0.1 2.2-0.4-0.1 3.7 0.1 10.2 2 13.7q0 0 0 0c-0.1 2.7-0.7 14.3-3.8 18.2-3.3 4.1-16.6 10.4-28.4 16.1-7.2 3.4-14 6.7-18.8 9.5-8.7 5.1-12.9 8.8-15.6 11.2-1.6 1.5-2.6 2.5-3.8 2.9-0.8 0.3-1.6 0.6-2.4 0.8-3.1 1-6.6 2.2-10.1 6.3-1.4 1.6-3.9 2.7-6.7 4-5.2 2.4-11.7 5.5-14.9 13.4-4.7 11.9-12.5 40.2-10.7 51.8q0.2 1.2 0.4 2.4c-3.3 5-9.3 12.2-10.7 21.5-2.2 15.6-2.5 48.2 1.6 62.4-4.2 6.8-11.6 20.6-11.6 33.5v17.1c-1.2 1.9-7.4 13.1-6.1 34.9 0.6 8.4 1.5 16.1 2.5 24.2 1.7 14.5 7.7 31 7 50.4-1.1 29.7-0.6 58 0.5 63.4 1.1 5 10.4 29.4 10.8 30.4l0.3 0.9 0.9-0.2c0.1 0 5.6-1.6 6.1-8.9l3 3.4 0.8-1.1c0.1-0.3 2.7-4 3.5-8.6 1.6-2.7 5-9.9 1.1-16-4.6-6.9-12-21.1-12.1-21.3q0-0.7-0.1-1.1c1.1-8.5 0-11.6 3.1-12.8 0.3-0.1 0.4 0 0.6 0.1 2.3 1.4 2.8 5.4 3.4 9.6 0.5 3.9 1 7.9 3 11.1 2.4 3.6 6 8.4 10.2 4.9 2.7-2.3 0.3-18-0.4-22.7-0.8-5.8-0.8-7.5-3.1-16.7-1.5-5.9-2.4-9-2.7-11.7-0.2-2.2 0.3-11.6 1.2-18.4 1-7.9 5.8-20.7 11-34.3 5.8-15.5 11.9-31.5 12.3-40.9 0.6-14.4-1.3-21.5-2-23.6 1.2-1.5 4.6-6 5.5-11.8 1.1-6.8 0.8-18.6 0.7-18.9 0.1-0.2 3.6-20.5 9.5-29.8 4.5-7.1 11-21 13.8-28.2 1 7.1 2.2 13.6 3.3 17 1.5 4.3 3.3 9.2 5.1 13.9 2.5 6.6 4.9 12.9 5.5 16.2 0.9 4.7 0.3 38.9 0.1 50.2 0 2.4-0.1 4-0.1 4.4q0 0 0 0c-0.2 0.3-0.4 0.6-0.4 1-0.5 0.9-1.2 2-1.8 3-3.6 5.6-9.5 15-8.4 24.2 1.3 10.3 2.9 14.6 3.4 15.8-1.2 3.8-9.8 31.9-8.4 52.2 0.4 7.1-2.3 18.1-5.9 32.1-4.5 18-13.1 59.5-15 85.4-2.8 38.3 8.2 82.1 11.2 105.8 0.6 5.1 1.1 8.4 1.1 9.4 0.2 2.5-0.1 4.3-0.3 6.3-0.4 2.7-0.8 5.8-0.4 11.6q0.1 0.8 0.3 1.9c-1.5 3.3-14.5 33.2-14.9 52.8-0.1 9.5 2.9 30.7 6.2 53.1 2.9 20.3 5.7 41.3 6.6 54.3v0.3q0.1 1.7 0.2 3.1c0.1 7-0.6 20.8-1 22.2-1.1 3.1-2 6.1-2 10.8q-0.4 0.4-0.8 0.8c-3.8 3.3-5.4 7.7-6.9 12-0.5 1.4-1 2.7-1.5 4-2.1 4.8-20.4 19.9-23 21.5-1.9 1.3-6.9 8.6-6.9 8.6-1.9 2-1.3 5.3-1 7.5q0.1 0.6 0.2 1.1c0.2 1.1 0.5 1.9 0.8 2.6 0.3 0.6 0.4 1 0.5 1.5 0 0.7-0.1 1.5-0.2 2.3-0.1 0.7-0.2 1.4-0.3 2.1 0 1.2 0.1 4.1 1.3 5.1 0.7 0.6 1.3 1 2.2 1.1q-0.1 0.5-0.4 1.2c-0.7 2.2 0.9 4.4 2.1 5.3 0.9 0.6 2.2 0.7 3.2 0.6q0 0.3 0 0.4c0.2 1.6 0.7 3.7 2.7 4.6 2 1 3 0.7 4.1 0.2 2.3 3.1 7 5.1 11.2 4.7q0.8-0.1 1.5-0.3c4.3-1.1 9.7-4.8 11.7-9.8 1.6-4 4-5.3 6.1-6.2 8.6-2.7 13.2-12.3 14.5-21.2 1.1-7.8 6.1-16.3 7.4-18.1 6-2.5 9.6-5.7 12.6-10.2 3.3-4.7 3.4-7.7 2.5-11.6-0.9-3.8-3.2-21.3-4-24-0.7-2.4-1-4.9-1.6-7.8-1.7-9.3 9.7-57.1 13.1-66.4 1.3-3.6 3.2-7.5 5.3-12 3.7-7.6 8.2-17.1 11.8-29.1 5.5-18.3-3.1-58.6-4.2-63.3 3.2-5.6 6-11.4 8.5-17.3 1.9-4.7 3.8-9.6 4.7-14.7 1.4-7.4 2.6-21.5 3.9-37.9 1.2-14.4 2.6-30.7 4.3-43.8 2.1-16.1 6.3-34.3 9.8-48.9 2.3-10 4.3-18.7 5-23.9 1.2-9.7 0-19.4-0.7-23.7 0.8 0.1 3 0.1 3.5 0-0.7 4.3-1.9 14-0.6 23.7 0.6 5.2 2.6 13.9 5 23.9 3.4 14.6 7.7 32.8 9.8 48.9 1.6 13.1 3 29.4 4.2 43.8 1.4 16.4 2.6 30.5 4 37.9 0.9 5.1 2.7 10 4.7 14.7 2.4 5.9 5.3 11.7 8.5 17.3-1.1 4.7-9.8 45-4.3 63.3 3.7 12 8.2 21.5 11.8 29.1 2.2 4.5 4 8.4 5.3 12 3.4 9.3 14.9 57.1 13.2 66.4-0.6 2.9-0.9 5.4-1.6 7.8-0.8 2.7-3.2 20.2-4 24-0.9 3.9-0.8 6.9 2.4 11.6 3.1 4.5 6.6 7.7 12.6 10.2 1.3 1.8 6.4 10.3 7.5 18.1 1.2 8.9 5.9 18.5 14.5 21.2 2.1 0.9 4.4 2.2 6 6.2 2 5 7.4 8.7 11.7 9.8q0.8 0.2 1.6 0.3c4.2 0.4 8.8-1.6 11.1-4.7 1.2 0.5 2.2 0.8 4.2-0.2 2.1-1 2.6-3.4 2.7-5 0.9 0.1 2.3 0 3.1-0.6 1.2-0.9 2.9-3.1 2.1-5.3q-0.2-0.6-0.3-1.1-0.1 0-0.1-0.1c1-0.1 1.6-0.5 2.3-1.1 1.2-1 1.2-3.9 1.2-5.1 0-0.7-0.1-1.4-0.2-2.1-0.1-0.8-0.2-1.6-0.2-2.3 0-0.5 0.2-0.9 0.4-1.5 0.3-0.7 0.7-1.5 0.8-2.6q0.1-0.5 0.2-1.1c0.4-2.2 1-5.5-0.9-7.5 0 0-5-7.3-7-8.6-2.5-1.6-20.9-16.7-22.9-21.5-0.6-1.3-1-2.6-1.5-4-1.5-4.3-3.1-8.7-6.9-12q-0.5-0.4-0.9-0.8c0.1-4.7-0.9-7.7-1.9-10.8-0.5-1.4-1.1-15.2-1-22.2q0.1-1.4 0.2-3.1 0-0.2 0-0.3c0.9-13 3.7-34 6.6-54.3 3.2-22.4 6.3-43.6 6.1-53.1-0.3-19.4-13.2-49.1-14.8-52.8q0.3-1.2 0.4-2.2c0.4-5.8 0-8.9-0.4-11.6-0.3-2-0.5-3.7-0.4-6.3 0.1-1 0.5-4.3 1.2-9.4 3-23.7 14-67.5 11.2-105.8-1.9-25.9-10.5-67.4-15.1-85.4-3.5-14-6.3-25-5.8-32.1 1.3-20.3-7.3-48.4-8.4-52.1 0.5-1.3 2.1-5.6 3.4-15.9 1.1-9.2-4.8-18.6-8.4-24.2-1-1.6-2.2-3.5-2.3-4 0-0.4 0-2 0-4.4-0.2-11.3-0.9-45.5 0-50.2 0.6-3.3 3-9.6 5.6-16.2 1.8-4.7 3.6-9.6 5.1-13.9 1.1-3.3 2.1-9.5 3.1-16.4q0 0 0 0c2.9 7.1 9.3 20.1 13.4 27.4 7.2 12.9 9.7 33.9 10.2 48.7 0.1 5.9 4.3 10.3 5.5 11.8-0.7 2.1-2.6 9.2-2 23.7 0.4 9.3 6.4 25.3 12.3 40.8 5.1 13.6 10 26.5 11 34.3 0.7 5.7 1.4 9.3 1.4 12.1 0.1 2.7 0 5.4-0.2 8.1-0.3 2.4-1.3 5.4-2.6 10.4-2.3 9.2-2.3 10.9-3.1 16.7-0.7 4.7-3.1 20.4-0.3 22.7 4.2 3.5 7.8-1.2 10.1-4.9 2-3.2 2.5-7.2 3.1-11.1 0.5-4.2 1.1-8.1 3.4-9.6 0.1-0.1 0.2-0.2 0.5-0.1 3.2 1.2 2 4.3 3.2 12.8q-0.1 0.4-0.2 1.2c0 0.1-7.5 14.4-12 21.3-4 6-0.6 13.2 1.1 16 0.7 4.5 3.3 8.2 3.5 8.5l0.8 1.1 2.9-3.4c0.5 7.3 6 8.9 6.1 8.9l0.9 0.3 0.4-0.9c0.4-1.1 9.6-25.4 10.7-30.4 1.2-5.5 1.6-33.8 0.6-63.4-0.7-19.5 5.2-35.9 7-50.5 0.9-8.1 1.9-15.8 2.4-24.2 1.3-21.8-4.9-33-6.1-34.9z"/></svg>