
<svg version="1.2" xmlns="http://www.w3.org/2000/svg" viewBox="0 0 864 1296" width="864" height="1296"><style>.a{fill:#e92a2a}.b{fill:#d52626}.c{fill:#9a1a1c}.d{fill:#8d1819}</style><path class="a" d="m350 334.2c-1.3 4.3-3.9 8.4-6.9 12.1q-3.3 2.9-6 6.3l-0.7 0.9c-4.5 5.9-7.8 12.7-9.1 20.4-3.8 8-8.9 14.7-15.4 20.6-3.9 3.4-8.4 6.1-13 8.4-6.5 3.3-9.1 2.9-13.1-2-0.4-1.4-3.2-9.7-4.8-19.9-1.8-11.1 5.8-39.8 10.4-51.6 2.9-7.1 8.7-9.8 13.8-12.2 1.8-0.8 3.5-1.6 4.9-2.5 4 7.9 17 5.9 24 5.5 9.5-0.6 19.5 1.8 15.9 14z"/><path class="b" d="m314.5 377.3c7-20 19.1-38.4 34.9-52.6q0.3 0.6 0.6 1.2c-14.8 13.4-26.5 30.8-33.5 49.6q-1 0.9-2 1.8z"/><path class="b" d="m299.4 402.6q0.6-0.3 1.3-0.6 0 0 0 0-0.7 0.3-1.3 0.6zm2.1-1.1q0.4-0.2 0.7-0.3-0.4 0.2-0.7 0.3zm-1.6-13c1.8-22.1 8.3-54 30.8-68q1.7-0.2 3.1-0.3c-23.7 12.8-30.6 45-32.5 67.5q-0.7 0.4-1.4 0.8z"/><path class="b" d="m303.7 400.3q0 0 0 0 0.6-0.4 1.3-0.8 0 0 0 0-0.7 0.4-1.3 0.8zm1.8-15.5c4.4-24.1 16.2-50.1 38.7-63.6q0.8 0.2 1.6 0.6c-22.3 12.8-34.1 38-38.7 61.8q-0.8 0.6-1.6 1.2z"/><path class="b" d="m296 404.2q0 0 0 0 0.8-0.3 1.6-0.7 0 0 0 0-0.8 0.4-1.6 0.7zm1.4-14.7c-0.2-4.1-0.7-8.2-1.2-12.2-1-7.5-2-15.2-0.9-22.7 2.1-14.2 7-26.9 14.9-38.7q0.1-0.1 0.1-0.1 0.4 0.7 0.8 1.2c-10.2 15.3-15.5 31.9-15.1 48.1 0.1 4.5 0.7 9.2 1.4 13.7 0.4 3.4 0.9 6.8 1.2 10.3q-0.6 0.2-1.2 0.4z"/><path class="b" d="m292.5 405q0 0 0 0 1.1 0 2.4-0.4 0 0 0 0-1.3 0.4-2.4 0.4zm0.5-14.7q-0.6 0-1.2-0.1-0.6-4-1.3-8.1c-2.5-14.1-5-28.6-2.2-42.1 1.1-3.7 2.3-7.1 3.3-9.6 1.2-3.2 3-5.4 5.1-7.2-12.2 17.7-8.5 38.6-5 58.7q0.8 4.2 1.5 8.4-0.1 0-0.2 0zm-6.9-2q-1-0.6-1.9-1.4-2.4-8.2-2.9-16.9c0.2-2.2 0.6-4.4 1.1-6.8l0.1 0.4c-0.2 8.6 1 16.9 3.6 24.7z"/><path class="c" d="m292.3 405q-1.2 0-2.3-0.5c-1.4-0.6-2.7-1.8-4.2-3.6-0.1-0.4-0.3-1.1-0.7-2.2-0.9-3-2.5-8.6-3.7-15.2 0.7 1.3 1.7 2.4 2.8 3.4q2.9 9.5 8.3 18.1-0.1 0-0.2 0zm2.6-0.4c-0.3-4.7-1-9.5-1.7-14.3q0.4 0 0.8 0 1.8-0.2 3.4-0.8c0.3 5 0 9.9-1.4 14.7q-0.6 0.2-1.1 0.4zm-1.4-0.5q-4.7-7.6-7.4-15.8c1.7 1 3.7 1.7 5.7 1.9 0.8 4.7 1.4 9.4 1.7 13.9zm4.1-0.6c1.2-4.8 1.3-9.6 1-14.4q0.7-0.3 1.3-0.6c-0.4 5.4-0.5 10.3-0.5 14.1q0 0 0 0.1-0.2 0.1-0.4 0.2-0.2 0-0.3 0.1-0.6 0.3-1.1 0.5zm3.1-1.5c0-3.9 0.2-8.8 0.6-14.3 1.5-0.8 2.9-1.8 4.2-2.9-0.9 5.3-1.6 10.5-1.8 15.5q-0.8 0.4-1.5 0.9l0.1-0.2-0.8 0.5q-0.4 0.2-0.8 0.5zm4.3-2.5c0.4-5.1 1-10.5 2.1-15.9q0.2-0.2 0.4-0.3 3.5-3 7-6c-2.2 6.3-3.9 12.7-5 19.2q-0.6 0.4-1.1 0.8-1.6 1.1-3.4 2.2zm6-4.3c1.3-6.7 3.1-13.2 5.5-19.7q7.5-6.5 14.6-13.4-1.5 3.1-2.5 6.4c-0.5 1.6-0.9 3.2-1.2 4.9-0.1 0.3-0.1 0.3-0.1 0.5l-0.3 0.6q-2.1 4.4-4.9 8.4 0 0 0 0 0 0 0 0-2.4 3.4-5.1 6.5-2.4 2.7-5.1 5.1-0.5 0.3-0.9 0.7z"/><path class="d" d="m309.5 396.5c1.1-6.5 2.8-12.9 5-19.2q1-0.9 2-1.8c-2.4 6.5-4.2 13-5.5 19.7q-0.7 0.6-1.5 1.3z"/><path class="d" d="m299.4 402.6c0-3.8 0.1-8.7 0.5-14.1q0.7-0.4 1.4-0.8c-0.4 5.5-0.6 10.4-0.6 14.3q-0.7 0.3-1.3 0.6zm2.1-1.1l0.8-0.5-0.1 0.2q-0.3 0.1-0.7 0.3z"/><path class="d" d="m303.7 400.3c0.2-5 0.9-10.2 1.8-15.5q0.8-0.6 1.6-1.2c-1.1 5.4-1.7 10.8-2.1 15.9q-0.7 0.4-1.3 0.8z"/><path class="d" d="m296 404.2c1.4-4.8 1.7-9.7 1.4-14.7q0.6-0.2 1.2-0.4c0.3 4.8 0.2 9.6-1 14.4q-0.8 0.4-1.6 0.7z"/><path class="d" d="m292.5 405q-5.4-8.6-8.3-18.1 0.9 0.8 1.9 1.4 2.7 8.2 7.4 15.8c-0.3-4.5-0.9-9.2-1.7-13.9q0.6 0.1 1.2 0.1 0.1 0 0.2 0c0.7 4.8 1.4 9.6 1.7 14.3q-1.3 0.4-2.4 0.4z"/><path class="a" d="m505.8 332.4c-2.4-12.4 7.5-13.5 17-12.9 7 0.4 19.6 2.8 23.5-5 1.4 0.9 3.4 2 5.2 2.8 5.1 2.4 11.1 5.9 14 13 4.6 11.8 12.2 39.7 10.5 50.9-1.6 10.2-4.4 18.4-4.9 19.8-4 5-7 5.2-13.5 1.9-4.6-2.3-9.1-5-12.9-8.4-6.6-5.9-11.7-12.6-15.4-20.6h-0.1c-1.3-7.7-4.6-14.5-9.1-20.4 0 0-4.2-5.8-6.4-7.8-3.1-3.7-6.6-6.6-7.9-13.3z"/><path class="b" d="m556.4 388.5q-0.7-0.3-1.4-0.7c-1.8-22.6-9.8-55.5-33.5-68.2 0.9 0 2 0.1 3.1 0.2 22.6 14 30.1 46.6 31.8 68.7z"/><path class="b" d="m550.8 384.8q-0.8-0.6-1.5-1.3c-4.6-23.7-17.1-49.2-39.3-62.1q0.7-0.3 1.5-0.6c22.5 13.5 34.9 39.9 39.3 64z"/><path class="b" d="m563.6 390.4q-0.2 0-0.4 0 0.7-4.3 1.4-8.5c3.6-20.2 7.2-41.1-5.1-58.9 2.2 1.8 4.1 4.1 5.4 7.4 0.9 2.3 1.9 5.2 3 8.6 3.1 13.8 0.5 28.6-2 43.1q-0.7 4.1-1.4 8.3-0.5 0-0.9 0zm6.6-1.8c2.6-7.9 3.8-16.3 3.6-25l0.2-0.5h0.1q0.6 3.3 1 6.3-0.4 9.3-3.1 17.9-0.8 0.7-1.8 1.3z"/><path class="b" d="m558.9 389.6q-0.6-0.2-1.1-0.4c0.2-3.5 0.7-7 1.2-10.4 0.6-4.5 1.3-9.2 1.4-13.7 0.3-16.2-5.1-33.1-15.3-48.3q0.4-0.6 0.8-1.2c8 11.8 13.1 24.8 15.1 39 1.1 7.5 0.1 15.2-0.8 22.7-0.6 4.1-1.1 8.2-1.3 12.3z"/><path class="b" d="m541.8 377.3q-1-0.9-2-1.8c-7-18.8-18.9-36.4-33.7-49.8q0.3-0.6 0.7-1.2c15.6 14.1 28.1 32.9 35 52.8z"/><path class="c" d="m564.2 405q-0.1 0-0.2 0-0.1 0-0.1 0 5.3-8.4 8.1-17.7c1.2-1 2.6-2.1 3.4-3.4-1.6 9-4 15.9-4.4 17-2.2 2.8-4.5 4.1-6.8 4.1zm-2.7-0.5q-0.6-0.1-1.2-0.4c-1.4-4.7-1.6-9.6-1.4-14.5q1.8 0.6 3.7 0.8 0.3 0 0.6 0c-0.8 4.8-1.4 9.5-1.7 14.1zm1.3-0.4c0.4-4.5 1-9.1 1.7-13.7 2-0.2 4-0.8 5.7-1.8q-2.7 8.1-7.4 15.5zm-4.1-0.7q-0.5-0.2-1.1-0.5-0.3-0.2-0.6-0.3c0-3.9-0.2-8.7-0.6-14.1q0.7 0.4 1.4 0.7c-0.4 4.7-0.3 9.5 0.9 14.2zm-3-1.5q-0.6-0.3-1.2-0.6l-0.4-0.3v0.1q-0.7-0.4-1.4-0.9c-0.3-4.9-0.9-10.1-1.9-15.4 1.4 1.1 2.8 2.1 4.2 3 0.5 5.4 0.6 10.2 0.7 14.1zm-4.4-2.5q-2.3-1.4-4.5-3.1c-1.1-6.4-2.8-12.8-5-19q3.6 3.1 7.3 6.1 0.1 0.1 0.2 0.1c1 5.5 1.7 10.8 2 15.9zm-6-4.4q-0.3-0.2-0.6-0.5c-6.5-5.8-11.6-12.5-15.4-20.4v-0.2q0-0.1-0.1-0.2-0.3-1.9-0.9-3.8-1-4-2.8-7.6 7 6.8 14.3 13.2c2.4 6.4 4.2 12.9 5.5 19.5z"/><path class="d" d="m557 402.6q-0.7-0.4-1.3-0.7c-0.1-3.9-0.2-8.7-0.7-14.1q0.7 0.4 1.4 0.7c0.4 5.4 0.6 10.2 0.6 14.1z"/><path class="d" d="m552.7 400.2q-0.7-0.4-1.4-0.8c-0.3-5.1-1-10.4-2-15.9q0.7 0.7 1.5 1.3c1 5.3 1.6 10.5 1.9 15.4z"/><path class="d" d="m563.9 405q-1.1 0-2.4-0.5c0.3-4.6 0.9-9.3 1.7-14.1q0.2 0 0.4 0 0.4 0 0.9 0c-0.7 4.6-1.3 9.2-1.7 13.7q4.7-7.4 7.4-15.5 1-0.6 1.8-1.3-2.8 9.3-8.1 17.7z"/><path class="d" d="m560.3 404.1q-0.7-0.3-1.6-0.7c-1.2-4.7-1.3-9.5-0.9-14.2q0.5 0.2 1.1 0.4c-0.2 4.9 0 9.8 1.4 14.5z"/><path class="d" d="m546.8 396.3q-0.7-0.6-1.5-1.3c-1.3-6.6-3.1-13.1-5.5-19.5q1 0.9 2 1.8c2.2 6.2 3.9 12.6 5 19z"/></svg>