
<svg version="1.2" xmlns="http://www.w3.org/2000/svg" viewBox="0 0 864 1296" width="864" height="1296"><style>.a{fill:#e92a2a}.b{fill:#d52626}.c{fill:#8d1819}.d{fill:#9a1a1c}</style><path class="a" d="m393 940.3c-3.5 11.9-8 21.3-11.7 28.9-2.1 4.6-4 8.5-5.3 12.2-0.5 1.3-1.2 3.5-2 6.3-11.7-5.7-16.1-16.9-17.5-28.9v-0.1c0.2-2.3 0.4-4.7 0.5-7.2 0.5-8.9 0.8-18.1 3.6-26.7 2.1-6.5 5.4-12.6 9.2-18.2 3.9-5.7 8.8-10.6 12.8-16.1q3.5-4.8 6.6-10c2.1 9.8 8.6 44.1 3.8 59.8z"/><path class="b" d="m356.2 953.6c-0.2 1.4-0.4 2.8-0.7 4.2q-0.1 0.6-0.4 1.1c1.5 13 7 25.1 19.8 30.5q0.2-0.6 0.4-1.2c-14.5-6.1-18.5-20.3-19.1-34.6z"/><path class="b" d="m384.4 962.6c5.1-19.1 7.7-39.5-1.4-56q0.6-0.3 1.2-0.6c8.4 15 7.1 32.8 3.3 49.7q-0.3 0.8-0.6 1.5-1.3 2.8-2.5 5.4z"/><path class="b" d="m376.6 979.7c5.5-28 3.3-48.6-6.9-62.6q0.4-0.5 0.8-1c9.9 13.4 12.6 32.6 8.4 58.4q-1.3 2.7-2.3 5.2z"/><path class="b" d="m374.2 987c-5.6-9.7-7.1-21.4-8.5-32.7-1-7.7-2-15.6-4.3-22.9q0.4-0.9 0.8-1.8c2.6 7.7 3.7 16.1 4.7 24.3 1.4 10.9 2.8 22 7.8 31.3q-0.1 0.5-0.2 0.9-0.2 0.4-0.3 0.9z"/><path class="c" d="m369.7 917.1q-1.7-2.3-3.7-4.4 0.3-0.6 0.7-1.2 2.1 2.2 3.8 4.6-0.4 0.5-0.8 1z"/><path class="c" d="m383 906.6c-1.7-3-3.8-5.9-6.3-8.7q0.4-0.5 0.8-1c2.7 2.9 4.9 6 6.7 9.1q-0.6 0.3-1.2 0.6z"/><path class="c" d="m361.4 931.4q-0.6-2.2-1.5-4.3 0.3-1 0.6-2 1 2.2 1.7 4.5-0.4 0.9-0.8 1.8z"/><path class="d" d="m357.3 946.7c0.4-6.6 0.9-13.3 2.6-19.6q0.9 2.1 1.5 4.3c-1.9 4.9-3.3 10.1-4.1 15.3zm4.9-17.1q-0.7-2.3-1.7-4.5 0-0.2 0.1-0.3c1.2-3.8 2.8-7.4 4.7-10.9q0.4-0.6 0.7-1.2 2 2.1 3.7 4.4c-3 3.7-5.5 8-7.5 12.5zm8.3-13.5q-1.7-2.4-3.8-4.6 1.5-2.5 3.1-4.9 0.2-0.3 0.4-0.6c2-2.8 4.2-5.4 6.5-8.1 2.5 2.8 4.6 5.7 6.3 8.7-4.9 2.5-9.6 6.3-11.9 8.8q-0.3 0.4-0.6 0.7zm13.7-10.1c-1.8-3.1-4-6.2-6.7-9.1q0.5-0.6 1.1-1.2c1.4-1.7 2.7-3.4 4-5.2q3.5-4.8 6.6-10 0.1 0.2 0.1 0.5c1 4.6 2.7 13.5 3.9 23.4q-0.8-0.2-1.8-0.2c-2.2 0-4.7 0.7-7.2 1.8z"/><path class="a" d="m463.1 940c3.6 11.9 8.1 21.3 11.8 28.9 2.2 4.5 4 8.5 5.4 12.1 0.5 1.4 1.1 3.6 1.9 6.3 11.8-5.6 16.3-16.9 17.6-28.9-0.2-2.4-0.3-4.7-0.5-7.2-0.5-9-0.8-18.1-3.6-26.7-2.1-6.5-5.4-12.6-9.3-18.3-3.9-5.6-8.8-10.5-12.8-16q-3.5-4.9-6.7-10.1c-2 9.9-8.5 44.1-3.8 59.9z"/><path class="b" d="m500.2 953.2c0.1 1.4 0.3 2.8 0.6 4.2q0.2 0.7 0.4 1.2c-1.5 12.9-7 25-19.8 30.5q-0.2-0.6-0.4-1.2c14.5-6.2 18.6-20.4 19.2-34.7z"/><path class="b" d="m471.8 962.3c-5.1-19.1-7.8-39.5 1.4-56q-0.6-0.3-1.2-0.6c-8.4 15-7.1 32.7-3.3 49.7q0.3 0.7 0.6 1.4 1.3 2.9 2.5 5.5z"/><path class="b" d="m479.6 979.3c-5.5-27.9-3.2-48.5 7-62.5q-0.4-0.5-0.9-1c-9.9 13.4-12.6 32.6-8.3 58.3q1.2 2.8 2.2 5.2z"/><path class="b" d="m482 986.6c5.7-9.6 7.2-21.3 8.6-32.7 1-7.6 2-15.5 4.3-22.8q-0.4-0.9-0.8-1.8c-2.6 7.7-3.7 16.1-4.7 24.3-1.4 10.8-2.8 22-7.9 31.3q0.2 0.4 0.3 0.9 0.1 0.4 0.2 0.8z"/><path class="c" d="m486.6 916.8q1.7-2.3 3.7-4.4-0.3-0.6-0.7-1.2-2.1 2.2-3.9 4.6 0.5 0.5 0.9 1z"/><path class="c" d="m473.2 906.3c1.7-3.1 3.8-6 6.4-8.7q-0.4-0.5-0.9-1c-2.7 2.9-4.9 5.9-6.7 9.1q0.6 0.3 1.2 0.6z"/><path class="c" d="m494.9 931.1q0.7-2.2 1.5-4.4-0.3-1-0.6-1.9-0.9 2.2-1.7 4.5 0.4 0.9 0.8 1.8z"/><path class="d" d="m499 946.3c-0.8-5.1-2.2-10.3-4.1-15.2q0.7-2.2 1.5-4.4c1.8 6.4 2.3 13 2.6 19.6zm-4.9-17c-2-4.6-4.5-8.8-7.5-12.5q1.7-2.3 3.7-4.4 0.3 0.5 0.7 1.1c1.9 3.5 3.5 7.2 4.7 11q0.1 0.1 0.1 0.3-0.9 2.2-1.7 4.5zm-8.4-13.5q-0.3-0.4-0.6-0.7c-2.3-2.5-6.9-6.3-11.9-8.8 1.7-3.1 3.8-6 6.4-8.7 2.2 2.6 4.4 5.3 6.4 8.1q0.2 0.3 0.4 0.5 1.7 2.5 3.2 5-2.1 2.2-3.9 4.6zm-13.7-10.1c-2.5-1.1-5-1.8-7.3-1.8q-0.9 0-1.8 0.2c1.3-9.9 3-18.8 3.9-23.4q0.1-0.3 0.1-0.5 3.2 5.1 6.7 10c1.3 1.7 2.7 3.4 4.1 5.1q0.5 0.7 1 1.3c-2.7 2.9-4.9 5.9-6.7 9.1z"/></svg>