
<svg version="1.2" xmlns="http://www.w3.org/2000/svg" viewBox="0 0 864 1296" width="864" height="1296"><style>.a{fill:#e92a2a}.b{fill:#d52626}.c{fill:#9a1a1c}.d{fill:#8d1819}</style><path class="a" d="m443 316.3c2.4-6.2 5.4-13.7 7.8-19.5 4.5 11.7 16.2 20.5 28.6 22-12.2 3.6-26.1 6.2-36.2-1.6z"/><path class="b" d="m459.6 319.3c-4.9-3.2-9.1-7.4-12.3-12.5q0.3-0.7 0.6-1.5c3.4 5.6 7.9 10.2 13.4 13.6q-0.9 0.2-1.7 0.4z"/><path class="c" d="m464.3 322l-4.9 0.6c-5.8 0-10.6-1.7-14.9-4.7 2.3 1.1 6 1.9 9.9 1.9 1.7 0 3.5-0.1 5.2-0.5 1.4 1 3.1 1.9 4.7 2.7zm1.9-0.5c-1.9-0.8-3.2-1.6-4.9-2.6 2-0.7 4.2-2.1 5.6-3.5 3.4 1.7 8.3 2.9 12.3 3.4-3.6 1-8.6 2.5-12.3 3z"/><path class="d" d="m464.3 322c-1.6-0.8-3.3-1.7-4.7-2.7q0.8-0.2 1.7-0.4c1.7 1 3.6 2 5.5 2.9-0.8 0.1-1.3 0.1-2.2 0.2z"/><path class="a" d="m413.5 316.4c-2.4-6.2-5.4-13.6-7.7-19.5-4.6 11.7-15 20.8-27.4 22.3 12.2 3.5 26.5 5.1 35.2-1.9z"/><path class="b" d="m396.7 319.3c4.9-3.2 9.3-7.9 12.5-12.9q-0.3-0.8-0.6-1.6c-3.4 5.6-8.2 10.7-13.6 14.1q0.8 0.2 1.7 0.4z"/><path class="c" d="m391.8 322.1c1.6-0.8 3.4-1.8 4.9-2.8 1.7 0.4 3.4 0.5 5.2 0.5 3.8 0 9.8-2.1 11.7-3.1-5.6 4.7-11.3 5.9-17.1 5.9 0 0-3.3-0.4-4.7-0.5zm-2.2-0.5c-1.2 0.8-8.2-1.3-11.8-2.3-3.9-1.1 8.6-1.7 12-3.4 1.4 1.3 3.2 2.3 5.2 3q-2.5 1.5-5.4 2.7z"/><path class="d" d="m392 322c1.6-0.8 3.3-1.7 4.7-2.7q-0.9-0.2-1.7-0.4c-1.7 1-3.6 2-5.4 2.8q1.2 0.2 2.4 0.3"/><path class="a" d="m451.4 296.2c4.5 13 15.9 21.4 29.8 21.9 4.4-1.5 9.6-3.6 13.1-5.1-2.4-0.4-5-1.3-7.3-2.5-13.9-7.2-16.9-27.8-28.2-38-1 4.8-2.1 10.6-3.6 14.1-0.9 2.2-2.2 5.6-3.8 9.6z"/><path fill-rule="evenodd" class="b" d="m493.3 313.7c0 0 0.1 0 0.1 0-1-0.2-2.2-0.5-3.2-0.8q-1.7-0.6-3.4-1.4-0.2-0.1-0.4-0.1c2.2 1.1 4.6 1.9 6.9 2.3zm-11.6-2.3c0.5-0.3 0.8-0.6 1.2-0.9-13.1-3.8-23.1-9.8-30.1-17.9q-0.3 0.7-0.6 1.4c7 7.8 16.8 13.7 29.4 17.5z"/><path class="b" d="m479.3 304.9c-9.7-1.8-19.1-7-25.6-14.5q0.3-0.7 0.6-1.4c6 7.2 14.8 12.3 23.8 14.3 0.4 0.5 0.7 0.9 1.1 1.4z"/><path class="b" d="m472.1 293.7c-5.5-1.9-11.5-4.8-16.5-8.1q0.2-0.7 0.4-1.3c4.6 3.1 10.2 5.8 15.3 7.7 0.2 0.5 0.8 1.7 0.8 1.7z"/><path fill-rule="evenodd" class="c" d="m481 318.5c-10.7-0.3-19.5-5.6-25.3-13.8 4.1 3.7 9.7 7.1 15.3 8.1 0.8 0.1 2 0.2 3.2 0.2 2.5 0 5.4-0.4 7.4-1.5q5.1 1.5 10.8 2.6c-3.3 1.4-6.5 3-10.5 4.3zm8.5-6.5c-1.2-0.3-5.4-1.2-6.5-1.5 0.2-0.3 0.8-1 1-1.3 0.9 0.6 5.5 2.8 5.5 2.8z"/><path class="d" d="m492.8 314.1c0.2-0.1 2.5-1.5 2.8-1.6-2.3-0.4-2.6 0.6-3.5 0.2-1.1-0.6-8-1.9-9.2-2.2q-0.6 0.5-1.3 1c3.4 1 7.2 1.9 11.1 2.7z"/><path class="a" d="m405.3 295.4q-2.4-6-3.7-9.2c-1.5-3.5-2.7-8.5-3.6-13.3-11.4 10.1-14.5 31.1-28.4 38.3-2.3 1.2-4.6 2-7 2.4 3.5 1.5 8.2 3.8 12.5 5.2 14-0.4 25.9-9.7 30.4-22.8z"/><path class="b" d="m377.8 304.7c9.7-1.8 18.6-7.1 25.1-14.6q-0.3-0.7-0.5-1.3c-6.1 7.1-14.3 12.3-23.3 14.3q-0.6 0.8-1.3 1.6z"/><path class="b" d="m384.7 293.5c5.5-1.9 11.3-4.9 16.3-8.2q-0.2-0.6-0.5-1.3c-4.6 3.1-9.9 6-15 7.8q-0.4 0.9-0.8 1.7z"/><path fill-rule="evenodd" class="c" d="m373.8 318.4c-4-1.3-6.6-3-9.9-4.4q5.7-1.1 10.8-2.6c2 1.2 4.9 1.6 7.3 1.6 1.3 0 2.4-0.1 3.3-0.3 5.6-1 11.8-4.9 15.8-8.6-3.9 7.3-14.9 14.3-25.6 14.6zm-4-7q0 0 0 0 1.5-0.8 2.8-1.8 0.3 0.5 0.7 0.9-1.7 0.5-3.5 0.9z"/><path class="d" d="m363.8 314.1c-0.2-0.2-0.5-0.3-0.7-0.4 2.2-0.5 4.5-1.2 6.7-2.3q1.8-0.5 3.5-1 0.6 0.6 1.4 1c-3.4 1-6.9 1.9-10.7 2.6z"/></svg>