
<svg version="1.2" xmlns="http://www.w3.org/2000/svg" viewBox="0 0 864 1296" width="864" height="1296"><style>.a{fill:#e92a2a}.b{fill:#d52626}.c{fill:#9a1a1c}.d{fill:#8d1819}</style><path class="a" d="m432 370.8c1.2 11.3 2.6 24.6 11 33 10.8 10.8 34.7 17.4 48.9 11.3 15.5-6.7 28.1-25.4 36.7-39.4-1.3-8.6-3.4-15.7-8.4-21.8-1.5-1.5-8.2-10.2-8.2-10.2-11.5-10.5-13.3-19.1-36.8-19.3-25.3-0.2-34.3 3.7-43 17.1-4.4 6.8-0.9 21.8-0.2 29.3z"/><path class="b" d="m450.7 398.9q-0.8-0.6-1.6-1.3c23.2-0.4 45.9-5.8 66.4-15.9q-0.8 1.1-1.7 2.3c-19.6 9.2-41.1 14.3-63.1 14.9zm4.6-12q-6.9 0-13.7-0.5-0.2-0.6-0.4-1.3 7 0.5 14 0.5c20.5 0 41.8-3.1 63.5-9.1q-0.4 0.8-0.9 1.7c-21.4 5.7-42.4 8.7-62.5 8.7zm64.4-12.3c-15.8-2.6-31.9-4-47.8-4-11.1 0-22.3 0.7-33.5 2q-0.1-0.7-0.2-1.3c11.2-1.3 22.6-2 33.7-2 16.1 0 32.4 1.4 48.4 4q-0.3 0.7-0.6 1.3zm0.9-1.9c-22.9-9.2-46.2-13.9-69.4-13.9q-7 0-14.1 0.6 0-0.7 0-1.3c4.7-0.4 9.5-0.6 14.2-0.6 23.3 0 46.7 4.7 69.8 14q-0.3 0.6-0.5 1.2zm1-2.7c-20.7-17.2-46.9-26.5-74.9-26.5q-4.6 0-9.2 0.3 0-0.7 0.1-1.3 4.6-0.3 9.2-0.3c28 0 54.4 9.3 75.3 26.4q-0.2 0.7-0.5 1.4zm0.9-2.5c-18.2-21.7-47.3-35.9-75.4-35.9-1.5 0-5.5 0.1-6.9 0.2q1.4-0.8 2.8-1.4c0.5 0 3.6-0.1 4.1-0.1 28.2 0 57.4 14 75.8 35.6q-0.2 0.8-0.4 1.6z"/><path class="c" d="m479 417.4c-7.5 0-15.7-1.9-22.7-4.9 27.1-0.6 48.3-16 71-34.8-1.7 2.7-3.5 5.6-5.4 8.5 0 0-4.6 6.5-6.7 9.1-6.6 8.4-14.4 15.9-23.3 19.7-3.8 1.7-8.2 2.4-12.9 2.4zm-25.3-6.2c-4.2-2-7.9-4.6-10.7-7.4q-2.3-2.3-4-5.1 3.8 0.2 7.7 0.2 2 0 4 0c5.6 3.9 12.9 5.5 20.1 5.5q2.4 0 4.8-0.2c11.6-1.2 22.8-5.7 31.6-13.3q3.6-3.2 6.6-6.9 5.3-2.5 10.3-5.4c-22 18.1-42.8 32.6-69.3 32.6q-0.4 0-0.8 0-0.2 0-0.3 0zm-7.1-13.6c-2.7 0-5.6-0.1-8.4-0.2-1.9-3.6-3.1-7.5-4-11.6q3.7 0.4 7.4 0.6c1.1 2.9 2.4 5.5 4.3 7.9q1.4 1.8 3.2 3.3-1.2 0-2.5 0zm-5.4-12.5q-3.7-0.3-7.3-0.6c-0.8-3.8-1.2-7.5-1.6-11.2q3-0.4 6.1-0.7 0.5 2.8 1 5.6c0.5 2.3 1 4.6 1.8 6.9zm74.3-3.4q1.2-1.7 2.3-3.5 4.2-1.2 8.5-2.5l0.1 0.1q-5.3 3.1-10.9 5.9zm3.2-5.2q0.5-0.9 1-1.9 1.8 0.3 3.7 0.6-2.4 0.7-4.7 1.3zm4.7-2.6q-1.6-0.3-3.1-0.6 0.1-0.3 0.3-0.6 1.4 0.6 2.8 1.2zm2.2-0.5q-2.3-1-4.5-1.9 0.3-0.8 0.5-1.5 2 1.6 4 3.4zm-93.5-1.4q0-0.3 0-0.6-0.1-0.3-0.1-0.6 0-0.1 0-0.3c-0.3-2.7-0.9-6.5-1.3-10.5q3.2-0.3 6.4-0.6 0.3 6 1.1 11.9-3 0.3-6.1 0.7zm93.8-0.1q-1.9-1.7-3.8-3.3 0.2-0.5 0.4-1.1 1.7 2.1 3.4 4.4zm0.9-1.1c-1.4-1.8-2.4-3.1-3.9-4.9 0.3-1.2 0.8-3.3 1-4.5 1.3 2.7 2.8 5.8 3.6 8.9 0 0.1 0.5 2 0.5 2.1m-97.4-13.6c-0.2-2.1-0.3-4.3-0.3-6.3 0-1.2-0.3-3.2-0.2-4.2q0.3-2.1 0.9-3.9c2-0.2 4.4-0.4 6.5-0.6q-0.6 7.1-0.4 14.3-3.3 0.3-6.5 0.7zm1-16.8c0.2-0.5 0.3-0.5 0.5-1 1.8-2.7 4.2-5.5 6.4-7.3-0.4 2.5-0.6 6.2-0.9 8.8-1.9 0.1-4.7 0.4-6.6 0.6z"/><path class="d" d="m456.3 412.5q-0.5-0.2-0.9-0.4-0.9-0.4-1.7-0.9 0.1 0 0.3 0 0.4 0 0.8 0c26.5 0 47.3-14.5 69.3-32.6q-5 2.9-10.3 5.4 0.9-1.2 1.7-2.3 5.6-2.8 10.9-5.9l-0.1-0.1q-4.3 1.3-8.5 2.5 0.5-0.9 0.9-1.7 2.3-0.6 4.7-1.3-1.9-0.3-3.7-0.6 0.3-0.6 0.6-1.3 1.5 0.3 3.1 0.6-1.4-0.6-2.8-1.2 0.2-0.6 0.5-1.2 2.2 0.9 4.5 1.9-2-1.8-4-3.4 0.3-0.7 0.5-1.4 1.9 1.6 3.8 3.3-1.7-2.3-3.4-4.4 0.2-0.8 0.4-1.6c1.5 1.8 4.1 5.1 5.4 6.9 0.2 0.8 0.2 2.7-0.2 3.6-0.2 0.5-0.5 0.8-0.8 1.3-22.7 18.8-43.9 34.2-71 34.8zm-9.6-13.6q-3.9 0-7.7-0.2-0.4-0.6-0.8-1.3c2.8 0.1 5.7 0.2 8.4 0.2q1.3 0 2.5 0 0.8 0.7 1.6 1.3-2 0-4 0zm-5.1-12.5q-3.7-0.2-7.4-0.6-0.2-0.7-0.3-1.3 3.6 0.3 7.3 0.6 0.2 0.7 0.4 1.3zm-9.3-13.1q-0.1-0.6-0.2-1.3 3.1-0.4 6.1-0.7 0.1 0.6 0.2 1.3-3.1 0.3-6.1 0.7zm-1.6-13.3q0-0.6-0.1-1.2 3.2-0.4 6.5-0.7 0 0.6 0 1.3-3.2 0.3-6.4 0.6zm0.3-15.6c0.2-0.4 0.4-0.9 0.6-1.4 1.9-0.2 4.1-0.4 6-0.5q-0.1 0.6-0.1 1.3-3.1 0.2-6.1 0.6"/><path class="a" d="m424.4 369.8c-1.2 11.3-2.6 24.6-11 33-10.8 10.8-34.7 17.4-48.9 11.3-15.5-6.7-28.1-25.4-36.7-39.4 1.3-8.6 3.5-15.7 8.4-21.8 1.5-1.5 8.2-10.2 8.2-10.2 11.5-10.5 13.3-19.1 36.8-19.3 25.3-0.2 34.3 3.7 43 17.1 4.4 6.8 0.9 21.8 0.2 29.3z"/><path class="b" d="m405.7 397.9c-22-0.6-43.5-5.7-63.1-14.9q-0.9-1.2-1.7-2.3c20.5 10.1 43.2 15.5 66.5 15.9q-0.9 0.7-1.7 1.3zm-4.6-12c-20.1 0-41.1-3-62.5-8.7q-0.5-0.9-0.9-1.7c21.7 6 43 9.1 63.5 9.1q7 0 14-0.5-0.2 0.7-0.4 1.3-6.8 0.5-13.7 0.5zm-64.4-12.3q-0.3-0.6-0.6-1.3c16-2.6 32.3-4 48.4-4 11.2 0 22.5 0.7 33.7 2q-0.1 0.6-0.2 1.3c-11.2-1.3-22.4-2-33.5-2-15.9 0-32 1.4-47.8 4zm-0.8-1.9q-0.3-0.6-0.5-1.2c23-9.3 46.4-14 69.7-14 4.7 0 9.5 0.2 14.2 0.6q0 0.6 0 1.3-7.1-0.6-14.1-0.6c-23.2 0-46.5 4.7-69.3 13.9zm-1.1-2.7q-0.3-0.7-0.5-1.4c20.9-17.1 47.3-26.4 75.3-26.4q4.6 0 9.2 0.3 0.1 0.6 0.1 1.3-4.6-0.3-9.2-0.3c-28 0-54.2 9.3-74.9 26.5zm-0.8-2.5q-0.3-0.8-0.5-1.6c18.4-21.6 47.6-35.6 75.8-35.6 0.5 0 3.6 0.1 4.1 0.1q1.4 0.6 2.8 1.4c-1.4-0.1-5.4-0.2-6.9-0.2-28.1 0-57.2 14.2-75.3 35.9z"/><path class="c" d="m377.4 416.4c-4.7 0-9.1-0.7-12.9-2.4-8.9-3.8-16.7-11.3-23.3-19.7-2.1-2.6-6.7-9.1-6.7-9.1-1.9-2.9-3.7-5.8-5.4-8.5 22.7 18.8 43.9 34.2 71 34.8-7 3-15.2 4.9-22.7 4.9zm25.3-6.2q-0.1 0-0.3 0-0.4 0-0.8 0c-26.5 0-47.3-14.5-69.3-32.6q5 2.9 10.3 5.4 3 3.7 6.6 6.9c8.8 7.6 20 12.1 31.6 13.3q2.4 0.2 4.8 0.2c7.2 0 14.5-1.6 20.1-5.5q2 0 4 0 3.9 0 7.7-0.2-1.7 2.8-4 5.1c-2.8 2.8-6.5 5.4-10.7 7.4zm7.1-13.6q-1.2 0-2.4 0 1.7-1.5 3.1-3.3c1.9-2.4 3.2-5 4.3-7.9q3.7-0.2 7.5-0.6c-0.9 4.1-2.2 8-4.1 11.6-2.8 0.1-5.6 0.2-8.4 0.2zm5.4-12.5c0.8-2.3 1.3-4.6 1.8-6.9q0.6-2.8 1-5.6 3.1 0.3 6.1 0.7c-0.4 3.7-0.8 7.4-1.6 11.2q-3.6 0.3-7.3 0.6zm-74.3-3.4q-5.6-2.8-10.9-5.9l0.1-0.1q4.3 1.3 8.5 2.5 1.1 1.8 2.3 3.5zm-3.2-5.2q-2.3-0.6-4.7-1.3 1.9-0.3 3.7-0.6 0.5 1 1 1.9zm-4.7-2.6q1.4-0.6 2.9-1.2 0.1 0.3 0.2 0.6-1.5 0.3-3.1 0.6zm-2.2-0.5q2-1.8 4-3.4 0.2 0.7 0.6 1.5-2.3 0.9-4.6 1.9zm93.5-1.4q-3.1-0.4-6.1-0.7 0.8-5.9 1.1-11.9 3.2 0.3 6.4 0.6c-0.4 4-1 7.8-1.3 10.5q0 0.2 0 0.3 0 0.3-0.1 0.6 0 0.3 0 0.6zm-93.8-0.1q1.7-2.3 3.5-4.4 0.1 0.6 0.3 1.1-1.9 1.6-3.8 3.3zm-2.1 0.5c0-0.1 0.5-2 0.5-2.1 0.8-3.1 2.3-6.2 3.6-8.9 0.3 1.2 0.7 3.3 1 4.5-1.5 1.8-2.5 3.1-3.9 4.9m96.2-12q-3.2-0.4-6.5-0.7 0.2-7.2-0.4-14.3c2.1 0.2 4.5 0.4 6.5 0.6q0.6 1.8 0.9 3.9c0.1 1-0.2 3-0.2 4.2 0 2-0.1 4.2-0.3 6.3zm-0.4-15.7c-1.9-0.2-4.7-0.5-6.6-0.6-0.3-2.6-0.5-6.3-0.9-8.8 2.2 1.8 4.6 4.6 6.4 7.3 0.3 0.5 0.3 0.5 0.5 1z"/><path class="d" d="m400.1 411.5c-27.1-0.6-48.3-16-71-34.8-0.3-0.4-0.6-0.8-0.8-1.3-0.4-0.9-0.4-2.8-0.2-3.6 1.3-1.8 3.9-5.1 5.4-6.9q0.2 0.8 0.5 1.6-1.8 2.1-3.5 4.4 1.9-1.7 3.8-3.3 0.2 0.7 0.5 1.4-2 1.6-4 3.4 2.3-1 4.6-1.9 0.2 0.6 0.5 1.2-1.5 0.6-2.9 1.2 1.6-0.3 3.1-0.6 0.3 0.7 0.6 1.3-1.8 0.3-3.7 0.6 2.4 0.7 4.7 1.3 0.4 0.8 0.9 1.7-4.2-1.2-8.5-2.5l-0.1 0.1q5.3 3.1 10.9 5.9 0.8 1.1 1.7 2.3-5.3-2.5-10.3-5.4c22 18.1 42.8 32.6 69.3 32.6q0.4 0 0.8 0 0.2 0 0.3 0-0.8 0.5-1.7 0.9-0.4 0.2-0.9 0.4zm9.6-13.6q-2 0-4 0 0.8-0.6 1.7-1.3 1.2 0 2.4 0c2.8 0 5.6-0.1 8.4-0.2q-0.4 0.7-0.8 1.3-3.8 0.2-7.7 0.2zm5.1-12.5q0.2-0.6 0.4-1.3 3.7-0.3 7.3-0.6-0.1 0.6-0.2 1.3-3.8 0.4-7.5 0.6zm9.3-13.1q-3-0.4-6.1-0.7 0.1-0.7 0.2-1.3 3 0.3 6.1 0.7-0.1 0.7-0.2 1.3zm1.6-13.3q-3.2-0.3-6.4-0.6 0-0.7 0-1.3 3.3 0.3 6.5 0.7-0.1 0.6-0.1 1.2zm-0.7-15.6q-3-0.4-6.1-0.6 0-0.7-0.1-1.3c1.9 0.1 4.1 0.3 6 0.5 0.2 0.5 0.4 1 0.6 1.4"/></svg>