
<svg version="1.2" xmlns="http://www.w3.org/2000/svg" viewBox="0 0 864 1296" width="864" height="1296"><style>.a{fill:#e92a2a}.b{fill:#d52626}</style><path class="a" d="m342.9 974.6c0.2-25.6 0.4-49.4 0.6-75-3.4-6.4-8.2-16.4-10.1-22.5-3.4 8.2-13.8 34.1-14.1 50.5-0.2 9.3 2.8 30.2 6 52.4 3.7 25.3 7.9 51.5 7.1 62.2-0.1 1.3 0.2 3 0.1 4.1 13.6-19.7 10.3-47.8 10.4-70.5z"/><path class="b" d="m341.5 1022.6c-14.4-82.7-6.8-124.3-3.7-133.8l1.1 1.3c-3 9.4-11.2 45.6 3.1 128z"/><path class="b" d="m337.4 1036.7c-22.1-108.8-8.2-141-2.2-154.8l1.1 1.3c-5.9 13.6-19.9 43.8 2.1 152z"/><path class="a" d="m514.2 974.6c-0.2-25.6-0.5-49.4-0.6-75 3.4-6.4 8.1-16.4 10.1-22.5 3.4 8.2 13.8 34.1 14.1 50.5 0.1 9.3-2.9 30.2-6.1 52.4-3.6 25.3-7.8 51.5-7.1 62.2 0.1 1.3-0.2 3 0 4.1-13.6-19.7-10.3-47.8-10.4-70.5z"/><path class="b" d="m515.5 1022.6c14.5-82.7 6.8-124.3 3.8-133.8l-1.1 1.3c3 9.4 11.2 45.6-3.2 128z"/><path class="b" d="m519.6 1036.7c22.2-108.8 8.2-141 2.3-154.8l-1.1 1.3c5.9 13.6 19.9 43.8-2.2 152z"/></svg>