
<svg version="1.2" xmlns="http://www.w3.org/2000/svg" viewBox="0 0 864 1296" width="864" height="1296"><style>.a{fill:#e92a2a}.b{fill:#d52626}.c{fill:#9a1a1c}.d{fill:#8d1819}</style><path class="a" d="m415.7 478.6c-6.7 1.1-12.7 3.4-19 5.5-17 5.9-11-16-6.3-23.4 5.3-8.7 16.2-13.6 26.1-15.5 11.7-2.1 9 11.8 8.9 17-0.3 7.1 0.3 15.1-9.7 16.4z"/><path class="b" d="m399.4 483.2q0.7-0.3 1.4-0.5 0 0 0 0-0.7 0.2-1.4 0.5zm0.4-4.1c0.9-9.5 2.1-19.5 3.5-29.5q0.2-0.1 0.4-0.2 0.5-0.3 1.1-0.5c-1.5 10.2-2.7 20.2-3.6 29.9q-0.7 0.2-1.4 0.3z"/><path class="b" d="m406.4 480.8q0 0 0 0 0.7-0.2 1.4-0.4 0 0 0 0-0.7 0.2-1.4 0.4zm0.4-3.9c1-9.7 2.3-19.9 3.7-30.2q0.7-0.2 1.4-0.4c-1.4 10.2-2.7 20.3-3.7 30q-0.7 0.4-1.4 0.6z"/><path class="b" d="m416.9 468.8c1-7.6 2-15.4 3.3-23.7q0.7 0.2 1.3 0.4c-1.1 7-2 13.7-2.8 20.2q-0.8 1.6-1.8 3.1z"/><path class="b" d="m392.4 485.1q0.6-0.1 1.3-0.2-0.7 0.1-1.3 0.2zm0.3-4.6c0.7-8.5 1.5-17 2.6-25.6q0.7-0.6 1.4-1.2c-1 8.9-1.9 17.8-2.6 26.5q-0.4 0.1-0.8 0.2-0.3 0-0.6 0.1z"/><path class="b" d="m388.7 484.5q-0.7-0.3-1.2-0.8 0-0.1-0.1-0.2 0 0 0 0 0.5 0.6 1.3 1 0 0 0 0zm-1.2-3.4c0.3-5.6 0.7-11.4 1.2-17.2 0.5-1.2 1.1-2.3 1.6-3.1-0.6 6.9-1.1 13.7-1.5 20.2q-0.6 0.1-1.3 0.1z"/><path class="c" d="m390.9 485.1q-1.3-0.1-2.2-0.6 0-1.7 0.1-3.5c1.3-0.1 2.6-0.3 3.9-0.5q-0.1 2.3-0.3 4.6-0.8 0-1.5 0zm2.8-0.2q0.2-2.3 0.4-4.7c1.9-0.3 3.8-0.6 5.7-1.1q-0.2 2.1-0.4 4.1-1 0.3-2 0.7-0.4 0.1-0.7 0.2-1.1 0.4-2.1 0.6-0.4 0.1-0.9 0.2zm-6.3-1.4q-1-0.9-1.4-2.4 0.7 0 1.5 0-0.1 1.2-0.1 2.4zm13.4-0.8q0.2-1.9 0.4-3.9c1.9-0.5 3.8-1.1 5.6-1.9q-0.2 2-0.4 3.9-2.8 0.9-5.6 1.9zm7-2.3q0.2-2 0.4-4.1c2-0.9 3.8-2.1 5.5-3.6q1.9-1.7 3.2-3.9-0.6 5-1.1 9.8-0.1 0-0.1 0-1 0.2-2 0.4-3 0.6-5.9 1.4zm9.4-2q0.7-6.2 1.5-12.7c1-2.1 1.7-4.4 2.1-6.7 0.9-4.4 1-8.9 0.9-13.4 3.6 1.6 4.1 6.2 4 10.5q0 1.5-0.1 2.9c-0.1 1.2-0.2 2.3-0.3 3.2-0.2 5.9 0.2 12.5-5.5 15.3q-1.2 0.5-2.6 0.9z"/><path class="d" d="m399.4 483.2q0.2-2 0.4-4.1 0.7-0.1 1.4-0.3-0.2 2-0.4 3.9-0.7 0.2-1.4 0.5z"/><path class="d" d="m406.4 480.8q0.2-1.9 0.4-3.9 0.7-0.2 1.4-0.6-0.2 2.1-0.4 4.1-0.7 0.2-1.4 0.4z"/><path class="d" d="m415.8 478.6q0.5-4.8 1.1-9.8 1-1.5 1.8-3.1-0.8 6.5-1.5 12.7-0.7 0.1-1.4 0.2z"/><path class="d" d="m392.4 485.1q0.2-2.3 0.3-4.6 0.3-0.1 0.6-0.1 0.4-0.1 0.8-0.2-0.2 2.4-0.4 4.7-0.7 0.1-1.3 0.2z"/><path class="d" d="m388.7 484.5q-0.8-0.4-1.3-1 0-1.2 0.1-2.4 0.7 0 1.3-0.1-0.1 1.8-0.1 3.5z"/><path class="a" d="m440.4 478.6c6.8 1.1 12.9 3.4 19.3 5.6 17.2 5.9 11-16 6.3-23.5-5.4-8.6-16.5-13.6-26.4-15.4-11.9-2.2-9.2 11.6-9 16.9 0.3 7.1-0.4 15.1 9.8 16.4z"/><path class="b" d="m456.9 483.2q-0.7-0.2-1.4-0.5 0 0 0 0 0.7 0.3 1.4 0.5zm-0.4-4q-0.7-0.2-1.4-0.4c-1-9.6-2.2-19.7-3.7-29.9q0.5 0.3 1 0.5 0.3 0.1 0.5 0.2c1.4 10.1 2.6 20 3.6 29.6z"/><path class="b" d="m449.8 480.9q-0.7-0.3-1.4-0.5 0 0 0 0 0.7 0.2 1.4 0.5 0 0 0 0zm-0.4-3.9q-0.7-0.3-1.4-0.7c-1.1-9.6-2.4-19.7-3.9-30q0.7 0.2 1.5 0.4c1.5 10.3 2.7 20.5 3.8 30.3z"/><path class="b" d="m439.1 468.8c-0.9-7.5-2-15.4-3.3-23.7q-0.7 0.2-1.3 0.4c1.1 7 2 13.7 2.9 20.2q0.7 1.6 1.7 3.1z"/><path class="b" d="m464 485.2q-0.6-0.1-1.3-0.2 0.7 0.1 1.3 0.1zm-0.3-4.6q-0.3 0-0.6-0.1-0.4 0-0.8-0.1c-0.7-8.8-1.7-17.7-2.8-26.6q0.8 0.7 1.6 1.3c1 8.5 1.9 17.1 2.6 25.5z"/><path class="b" d="m467.8 484.5q0 0 0 0 0.8-0.3 1.3-0.9 0 0 0 0-0.1 0.1-0.2 0.2-0.5 0.4-1.1 0.7zm1.2-3.3q-0.7 0-1.4-0.1c-0.4-6.6-0.9-13.3-1.5-20.3 0.5 0.9 1.1 2 1.6 3.1 0.5 5.9 0.9 11.7 1.3 17.3z"/><path class="c" d="m465.5 485.1q-0.7 0.1-1.5 0-0.1-2.2-0.3-4.6c1.3 0.3 2.6 0.5 3.9 0.6q0.1 1.7 0.2 3.4-1 0.5-2.3 0.6zm-2.8-0.1q-0.5-0.1-0.9-0.2-1-0.2-2.1-0.6-0.4-0.1-0.8-0.3-1-0.3-2-0.7-0.2-2-0.4-4c1.9 0.4 3.9 0.8 5.8 1.1q0.2 2.3 0.4 4.7zm6.4-1.4q-0.1-1.2-0.1-2.4 0.8 0 1.5 0-0.4 1.4-1.4 2.4zm-13.6-0.9q-2.8-1-5.7-1.8-0.2-2-0.4-3.9c1.8 0.7 3.7 1.3 5.7 1.8q0.2 2 0.4 3.9zm-7.1-2.3q-2.9-0.8-5.9-1.4-1-0.2-2.1-0.4 0 0-0.1 0-0.6-4.8-1.2-9.8 1.4 2.2 3.4 3.9c1.6 1.5 3.5 2.7 5.5 3.6q0.2 2.1 0.4 4.1zm-9.5-2q-1.5-0.4-2.6-0.9c-5.9-2.8-5.5-9.4-5.7-15.3 0-0.9-0.1-2-0.2-3.3q-0.1-1.3-0.2-2.8c-0.1-4.3 0.4-8.9 4-10.5 0 4.5 0.1 9 1 13.4 0.4 2.3 1.2 4.6 2.2 6.7q0.8 6.5 1.5 12.7z"/><path class="d" d="m456.9 483.2q-0.2-2-0.4-4-0.7-0.2-1.4-0.4 0.2 2 0.4 3.9 0.7 0.3 1.4 0.5z"/><path class="d" d="m449.8 480.9q-0.2-2-0.4-3.9-0.7-0.3-1.4-0.7 0.2 2.1 0.4 4.1 0.7 0.2 1.4 0.5z"/><path class="d" d="m440.3 478.6q-0.6-4.8-1.2-9.8-1-1.5-1.7-3.1 0.8 6.5 1.5 12.7 0.7 0.1 1.4 0.2z"/><path class="d" d="m464 485.1q-0.1-2.2-0.3-4.6-0.3 0-0.6-0.1-0.4 0-0.8-0.1 0.2 2.3 0.4 4.7 0.7 0.1 1.3 0.1z"/><path class="d" d="m467.8 484.5q0.8-0.3 1.3-0.9-0.1-1.2-0.1-2.4-0.7 0-1.4-0.1 0.1 1.7 0.2 3.4z"/><path class="a" d="m424.3 426c-1.2 6.7-6.6 10.2-11.9 13.4-5.6 3.3-25.5 16.3-27 2.9-1.3-11.5 2.1-19.7 12.8-24.9 6.5-3.2 16.8-9.3 24-8.1 4.9 2.9 2.9 12.4 2.1 16.7z"/><path class="b" d="m401.4 438.1c0.5-7.6 1.2-15.4 1.9-23.3q0.7-0.3 1.5-0.7c-0.8 7.9-1.4 15.8-1.9 23.4q-0.7 0.3-1.5 0.6z"/><path class="b" d="m408.7 434.5c0.5-7.6 1.2-15.4 1.9-23q0.7-0.3 1.5-0.6c-0.8 7.5-1.4 15.1-1.9 22.6q-0.7 0.5-1.5 1z"/><path class="b" d="m419.5 422.6q0.5-6.4 1.2-13.4 0.7 0 1.4 0.1 0 0 0 0h-0.2q0.1 0.4 0.1 0.7-0.4 3.8-0.7 7.4-0.7 2.7-1.8 5.2z"/><path class="b" d="m393.1 448.1q0 0 0 0 0.7-0.1 1.4-0.2-0.7 0.1-1.4 0.2zm0.4-7.9c0.4-6.9 1-14 1.6-21.1q0.7-0.4 1.5-0.8c-0.7 7.2-1.2 14.5-1.6 21.7q-0.4 0-0.8 0.1-0.3 0.1-0.7 0.1z"/><path class="b" d="m388.4 447.5q-0.7-0.3-1.3-0.9 0-0.1-0.1-0.1 0 0 0 0 0.6 0.6 1.4 1 0 0 0 0zm0.2-7q-0.7 0-1.4-0.1 0.2-7 0.6-13.9 0.1-0.1 0.1-0.1 0.6-1.1 1.5-2.2-0.5 8.2-0.8 16.3z"/><path class="c" d="m391.6 448.2c-1.2 0-2.3-0.2-3.2-0.7q0.1-3.4 0.2-7 0.6 0.1 1.2 0.1c1.2 0 2.5-0.2 3.7-0.4q-0.2 4-0.4 7.9-0.8 0.1-1.5 0.1zm2.9-0.3q0.2-3.9 0.5-7.9 3.3-0.7 6.4-1.9-0.2 3.8-0.4 7.6c-1.5 0.6-3.1 1.2-4.5 1.7q-1 0.3-2 0.5zm-7.5-1.4c-0.8-1-1.4-2.3-1.6-4.2q-0.1-1.3-0.2-2.5 1 0.4 2 0.6-0.1 3-0.2 6.1zm15.4-1.5q0.2-3.7 0.5-7.5 3-1.2 5.8-3-0.2 3.7-0.5 7.3c-1.5 0.9-3.3 1.9-5.1 2.9q-0.4 0.1-0.7 0.3zm7.3-4q0.2-3.8 0.5-7.5c2.3-1.7 4.3-3.6 6.1-5.9q1.9-2.3 3.2-5-0.6 6.6-1 12.7c-1.4 1.1-2.9 2.1-4.4 3q-0.9 0.6-1.7 1.1-0.6 0.3-1.3 0.7-0.6 0.4-1.4 0.9zm10.3-7.1c0.3-5.2 0.8-10.6 1.3-16.5 0.6-2.4 0.8-4.9 0.7-7.4q0-0.3 0.1-0.7h0.1q0 0 0 0 0 0.1 0 0.1c4.9 2.9 2.9 12.4 2.1 16.6-0.6 3.3-2.2 5.8-4.3 7.9z"/><path class="d" d="m401 445.7q0.2-3.8 0.4-7.6 0.8-0.3 1.5-0.6-0.3 3.8-0.5 7.5-0.7 0.3-1.4 0.7z"/><path class="d" d="m408.2 441.8q0.3-3.6 0.5-7.3 0.8-0.5 1.5-1-0.3 3.7-0.5 7.5-0.7 0.4-1.5 0.8z"/><path class="d" d="m418.5 435.3q0.4-6.1 1-12.7 1.1-2.5 1.8-5.2c-0.5 5.9-1 11.3-1.3 16.5q-0.7 0.7-1.5 1.4zm3.5-25.3q0-0.3-0.1-0.7h0.2q-0.1 0.4-0.1 0.7z"/><path class="d" d="m393.1 448.1q0.2-3.9 0.4-7.9 0.4 0 0.7-0.1 0.4-0.1 0.8-0.1-0.3 4-0.5 7.9-0.7 0.1-1.4 0.2z"/><path class="d" d="m388.4 447.5q-0.8-0.4-1.4-1 0.1-3.1 0.2-6.1 0.7 0.1 1.4 0.1-0.1 3.6-0.2 7z"/><path class="a" d="m431 426.1c1.2 6.6 6.6 10.1 11.9 13.3 5.7 3.3 25.5 16.3 27 3 1.3-11.6-2.1-19.7-12.8-25-6.5-3.1-16.8-9.2-24-8-4.9 2.9-2.9 12.4-2.1 16.7z"/><path class="b" d="m453.9 438.2c-0.5-7.7-1.1-15.5-1.9-23.3q-0.7-0.4-1.4-0.8c0.7 7.9 1.3 15.8 1.9 23.5q0.7 0.3 1.4 0.6z"/><path class="b" d="m446.6 434.5c-0.5-7.6-1.1-15.3-1.9-23q-0.7-0.3-1.4-0.5c0.7 7.5 1.3 15 1.8 22.5q0.8 0.5 1.5 1z"/><path class="b" d="m435.9 422.6q-0.6-6.3-1.2-13.4-0.8 0.1-1.4 0.2 0 0 0 0h0.1q0 0.3-0.1 0.6 0.4 3.9 0.7 7.5 0.7 2.7 1.9 5.1z"/><path class="b" d="m462.2 448.2q-0.7-0.1-1.4-0.3 0.7 0.2 1.4 0.3 0 0 0 0zm-0.4-7.9q-0.3-0.1-0.6-0.1-0.4-0.1-0.8-0.2c-0.4-7.1-1-14.4-1.6-21.7q0.7 0.4 1.4 0.9c0.7 7.1 1.2 14.1 1.6 21.1z"/><path class="b" d="m467 447.6q0 0 0 0 0.7-0.4 1.3-1.1 0 0 0 0 0 0.1-0.1 0.2-0.6 0.5-1.2 0.9zm-0.3-7q-0.3-8.1-0.7-16.3 0.8 1 1.4 2.1 0.1 0.1 0.1 0.1 0.4 7 0.6 13.9-0.7 0.1-1.4 0.2z"/><path class="c" d="m463.7 448.3q-0.7 0-1.5-0.1-0.2-3.9-0.4-7.9c1.2 0.2 2.5 0.3 3.7 0.3q0.6 0 1.2 0 0.2 3.5 0.3 7c-1 0.5-2.1 0.7-3.3 0.7zm-2.9-0.4q-1-0.2-1.9-0.5c-1.5-0.4-3-1-4.5-1.7q-0.3-3.7-0.5-7.5 3.2 1.2 6.5 1.8 0.2 4 0.4 7.9zm7.5-1.4q-0.1-3-0.2-6.1 1.1-0.2 2-0.5 0 1.2-0.2 2.5c-0.2 1.8-0.7 3.2-1.6 4.1zm-15.4-1.5q-0.3-0.1-0.6-0.3c-1.9-0.9-3.7-1.9-5.2-2.8q-0.2-3.7-0.5-7.4 2.8 1.8 5.9 3.1 0.2 3.7 0.4 7.4zm-7.3-4q-0.7-0.4-1.4-0.8-0.7-0.5-1.2-0.8-0.9-0.5-1.8-1c-1.5-1-3-2-4.3-3.1q-0.5-6.1-1-12.7 1.3 2.7 3.1 5.1c1.8 2.2 3.9 4.2 6.1 5.8q0.3 3.8 0.5 7.5zm-10.2-7c-2.2-2.1-3.8-4.6-4.4-7.9-0.8-4.3-2.8-13.8 2.1-16.7q0 0 0 0 0 0 0 0h0.2q0 0.3 0 0.6c-0.1 2.5 0.1 5 0.7 7.5 0.5 5.8 1 11.3 1.4 16.5z"/><path class="d" d="m454.4 445.7q-0.3-3.7-0.5-7.5-0.7-0.3-1.4-0.6 0.2 3.7 0.4 7.4 0.7 0.4 1.5 0.7z"/><path class="d" d="m447.1 441.9q-0.2-3.7-0.5-7.4-0.7-0.5-1.5-1 0.3 3.8 0.5 7.5 0.7 0.4 1.5 0.9z"/><path class="d" d="m436.9 435.3q-0.8-0.6-1.5-1.3c-0.4-5.2-0.9-10.7-1.4-16.5q0.7 2.7 1.9 5.1 0.5 6.6 1 12.7zm-3.6-25.3q0-0.3 0-0.6h0.1q0 0.3-0.1 0.6z"/><path class="d" d="m462.2 448.2q-0.2-3.9-0.4-7.9-0.3-0.1-0.6-0.1-0.4-0.1-0.8-0.2 0.2 4 0.4 7.9 0.7 0.2 1.4 0.3z"/><path class="d" d="m467 447.6q0.7-0.4 1.3-1.1-0.1-3-0.2-6.1-0.7 0.1-1.4 0.2 0.2 3.5 0.3 7z"/></svg>