
<svg version="1.2" xmlns="http://www.w3.org/2000/svg" viewBox="0 0 864 1296" width="864" height="1296"><style>.a{fill:#e9e7e9}.b{fill:#a89fa8}.c{fill:#e92a2a}.d{fill:#d52626}.e{fill:#9a1a1c}.f{fill:#8d1819}</style><path class="a" d="m406.7 515q0.3-0.1 0.6-0.2-0.3 0.1-0.6 0.2zm-0.5-29.5q0.7-0.2 1.4-0.3-0.7 0.1-1.4 0.3z"/><path class="a" d="m415.4 512.2q0.7-0.2 1.4-0.4 0 0 0 0-0.7 0.2-1.4 0.4zm1.5-28q-0.3-0.1-0.6-0.1-0.2 0-0.4 0-0.2 0.1-0.4 0.1 0 0 0 0 0.2-0.1 0.4-0.1 0.2 0 0.4 0 0.3 0 0.6 0.1 0 0 0 0z"/><path class="b" d="m392.2 519q-1.1 0-1.9-0.2-0.1-0.1-0.1-0.1 0.9 0.3 2 0.3 0.6 0 1.3-0.1 0 0 0 0-0.7 0.1-1.3 0.1zm2.7-0.3q0 0 0 0 0.6-0.2 1.4-0.4 1.8-0.6 3.5-1.2-1.2 0.4-2.5 0.8-0.5 0.2-1 0.4-0.8 0.2-1.4 0.4zm-6.1-0.5q-0.7-0.4-1.3-1-0.5-0.5-0.9-1.2c0.6 0.9 1.3 1.6 2.2 2.2q0 0 0 0zm31.9-7.8q0 0 0 0 0 0 0 0zm0 0c2.6-1.6 4-4.7 4.5-8.3-0.5 3.6-1.9 6.7-4.5 8.3z"/><path class="c" d="m419.3 511c-7.7 2.4-15.3 4.8-23 7.3-9.6 3-11.5-4.4-11.6-10.1-0.1-5.5 2.9-10.5 6.4-14.6 5.9-6.8 16-8.9 24.8-9.5 10.3-0.6 13.4 23.6 3.4 26.9z"/><path class="d" d="m400.1 517q0.6-0.1 1.1-0.3 0 0 0 0-0.5 0.2-1.1 0.3zm-0.4-3.6c-0.4-8.2-0.5-16.8-0.5-25.6q0.6-0.3 1.3-0.6c0 8.9 0.2 17.5 0.5 25.8q-0.6 0.2-1.3 0.4z"/><path class="d" d="m406.7 515q0 0 0 0 0.7-0.3 1.3-0.5 0 0 0 0-0.3 0.1-0.7 0.3-0.3 0.1-0.6 0.2zm-0.1-3.4c-0.3-8.4-0.4-16.9-0.4-26.1q0.7-0.2 1.4-0.3c-0.1 9.1 0 17.7 0.3 25.9q-0.7 0.3-1.3 0.5z"/><path class="d" d="m415.4 512.2q0.7-0.2 1.4-0.4 0 0 0 0-0.7 0.2-1.4 0.4zm0-4.2c-0.1-7.5 0-15.3 0.1-23.8q0.2 0 0.4-0.1 0.2 0 0.4 0 0.3 0 0.6 0.1c-0.1 8.2-0.2 15.8-0.1 23q-0.7 0.4-1.4 0.8z"/><path class="d" d="m393.6 514.2q-0.2 0-0.4 0c-0.5-7.2-0.8-14.5-1-21.8q0.7-0.6 1.4-1.2c0.2 8.1 0.5 15.6 1 23q-0.5 0-1 0z"/><path class="d" d="m389.8 513.7q-0.2-0.1-0.4-0.2-0.5-0.2-1-0.4c-0.4-4.5-0.7-9.2-1-14.4q0.6-1 1.3-2c0.3 6.1 0.7 11.7 1.1 17z"/><path class="e" d="m392.2 519q-1.1 0-2-0.3-0.2-2.4-0.4-5 1.7 0.4 3.4 0.5 0.1 2.4 0.3 4.7-0.7 0.1-1.3 0.1zm2.7-0.3q-0.2-2.3-0.3-4.5c1.7-0.1 3.4-0.5 5.1-0.8q0 1.9 0.1 3.7-1.7 0.6-3.5 1.2-0.8 0.2-1.4 0.4zm-6.1-0.5c-0.9-0.6-1.6-1.3-2.2-2.2-1.3-1.9-1.7-4.4-1.9-6.8 0.7 1.6 2.1 3 3.7 3.9q0.2 2.6 0.4 5.1zm12.4-1.5q-0.1-1.8-0.2-3.7 0.1 0 0.1 0 2.7-0.6 5.5-1.4 0 1.7 0.1 3.4-2.8 0.8-5.5 1.7zm6.8-2.2q0-1.7-0.1-3.4c2.6-0.8 5.1-1.8 7.5-3.1q0 2.1 0 4.2-3.7 1.2-7.4 2.3zm8.8-2.7q0-2.3 0-4.6 1.5-0.9 2.8-2c2.5-1.9 4.5-4.5 5.8-7.4q0.1 2.2-0.2 4.3c-0.5 3.6-1.9 6.7-4.5 8.3q0 0 0 0 0 0 0 0-0.6 0.4-1.4 0.6-1.2 0.4-2.5 0.8z"/><path class="f" d="m399.8 517.1q-0.1-1.8-0.1-3.7 0.7-0.2 1.3-0.4 0.1 1.9 0.2 3.7-0.5 0.2-1.1 0.3-0.1 0.1-0.3 0.1z"/><path class="f" d="m406.7 515q-0.1-1.7-0.1-3.4 0.6-0.2 1.3-0.5 0.1 1.7 0.1 3.4-0.6 0.2-1.3 0.5z"/><path class="f" d="m415.4 512.2q0-2.1 0-4.2 0.7-0.4 1.4-0.8 0 2.3 0 4.6-0.7 0.2-1.4 0.4z"/><path class="f" d="m393.5 518.9q-0.2-2.3-0.3-4.7 0.2 0 0.4 0 0.5 0 1 0 0.1 2.2 0.3 4.5-0.8 0.1-1.4 0.2z"/><path class="f" d="m390.2 518.7q-0.7-0.2-1.4-0.5-0.2-2.5-0.4-5.1 0.5 0.2 1 0.4 0.2 0.1 0.4 0.2 0.2 2.6 0.4 5z"/><path class="a" d="m448.6 515.1q-0.3-0.1-0.7-0.2 0.4 0.1 0.7 0.2zm0.5-29.5q-0.7-0.2-1.4-0.3 0.7 0.1 1.4 0.3z"/><path class="a" d="m439.8 512.3q-0.7-0.2-1.3-0.4 0 0 0 0 0.6 0.2 1.3 0.4zm-1.5-28q0 0 0 0 0.4-0.1 0.7-0.1 0.2 0 0.4 0.1 0.1 0 0.3 0 0 0 0 0-0.2 0-0.3 0-0.2 0-0.4 0-0.3 0-0.7 0z"/><path fill-rule="evenodd" class="b" d="m463 519.1q-0.6 0-1.2-0.1 0 0 0 0 0.6 0.1 1.2 0.1 1.1 0 2-0.2 0 0 0 0-0.9 0.2-2 0.2zm-2.6-0.3q-0.7-0.2-1.4-0.4-0.5-0.2-1.1-0.3-1.2-0.4-2.5-0.8 1.8 0.5 3.6 1.1 0.7 0.2 1.4 0.4 0 0 0 0zm6.1-0.5q0 0 0 0c0.9-0.5 1.6-1.3 2.2-2.1q-0.4 0.6-1 1.1-0.5 0.6-1.2 1zm-31.9-7.8c-2.6-1.5-4.1-4.7-4.6-8.3 0.5 3.6 2 6.7 4.6 8.3zm0 0q0 0 0 0 0 0 0 0z"/><path class="c" d="m435.9 511.2c7.7 2.3 15.4 4.7 23.1 7.2 9.5 3.1 11.5-4.3 11.6-10.1 0-5.4-2.9-10.5-6.4-14.6-6-6.8-16.1-8.9-24.8-9.4-10.4-0.7-13.5 23.5-3.5 26.9z"/><path class="d" d="m455.1 517.2q-0.5-0.2-1-0.4 0 0 0 0 0.5 0.2 1 0.4zm0.5-3.7q-0.7-0.2-1.4-0.3c0.4-8.3 0.5-17 0.5-25.9q0.7 0.3 1.4 0.6c0 8.8-0.2 17.4-0.5 25.6z"/><path class="d" d="m448.6 515.1q-0.3-0.1-0.7-0.2-0.3-0.1-0.7-0.2 0 0 0 0 0.7 0.2 1.4 0.4 0 0 0 0zm0.1-3.4q-0.7-0.2-1.4-0.4c0.3-8.3 0.4-16.8 0.4-26q0.7 0.1 1.4 0.3c0 9.2-0.1 17.8-0.4 26.1z"/><path class="d" d="m439.8 512.3q-0.7-0.2-1.3-0.4 0 0 0 0 0.6 0.2 1.3 0.4zm0.1-4.2q-0.7-0.3-1.4-0.7c0-7.3 0-14.9-0.2-23.1q0.4 0 0.7 0 0.2 0 0.4 0 0.1 0 0.3 0c0.2 8.5 0.2 16.4 0.2 23.8z"/><path class="d" d="m461.6 514.3q0.2 0 0.5 0c0.4-7.2 0.7-14.5 0.9-21.7q-0.6-0.7-1.4-1.3c-0.1 8.1-0.5 15.7-0.9 23q0.5 0 0.9 0z"/><path class="d" d="m465.4 513.8q0.2-0.1 0.5-0.2 0.5-0.1 1-0.4c0.3-4.4 0.6-9.2 0.9-14.3q-0.6-1.1-1.2-2.1c-0.4 6.1-0.7 11.7-1.2 17z"/><path class="e" d="m463 519.1q-0.6 0-1.2-0.1 0.1-2.3 0.3-4.7 1.7 0 3.3-0.5-0.2 2.6-0.4 5.1-0.9 0.2-2 0.2zm-2.6-0.3q-0.7-0.2-1.4-0.4-1.8-0.6-3.6-1.1 0.1-1.9 0.2-3.8c1.7 0.4 3.4 0.7 5.1 0.8q-0.1 2.2-0.3 4.5zm6.1-0.5q0.2-2.5 0.4-5.1c1.6-0.9 2.9-2.3 3.6-3.9-0.1 2.4-0.6 5-1.8 6.9-0.6 0.8-1.3 1.6-2.2 2.1zm-12.4-1.5q-2.8-0.8-5.5-1.7 0-1.7 0.1-3.4 2.7 0.8 5.4 1.4 0.1 0.1 0.1 0.1 0 1.8-0.1 3.6zm-6.9-2.1q-3.7-1.2-7.4-2.4 0-2 0.1-4.2c2.3 1.3 4.8 2.3 7.4 3.2q0 1.7-0.1 3.4zm-8.7-2.8q-1.3-0.4-2.6-0.7-0.7-0.3-1.3-0.7 0 0 0 0 0 0 0 0c-2.6-1.6-4.1-4.7-4.6-8.3q-0.2-2.1-0.1-4.3c1.2 2.9 3.3 5.5 5.7 7.5q1.4 1.1 2.9 2 0 2.3 0 4.5z"/><path class="f" d="m455.4 517.3q0.1-1.9 0.2-3.8-0.7-0.2-1.4-0.3 0 1.8-0.1 3.6 0.5 0.2 1 0.4 0.2 0 0.3 0.1z"/><path class="f" d="m448.6 515.1q0-1.7 0.1-3.4-0.7-0.2-1.4-0.4 0 1.7-0.1 3.4 0.7 0.2 1.4 0.4z"/><path class="f" d="m439.8 512.3q0-2 0.1-4.2-0.7-0.3-1.4-0.7 0 2.3 0 4.5 0.6 0.2 1.3 0.4z"/><path class="f" d="m461.8 519q0.1-2.3 0.3-4.7-0.3 0-0.5 0-0.4 0-0.9 0-0.1 2.2-0.3 4.5 0.7 0.2 1.4 0.2z"/><path class="f" d="m465 518.9q0.8-0.2 1.5-0.6 0.2-2.5 0.4-5.1-0.5 0.3-1 0.4-0.3 0.1-0.5 0.2-0.2 2.6-0.4 5.1z"/><path class="c" d="m422.2 578q-0.3 12.2-0.7 24.5c-0.4 13.2-15.6-0.3-19-4.1-9.4-13.9-12-32.3-15.1-48.5-2.6-13.4 1.8-24.2 15.4-28.3 9.7-2.9 20-3.2 20.7 9.3 0.9 15.5-0.8 31.6-1.3 47.1z"/><path class="c" d="m433.1 578q0.3 12.2 0.7 24.5c0.4 13.2 15.7-0.3 19-4.1 9.5-13.9 12-32.3 15.1-48.5 2.6-13.4-1.8-24.2-15.4-28.3-9.6-2.9-20-3.2-20.7 9.3-0.9 15.5 0.8 31.6 1.3 47.1z"/><path class="d" d="m410.4 605.2q-0.8-0.5-1.5-1.1 0 0 0 0 0 0 0 0-0.1 0-0.1 0 0 0 0 0 0.8 0.6 1.6 1.1 0 0 0 0zm-1.9-10.1q-0.8-0.4-1.5-0.8c-4-22.8-6.7-46.7-8-71.3q0.3-0.1 0.6-0.3 0.4-0.1 0.7-0.2c1.3 25 4 49.4 8.2 72.6z"/><path class="d" d="m416.4 608.1q-0.7-0.2-1.4-0.4 0.7 0.2 1.4 0.4zm-3.2-11.8q-0.1 0-0.2 0c-3.8-24.5-6.4-49.8-7.5-75.5q0.4 0 0.7-0.1 0.3-0.1 0.5-0.1c1.2 25.7 3.7 51.1 7.6 75.6q-0.5 0.1-1.1 0.1z"/><path class="d" d="m417.8 594.8c-2.3-25.2-3.6-50.4-4.1-74.8q0.7 0 1.3 0.1c0.5 24.1 1.8 48.8 4 73.6q-0.5 0.6-1.2 1.1z"/><path class="d" d="m404.6 600.5q-0.2-0.2-0.4-0.4 0.2 0.2 0.4 0.4zm-1.8-9.3q-0.8-0.7-1.6-1.5c-3.7-20.7-6.4-41.8-8-62.9q0.6-0.6 1.2-1.1c1.7 22 4.5 44 8.4 65.5z"/><path fill-rule="evenodd" class="d" d="m399.1 587.5q-0.9-1.1-1.7-2.2c-3.4-17.5-6-35.6-8-53.8q0.5-0.9 1.1-1.7c2 19.3 4.9 38.7 8.6 57.7zm-0.2 4.7q-0.1-0.2-0.3-0.5 0.2 0.3 0.3 0.5z"/><path class="d" d="m446.7 595.3c4.1-23.3 6.9-47.7 8.2-72.9q0.7 0.3 1.3 0.6c-1.3 24.6-4 48.7-8.1 71.6q-0.7 0.4-1.4 0.7z"/><path class="d" d="m442.1 596.4q-0.7 0-1.3-0.1c3.9-24.5 6.5-50 7.6-75.8q0.7 0.2 1.3 0.3c-1.2 25.8-3.7 51.1-7.6 75.6z"/><path class="d" d="m437.4 594.8q-0.7-0.5-1.2-1.2c2.1-24.8 3.5-49.4 3.9-73.5q0.7-0.1 1.4-0.1c-0.5 24.5-1.9 49.6-4.1 74.8z"/><path class="d" d="m452.3 591.5c3.9-21.6 6.7-43.7 8.4-65.8q0.7 0.5 1.3 1c-1.7 21.3-4.4 42.6-8.1 63.4q-0.8 0.7-1.6 1.4z"/><path class="d" d="m455.9 587.9c3.8-19.1 6.7-38.7 8.7-58.3q0.6 0.8 1.1 1.7c-1.9 18.5-4.6 36.8-8 54.5q-0.9 1.1-1.8 2.1z"/><path class="e" d="m417.6 608.2q-0.5 0-1-0.1-0.1 0-0.2 0-1.1-5.9-2.1-11.9c1.1-0.2 2.2-0.5 3.1-1.1q0.2-0.1 0.4-0.3 0.6 6.6 1.2 13.1-0.7 0.3-1.4 0.3zm-2.6-0.5c-1.5-0.6-3.1-1.5-4.6-2.5q-1-5-1.9-10.1 1.1 0.5 2.3 0.8 1.1 0.3 2.2 0.4 1 5.7 2 11.4zm5.2-0.7q-0.6-6.7-1.2-13.3c1-1.2 1.7-2.7 2.4-4.2 0.2-0.5 0.3-1.1 0.5-1.6q-0.2 7.3-0.4 14.6c0 1.8-0.4 3.1-0.9 4q-0.2 0.3-0.4 0.5zm-11.4-2.9c-1.6-1.2-3.1-2.5-4.2-3.6q-1-4.7-1.8-9.3 0.9 0.8 1.9 1.5 1.1 0.9 2.3 1.6 0.9 4.9 1.8 9.8zm-5.9-5.3q-0.2-0.2-0.4-0.4-0.9-1.3-1.7-2.7-0.9-4.1-1.7-8.2 1 1.1 2.1 2.2 0.8 4.6 1.7 9.1zm-4.3-7.1c-1.8-3.7-3.3-7.6-4.5-11.5q1.4 2.7 3.3 5.1 0.6 3.2 1.2 6.4z"/><path class="f" d="m410.4 605.2q-0.8-0.5-1.6-1.1-0.9-4.9-1.8-9.8 0.7 0.4 1.5 0.8 0.9 5.1 1.9 10.1z"/><path class="f" d="m416.4 608.1q-0.7-0.2-1.4-0.4-1-5.7-2-11.4 0.1 0 0.2 0 0.6 0 1.1-0.1 1 6 2.1 11.9z"/><path class="f" d="m419 607.9q-0.6-6.5-1.2-13.1 0.7-0.5 1.2-1.1 0.6 6.6 1.2 13.3-0.5 0.6-1.2 0.9z"/><path class="f" d="m404.6 600.5q-0.2-0.2-0.4-0.4-0.8-0.7-1.3-1.3-0.9-4.5-1.7-9.1 0.8 0.8 1.6 1.5 0.8 4.6 1.8 9.3z"/><path class="f" d="m400.8 595.7q-1-1.7-1.9-3.5-0.1-0.2-0.3-0.5-0.6-3.2-1.2-6.4 0.8 1.1 1.7 2.2 0.8 4.1 1.7 8.2z"/><path class="e" d="m437.8 608.2q-0.9 0-1.7-0.4 0.7-6.5 1.3-13 0.2 0.2 0.5 0.4c0.9 0.6 1.9 0.9 2.9 1.1q-1 5.9-2 11.8-0.4 0.1-0.9 0.1 0 0-0.1 0zm2.4-0.5q1-5.6 1.9-11.3 0 0 0 0 1.3 0 2.5-0.3 1.1-0.3 2.1-0.8-0.9 5-1.9 10c-1.6 1-3.2 1.9-4.6 2.4zm-5.3-0.9q-0.4-0.6-0.7-1.6-0.3-1-0.4-2.5-0.2-7.4-0.4-14.7c0.2 0.6 0.4 1.1 0.6 1.6 0.6 1.4 1.2 2.8 2.2 4q-0.6 6.6-1.3 13.2zm11.4-2.6q1-4.8 1.8-9.6 1.3-0.8 2.6-1.8 0.8-0.6 1.6-1.3-0.8 4.6-1.7 9.1c-1.2 1.1-2.7 2.4-4.3 3.6zm5.9-5.2q0.9-4.5 1.7-8.9 1.1-1.1 2-2.2-0.8 4.1-1.6 8.1-0.7 1.2-1.5 2.4-0.3 0.3-0.6 0.6zm4.2-6.9q0.7-3.1 1.3-6.3 1.8-2.4 3.3-5c-1.3 3.9-2.7 7.7-4.6 11.3z"/><path class="f" d="m444.8 605.3q1-5 1.9-10 0.7-0.3 1.4-0.7-0.8 4.8-1.8 9.6-0.7 0.5-1.5 1.1z"/><path class="f" d="m438.8 608.1q1-5.9 2-11.8 0.6 0.1 1.3 0.1-0.9 5.7-1.9 11.3-0.7 0.3-1.4 0.4z"/><path class="f" d="m436.1 607.8q-0.7-0.3-1.2-1 0.7-6.6 1.3-13.2 0.5 0.7 1.2 1.2-0.6 6.5-1.3 13z"/><path class="f" d="m450.6 600.6q0.9-4.5 1.7-9.1 0.8-0.7 1.6-1.4-0.8 4.4-1.7 8.9-0.6 0.7-1.6 1.6z"/><path class="f" d="m454.3 596q0.8-4 1.6-8.1 0.9-1 1.8-2.1-0.6 3.2-1.3 6.3-1 2-2.1 3.9z"/></svg>