
<svg version="1.2" xmlns="http://www.w3.org/2000/svg" viewBox="0 0 864 1296" width="864" height="1296"><style>.a{fill:#e92a2a}.b{fill:#d52626}.c{fill:#9a1a1c}.d{fill:#8d1819}</style><path class="a" d="m523 665.9c-0.7-3-0.4-3.9-1.1-6.7l-0.7-2.1c-15.8-7.3-17.5-27.7-20.1-43.1-2.1-12.7-2.5-27.9 6.8-37.3-1.1-4-2.5-7.6-2.5-7.6l-0.6 0.3c-5.7 4.7-11.4 9.5-17.6 13.5q-0.4 0.3-0.9 0.4c-3.2 4.6-6.4 10.3-9.8 16.9v13.3c0.3-1.4 2-8 2.3-9.4 1.3-5.9 6.1-12.1 9.4-17 1-1.5 3.2-3 4.8-1.9 8.3 5.8 3.4 25.6 2.5 33.2-2.5 21.7-9.9 42.7-18 62.9-4.3 10.6-9.4 20.5-14 30.9 7.7 27.4 30.6 54.5 32.2 83.5 2 1.3 4.5 1.4 6.6 0.3 0.2-4.8 1.5-9.3 2.3-13.5 4.4-21.1 14.2-40.5 17.8-62 3-18 3.2-36.6 0.6-54.6z"/><path class="a" d="m334.2 666.4q1.1-4.5 2.2-8.6l0.1-0.7c15.8-7.3 16.6-27.5 19.1-42.9 2.2-12.7 2.6-27.9-6.7-37.3 1.1-3.9 2.8-8 2.8-8l0.5 0.3c5.7 4.7 11.5 9.5 17.7 13.5 0.2 0.2 0.2 0.8 0.5 0.9 3.3 4.6 6.4 10.2 9.9 16.9v13.8c-0.3-1.4-2-8.6-2.3-10-1.3-5.8-6.1-12.1-9.4-17-1-1.4-3.2-3-4.9-1.8-8.3 5.8-3.4 25.6-2.5 33.2 2.6 21.7 10 42.6 18.1 62.8 4.3 10.6 9.4 20.6 14 31-7.7 27.3-30.6 54.4-32.2 83.4v0.1c-2 1.3-4.6 1.3-6.6 0.3-0.2-4.9-0.9-9.6-1.8-13.8-4.3-21.1-14.8-40.3-18.4-61.7-2.9-18-2.7-36.4-0.1-54.4z"/><path class="b" d="m499.8 763.2q1.1-6.6 1.9-13 0.3 6.4 0.8 12.9 0.7-0.1 1.4-0.2-1.1-12.2-1.1-23.7 0.6-8.2 0.6-16.3c1.8 12.3 4.7 22.9 8.8 32.5q0.3-0.9 0.7-1.8c-5.8-13.9-8.9-29.9-10-50.2 2.8 13.1 7.7 25.4 14.6 36.8q0.3-0.9 0.5-1.7c-6.9-11.7-11.7-24.4-14.2-37.9 3.2 6.9 9.1 17 18.2 22.7q0.1-0.7 0.2-1.4c-9-6-15.7-17.3-19.4-26.8q-0.4-2.7-0.6-5.4c0.3-2.7 0.7-5.3 1.2-7.9 3.4 11.3 10.5 20.7 20.5 27.2q0.1-0.7 0.1-1.5c-10.1-6.8-16.9-16.5-19.9-28.2q1.3-5.2 3.5-10c1.2 10.7 7.3 20 17 25.8q0-0.8 0-1.5c-9.6-6-15.5-15.9-15.9-26.8q2.9-6.1 7.1-11.7-0.5-0.4-1-0.9c-5.2 6.9-9 14.5-11.4 22.5l-0.1 0.4q-0.4 1.4-0.7 2.8c0.3-11.3 1.4-23.2 5.1-35.2q-0.5-0.9-0.8-1.8-0.1 0.1-0.2 0.3c-2.1 6.6-3.4 13.1-4.2 19.5-0.8-12.7-3.4-25.2-7.9-37.3q-0.2 1.3-0.4 2.7c5.7 16.5 8.1 33.6 7 51v0.1q0 3-0.1 5.9c-2-13-5.8-25.7-11.3-38q-0.3 1.1-0.6 2.1 0.1 0.2 0.2 0.4c0.2 26.2-8.8 48.6-24.9 61.9-0.7 0.5-0.6 0.3-0.8 0.7 0 0.3 0.4 1.1 0.4 1.3 16.5-12.9 26.1-35 26.6-60.9q3 7.4 5.2 15.1c0.1 21.5-11 40.7-29.8 51.8q0.2 0.6 0.4 1.2c18-10.4 29.2-28.3 30.6-48.6 1 4.2 1.9 8.4 2.6 12.6-4.4 17.9-14.6 32.6-30.1 43.5q0.3 0.7 0.6 1.3c15-10.6 25.1-24.5 30-41.5q0.4 2.9 0.7 5.7c-4 17.7-12.7 33-26.1 45.5q0.3 0.6 0.6 1.2c12.8-11.8 21.4-26.1 25.8-42.6v0.6c-2.8 18.8-9.7 36.2-20.3 51.9q0.4 0.6 0.8 1.1c9.8-14.2 16.4-29.8 19.8-46.6 0.4 18.9-2.9 37.9-9.9 55.9q0.6 0.4 1.2 0.7c4.9-12.5 8-25.4 9.3-38.5-0.1 13-1.3 26.5-3.6 40.2q0.6 0.1 1.3 0.1z"/><path class="c" d="m499.2 797.1c-1.2 0-2.4-0.4-3.5-1.1q-0.3-4.5-1.1-8.8 3.1-12.1 5.2-24 0.3 0 0.6 0 1.1 0 2.1-0.1c0.5 5.6 1.3 12.1 2.2 17.8-0.2 0.7-2.3 12.2-2.5 15.4-0.9 0.5-1.9 0.8-3 0.8zm-5.2-12.9c-1.2-4.9-2.8-9.7-4.7-14.5q1.9-4.1 3.5-8.3 2.8 1.4 5.7 1.7-1.8 10.5-4.5 21.1zm11.5-7.1c-0.6-4.6-1.2-9.7-1.6-14.2 2.4-0.5 4.7-1.6 6.7-3-1.9 5.5-3.5 11.3-5 17zm-16.9-9.2c-2.2-5.3-4.7-10.6-7.3-15.8q0.2-0.3 0.5-0.7c2.1 2.8 4.6 5.4 7.3 7.6q1.3 1 2.5 1.7-1.4 3.7-3 7.2zm-8-17.2q-0.8-1.6-1.6-3.1 0.9 1.4 1.9 2.7-0.1 0.2-0.3 0.4z"/><path class="d" d="m494.6 787.2q-0.3-1.5-0.6-3 2.7-10.6 4.5-21.1 0.6 0.1 1.3 0.1-2.1 11.9-5.2 24zm10-6.5c-0.8-5.7-1.6-12-2.1-17.6q0.7-0.1 1.4-0.2c0.4 4.5 1 9.7 1.6 14.3-0.3 1.2-0.5 1.9-0.7 3.1zm-15.4-11.1q-0.3-0.8-0.7-1.7 1.6-3.5 3-7.2 0.6 0.4 1.2 0.7-1.6 4.1-3.5 8.2zm-8-17.5q-0.4-0.7-0.7-1.4 0.1-0.2 0.3-0.4 0.4 0.6 0.8 1.1-0.2 0.3-0.4 0.7z"/><path class="b" d="m356.6 764.1q-1.1-6.6-1.8-13.2-0.3 6.5-0.9 13.1-0.6-0.1-1.3-0.2 1.1-12.3 1.1-24-0.6-8.3-0.7-16.4c-1.7 12.4-4.5 23.1-8.6 32.9q-0.3-1-0.6-1.9c5.6-14 8.7-30.3 9.7-50.8-2.7 13.3-7.5 25.7-14.3 37.2q-0.2-0.9-0.5-1.7c6.9-11.8 11.5-24.7 14-38.3-3.1 6.9-9 17.1-17.8 22.9q-0.2-0.7-0.3-1.4c8.9-6 15.5-17.5 19-27.1q0.4-2.8 0.7-5.6c-0.3-2.6-0.7-5.3-1.3-7.9-3.3 11.4-10.2 20.9-20.1 27.6q0-0.8-0.1-1.6c10-6.8 16.7-16.7 19.6-28.6q-1.3-5.2-3.4-10.1c-1.2 10.9-7.2 20.3-16.7 26.2q0-0.8 0-1.6c9.4-6 15.2-16.1 15.6-27q-2.9-6.2-7-12 0.5-0.4 1-0.8c5.1 7 8.8 14.6 11.1 22.8l0.1-0.1 0.1 0.5q0.4 1.3 0.7 2.7c-0.3-11.4-1.4-23.4-5-35.6q0.4-0.9 0.8-1.7 0.1 0.1 0.1 0.2c2.1 6.7 3.4 13.3 4.2 19.8 0.8-12.9 3.5-26.1 7.9-38.4q0.2 1.3 0.4 2.7c-5.6 16.7-8.1 34.7-7.1 52.3q0.1 3.1 0.1 6c2-13.1 5.9-26.7 11.4-39.1q0.2 1.1 0.5 2.1c0 0.1-0.3 0.9-0.4 1.1-0.2 26.5 9.6 49.9 25.4 63.4 0.2 0.4-0.4 0.3-0.2 0.7q-0.1 0.4-0.2 0.7c-16.2-13.1-25.8-35.5-26.2-61.8q-3 7.6-5.2 15.3c0 21.8 10.8 41.3 29.3 52.4q-0.2 0.7-0.5 1.3c-17.6-10.5-28.6-28.7-29.9-49.2-1.1 4.2-1.9 8.5-2.6 12.7 4.4 18.2 14.3 33 29.5 44.1q-0.2 0.7-0.5 1.3c-14.7-10.7-24.6-24.8-29.5-42q-0.3 2.9-0.6 5.8c3.9 17.9 12.4 33.4 25.6 46q-0.3 0.6-0.6 1.3c-12.6-12-21-26.5-25.3-43.2l-0.1 0.6c2.8 19 9.5 36.7 20 52.6q-0.4 0.5-0.9 1.1c-9.5-14.4-16-30.3-19.3-47.2-0.4 19.2 2.8 38.4 9.6 56.6q-0.5 0.4-1.1 0.7c-4.8-12.6-7.8-25.7-9.1-39 0 13.2 1.2 26.8 3.5 40.7q-0.6 0.1-1.3 0.1z"/><path class="c" d="m357.1 797.6c-1 0-2-0.2-2.9-0.7-0.2-3.2-0.5-6.4-1-9.4q-0.4-2.3-0.8-4.4 0-0.2-0.1-0.4-0.2-1-0.4-2 1.2-8.6 2-17 1 0.1 2 0.1 0.4 0 0.7 0c1.3 7.9 3.3 17.2 5.4 25.3-0.6 2.9-0.4 4.4-0.6 7.3l-0.8 0.2c-1.1 0.7-2.3 1-3.5 1zm5.4-11.8c-1.7-7.1-3.4-15.1-4.6-22.1q2.8-0.3 5.5-1.7 1.6 4.2 3.5 8.3c-1.9 4.8-2.4 9.1-3.6 14zm-11.4-8.5c-1.5-5.7-3.3-11.3-5.2-16.8 2.1 1.5 4.3 2.5 6.7 3q-0.6 6.8-1.5 13.8zm16.5-8.7q-1.6-3.6-3-7.2 1.3-0.8 2.5-1.8c2.7-2.2 5.1-4.7 7.2-7.5q0.2 0.3 0.4 0.7c-2.5 5.2-5 10.5-7.1 15.8zm7.8-17.2q-0.1-0.2-0.3-0.4 1-1.4 1.9-2.8-0.8 1.6-1.6 3.2z"/><path class="d" d="m362 789.1c-2.1-8.1-4.1-17.4-5.4-25.3q0.6 0 1.3-0.1c1.2 7 2.9 15.4 4.7 22.5-0.2 0.9-0.6 2.9-0.6 2.9zm-10.1-8.4q-0.4-1.7-0.8-3.5 0.9-6.9 1.5-13.7 0.6 0.1 1.3 0.2-0.8 8.4-2 17zm15-10.4q-1.9-4.1-3.5-8.3 0.6-0.3 1.2-0.6 1.4 3.6 2.9 7.1-0.3 0.9-0.6 1.8zm7.8-17.6q-0.2-0.3-0.4-0.6 0.4-0.6 0.8-1.2 0.2 0.3 0.3 0.5-0.3 0.7-0.7 1.3z"/></svg>