
<svg version="1.2" xmlns="http://www.w3.org/2000/svg" viewBox="0 0 864 1296" width="864" height="1296"><style>.a{fill:#e92a2a}</style><path class="a" d="m412.3 753.3c-0.7 3.9-1.4 7.9-1.9 11.6-0.7 5.6-1.5 12.5-2.1 18.9-1.7-23.9-5.5-48.2-15.3-70.7-16.1-37.2-31.8-73.4-32.6-114.7 0-2.6 0.1-5.1 0.7-7.7 2.2-11.3 9.5 2.6 11.1 5.2 2.8 4.7 5.2 7.8 5.9 13.5 0.3 2.7 0.6 6 1.2 8.7 3.9 18.3 7.5 35.9 14 53.6 3.1 8.1 7 15.8 9.9 23.9 3.3 9.1 4.7 19.3 6.3 28.8 1.5 9.6 2.5 18.7 2.8 28.4z"/><path class="a" d="m444.4 753.9c0.7 3.8 1.3 7.7 1.8 11.4 0.7 5.6 1.5 11.9 2.1 18.2 1.8-23.9 5.3-47.5 15-70 16.2-37.2 32.7-73.4 33.5-114.7 0-2.6-0.2-6-0.9-8.5-3.4-12.5-12.4 6.2-12.6 6.7-2.5 4.8-4.2 8.1-4.8 13.8-0.3 2.6-0.6 5.1-1.2 7.8-3.9 18.3-7.3 35.3-13.9 52.9-3 8.1-7 15.8-10 23.9-3.3 9.2-4.7 20-6.2 29.5-1.6 9.6-2.4 19.3-2.8 29z"/></svg>