
<svg version="1.2" xmlns="http://www.w3.org/2000/svg" viewBox="0 0 864 1296" width="864" height="1296"><style>.a{fill:#e92a2a}</style><path class="a" d="m380.1 437c0 2.8-1.1 5.3-2.1 7.8-0.3 0.9-0.3 2-1.4 1.8-1-0.1-2-1.1-2.6-1.8q-1.5-1.4-3-2.8c-1.6-1.4-3.3-2.7-4.7-4.3-3.9-4.3-7.3-9.2-10.2-14.2 4-0.4 8-1.4 11.8-2.7l0.1 0.2c6.4 3.3 12 8.9 12.1 16z"/><path class="a" d="m366.2 439.5c-6.6-0.9-12.6-3.7-17.6-8.2h-0.1c0.2-2.4 0.4-5 0.9-7.4q2.8 0 5.5-0.2c2.4 4.2 5.2 8.4 8.2 12.2q1.5 1.8 3.1 3.6z"/><path class="a" d="m377.4 467.5c-1.3 8.6-7.1-2.1-9.4-5.5-4.4-6.5-7.2-14.6-8.1-22.7 2.4 0.9 5 1.4 7.7 1.7q0.9 0.9 1.8 1.8c1.1 1.1 2.2 2.2 3.4 3.2 1 0.9 2 2.7 3.5 3 4.3 4.8 2 13 1.1 18.5z"/><path class="a" d="m362.5 453.8c-4.9-1.5-9.2-4.2-12.6-8-1-4.3-1.5-8.6-1.4-12.9q4.6 3.9 10 5.9c0.6 5.1 1.9 10.2 4 15z"/><path class="a" d="m376.1 490c-2.3 1.2-4.2-1.1-5.7-2.5-1.3-1.1-2.4-2.5-3.4-3.9-5.5-7.6-6.5-19.9-6.3-29.1q1.2 0.5 2.4 0.8c3.1 7 7.6 13.3 13.1 18.2 0.4 3.3 0.8 6.6 1.1 9.9 0.2 1.9 0.9 5.5-1.2 6.6z"/><path class="a" d="m357.4 466.4c-0.9-2.6-2-5.8-3.3-9.1 0 0-1-2.5-1.3-3.4-0.7-1.8-1.4-3.6-2.1-5.5 2.6 2.4 5.5 4.3 8.8 5.7l-0.1 0.1c-0.1 4.9 0.1 10.3 1.1 15.5q-1.7-1.6-3.1-3.3z"/><path class="a" d="m377.8 510.2c-3.5 1.6-5.6-1.4-7.5-3.8-5.8-7.7-9.7-16.6-11.4-26.1 0-4.8-0.2-8.4-0.4-9.7q-0.1-0.6-0.3-1.4 1.3 1.4 2.7 2.6c1.7 7.4 5 14.2 11.1 18.6 2 1.4 3.5 1.8 4.5 1.5 0.3 0.9 0.6 1.8 0.7 2q0.6 1.9 1 3.8c0.5 2.6 0.7 5.3 1.1 7.9 0.3 1.7 0.4 3.8-1.5 4.6z"/><path class="a" d="m378.5 526.5c0.2 1.7-0.9 4.5-3 4.2-1-0.2-2.3-0.7-3.2-1.3-5.6-3.4-10.2-8.4-13.6-13.9 0.1-9.9 0.3-20.6 0.3-29.2q1.8 6.5 5 12.6c2.2 4.3 6.9 13.3 12.3 14.7 0.8 0.3 1.5 0.3 2 0.1q0.3 3.7 0.4 7.4c0 1.7-0.1 3.6-0.2 5.4z"/><path class="a" d="m475.5 437.1c-0.1 2.7 1.1 5.2 2.1 7.7 0.3 0.9 0.6 2.2 1.7 2 1-0.1 2.1-1.3 2.7-1.9 1-1 2-1.9 3-2.8 1.6-1.5 3.3-2.8 4.7-4.4 3.9-4.3 7.7-10 10.5-15-4-0.4-8.3-1-12-2.3l-0.4 0.1c-6.3 3.2-12 8.7-12.3 16.6z"/><path class="a" d="m488.6 439.9c6.6-0.9 13.7-4.1 18.8-8.6h0.1c-0.2-2.4-0.1-5.7-0.6-8.1-1.8 0-4.1-0.3-5.9-0.5-2.4 4.2-12.4 17.2-12.4 17.2z"/><path class="a" d="m478.4 468.1c1.3 8.6 7.3-2.7 9.6-6.1 4.3-6.5 7.2-14.6 8.1-22.7-2.5 0.9-5.5 1-8.1 1.3q-0.9 0.9-1.8 1.8c-1.1 1.1-2.3 2.2-3.4 3.2-1 1-1.7 2.3-3.1 2.6l-0.5 0.5c-4.3 4.8-1.8 13.4-0.9 18.9z"/><path class="a" d="m493.8 453.9c4.8-1.5 9.6-4.6 13-8.4 1-4.3 1-8.8 0.9-13.1-3.1 2.6-6.9 4.8-10.5 6.2-0.6 5.1-2.2 10.4-4.3 15.3z"/><path class="a" d="m479.8 490.3c2.2 1.2 4.3-1.3 5.8-2.7 1.3-1.2 2.3-2.5 3.4-3.9 5.5-7.7 6.5-20.8 6.3-29.9q-1.2 0.4-2.4 0.7c-3.1 7-8 13.4-13.6 18.3-0.3 3.3-0.7 7.4-1.1 10.7-0.2 1.8-0.8 5.4 1.3 6.5z"/><path class="a" d="m498.5 466.4l1.2-1.4c0.8-2.6 3.2-9 3.2-9 0 0 2.9-7.7 3.6-9.6-2.6 2.4-5.7 4.8-9 6.1l-1.4 0.9c0.2 4.9 0 11.1-0.9 16.3 1.1-1.1 1.8-1.7 2.8-2.8z"/><path class="a" d="m477.7 510.7c3.5 1.6 6.1-1.8 7.9-4.3 5.9-7.6 9.8-15.7 11.4-25.1l1-4.4c0.1-4.8 0-5.8 0.2-7.2 0.1-0.4 0.5-1.7 0.6-2.2-0.9 0.9-3.2 2.7-4.2 3.6-1.6 7.3-4.7 14-10.7 18.3-2 1.4-3.7 1.9-4.7 1.6-0.3 0.9-0.8 2.8-0.8 2.9q-0.6 1.9-1 3.9c-0.5 2.6-0.7 5.2-1.1 7.8-0.3 1.7 0 4.3 1.8 5.1z"/><path class="a" d="m477.5 526.5c-0.2 1.7 0.8 4.5 3 4.2 1-0.2 2.3-0.7 3.2-1.3 5.6-3.4 10-7.8 14.3-14.8 0 0-0.4-23.4-0.4-32-1.3 4.3-3.5 11.4-5.6 15.4-2.2 4.4-6.9 13.3-12.3 14.8-0.8 0.3-1.5 0.3-2 0.1-0.2 2.4-0.4 5.7-0.4 8.2 0 1.7 0.1 3.6 0.2 5.4z"/></svg>