
<svg version="1.2" xmlns="http://www.w3.org/2000/svg" viewBox="0 0 864 1296" width="864" height="1296"><style>.a{fill:#e92a2a}.b{fill:#d52626}</style><path class="a" d="m488 1012.8c3.5 15.7 6.5 30.4 5.5 35.8-0.2 0.8 0.1 3.9-0.5 4.3 9.6-8 9.7-24 9.7-36q0-2.7 0-5.1c0.2-10.8 0.6-35.5-0.9-45.8-7.5 18-9.6 17.5-18.4 24.4l4.5 19.9z"/><path class="a" d="m369.4 1013.9c-3.5 15.8-6.4 30.4-5.4 35.8 0.1 0.8-0.1 3.9 0.5 4.4-9.7-8.1-9.7-24.1-9.7-36.1q-0.1-2.6-0.1-5.1c-0.2-10.8-0.5-35.4 1-45.8 7.5 18 9.6 17.5 18.4 24.4l-4.5 20z"/><path class="b" d="m369.8 1011.3c-13.5-10-13.9-30.3-13.4-46.4 0-0.8-1.2-0.8-1.3 0-0.5 16.8 0.3 37.6 14.4 47.7 0.1-0.4 0.2-0.9 0.3-1.3z"/><path class="b" d="m487.9 1010.3c13.5-10 13.9-30.3 13.4-46.4 0-0.8 1.3-0.8 1.3 0 0.6 16.8-0.2 37.6-14.4 47.7-0.1-0.4-0.2-0.9-0.3-1.3z"/></svg>