
<svg version="1.2" xmlns="http://www.w3.org/2000/svg" viewBox="0 0 864 1296" width="864" height="1296"><style>.a{fill:#e92a2a}</style><path class="a" d="m435.7 334.5c2.9-7.7 14.7-38.9 18.4-47.9 4.2-10.1 6.8-32.4 6.8-32.6v-0.3c-0.1-1.7 0.1-4.5 0-5.8-1.6 1.7-5 4.2-7.6 6.4l-0.5 1.1c-4.2 14.6-8.2 24.8-11.6 32.9-2.3 5.6-4.3 10.4-5.7 15.2-2.8 9.6-1.4 21.2-0.6 26.3z"/><path class="a" d="m421.3 332.2c0.8-5.1 2.2-18.8-0.6-28.4-1.4-4.8-3.4-10-5.7-15.5-3.4-8.2-7.4-17.7-11.6-32.3l-0.3-0.7c-2.6-2.3-5.1-4.5-6.7-6.2 0 1.3-0.3 3.2-0.5 4.9v0.4c0 0.1 2.3 21.7 6.5 31.9 3.7 8.9 15.3 39.5 18.3 47.2z"/></svg>