
<svg version="1.2" xmlns="http://www.w3.org/2000/svg" viewBox="0 0 864 1296" width="864" height="1296"><style>.a{fill:#e92a2a}.b{fill:#d52626}</style><path class="a" d="m354.7 615.3c-1.9 14.3-4.5 33.9-18.1 41.5 0.1-0.5 0.3-1 0.4-1.5 3.4-14.1 6.1-25.3 5.6-32.7-1.1-14.6 3.2-34.8 5.9-45.3 8.5 9.1 8.2 23.5 6.5 35.5z"/><path class="b" d="m350.4 636.2q-0.1-0.1-0.1-0.2c-4.3-17.8-3.9-36.5 1-54.2 0.4 0.6 0.7 1.1 1 1.7-4.4 16.5-4.9 33.4-1.2 50q-0.4 1.4-0.7 2.7z"/><path class="b" d="m345.2 648.4c-1.6-4.7-2.8-9.7-3.5-14.6q0.2-0.9 0.3-1.8 0.2-1.4 0.4-2.7c0.3 3.5 0.8 7.5 1.8 11.3q0.3 1.1 0.7 2.5c0.4 1.2 0.9 2.5 1.2 3.9q-0.5 0.7-0.9 1.4z"/><path class="a" d="m501.8 613.2c-1.5-13.8-2.4-28.2 5.9-37.4 2.9 10.4 7.5 30.7 6.6 45.3-0.4 7.4 6.5 24.6 6.8 34.9-9.6-2.4-16.7-18.1-19.3-42.8z"/><path class="b" d="m511.8 647c1.5-4.8 2.8-10.7 3.4-15.7-0.1-0.6-0.1-1.4-0.2-1.9-0.2-1-0.4-1.7-0.5-2.6-0.3 3.5-0.9 8.5-1.9 12.3q-0.3 1.2-0.7 2.5c-0.3 1.2-0.8 2.6-1 3.9q0.4 0.8 0.9 1.5z"/><path class="b" d="m505.9 634.7q0.1 0 0.1-0.2c4-17.8 3.4-35.8-1.8-53.4q-0.5 0.8-0.9 1.6c4.7 16.5 5.3 32.7 1.9 49.4q0.3 1.3 0.7 2.6z"/></svg>