
<svg version="1.2" xmlns="http://www.w3.org/2000/svg" viewBox="0 0 864 1296" width="864" height="1296"><style>.a{fill:#e92a2a}.b{fill:#d52626}</style><path class="a" d="m459 272v0.1c8.8 7.8 13 20 19.2 29.7 12.6 19.7 35.9 7 53.8 4.2-0.9-0.6-2.9-2-4.1-3.1-2.6-2.4-6.6-6-15.2-11-4.7-2.7-12.2-6.4-19.3-9.8-12.6-6-24.7-12-28.3-16.4-1.4-1.7-2.3-5.7-2.9-9 0-0.2-0.8-0.2-0.8-0.4-0.5 3.3-1.4 10.5-2.4 15.7z"/><path class="b" d="m506.1 312c-20.3-8.7-36.1-27.3-42.8-48.3 0.3 0.5 1.6 2.6 2.2 3.1 7.3 19.8 22.9 36.8 42.7 44.6-0.8 0.2-0.6 0.6-1.4 0.7z"/><path class="b" d="m514.5 310.7c1.1-0.3 0.8-0.8 1.8-1-17.4-2.5-28.6-19.1-36.8-34q-1.1-0.6-2.1-1.1c8.5 15.7 19.1 32 35.8 35.9z"/><path class="b" d="m522.6 308.2c0.7-0.2 1.3-0.5 2-0.6-9.9-4.6-19.1-13-25-22.1-0.8-0.3-1.5-0.7-2.2-1.1 5.8 9.8 14.6 18.5 24.7 23.5z"/><path class="a" d="m397.5 271c-1-5.3-2-10.7-2.4-14-0.7 3.3-2.7 7.9-4.2 9.8-3.6 4.4-16 9.7-28.5 15.7-7.2 3.4-13.9 6.6-18.7 9.4-8.5 4.9-14.6 9.2-17.2 11.6-1.1 1-2.2 2-3.2 2.7 17.9 2.8 42 15.8 54.6-3.9 6.2-9.7 11-22.4 19.8-30.3z"/><path class="b" d="m350.4 311.9c20.3-8.7 35.6-25.5 42.3-46.6q-0.4 0.8-0.9 1.5-0.6 0.7-1.5 1.5c-7.3 19.7-22.5 35.3-42.2 43.1q1.2 0.3 2.3 0.5z"/><path class="b" d="m343.4 310.4c16.7-3.8 26.5-19 35-34.7q-1.1 0.5-2.1 1.1c-8.2 14.9-18.5 30.3-35.9 32.8q1.5 0.4 3 0.8z"/><path class="b" d="m333.9 308c10.1-5 18.5-12.7 24.3-22.5q-1.1 0.6-2.2 1.1c-5.9 9.1-14.2 16.3-24.1 20.9q1 0.2 2 0.5z"/></svg>