
<svg version="1.2" xmlns="http://www.w3.org/2000/svg" viewBox="0 0 864 1296" width="864" height="1296"><style>.a{fill:#e92a2a}</style><path class="a" d="m518.2 392.7c0 0 10 83.5 46.6 116.7 0.4 0.9-7 15.2-7 15.2 0 0-8.9-9.9-12.5-12.5-6.1-4.3-8.4-4.1-7.8-28.9-0.6-5-3.1-21.4-6.9-27.6-3.9-6.1-17.2-34.4-17.2-34.4l2.7-26z"/><path class="a" d="m339.2 393.1c0 0-9.9 84-46.6 117.2-0.3 0.9 6.7 14.4 6.7 14.4l12.4-11.7c0 0 8.5-4.9 7.8-29.6 0.7-5 3.2-21.5 7-27.7 3.8-6.1 17.1-34.4 17.1-34.4l-2.7-25.9z"/></svg>