
<svg version="1.2" xmlns="http://www.w3.org/2000/svg" viewBox="0 0 864 1296" width="864" height="1296"><style>.a{fill:#e92a2a}.b{fill:#d52626}.c{fill:#9a1a1c}.d{fill:#8d1819}</style><path class="a" d="m353 790.6c-4.2-20-13.3-40.2-17-58.1-4.3-20.5-5.8-37.3-4-57.9-3.3 14.7-6.6 32.4-9.4 50.3-3.8 24.7-4 49.8 8.9 118.5 1.4 7.7 16.3-2 19.7-9.9 2.2-5.3 3.9-13.6 4.1-19.4 0 0-0.4-14.5-2.3-23.5z"/><path class="b" d="m353.5 792c-16.3-18.4-27-41.5-30.7-66.4q0.1-5.4 0.3-10.4c2 27.6 12.5 53.7 30.1 74.2q0.1 1.3 0.3 2.6z"/><path class="b" d="m350.7 815.6c-11.4-10.6-24.5-29.7-29.2-45q-0.2-3.6-0.4-7.2c4 17.7 17.4 38.5 30.2 50.4z"/><path class="b" d="m353.2 804c-16-13.8-28.2-35.7-31.8-57-0.2-5.8 0-7.9 0.1-16.1 0 26.8 12.8 54.5 32 71.4q-0.1 0.9-0.3 1.7z"/><path class="b" d="m343.4 825.9c-6-4.5-14.5-18.5-18.1-28.1-0.2-2.1-1-5.6-1.2-7.7 3.7 12.6 13.4 29.5 20.7 34.7z"/><path class="b" d="m334.9 828.1c-0.7-0.1-1.4-0.2-2.1-0.4-0.7-1.1-3.5-5.5-4.4-8.5-0.2-1.3-1.4-3.2-0.1-3.6 3.3 8.3 6.6 12.5 6.6 12.5z"/><path class="c" d="m337.4 845.7q-1.2 0.1-2.5-0.1c-0.2-0.1-1.7-0.3-1.8-0.3-1.1-5.8-2.3-11.9-3.5-18.5 0.6 0.3 2.6 0.7 3.2 0.9 3.8 6 8 10.9 12.1 13.9-2.3 2.3-4.9 3.8-7.5 4.1zm8.7-5.4c-3.8-2.6-7.6-6.8-11.2-12.2q1 0.2 1.9 0.2 0.5 0 1.1-0.1c2-0.2 3.9-1 5.5-2.3q3.8 3 8 4.5-0.4 1.3-0.9 2.5c-1.2 2.8-2.7 5.3-4.4 7.4zm5.8-11.7q-3.7-1.3-7.1-3.9c2.1-2.1 3.9-4.9 5.3-8q0.3-0.6 0.5-1.2 1.6 1.5 3.2 2.9-0.6 4.1-1.4 8.1-0.2 1.1-0.5 2.1zm2.1-12.2q-1.4-1.3-2.7-2.6c1.2-3.7 1.9-7.7 2.2-11.9q0.4 0.3 0.7 0.6 0 0.6 0.1 1.1 0.1 1.9 0.1 3.7 0.1 2.4 0 4.7-0.2 2.2-0.4 4.4z"/><path class="d" d="m353.5 815.8c-0.8-0.6-1.5-1.4-2.2-2-0.2 0.5-0.4 1.1-0.7 1.7 0.8 0.7 1.9 1.9 2.8 2.6z"/><path class="d" d="m351.8 828.5c-2.1-0.7-5.1-2.5-7-3.8-0.6 0.5-0.8 0.8-1.4 1.2 2.2 1.8 5.5 3.7 7.9 4.5z"/><path class="d" d="m345.8 840.1c-3.1-2-8.1-8.2-10.9-12-0.6-0.1-1.5-0.2-2.1-0.4 2.7 4.5 8.2 11.3 11.7 13.6z"/><path class="a" d="m503.1 790.9c4.1-20 13.2-40.2 17-58 4.3-20.5 6.3-37.2 4.5-57.8 3.2 14.7 6.4 31.2 9.2 49 3.9 24.8 3.6 51-9.2 119.6-1.4 7.7-16.3-2-19.7-9.9-2.2-5.3-3.9-13.5-4.2-19.3 0 0 0.5-14.5 2.4-23.6z"/><path class="b" d="m502.6 792.3c16.3-18.4 26.9-41.5 30.6-66.3q0-5.4-0.3-10.5c-1.9 27.7-12.4 53.7-30 74.2q-0.2 1.3-0.3 2.6z"/><path class="b" d="m504.8 814.2c12.7-12 26.2-32.7 30.2-50.4q-0.2 3.6-0.5 7.2c-4.7 15.3-17.8 34.4-29.1 44.9z"/><path class="b" d="m502.9 804.4q-0.2-0.9-0.3-1.7c19.1-17 31.9-44.6 32-71.5 0.1 8.2 0.3 10.4 0.1 16.1-3.6 21.3-15.9 43.2-31.8 57.1z"/><path class="b" d="m511.3 825.1c7.2-5.2 17-22 20.6-34.7-0.2 2.2-1 5.6-1.2 7.7-3.5 9.6-12 23.6-18.1 28.2z"/><path class="c" d="m518.7 846c-2.7-0.2-5.3-1.8-7.5-4.1 4.1-3 8.2-7.8 12.1-13.9 0.6-0.2 2.5-0.6 3.1-0.8-1.2 6.5-2.3 12.7-3.4 18.4-0.2 0-1.7 0.3-1.9 0.3q-1.2 0.3-2.4 0.1zm-8.7-5.4c-1.7-2.1-3.2-4.6-4.4-7.4q-0.5-1.2-0.9-2.4 4.2-1.6 7.9-4.5c1.7 1.2 3.5 2.1 5.6 2.3q0.5 0 1.1 0 0.9 0 1.8-0.1c-3.5 5.3-7.4 9.5-11.1 12.1zm-5.9-11.7q-0.2-1-0.5-2-0.8-4.1-1.3-8.1 1.6-1.5 3.1-3 0.3 0.6 0.6 1.2c1.4 3.1 3.2 6 5.3 8.1q-3.4 2.5-7.2 3.8zm-2.1-12.2q-0.2-2.2-0.3-4.4-0.1-2.3-0.1-4.6 0.1-1.9 0.2-3.8 0-0.5 0.1-1 0.3-0.3 0.7-0.7c0.2 4.2 0.9 8.2 2.2 11.9q-1.4 1.3-2.8 2.6z"/><path class="d" d="m510.2 840.4c3.2-1.9 8.2-8.2 10.9-11.9 0.7-0.2 1.6-0.3 2.2-0.5-2.7 4.5-8.3 11.3-11.7 13.6z"/><path class="b" d="m527.7 815.8c1.2 0.4 0 2.2-0.1 3.5-1 3.1-3.8 7.5-4.5 8.6-0.6 0.2-1.4 0.3-2.1 0.4 0 0 3.3-4.2 6.7-12.5z"/><path class="d" d="m502.6 816.2c0.8-0.7 1.5-1.4 2.2-2.1 0.2 0.5 0.4 1.1 0.6 1.7-0.7 0.8-1.9 2-2.7 2.6z"/><path class="d" d="m504.3 828.9c2.1-0.7 5.1-2.5 7-3.8 0.6 0.5 0.8 0.7 1.4 1.2-2.2 1.8-5.5 3.6-7.9 4.5z"/></svg>