
<svg version="1.2" xmlns="http://www.w3.org/2000/svg" viewBox="0 0 864 1296" width="864" height="1296"><style>.a{fill:#e92a2a}.b{fill:#d52626}.c{fill:#9a1a1c}.d{fill:#8d1819}</style><path class="a" d="m408 787.6c-0.7-14.9-2.4-26.9-5.2-41.7-2-10.8-6-22.6-10.3-32.7-7 24-23.2 46.2-28.8 70.6-3 13.3-3.3 28.1 3.7 40.4 6.5 11.4 23.3 25.7 36.2 15.5 1-8 4.1-43.2 4.7-49.2z"/><path class="b" d="m377.4 829.7q-3.4 0-7-1-0.7-0.9-1.3-1.7 4.3 1.4 8.4 1.4c8.4 0 16.2-4.6 23.2-13.8q-0.1 1.2-0.2 2.3c-6.9 8.5-14.7 12.8-23.1 12.8z"/><path fill-rule="evenodd" class="b" d="m384.4 837.1q-3.5 0-7-1-1.3-1-2.4-2.2 4.7 1.9 9.5 1.9 5.6 0 11.1-2.6-0.8 1.1-1.7 2.1-4.7 1.8-9.5 1.8zm19.7-9.6q0 0 0 0 0 0.8-0.1 1.5 0.1-0.7 0.1-1.5z"/><path class="b" d="m362.2 795.6q0.1-0.9 0.2-1.8c22.6-17.5 27.5-47 30.9-77.5q0.5 1.3 1 2.5c-3.4 30.2-8.7 59.3-32.1 76.8z"/><path class="b" d="m362 803.9q0-0.6 0-1.3c14.3-3.3 25.5-21.3 32.7-34.6 3.2-5.9 6.3-12.7 8.6-19l0.2 0.5c0.1 0.9 0.1 1.3 0.2 2.2-3.9 10.4-9.2 20.4-15.2 28.7l-0.9 1.3c-6.7 9.3-14.2 19.8-25.6 22.2z"/><path class="b" d="m362.9 811.7q-0.2-0.6-0.3-1.3c25.1-1.2 38.8-34.6 42.7-45.7q0.1 1.5 0.3 3c-4.6 12.2-18.4 42.7-42.7 44z"/><path class="b" d="m365.2 819.6q-0.3-0.6-0.5-1.3c21.4-0.2 32.4-17.1 38.9-33q-0.4 2.4-0.7 4.8c-6.7 14.6-17.7 29.1-37.7 29.5zm41.5-38.9q-0.1-1.6-0.2-3.2 0 0 0 0 0.1 1.6 0.2 3.2 0 0 0 0z"/><path class="c" d="m393 842.8c-1.9 0-3.8-0.3-5.7-0.9q-2.3-0.8-4.5-2c3.7-0.1 7.3-1.1 10.2-3.7q0.5-0.5 0.9-0.9c3.4-1.3 7-3.5 10.3-6.1-0.4 3.6-0.6 7.1-1 10.1-3.2 2.4-6.8 3.5-10.2 3.5zm2.6-9.6c3.1-4.5 4.3-10.4 4.9-16.3 1.8-2.2 3.8-5.1 5.5-7.9-0.2 2.6-0.4 5.7-0.6 8.2-0.4 3.6-0.6 6.7-0.9 10-2.9 2.5-6 4.7-8.9 6zm5.1-18.6c0.2-2.7 0.3-5.5 0.5-8 0.4-5.5 1-11 1.7-16.5 1.5-3.2 2.9-6.8 4-9.8 0.1 1.6 0.4 3.5 0.6 5.2 0 1.6 0.1 3.4 0.2 5-0.3 3.1-0.6 6.3-0.8 9.4-0.2 2.3-0.5 4-0.7 6.3-1.7 2.9-3.7 6.1-5.5 8.4zm2.9-29.3c0.7-4.8 1.7-10.3 2.5-15.1 0.2 2.2 0.4 4.6 0.6 6.8-0.9 2.5-2 5.6-3.1 8.3z"/><path class="d" d="m400.5 816.9q0.1-1.1 0.2-2.3c1.8-2.3 3.8-5.4 5.5-8.4-0.1 0.6-0.1 2.3-0.1 2.7-1.7 2.7-3.8 5.8-5.6 8z"/><path class="d" d="m393.9 835.3q0.9-1 1.7-2.1c2.9-1.3 6-3.5 8.8-5.9-0.1 0.5-0.1 1.7-0.1 1.8-3.3 2.7-7 4.9-10.4 6.2z"/><path class="d" d="m402.9 790.1q0.3-2.4 0.7-4.8c1.1-2.7 2.2-5.8 3.1-8.3 0 1.1 0.2 2 0.3 3.1-1.1 3-2.6 6.8-4.1 10z"/><path class="a" d="m448.3 790.8c0.3 6 1.5 11.9 2 17.6 1 11.7 1.9 22.9 2.9 30.9 13 10.2 29-3.7 35.5-15.1 7-12.3 6.9-27.1 3.9-40.4-5.6-24.4-24.3-55.8-28.9-70.7-7.6 11.5-16.5 52.7-15.4 77.7z"/><path class="b" d="m478.7 829.7q3.4 0 7-1 0.7-0.9 1.3-1.7-4.3 1.4-8.4 1.4c-8.4 0-16.3-4.6-23.2-13.8q0.1 1.2 0.2 2.3c6.9 8.5 14.7 12.8 23.1 12.8z"/><path fill-rule="evenodd" class="b" d="m471.7 837.1q-4.8 0-9.5-1.8-0.9-1-1.7-2.1 5.5 2.6 11.1 2.6 4.8 0 9.5-1.9-1.1 1.2-2.4 2.2-3.5 1-7 1zm-19.7-9.6q0 0 0 0 0 0.8 0.1 1.5-0.1-0.7-0.1-1.5z"/><path class="b" d="m494.2 795.8q-0.1-0.9-0.2-1.8c-22.5-17.5-28.1-47.1-31.4-77.6q-0.5 1.2-1 2.5c3.4 30.2 8.9 59.2 32.3 76.7"/><path class="b" d="m493.6 804c-11.4-2.4-18.4-13-25.1-22.3l-0.9-1.3c-6-8.3-11.1-17.8-15.1-28.2q0.3-1.3 0.5-2.7v0.1c2.3 6.2 5.1 12.5 8.4 18.4 7.2 13.3 18.8 31.4 33.2 34.7 0 0.4-0.2 1-0.2 1.4z"/><path class="b" d="m493.5 810.4c-25.1-1.2-38.8-34.6-42.7-45.7q-0.1 1.5-0.3 3c4.6 12.2 18.4 42.7 42.8 44 0 0 0.1-0.8 0.2-1.3z"/><path class="b" d="m490.9 819.6c-20-0.4-31-14.9-37.7-29.5q-0.4-2.4-0.7-4.8c6.5 15.9 17.5 32.8 38.9 33q-0.2 0.7-0.5 1.3zm-41.5-38.9q0 0 0 0 0.1-1.6 0.2-3.2 0 0 0 0-0.1 1.6-0.2 3.2z"/><path class="c" d="m463.1 842.8c-3.4 0-6.7-1-9.9-3.5-0.4-2.9-0.7-6.3-1.1-10q5 4 10.1 6 0.4 0.4 0.9 0.9c2.9 2.6 6.5 3.6 10.2 3.7q-2.2 1.2-4.5 2c-1.9 0.6-3.8 0.9-5.7 0.9zm-2.6-9.6q-4.3-2-8.5-5.7c-0.3-3.2-0.7-6.8-1-10.4q-0.3-3.7-0.6-7.5 2.5 4.1 5.2 7.3c0.6 5.9 1.7 11.8 4.9 16.3zm-5.1-18.6q-2.7-3.5-5.3-8-0.2-3.4-0.6-6.9-0.3-4.6-0.7-9.3 0.1-2.3 0.2-4.7 0.2-2.5 0.4-5c1.1 3 2.3 6.2 3.8 9.4 0.7 5.5 1.3 11 1.7 16.5 0.2 2.5 0.3 5.3 0.5 8zm-2.9-29.3c-1.1-2.7-2-5.3-2.9-7.8q0.3-3.3 0.6-6.6c0.8 4.8 1.6 9.6 2.3 14.4z"/><path class="d" d="m455.6 816.9q-0.1-1.1-0.2-2.3-2.7-3.5-5.3-8 0.1 0.9 0.2 1.8 0 0.6 0.1 1.2 2.5 4.1 5.2 7.3z"/><path class="d" d="m462.2 835.3q-0.9-1-1.7-2.1-4.3-2-8.5-5.7 0 0.8 0.1 1.5 0 0.2 0 0.3 5 4 10.1 6z"/><path class="d" d="m453.2 790.1q-0.4-2.4-0.7-4.8c-1.1-2.7-2-5.3-2.9-7.8q-0.1 1.6-0.2 3.2c1.1 3 2.3 6.2 3.8 9.4z"/></svg>